M48
;Layer_Color=9474304
;FILE_FORMAT=2:5
INCH,LZ
;TYPE=PLATED
T1F00S00C0.01181
T2F00S00C0.01968
T6F00S00C0.03543
T7F00S00C0.04724
T9F00S00C0.12598
T10F00S00C0.15748
;TYPE=NON_PLATED
T11F00S00C0.02559
T12F00S00C0.03543
T13F00S00C0.04724
T14F00S00C0.11811
T15F00S00C0.12598
T16F00S00C0.19685
%
T01
X0070866Y0053543
X0006496Y005748
X-0140158Y0100787
X-0152756Y0107874
X-0156299
X-0158071Y0111811
X-0150984
X-0149409Y0119882
X-0159153
X-0138976Y0150197
X-0142392Y021295
X-0144928Y0215851
X-0131102Y0210236
X-0128543Y0207874
X-0123425Y0205413
X-0118307Y0202953
X-0118504Y0210236
X-0115748Y021295
X-0105118Y0214961
X-0104724Y0205413
X-0099606Y0207874
X-0090945Y0202953
X-0086614Y0214961
X-009252Y0152756
X-0094095Y0141929
X-008937Y0137795
X-006063Y0140551
X-0059547Y0155217
X-0064961Y0152756
X-0045669Y0149016
Y0158071
X-0033858Y0149016
X-0033071Y0168307
X0007874Y0149016
X001063Y0135827
X0014567Y0138976
X0009055Y0113779
X0011417Y011063
X0018898Y0109252
X00187Y0093504
X0018701Y0088582
X-0018307Y0094882
X-0033858Y0094488
Y0098426
X-0032283Y010315
X-0031293Y0089843
X-0029734Y0085682
X-0027776Y0076161
X-0054597
X-0065921Y0085682
X-0064567Y0094488
X-0051968Y0098426
X-0091732Y010315
X-0109252Y0101378
X-0109799Y0089843
X-0111811Y0149016
X-0111811Y0168307
X-0133858Y0160433
X0033071Y0149016
X0027559Y0139764
X003187Y0127953
X0039764Y0127165
X005315Y0123031
X0057874Y0118898
X0061811Y0111811
X005315Y0109252
X0071653Y0106693
X0087008Y0107677
X0093701Y0108268
Y0111417
Y0114567
Y0117717
Y0120866
Y0124016
Y0127165
X0096457Y0125591
Y0122441
Y0119291
Y0116142
Y0112992
Y0109843
Y0106693
X0093701Y0105118
X0084645Y0100393
Y0094488
X0077165Y0085827
X0053543Y0084646
X0037795Y008937
X0028543Y0086831
X0024607Y0068898
X0098819Y0079134
X0117126Y0096457
X0128149Y0094457
X0133858Y0108268
Y0111417
Y0114567
Y0117717
Y0120866
X0136614Y0119291
Y0116142
Y0112992
Y0109843
X013937Y0111417
Y0114567
Y0117717
Y0120866
X0131102Y0119291
Y0116142
Y0112992
X012126Y0114567
Y0117717
X0118504Y0119291
Y0116142
Y0112992
X0101969
Y0116142
Y0119291
X0099213Y0117717
Y0114567
X0098425Y0147638
X0128347Y0142913
X0127953Y0163386
X0135039Y0162598
Y0159843
X0132234Y0194685
X0141929Y0201969
X0125148Y0206496
X0113829Y0207677
X0122441Y0185039
X0161221Y0183858
Y0178346
Y0214764
X013937Y0108268
X0076772Y0133859
X0058661Y0147638
X0045669Y0168307
X0196638Y0279331
X0196555Y0283957
Y0289075
X0196752Y0295472
X0205807Y0290354
X0198819Y0334646
X0195276Y0352146
X021063Y0370079
X0181102Y0320866
X0140748Y0318897
X0140157Y0313779
X0135433Y0314566
X0129134Y0320079
X0124213Y0302756
X0121063
X0106693Y0302756
X0108268Y0314961
X01Y0327362
X0100394Y0334055
X0069685Y0333465
X0067716Y0322835
X0078745Y032283
X0080152Y0316964
X0082678Y0304134
X0083661Y0292717
X0095276Y0298819
X0107087Y0287795
X0113189Y0287992
X0118111Y0264763
X0121654Y026122
X0131706Y0254527
X0118111Y0247047
X0121654Y0243504
X0119685Y0222048
X0126378
X0137992Y0221654
X0161221Y0220276
Y0232874
X0116142Y0218504
X0094489Y0233267
X0090945Y0236811
Y0243504
X0094489Y0247047
X0100787Y0250394
X0094489Y0264763
X0090945Y026122
X0067716Y0272026
X0056693
X0048819Y0282283
X0045669Y029252
X004252Y0295276
X003189Y03
X0028976Y0292945
X0025591Y0309055
X004567Y0327362
X0049213Y0338386
X0048425Y0245669
X0045669Y024252
X0043701Y0249606
X0035463
X0033071Y0245669
X0027559Y024252
X0035039Y0229528
X0035827Y0222835
X0050787
X0056693Y0229528
X0138189Y0292126
X0139764Y0299213
X0140674Y0305438
X0151575Y0303937
X0150787Y0293701
Y0287008
X0142717Y0360728
X0174409Y0357087
X0169291Y0372047
X0006299Y034311
X-003622Y0314173
X-0049606Y0314567
X-0055118Y0308661
X-0057739Y0310495
X-0068897Y0317945
X-0086614Y0311417
X-008937
X-0108268Y0301181
X-0116142
X-0125591Y0311417
X-012874
X-0116142Y0275665
X-0108268
X-0108661Y0261024
X-0120866Y0257169
X-0108858Y0235827
X-0106299Y0232283
X-0096063Y0241339
Y0220669
X-0101181Y021782
X-0120866Y0217126
X-0120866Y0220866
X-0118286Y0223228
X-0125984Y0218359
X-0133625Y0225984
X-0136221Y0223622
X-0057156Y0223228
X-0054597Y0225984
X-0051968Y0229134
X-0048819Y0232283
X-0041339Y0235827
X-003622Y0241339
Y0279134
X-003878Y028189
Y0302362
X-0063386Y0283858
X-006063Y0257169
X001063Y0229134
X0012992Y0231496
X-0132874Y0367126
Y0371063
X-0135827Y0369094
Y0365158
Y0373031
X-0148622Y0371063
X-0151575Y0373031
X-0154528Y0371063
X-015748Y0373031
X-0160433Y0371063
X-0163386Y0373031
X-0166339Y0371063
X-0169291Y0373031
X-0146653Y0359252
X-0143701
X-0140748
X-0147638Y0317945
X-016437Y0318701
Y0322441
X-0164567Y0312992
X-0167323
X-0165354Y0301181
X-0196752Y0297441
X-019685Y028937
X-0196752Y0281299
X-015748Y027126
X-0151575Y0261024
X-0147638Y0247945
X-015Y0220866
X-0147464Y0218359
X-0187992Y0338189
X-0187008Y0387795
X-0170276Y0386811
X-0169291Y0376969
X-0166339Y0375
Y0378937
X-0163386Y0376969
X-0160433Y0375
Y0378937
X-015748Y0376969
X-0154528Y0375
Y0378937
X-0151575Y0376969
X-0148622Y0375
Y0378937
X-0144685Y0375
X-0141732
X-0138779
X-0135827Y0376969
Y0380906
X-0132874Y0378937
Y0375
X0138779Y0377658
X015315Y0379528
X016811Y0381496
T02
X-0177165Y009252
Y0096457
Y0104331
Y0108268
Y0116142
Y0120079
X0177165Y0120079
Y0116142
Y0108268
Y0104331
Y0096457
Y009252
Y0318898
Y0322835
Y0330709
Y0334646
Y034252
Y0346457
X0175591Y035
X0172835Y0352756
X0169291Y0354331
X0165354
X015748
X0153543
X0145669
X0141732
X0009843
X0001969
X-0001969
X-0009843
X-0141732
X-0145669
X-0153543
X-015748
X-0165354
X-0169291
X-0172835Y0352756
X-0175591Y035
X-0177165Y0346457
Y034252
Y0334646
Y0330709
Y0322835
Y0318898
T06
X-001Y007874
X0
X001
X0159291Y0106142
Y0116142
X0169291
Y0126142
X0159291Y0126142
X0169291Y0106142
X0197774Y0111778
X0191346Y0119438
X0204202Y0104117
X021063Y0096457
Y0151575
X0204202Y0159235
X0197774Y0166896
X0191346Y0174556
X-0104331Y0372953
Y0382953
X0135354Y0387795
X0145354
X0155354
X0165354
X0175354
X0185354
T07
X0137795Y0129921
T09
X-0086614Y0070866
X0086614
X0161417Y0338583
T10
X0045Y0027559
X0085
X0
X-0045
X-0085
T11
X0197433Y0276024
Y029878
X0084213Y0334244
X0061457
X-0197433Y0300748
Y0277992
T12
X0169291Y017815
Y0189961
Y0214567
Y0226378
X013189Y0369094
X0120079
X-0208661Y0334646
Y0322835
T13
X0139764Y0264764
X0159449Y0245079
X0169291Y0245079
Y0284449
X0159449
T14
X-0125984Y042126
X0125984
T15
X-0059055Y0338583
X-0161417Y0338583
T16
X0192913Y0370079
X-0192913
M30
