G04*
G04 #@! TF.GenerationSoftware,Altium Limited,Altium Designer,20.0.13 (296)*
G04*
G04 Layer_Color=128*
%FSLAX25Y25*%
%MOIN*%
G70*
G01*
G75*
%ADD11C,0.00984*%
%ADD12C,0.00394*%
%ADD13C,0.00787*%
%ADD15C,0.00591*%
%ADD16C,0.01575*%
%ADD190C,0.00200*%
G36*
X761965Y-141778D02*
X763683D01*
Y-142065D01*
X764542D01*
Y-142351D01*
X765401D01*
Y-142637D01*
X766260D01*
Y-142924D01*
X766832D01*
Y-143210D01*
X767119D01*
Y-143496D01*
X767691D01*
Y-143783D01*
X767978D01*
Y-144069D01*
X768550D01*
Y-144355D01*
X768837D01*
Y-144641D01*
X769123D01*
Y-144928D01*
X769409D01*
Y-145214D01*
X769696D01*
Y-145501D01*
X769982D01*
Y-145787D01*
X770268D01*
Y-146073D01*
Y-146359D01*
X770554D01*
Y-146646D01*
X770841D01*
Y-146932D01*
Y-147218D01*
X771127D01*
Y-147505D01*
X771414D01*
Y-147791D01*
Y-148077D01*
X771700D01*
Y-148364D01*
Y-148650D01*
Y-148936D01*
X771986D01*
Y-149223D01*
Y-149509D01*
Y-149795D01*
X772272D01*
Y-150082D01*
Y-150368D01*
Y-150654D01*
Y-150940D01*
X772559D01*
Y-151227D01*
Y-151513D01*
Y-151799D01*
Y-152086D01*
Y-152372D01*
X772845D01*
Y-152658D01*
Y-152945D01*
Y-153231D01*
Y-153517D01*
Y-153804D01*
Y-154090D01*
Y-154376D01*
Y-154663D01*
Y-154949D01*
Y-155235D01*
Y-155521D01*
Y-155808D01*
Y-156094D01*
Y-156380D01*
Y-156667D01*
Y-156953D01*
Y-157239D01*
Y-157526D01*
Y-157812D01*
Y-158098D01*
X772559D01*
Y-158385D01*
Y-158671D01*
Y-158957D01*
Y-159244D01*
Y-159530D01*
Y-159816D01*
Y-160102D01*
X772272D01*
Y-160389D01*
Y-160675D01*
Y-160961D01*
Y-161248D01*
Y-161534D01*
X771986D01*
Y-161820D01*
Y-162107D01*
Y-162393D01*
Y-162679D01*
Y-162966D01*
X771700D01*
Y-163252D01*
Y-163538D01*
Y-163824D01*
X771414D01*
Y-164111D01*
Y-164397D01*
Y-164683D01*
Y-164970D01*
X771127D01*
Y-165256D01*
Y-165542D01*
Y-165829D01*
X770841D01*
Y-166115D01*
Y-166401D01*
X770554D01*
Y-166688D01*
Y-166974D01*
Y-167260D01*
X770268D01*
Y-167547D01*
Y-167833D01*
X769982D01*
Y-168119D01*
Y-168405D01*
X769696D01*
Y-168692D01*
Y-168978D01*
X769409D01*
Y-169264D01*
X769123D01*
Y-169551D01*
Y-169837D01*
X768837D01*
Y-170123D01*
X768550D01*
Y-170410D01*
X768264D01*
Y-170696D01*
Y-170982D01*
X767978D01*
Y-171269D01*
X767691D01*
Y-171555D01*
X767405D01*
Y-171841D01*
X767119D01*
Y-172127D01*
X766832D01*
Y-172414D01*
X766260D01*
Y-172700D01*
X765974D01*
Y-172986D01*
X765401D01*
Y-173273D01*
X765115D01*
Y-173559D01*
X764542D01*
Y-173845D01*
X763683D01*
Y-174132D01*
X762824D01*
Y-174418D01*
X761965D01*
Y-174704D01*
X760247D01*
Y-174991D01*
X755094D01*
Y-174704D01*
X752517D01*
Y-174418D01*
X750513D01*
Y-174132D01*
X749081D01*
Y-173845D01*
X747649D01*
Y-173559D01*
X746218D01*
Y-173845D01*
Y-174132D01*
Y-174418D01*
Y-174704D01*
Y-174991D01*
Y-175277D01*
Y-175563D01*
X745932D01*
Y-175850D01*
Y-176136D01*
Y-176422D01*
Y-176709D01*
Y-176995D01*
Y-177281D01*
X745645D01*
Y-177568D01*
Y-177854D01*
Y-178140D01*
Y-178426D01*
Y-178713D01*
Y-178999D01*
X745359D01*
Y-179285D01*
Y-179572D01*
Y-179858D01*
Y-180144D01*
Y-180431D01*
Y-180717D01*
Y-181003D01*
X745073D01*
Y-181290D01*
Y-181576D01*
Y-181862D01*
Y-182149D01*
Y-182435D01*
Y-182721D01*
X744786D01*
Y-183007D01*
Y-183294D01*
Y-183580D01*
Y-183866D01*
Y-184153D01*
Y-184439D01*
X744500D01*
Y-184725D01*
Y-185012D01*
Y-185298D01*
Y-185584D01*
Y-185871D01*
Y-186157D01*
Y-186443D01*
X744214D01*
Y-186730D01*
Y-187016D01*
Y-187302D01*
Y-187588D01*
Y-187875D01*
Y-188161D01*
X743927D01*
Y-188447D01*
Y-188734D01*
Y-189020D01*
Y-189306D01*
Y-189593D01*
Y-189879D01*
X743641D01*
Y-190165D01*
Y-190452D01*
Y-190738D01*
Y-191024D01*
Y-191311D01*
Y-191597D01*
Y-191883D01*
X730184D01*
Y-191597D01*
X730471D01*
Y-191311D01*
Y-191024D01*
Y-190738D01*
Y-190452D01*
Y-190165D01*
X730757D01*
Y-189879D01*
Y-189593D01*
Y-189306D01*
Y-189020D01*
Y-188734D01*
Y-188447D01*
Y-188161D01*
X731043D01*
Y-187875D01*
Y-187588D01*
Y-187302D01*
Y-187016D01*
Y-186730D01*
Y-186443D01*
X731330D01*
Y-186157D01*
Y-185871D01*
Y-185584D01*
Y-185298D01*
Y-185012D01*
Y-184725D01*
X731616D01*
Y-184439D01*
Y-184153D01*
Y-183866D01*
Y-183580D01*
Y-183294D01*
Y-183007D01*
Y-182721D01*
X731902D01*
Y-182435D01*
Y-182149D01*
Y-181862D01*
Y-181576D01*
Y-181290D01*
Y-181003D01*
X732189D01*
Y-180717D01*
Y-180431D01*
Y-180144D01*
Y-179858D01*
Y-179572D01*
Y-179285D01*
X732475D01*
Y-178999D01*
Y-178713D01*
Y-178426D01*
Y-178140D01*
Y-177854D01*
Y-177568D01*
X732761D01*
Y-177281D01*
Y-176995D01*
Y-176709D01*
Y-176422D01*
Y-176136D01*
Y-175850D01*
Y-175563D01*
X733047D01*
Y-175277D01*
Y-174991D01*
Y-174704D01*
Y-174418D01*
Y-174132D01*
Y-173845D01*
X733334D01*
Y-173559D01*
Y-173273D01*
Y-172986D01*
Y-172700D01*
Y-172414D01*
Y-172127D01*
X733620D01*
Y-171841D01*
Y-171555D01*
Y-171269D01*
Y-170982D01*
Y-170696D01*
Y-170410D01*
X733907D01*
Y-170123D01*
Y-169837D01*
Y-169551D01*
Y-169264D01*
Y-168978D01*
Y-168692D01*
Y-168405D01*
X734193D01*
Y-168119D01*
Y-167833D01*
Y-167547D01*
Y-167260D01*
Y-166974D01*
Y-166688D01*
X734479D01*
Y-166401D01*
Y-166115D01*
Y-165829D01*
Y-165542D01*
Y-165256D01*
Y-164970D01*
X734765D01*
Y-164683D01*
Y-164397D01*
Y-164111D01*
Y-163824D01*
Y-163538D01*
Y-163252D01*
Y-162966D01*
X735052D01*
Y-162679D01*
Y-162393D01*
Y-162107D01*
Y-161820D01*
Y-161534D01*
Y-161248D01*
X735338D01*
Y-160961D01*
Y-160675D01*
Y-160389D01*
Y-160102D01*
Y-159816D01*
Y-159530D01*
X735624D01*
Y-159244D01*
Y-158957D01*
Y-158671D01*
Y-158385D01*
Y-158098D01*
Y-157812D01*
X735911D01*
Y-157526D01*
Y-157239D01*
Y-156953D01*
Y-156667D01*
Y-156380D01*
Y-156094D01*
Y-155808D01*
X736197D01*
Y-155521D01*
Y-155235D01*
Y-154949D01*
Y-154663D01*
Y-154376D01*
Y-154090D01*
X736483D01*
Y-153804D01*
Y-153517D01*
Y-153231D01*
Y-152945D01*
Y-152658D01*
Y-152372D01*
X736770D01*
Y-152086D01*
Y-151799D01*
Y-151513D01*
Y-151227D01*
Y-150940D01*
Y-150654D01*
Y-150368D01*
X737056D01*
Y-150082D01*
Y-149795D01*
Y-149509D01*
Y-149223D01*
Y-148936D01*
Y-148650D01*
X737342D01*
Y-148364D01*
Y-148077D01*
Y-147791D01*
Y-147505D01*
Y-147218D01*
Y-146932D01*
X737629D01*
Y-146646D01*
Y-146359D01*
Y-146073D01*
Y-145787D01*
Y-145501D01*
Y-145214D01*
Y-144928D01*
X737915D01*
Y-144641D01*
Y-144355D01*
Y-144069D01*
Y-143783D01*
Y-143496D01*
Y-143210D01*
X738201D01*
Y-142924D01*
Y-142637D01*
Y-142351D01*
Y-142065D01*
Y-141778D01*
Y-141492D01*
X761965D01*
Y-141778D01*
D02*
G37*
G36*
X793173Y-138343D02*
Y-138629D01*
X792887D01*
Y-138915D01*
Y-139202D01*
Y-139488D01*
Y-139774D01*
Y-140060D01*
Y-140347D01*
X792601D01*
Y-140633D01*
Y-140919D01*
Y-141206D01*
Y-141492D01*
Y-141778D01*
Y-142065D01*
X792314D01*
Y-142351D01*
Y-142637D01*
Y-142924D01*
Y-143210D01*
Y-143496D01*
Y-143783D01*
Y-144069D01*
X792028D01*
Y-144355D01*
Y-144641D01*
Y-144928D01*
Y-145214D01*
Y-145501D01*
Y-145787D01*
X791742D01*
Y-146073D01*
Y-146359D01*
Y-146646D01*
Y-146932D01*
Y-147218D01*
Y-147505D01*
X791455D01*
Y-147791D01*
Y-148077D01*
Y-148364D01*
Y-148650D01*
Y-148936D01*
Y-149223D01*
Y-149509D01*
X791169D01*
Y-149795D01*
Y-150082D01*
Y-150368D01*
Y-150654D01*
Y-150940D01*
Y-151227D01*
X790883D01*
Y-151513D01*
Y-151799D01*
Y-152086D01*
Y-152372D01*
Y-152658D01*
Y-152945D01*
X790596D01*
Y-153231D01*
Y-153517D01*
Y-153804D01*
Y-154090D01*
Y-154376D01*
Y-154663D01*
X790310D01*
Y-154949D01*
Y-155235D01*
Y-155521D01*
Y-155808D01*
Y-156094D01*
Y-156380D01*
Y-156667D01*
X790024D01*
Y-156953D01*
Y-157239D01*
Y-157526D01*
Y-157812D01*
Y-158098D01*
Y-158385D01*
X789738D01*
Y-158671D01*
Y-158957D01*
X790310D01*
Y-158671D01*
X790596D01*
Y-158385D01*
X790883D01*
Y-158098D01*
X791455D01*
Y-157812D01*
X791742D01*
Y-157526D01*
X792028D01*
Y-157239D01*
X792601D01*
Y-156953D01*
X793173D01*
Y-156667D01*
X793460D01*
Y-156380D01*
X794032D01*
Y-156094D01*
X794891D01*
Y-155808D01*
X795464D01*
Y-155521D01*
X796323D01*
Y-155235D01*
X797754D01*
Y-154949D01*
X804053D01*
Y-155235D01*
X805198D01*
Y-155521D01*
X806057D01*
Y-155808D01*
X806630D01*
Y-156094D01*
X806916D01*
Y-156380D01*
X807489D01*
Y-156667D01*
X807775D01*
Y-156953D01*
X808062D01*
Y-157239D01*
X808348D01*
Y-157526D01*
X808634D01*
Y-157812D01*
Y-158098D01*
X808920D01*
Y-158385D01*
Y-158671D01*
X809207D01*
Y-158957D01*
Y-159244D01*
Y-159530D01*
X809493D01*
Y-159816D01*
Y-160102D01*
Y-160389D01*
Y-160675D01*
X809779D01*
Y-160961D01*
Y-161248D01*
Y-161534D01*
Y-161820D01*
Y-162107D01*
Y-162393D01*
Y-162679D01*
Y-162966D01*
Y-163252D01*
Y-163538D01*
Y-163824D01*
Y-164111D01*
Y-164397D01*
Y-164683D01*
Y-164970D01*
Y-165256D01*
Y-165542D01*
Y-165829D01*
X809493D01*
Y-166115D01*
Y-166401D01*
Y-166688D01*
Y-166974D01*
Y-167260D01*
Y-167547D01*
Y-167833D01*
X809207D01*
Y-168119D01*
Y-168405D01*
Y-168692D01*
Y-168978D01*
Y-169264D01*
Y-169551D01*
Y-169837D01*
X808920D01*
Y-170123D01*
Y-170410D01*
Y-170696D01*
Y-170982D01*
Y-171269D01*
Y-171555D01*
X808634D01*
Y-171841D01*
Y-172127D01*
Y-172414D01*
Y-172700D01*
Y-172986D01*
Y-173273D01*
X808348D01*
Y-173559D01*
Y-173845D01*
Y-174132D01*
Y-174418D01*
Y-174704D01*
Y-174991D01*
X808062D01*
Y-175277D01*
Y-175563D01*
Y-175850D01*
Y-176136D01*
Y-176422D01*
Y-176709D01*
Y-176995D01*
X807775D01*
Y-177281D01*
Y-177568D01*
Y-177854D01*
Y-178140D01*
Y-178426D01*
Y-178713D01*
X807489D01*
Y-178999D01*
Y-179285D01*
Y-179572D01*
Y-179858D01*
Y-180144D01*
Y-180431D01*
X807203D01*
Y-180717D01*
Y-181003D01*
Y-181290D01*
Y-181576D01*
Y-181862D01*
Y-182149D01*
Y-182435D01*
X806916D01*
Y-182721D01*
Y-183007D01*
Y-183294D01*
Y-183580D01*
Y-183866D01*
Y-184153D01*
X806630D01*
Y-184439D01*
Y-184725D01*
Y-185012D01*
Y-185298D01*
Y-185584D01*
Y-185871D01*
X806344D01*
Y-186157D01*
Y-186443D01*
Y-186730D01*
Y-187016D01*
Y-187302D01*
Y-187588D01*
X806057D01*
Y-187875D01*
Y-188161D01*
Y-188447D01*
Y-188734D01*
Y-189020D01*
Y-189306D01*
Y-189593D01*
X805771D01*
Y-189879D01*
Y-190165D01*
Y-190452D01*
Y-190738D01*
Y-191024D01*
Y-191311D01*
X805485D01*
Y-191597D01*
Y-191883D01*
X792314D01*
Y-191597D01*
Y-191311D01*
X792601D01*
Y-191024D01*
Y-190738D01*
Y-190452D01*
Y-190165D01*
Y-189879D01*
Y-189593D01*
X792887D01*
Y-189306D01*
Y-189020D01*
Y-188734D01*
Y-188447D01*
Y-188161D01*
Y-187875D01*
Y-187588D01*
X793173D01*
Y-187302D01*
Y-187016D01*
Y-186730D01*
Y-186443D01*
Y-186157D01*
Y-185871D01*
X793460D01*
Y-185584D01*
Y-185298D01*
Y-185012D01*
Y-184725D01*
Y-184439D01*
Y-184153D01*
X793746D01*
Y-183866D01*
Y-183580D01*
Y-183294D01*
Y-183007D01*
Y-182721D01*
Y-182435D01*
Y-182149D01*
X794032D01*
Y-181862D01*
Y-181576D01*
Y-181290D01*
Y-181003D01*
Y-180717D01*
Y-180431D01*
X794318D01*
Y-180144D01*
Y-179858D01*
Y-179572D01*
Y-179285D01*
Y-178999D01*
Y-178713D01*
Y-178426D01*
X794605D01*
Y-178140D01*
Y-177854D01*
Y-177568D01*
Y-177281D01*
Y-176995D01*
Y-176709D01*
X794891D01*
Y-176422D01*
Y-176136D01*
Y-175850D01*
Y-175563D01*
Y-175277D01*
Y-174991D01*
X795177D01*
Y-174704D01*
Y-174418D01*
Y-174132D01*
Y-173845D01*
Y-173559D01*
Y-173273D01*
X795464D01*
Y-172986D01*
Y-172700D01*
Y-172414D01*
Y-172127D01*
Y-171841D01*
Y-171555D01*
Y-171269D01*
X795750D01*
Y-170982D01*
Y-170696D01*
Y-170410D01*
Y-170123D01*
Y-169837D01*
Y-169551D01*
X796036D01*
Y-169264D01*
Y-168978D01*
Y-168692D01*
Y-168405D01*
Y-168119D01*
Y-167833D01*
Y-167547D01*
X796323D01*
Y-167260D01*
Y-166974D01*
Y-166688D01*
Y-166401D01*
Y-166115D01*
Y-165829D01*
X796036D01*
Y-165542D01*
Y-165256D01*
X795750D01*
Y-164970D01*
X795464D01*
Y-164683D01*
X794891D01*
Y-164397D01*
X793173D01*
Y-164683D01*
X791742D01*
Y-164970D01*
X790883D01*
Y-165256D01*
X790310D01*
Y-165542D01*
X790024D01*
Y-165829D01*
X789451D01*
Y-166115D01*
X789165D01*
Y-166401D01*
X788878D01*
Y-166688D01*
Y-166974D01*
X788592D01*
Y-167260D01*
Y-167547D01*
Y-167833D01*
X788306D01*
Y-168119D01*
Y-168405D01*
Y-168692D01*
Y-168978D01*
Y-169264D01*
Y-169551D01*
X788020D01*
Y-169837D01*
Y-170123D01*
Y-170410D01*
Y-170696D01*
Y-170982D01*
Y-171269D01*
Y-171555D01*
X787733D01*
Y-171841D01*
Y-172127D01*
Y-172414D01*
Y-172700D01*
Y-172986D01*
Y-173273D01*
X787447D01*
Y-173559D01*
Y-173845D01*
Y-174132D01*
Y-174418D01*
Y-174704D01*
Y-174991D01*
X787161D01*
Y-175277D01*
Y-175563D01*
Y-175850D01*
Y-176136D01*
Y-176422D01*
Y-176709D01*
X786874D01*
Y-176995D01*
Y-177281D01*
Y-177568D01*
Y-177854D01*
Y-178140D01*
Y-178426D01*
Y-178713D01*
X786588D01*
Y-178999D01*
Y-179285D01*
Y-179572D01*
Y-179858D01*
Y-180144D01*
Y-180431D01*
X786302D01*
Y-180717D01*
Y-181003D01*
Y-181290D01*
Y-181576D01*
Y-181862D01*
Y-182149D01*
X786015D01*
Y-182435D01*
Y-182721D01*
Y-183007D01*
Y-183294D01*
Y-183580D01*
Y-183866D01*
Y-184153D01*
X785729D01*
Y-184439D01*
Y-184725D01*
Y-185012D01*
Y-185298D01*
Y-185584D01*
Y-185871D01*
X785443D01*
Y-186157D01*
Y-186443D01*
Y-186730D01*
Y-187016D01*
Y-187302D01*
Y-187588D01*
X785156D01*
Y-187875D01*
Y-188161D01*
Y-188447D01*
Y-188734D01*
Y-189020D01*
Y-189306D01*
X784870D01*
Y-189593D01*
Y-189879D01*
Y-190165D01*
Y-190452D01*
Y-190738D01*
Y-191024D01*
Y-191311D01*
X784584D01*
Y-191597D01*
Y-191883D01*
X771414D01*
Y-191597D01*
Y-191311D01*
X771700D01*
Y-191024D01*
Y-190738D01*
Y-190452D01*
Y-190165D01*
Y-189879D01*
Y-189593D01*
Y-189306D01*
X771986D01*
Y-189020D01*
Y-188734D01*
Y-188447D01*
Y-188161D01*
Y-187875D01*
Y-187588D01*
X772272D01*
Y-187302D01*
Y-187016D01*
Y-186730D01*
Y-186443D01*
Y-186157D01*
Y-185871D01*
X772559D01*
Y-185584D01*
Y-185298D01*
Y-185012D01*
Y-184725D01*
Y-184439D01*
Y-184153D01*
Y-183866D01*
X772845D01*
Y-183580D01*
Y-183294D01*
Y-183007D01*
Y-182721D01*
Y-182435D01*
Y-182149D01*
X773131D01*
Y-181862D01*
Y-181576D01*
Y-181290D01*
Y-181003D01*
Y-180717D01*
Y-180431D01*
X773418D01*
Y-180144D01*
Y-179858D01*
Y-179572D01*
Y-179285D01*
Y-178999D01*
Y-178713D01*
X773704D01*
Y-178426D01*
Y-178140D01*
Y-177854D01*
Y-177568D01*
Y-177281D01*
Y-176995D01*
Y-176709D01*
X773990D01*
Y-176422D01*
Y-176136D01*
Y-175850D01*
Y-175563D01*
Y-175277D01*
Y-174991D01*
X774277D01*
Y-174704D01*
Y-174418D01*
Y-174132D01*
Y-173845D01*
Y-173559D01*
Y-173273D01*
X774563D01*
Y-172986D01*
Y-172700D01*
Y-172414D01*
Y-172127D01*
Y-171841D01*
Y-171555D01*
Y-171269D01*
X774849D01*
Y-170982D01*
Y-170696D01*
Y-170410D01*
Y-170123D01*
Y-169837D01*
Y-169551D01*
X775136D01*
Y-169264D01*
Y-168978D01*
Y-168692D01*
Y-168405D01*
Y-168119D01*
Y-167833D01*
X775422D01*
Y-167547D01*
Y-167260D01*
Y-166974D01*
Y-166688D01*
Y-166401D01*
Y-166115D01*
X775708D01*
Y-165829D01*
Y-165542D01*
Y-165256D01*
Y-164970D01*
Y-164683D01*
Y-164397D01*
Y-164111D01*
X775994D01*
Y-163824D01*
Y-163538D01*
Y-163252D01*
Y-162966D01*
Y-162679D01*
Y-162393D01*
X776281D01*
Y-162107D01*
Y-161820D01*
Y-161534D01*
Y-161248D01*
Y-160961D01*
Y-160675D01*
X776567D01*
Y-160389D01*
Y-160102D01*
Y-159816D01*
Y-159530D01*
Y-159244D01*
Y-158957D01*
X776853D01*
Y-158671D01*
Y-158385D01*
Y-158098D01*
Y-157812D01*
Y-157526D01*
Y-157239D01*
Y-156953D01*
X777140D01*
Y-156667D01*
Y-156380D01*
Y-156094D01*
Y-155808D01*
Y-155521D01*
Y-155235D01*
X777426D01*
Y-154949D01*
Y-154663D01*
Y-154376D01*
Y-154090D01*
Y-153804D01*
Y-153517D01*
X777712D01*
Y-153231D01*
Y-152945D01*
Y-152658D01*
Y-152372D01*
Y-152086D01*
Y-151799D01*
Y-151513D01*
X777999D01*
Y-151227D01*
Y-150940D01*
Y-150654D01*
Y-150368D01*
Y-150082D01*
Y-149795D01*
X778285D01*
Y-149509D01*
Y-149223D01*
Y-148936D01*
Y-148650D01*
Y-148364D01*
Y-148077D01*
X778571D01*
Y-147791D01*
Y-147505D01*
Y-147218D01*
Y-146932D01*
Y-146646D01*
Y-146359D01*
X778858D01*
Y-146073D01*
Y-145787D01*
Y-145501D01*
Y-145214D01*
Y-144928D01*
Y-144641D01*
Y-144355D01*
X779144D01*
Y-144069D01*
Y-143783D01*
Y-143496D01*
Y-143210D01*
Y-142924D01*
Y-142637D01*
X779430D01*
Y-142351D01*
Y-142065D01*
Y-141778D01*
Y-141492D01*
Y-141206D01*
Y-140919D01*
X779716D01*
Y-140633D01*
Y-140347D01*
Y-140060D01*
Y-139774D01*
Y-139488D01*
Y-139202D01*
Y-138915D01*
X780003D01*
Y-138629D01*
Y-138343D01*
Y-138056D01*
X793173D01*
Y-138343D01*
D02*
G37*
G36*
X895101Y-155808D02*
X894814D01*
Y-156094D01*
X894528D01*
Y-156380D01*
Y-156667D01*
X894242D01*
Y-156953D01*
X893955D01*
Y-157239D01*
X893669D01*
Y-157526D01*
Y-157812D01*
X893383D01*
Y-158098D01*
X893096D01*
Y-158385D01*
X892810D01*
Y-158671D01*
X892524D01*
Y-158957D01*
Y-159244D01*
X892237D01*
Y-159530D01*
X891951D01*
Y-159816D01*
X891665D01*
Y-160102D01*
Y-160389D01*
X891378D01*
Y-160675D01*
X891092D01*
Y-160961D01*
X890806D01*
Y-161248D01*
X890520D01*
Y-161534D01*
Y-161820D01*
X890233D01*
Y-162107D01*
X889947D01*
Y-162393D01*
X889661D01*
Y-162679D01*
Y-162966D01*
X889374D01*
Y-163252D01*
X889088D01*
Y-163538D01*
X888802D01*
Y-163824D01*
Y-164111D01*
X888515D01*
Y-164397D01*
X888229D01*
Y-164683D01*
X887943D01*
Y-164970D01*
X887656D01*
Y-165256D01*
Y-165542D01*
X887370D01*
Y-165829D01*
X887084D01*
Y-166115D01*
X886798D01*
Y-166401D01*
Y-166688D01*
X886511D01*
Y-166974D01*
X886225D01*
Y-167260D01*
X885939D01*
Y-167547D01*
Y-167833D01*
X885652D01*
Y-168119D01*
X885366D01*
Y-168405D01*
X885080D01*
Y-168692D01*
X884793D01*
Y-168978D01*
Y-169264D01*
X884507D01*
Y-169551D01*
X884221D01*
Y-169837D01*
X883934D01*
Y-170123D01*
Y-170410D01*
X883648D01*
Y-170696D01*
X883362D01*
Y-170982D01*
X883076D01*
Y-171269D01*
Y-171555D01*
X882789D01*
Y-171841D01*
X882503D01*
Y-172127D01*
X882216D01*
Y-172414D01*
X881930D01*
Y-172700D01*
Y-172986D01*
X881644D01*
Y-173273D01*
X881358D01*
Y-173559D01*
X881071D01*
Y-173845D01*
Y-174132D01*
X880785D01*
Y-174418D01*
X880499D01*
Y-174704D01*
X880212D01*
Y-174991D01*
X879926D01*
Y-175277D01*
Y-175563D01*
X880212D01*
Y-175850D01*
Y-176136D01*
X880499D01*
Y-176422D01*
Y-176709D01*
X880785D01*
Y-176995D01*
X881071D01*
Y-177281D01*
Y-177568D01*
X881358D01*
Y-177854D01*
Y-178140D01*
X881644D01*
Y-178426D01*
Y-178713D01*
X881930D01*
Y-178999D01*
Y-179285D01*
X882216D01*
Y-179572D01*
Y-179858D01*
X882503D01*
Y-180144D01*
Y-180431D01*
X882789D01*
Y-180717D01*
Y-181003D01*
X883076D01*
Y-181290D01*
Y-181576D01*
X883362D01*
Y-181862D01*
X883648D01*
Y-182149D01*
Y-182435D01*
X883934D01*
Y-182721D01*
Y-183007D01*
X884221D01*
Y-183294D01*
Y-183580D01*
X884507D01*
Y-183866D01*
Y-184153D01*
X884793D01*
Y-184439D01*
Y-184725D01*
X885080D01*
Y-185012D01*
Y-185298D01*
X885366D01*
Y-185584D01*
Y-185871D01*
X885652D01*
Y-186157D01*
X885939D01*
Y-186443D01*
Y-186730D01*
X886225D01*
Y-187016D01*
Y-187302D01*
X886511D01*
Y-187588D01*
Y-187875D01*
X886798D01*
Y-188161D01*
Y-188447D01*
X887084D01*
Y-188734D01*
Y-189020D01*
X887370D01*
Y-189306D01*
Y-189593D01*
X887656D01*
Y-189879D01*
Y-190165D01*
X887943D01*
Y-190452D01*
X888229D01*
Y-190738D01*
Y-191024D01*
X888515D01*
Y-191311D01*
Y-191597D01*
X888802D01*
Y-191883D01*
X873627D01*
Y-191597D01*
X873341D01*
Y-191311D01*
Y-191024D01*
Y-190738D01*
X873055D01*
Y-190452D01*
Y-190165D01*
Y-189879D01*
X872768D01*
Y-189593D01*
Y-189306D01*
X872482D01*
Y-189020D01*
Y-188734D01*
Y-188447D01*
X872196D01*
Y-188161D01*
Y-187875D01*
Y-187588D01*
X871909D01*
Y-187302D01*
Y-187016D01*
X871623D01*
Y-186730D01*
Y-186443D01*
Y-186157D01*
X871337D01*
Y-185871D01*
Y-185584D01*
Y-185298D01*
X871050D01*
Y-185012D01*
Y-184725D01*
Y-184439D01*
X870764D01*
Y-184153D01*
X870191D01*
Y-184439D01*
Y-184725D01*
X869905D01*
Y-185012D01*
X869619D01*
Y-185298D01*
Y-185584D01*
X869332D01*
Y-185871D01*
X869046D01*
Y-186157D01*
Y-186443D01*
X868760D01*
Y-186730D01*
X868474D01*
Y-187016D01*
Y-187302D01*
X868187D01*
Y-187588D01*
X867901D01*
Y-187875D01*
X867615D01*
Y-188161D01*
Y-188447D01*
X867328D01*
Y-188734D01*
X867042D01*
Y-189020D01*
Y-189306D01*
X866756D01*
Y-189593D01*
X866469D01*
Y-189879D01*
Y-190165D01*
X866183D01*
Y-190452D01*
X865897D01*
Y-190738D01*
Y-191024D01*
X865610D01*
Y-191311D01*
X865324D01*
Y-191597D01*
Y-191883D01*
X849290D01*
Y-191597D01*
X849577D01*
Y-191311D01*
X849863D01*
Y-191024D01*
X850150D01*
Y-190738D01*
X850436D01*
Y-190452D01*
Y-190165D01*
X850722D01*
Y-189879D01*
X851008D01*
Y-189593D01*
X851295D01*
Y-189306D01*
X851581D01*
Y-189020D01*
Y-188734D01*
X851867D01*
Y-188447D01*
X852154D01*
Y-188161D01*
X852440D01*
Y-187875D01*
Y-187588D01*
X852726D01*
Y-187302D01*
X853013D01*
Y-187016D01*
X853299D01*
Y-186730D01*
X853585D01*
Y-186443D01*
Y-186157D01*
X853872D01*
Y-185871D01*
X854158D01*
Y-185584D01*
X854444D01*
Y-185298D01*
X854731D01*
Y-185012D01*
Y-184725D01*
X855017D01*
Y-184439D01*
X855303D01*
Y-184153D01*
X855589D01*
Y-183866D01*
Y-183580D01*
X855876D01*
Y-183294D01*
X856162D01*
Y-183007D01*
X856448D01*
Y-182721D01*
X856735D01*
Y-182435D01*
Y-182149D01*
X857021D01*
Y-181862D01*
X857307D01*
Y-181576D01*
X857594D01*
Y-181290D01*
Y-181003D01*
X857880D01*
Y-180717D01*
X858166D01*
Y-180431D01*
X858453D01*
Y-180144D01*
X858739D01*
Y-179858D01*
Y-179572D01*
X859025D01*
Y-179285D01*
X859311D01*
Y-178999D01*
X859598D01*
Y-178713D01*
Y-178426D01*
X859884D01*
Y-178140D01*
X860170D01*
Y-177854D01*
X860457D01*
Y-177568D01*
X860743D01*
Y-177281D01*
Y-176995D01*
X861029D01*
Y-176709D01*
X861316D01*
Y-176422D01*
X861602D01*
Y-176136D01*
X861888D01*
Y-175850D01*
Y-175563D01*
X862175D01*
Y-175277D01*
X862461D01*
Y-174991D01*
X862747D01*
Y-174704D01*
Y-174418D01*
X863034D01*
Y-174132D01*
X863320D01*
Y-173845D01*
X863606D01*
Y-173559D01*
X863892D01*
Y-173273D01*
Y-172986D01*
X864179D01*
Y-172700D01*
Y-172414D01*
Y-172127D01*
X863892D01*
Y-171841D01*
X863606D01*
Y-171555D01*
Y-171269D01*
X863320D01*
Y-170982D01*
Y-170696D01*
X863034D01*
Y-170410D01*
Y-170123D01*
X862747D01*
Y-169837D01*
Y-169551D01*
X862461D01*
Y-169264D01*
Y-168978D01*
X862175D01*
Y-168692D01*
Y-168405D01*
X861888D01*
Y-168119D01*
X861602D01*
Y-167833D01*
Y-167547D01*
X861316D01*
Y-167260D01*
Y-166974D01*
X861029D01*
Y-166688D01*
Y-166401D01*
X860743D01*
Y-166115D01*
Y-165829D01*
X860457D01*
Y-165542D01*
Y-165256D01*
X860170D01*
Y-164970D01*
Y-164683D01*
X859884D01*
Y-164397D01*
X859598D01*
Y-164111D01*
Y-163824D01*
X859311D01*
Y-163538D01*
Y-163252D01*
X859025D01*
Y-162966D01*
Y-162679D01*
X858739D01*
Y-162393D01*
Y-162107D01*
X858453D01*
Y-161820D01*
Y-161534D01*
X858166D01*
Y-161248D01*
Y-160961D01*
X857880D01*
Y-160675D01*
Y-160389D01*
X857594D01*
Y-160102D01*
X857307D01*
Y-159816D01*
Y-159530D01*
X857021D01*
Y-159244D01*
Y-158957D01*
X856735D01*
Y-158671D01*
Y-158385D01*
X856448D01*
Y-158098D01*
Y-157812D01*
X856162D01*
Y-157526D01*
Y-157239D01*
X855876D01*
Y-156953D01*
Y-156667D01*
X855589D01*
Y-156380D01*
X855303D01*
Y-156094D01*
Y-155808D01*
X855017D01*
Y-155521D01*
X870764D01*
Y-155808D01*
X871050D01*
Y-156094D01*
Y-156380D01*
Y-156667D01*
X871337D01*
Y-156953D01*
Y-157239D01*
Y-157526D01*
X871623D01*
Y-157812D01*
Y-158098D01*
Y-158385D01*
X871909D01*
Y-158671D01*
Y-158957D01*
Y-159244D01*
X872196D01*
Y-159530D01*
Y-159816D01*
Y-160102D01*
X872482D01*
Y-160389D01*
Y-160675D01*
Y-160961D01*
X872768D01*
Y-161248D01*
Y-161534D01*
Y-161820D01*
X873055D01*
Y-162107D01*
Y-162393D01*
Y-162679D01*
X873341D01*
Y-162966D01*
Y-163252D01*
Y-163538D01*
Y-163824D01*
X873913D01*
Y-163538D01*
X874200D01*
Y-163252D01*
X874486D01*
Y-162966D01*
Y-162679D01*
X874772D01*
Y-162393D01*
X875059D01*
Y-162107D01*
Y-161820D01*
X875345D01*
Y-161534D01*
X875631D01*
Y-161248D01*
Y-160961D01*
X875918D01*
Y-160675D01*
X876204D01*
Y-160389D01*
Y-160102D01*
X876490D01*
Y-159816D01*
X876777D01*
Y-159530D01*
Y-159244D01*
X877063D01*
Y-158957D01*
X877349D01*
Y-158671D01*
Y-158385D01*
X877635D01*
Y-158098D01*
X877922D01*
Y-157812D01*
Y-157526D01*
X878208D01*
Y-157239D01*
X878494D01*
Y-156953D01*
Y-156667D01*
X878781D01*
Y-156380D01*
X879067D01*
Y-156094D01*
Y-155808D01*
X879353D01*
Y-155521D01*
X895101D01*
Y-155808D01*
D02*
G37*
G36*
X851008D02*
Y-156094D01*
Y-156380D01*
Y-156667D01*
Y-156953D01*
Y-157239D01*
Y-157526D01*
Y-157812D01*
Y-158098D01*
Y-158385D01*
Y-158671D01*
Y-158957D01*
Y-159244D01*
Y-159530D01*
Y-159816D01*
Y-160102D01*
Y-160389D01*
Y-160675D01*
Y-160961D01*
Y-161248D01*
Y-161534D01*
X850722D01*
Y-161820D01*
Y-162107D01*
Y-162393D01*
Y-162679D01*
Y-162966D01*
X850436D01*
Y-163252D01*
Y-163538D01*
Y-163824D01*
Y-164111D01*
X850150D01*
Y-164397D01*
Y-164683D01*
Y-164970D01*
Y-165256D01*
X849863D01*
Y-165542D01*
Y-165829D01*
Y-166115D01*
X849577D01*
Y-166401D01*
Y-166688D01*
Y-166974D01*
X849290D01*
Y-167260D01*
Y-167547D01*
Y-167833D01*
X849004D01*
Y-168119D01*
Y-168405D01*
Y-168692D01*
X848718D01*
Y-168978D01*
Y-169264D01*
X848432D01*
Y-169551D01*
Y-169837D01*
X848145D01*
Y-170123D01*
Y-170410D01*
Y-170696D01*
X847859D01*
Y-170982D01*
Y-171269D01*
X847573D01*
Y-171555D01*
Y-171841D01*
Y-172127D01*
X847286D01*
Y-172414D01*
Y-172700D01*
X847000D01*
Y-172986D01*
Y-173273D01*
Y-173559D01*
X846714D01*
Y-173845D01*
Y-174132D01*
X846427D01*
Y-174418D01*
Y-174704D01*
Y-174991D01*
X846141D01*
Y-175277D01*
Y-175563D01*
X845855D01*
Y-175850D01*
Y-176136D01*
Y-176422D01*
X845568D01*
Y-176709D01*
Y-176995D01*
X845282D01*
Y-177281D01*
Y-177568D01*
Y-177854D01*
X844996D01*
Y-178140D01*
Y-178426D01*
X844709D01*
Y-178713D01*
Y-178999D01*
Y-179285D01*
X844423D01*
Y-179572D01*
Y-179858D01*
X844137D01*
Y-180144D01*
Y-180431D01*
Y-180717D01*
X843851D01*
Y-181003D01*
Y-181290D01*
X843564D01*
Y-181576D01*
Y-181862D01*
Y-182149D01*
X843278D01*
Y-182435D01*
Y-182721D01*
X842992D01*
Y-183007D01*
Y-183294D01*
Y-183580D01*
X842705D01*
Y-183866D01*
Y-184153D01*
X842419D01*
Y-184439D01*
Y-184725D01*
Y-185012D01*
X842133D01*
Y-185298D01*
Y-185584D01*
X841846D01*
Y-185871D01*
Y-186157D01*
Y-186443D01*
X841560D01*
Y-186730D01*
Y-187016D01*
X841274D01*
Y-187302D01*
Y-187588D01*
Y-187875D01*
X840987D01*
Y-188161D01*
Y-188447D01*
X840701D01*
Y-188734D01*
Y-189020D01*
Y-189306D01*
X840415D01*
Y-189593D01*
Y-189879D01*
X840129D01*
Y-190165D01*
Y-190452D01*
Y-190738D01*
X839842D01*
Y-191024D01*
Y-191311D01*
X839556D01*
Y-191597D01*
Y-191883D01*
Y-192169D01*
X839270D01*
Y-192456D01*
Y-192742D01*
X838983D01*
Y-193028D01*
Y-193315D01*
X838697D01*
Y-193601D01*
Y-193887D01*
X838411D01*
Y-194174D01*
Y-194460D01*
Y-194746D01*
X838124D01*
Y-195033D01*
X837838D01*
Y-195319D01*
Y-195605D01*
Y-195891D01*
X837552D01*
Y-196178D01*
X837265D01*
Y-196464D01*
Y-196750D01*
X836979D01*
Y-197037D01*
Y-197323D01*
X836693D01*
Y-197609D01*
Y-197896D01*
X836407D01*
Y-198182D01*
Y-198468D01*
X836120D01*
Y-198755D01*
X835834D01*
Y-199041D01*
Y-199327D01*
X835548D01*
Y-199614D01*
Y-199900D01*
X835261D01*
Y-200186D01*
X834975D01*
Y-200472D01*
X834689D01*
Y-200759D01*
Y-201045D01*
X834402D01*
Y-201331D01*
X834116D01*
Y-201618D01*
Y-201904D01*
X833830D01*
Y-202190D01*
X833543D01*
Y-202477D01*
X833257D01*
Y-202763D01*
Y-203049D01*
X832971D01*
Y-203336D01*
X832684D01*
Y-203622D01*
X832398D01*
Y-203908D01*
X832112D01*
Y-204195D01*
X831826D01*
Y-204481D01*
Y-204767D01*
X831539D01*
Y-205053D01*
X831253D01*
Y-205340D01*
X830966D01*
Y-205626D01*
X830680D01*
Y-205912D01*
X830394D01*
Y-206199D01*
X830108D01*
Y-206485D01*
X829821D01*
Y-206771D01*
X829249D01*
Y-207058D01*
X828962D01*
Y-207344D01*
X828676D01*
Y-207630D01*
X828390D01*
Y-207917D01*
X828103D01*
Y-208203D01*
X827531D01*
Y-208489D01*
X827244D01*
Y-208776D01*
X826672D01*
Y-209062D01*
X826385D01*
Y-209348D01*
X825813D01*
Y-209634D01*
X825527D01*
Y-209921D01*
X824954D01*
Y-210207D01*
X824381D01*
Y-210493D01*
X823809D01*
Y-210780D01*
X823236D01*
Y-211066D01*
X822663D01*
Y-211352D01*
X821805D01*
Y-211639D01*
X821232D01*
Y-211925D01*
X820373D01*
Y-212211D01*
X819228D01*
Y-212498D01*
X818082D01*
Y-212784D01*
X816365D01*
Y-213070D01*
X814360D01*
Y-213357D01*
X814074D01*
Y-213070D01*
Y-212784D01*
Y-212498D01*
Y-212211D01*
Y-211925D01*
Y-211639D01*
Y-211352D01*
Y-211066D01*
Y-210780D01*
Y-210493D01*
Y-210207D01*
Y-209921D01*
Y-209634D01*
Y-209348D01*
Y-209062D01*
Y-208776D01*
Y-208489D01*
Y-208203D01*
Y-207917D01*
Y-207630D01*
Y-207344D01*
Y-207058D01*
Y-206771D01*
Y-206485D01*
Y-206199D01*
Y-205912D01*
Y-205626D01*
Y-205340D01*
Y-205053D01*
Y-204767D01*
Y-204481D01*
Y-204195D01*
Y-203908D01*
X814647D01*
Y-203622D01*
X815219D01*
Y-203336D01*
X815792D01*
Y-203049D01*
X816365D01*
Y-202763D01*
X816937D01*
Y-202477D01*
X817510D01*
Y-202190D01*
X817796D01*
Y-201904D01*
X818369D01*
Y-201618D01*
X818655D01*
Y-201331D01*
X819228D01*
Y-201045D01*
X819514D01*
Y-200759D01*
X819800D01*
Y-200472D01*
X820373D01*
Y-200186D01*
X820659D01*
Y-199900D01*
X820946D01*
Y-199614D01*
X821232D01*
Y-199327D01*
X821518D01*
Y-199041D01*
X821805D01*
Y-198755D01*
X822091D01*
Y-198468D01*
X822377D01*
Y-198182D01*
X822663D01*
Y-197896D01*
X822950D01*
Y-197609D01*
X823236D01*
Y-197323D01*
X823522D01*
Y-197037D01*
Y-196750D01*
X823809D01*
Y-196464D01*
X824095D01*
Y-196178D01*
X824381D01*
Y-195891D01*
Y-195605D01*
X824668D01*
Y-195319D01*
X824954D01*
Y-195033D01*
Y-194746D01*
X825240D01*
Y-194460D01*
Y-194174D01*
X825527D01*
Y-193887D01*
X825813D01*
Y-193601D01*
Y-193315D01*
X826099D01*
Y-193028D01*
Y-192742D01*
X826385D01*
Y-192456D01*
Y-192169D01*
X824668D01*
Y-191883D01*
X822663D01*
Y-191597D01*
X821518D01*
Y-191311D01*
X820946D01*
Y-191024D01*
X820087D01*
Y-190738D01*
X819514D01*
Y-190452D01*
X819228D01*
Y-190165D01*
X818655D01*
Y-189879D01*
X818369D01*
Y-189593D01*
X818082D01*
Y-189306D01*
X817796D01*
Y-189020D01*
X817510D01*
Y-188734D01*
X817223D01*
Y-188447D01*
Y-188161D01*
X816937D01*
Y-187875D01*
X816651D01*
Y-187588D01*
Y-187302D01*
X816365D01*
Y-187016D01*
Y-186730D01*
X816078D01*
Y-186443D01*
Y-186157D01*
X815792D01*
Y-185871D01*
Y-185584D01*
Y-185298D01*
X815506D01*
Y-185012D01*
Y-184725D01*
Y-184439D01*
Y-184153D01*
X815219D01*
Y-183866D01*
Y-183580D01*
Y-183294D01*
Y-183007D01*
Y-182721D01*
Y-182435D01*
Y-182149D01*
X814933D01*
Y-181862D01*
Y-181576D01*
Y-181290D01*
Y-181003D01*
Y-180717D01*
Y-180431D01*
Y-180144D01*
Y-179858D01*
Y-179572D01*
Y-179285D01*
Y-178999D01*
Y-178713D01*
Y-178426D01*
Y-178140D01*
Y-177854D01*
X814647D01*
Y-177568D01*
Y-177281D01*
Y-176995D01*
Y-176709D01*
Y-176422D01*
Y-176136D01*
Y-175850D01*
Y-175563D01*
Y-175277D01*
Y-174991D01*
Y-174704D01*
Y-174418D01*
Y-174132D01*
Y-173845D01*
Y-173559D01*
X814360D01*
Y-173273D01*
Y-172986D01*
Y-172700D01*
Y-172414D01*
Y-172127D01*
Y-171841D01*
Y-171555D01*
Y-171269D01*
Y-170982D01*
Y-170696D01*
Y-170410D01*
Y-170123D01*
Y-169837D01*
Y-169551D01*
Y-169264D01*
Y-168978D01*
X814074D01*
Y-168692D01*
Y-168405D01*
Y-168119D01*
Y-167833D01*
Y-167547D01*
Y-167260D01*
Y-166974D01*
Y-166688D01*
Y-166401D01*
Y-166115D01*
Y-165829D01*
Y-165542D01*
Y-165256D01*
Y-164970D01*
Y-164683D01*
Y-164397D01*
X813788D01*
Y-164111D01*
Y-163824D01*
Y-163538D01*
Y-163252D01*
Y-162966D01*
Y-162679D01*
Y-162393D01*
Y-162107D01*
Y-161820D01*
Y-161534D01*
Y-161248D01*
Y-160961D01*
Y-160675D01*
Y-160389D01*
X813501D01*
Y-160102D01*
Y-159816D01*
Y-159530D01*
Y-159244D01*
Y-158957D01*
Y-158671D01*
Y-158385D01*
Y-158098D01*
Y-157812D01*
Y-157526D01*
Y-157239D01*
Y-156953D01*
Y-156667D01*
Y-156380D01*
Y-156094D01*
Y-155808D01*
X813215D01*
Y-155521D01*
X826958D01*
Y-155808D01*
Y-156094D01*
Y-156380D01*
Y-156667D01*
Y-156953D01*
Y-157239D01*
Y-157526D01*
Y-157812D01*
Y-158098D01*
Y-158385D01*
Y-158671D01*
Y-158957D01*
Y-159244D01*
Y-159530D01*
X827244D01*
Y-159816D01*
Y-160102D01*
Y-160389D01*
Y-160675D01*
Y-160961D01*
Y-161248D01*
Y-161534D01*
Y-161820D01*
Y-162107D01*
Y-162393D01*
Y-162679D01*
Y-162966D01*
Y-163252D01*
Y-163538D01*
Y-163824D01*
Y-164111D01*
Y-164397D01*
Y-164683D01*
Y-164970D01*
Y-165256D01*
Y-165542D01*
Y-165829D01*
Y-166115D01*
Y-166401D01*
Y-166688D01*
Y-166974D01*
Y-167260D01*
Y-167547D01*
Y-167833D01*
Y-168119D01*
Y-168405D01*
Y-168692D01*
Y-168978D01*
Y-169264D01*
Y-169551D01*
Y-169837D01*
Y-170123D01*
Y-170410D01*
Y-170696D01*
Y-170982D01*
Y-171269D01*
X827531D01*
Y-171555D01*
X827244D01*
Y-171841D01*
Y-172127D01*
X827531D01*
Y-172414D01*
Y-172700D01*
Y-172986D01*
Y-173273D01*
Y-173559D01*
Y-173845D01*
Y-174132D01*
Y-174418D01*
Y-174704D01*
Y-174991D01*
Y-175277D01*
Y-175563D01*
Y-175850D01*
Y-176136D01*
Y-176422D01*
Y-176709D01*
Y-176995D01*
Y-177281D01*
Y-177568D01*
Y-177854D01*
Y-178140D01*
Y-178426D01*
Y-178713D01*
Y-178999D01*
Y-179285D01*
Y-179572D01*
X827817D01*
Y-179858D01*
Y-180144D01*
Y-180431D01*
X828103D01*
Y-180717D01*
X828390D01*
Y-181003D01*
X828676D01*
Y-181290D01*
X829535D01*
Y-181576D01*
X830394D01*
Y-181290D01*
X830680D01*
Y-181003D01*
Y-180717D01*
Y-180431D01*
X830966D01*
Y-180144D01*
Y-179858D01*
X831253D01*
Y-179572D01*
Y-179285D01*
Y-178999D01*
X831539D01*
Y-178713D01*
Y-178426D01*
Y-178140D01*
X831826D01*
Y-177854D01*
Y-177568D01*
Y-177281D01*
X832112D01*
Y-176995D01*
Y-176709D01*
Y-176422D01*
X832398D01*
Y-176136D01*
Y-175850D01*
X832684D01*
Y-175563D01*
Y-175277D01*
Y-174991D01*
X832971D01*
Y-174704D01*
Y-174418D01*
Y-174132D01*
X833257D01*
Y-173845D01*
Y-173559D01*
Y-173273D01*
X833543D01*
Y-172986D01*
Y-172700D01*
X833830D01*
Y-172414D01*
Y-172127D01*
Y-171841D01*
X834116D01*
Y-171555D01*
Y-171269D01*
Y-170982D01*
X834402D01*
Y-170696D01*
Y-170410D01*
Y-170123D01*
X834689D01*
Y-169837D01*
Y-169551D01*
X834975D01*
Y-169264D01*
Y-168978D01*
Y-168692D01*
X835261D01*
Y-168405D01*
Y-168119D01*
Y-167833D01*
X835548D01*
Y-167547D01*
Y-167260D01*
Y-166974D01*
X835834D01*
Y-166688D01*
Y-166401D01*
X836120D01*
Y-166115D01*
Y-165829D01*
Y-165542D01*
X836407D01*
Y-165256D01*
Y-164970D01*
Y-164683D01*
X836693D01*
Y-164397D01*
Y-164111D01*
Y-163824D01*
X836979D01*
Y-163538D01*
Y-163252D01*
Y-162966D01*
Y-162679D01*
X837265D01*
Y-162393D01*
Y-162107D01*
Y-161820D01*
Y-161534D01*
X837552D01*
Y-161248D01*
Y-160961D01*
Y-160675D01*
Y-160389D01*
Y-160102D01*
X837838D01*
Y-159816D01*
Y-159530D01*
Y-159244D01*
Y-158957D01*
Y-158671D01*
Y-158385D01*
X838124D01*
Y-158098D01*
Y-157812D01*
Y-157526D01*
Y-157239D01*
Y-156953D01*
Y-156667D01*
Y-156380D01*
Y-156094D01*
Y-155808D01*
Y-155521D01*
X851008D01*
Y-155808D01*
D02*
G37*
%LPC*%
G36*
X757670Y-152658D02*
X749654D01*
Y-152945D01*
Y-153231D01*
Y-153517D01*
Y-153804D01*
Y-154090D01*
X749367D01*
Y-154376D01*
Y-154663D01*
Y-154949D01*
Y-155235D01*
Y-155521D01*
Y-155808D01*
X749081D01*
Y-156094D01*
Y-156380D01*
Y-156667D01*
Y-156953D01*
Y-157239D01*
Y-157526D01*
X748795D01*
Y-157812D01*
Y-158098D01*
Y-158385D01*
Y-158671D01*
Y-158957D01*
Y-159244D01*
X748508D01*
Y-159530D01*
Y-159816D01*
Y-160102D01*
Y-160389D01*
Y-160675D01*
Y-160961D01*
Y-161248D01*
X748222D01*
Y-161534D01*
Y-161820D01*
Y-162107D01*
Y-162393D01*
Y-162679D01*
Y-162966D01*
X747936D01*
Y-163252D01*
Y-163538D01*
Y-163824D01*
X755094D01*
Y-163538D01*
X756239D01*
Y-163252D01*
X756812D01*
Y-162966D01*
X757098D01*
Y-162679D01*
X757384D01*
Y-162393D01*
X757670D01*
Y-162107D01*
X757957D01*
Y-161820D01*
Y-161534D01*
X758243D01*
Y-161248D01*
Y-160961D01*
X758529D01*
Y-160675D01*
Y-160389D01*
X758816D01*
Y-160102D01*
Y-159816D01*
Y-159530D01*
Y-159244D01*
X759102D01*
Y-158957D01*
Y-158671D01*
Y-158385D01*
Y-158098D01*
Y-157812D01*
X759388D01*
Y-157526D01*
Y-157239D01*
Y-156953D01*
Y-156667D01*
Y-156380D01*
Y-156094D01*
Y-155808D01*
Y-155521D01*
Y-155235D01*
Y-154949D01*
Y-154663D01*
X759102D01*
Y-154376D01*
Y-154090D01*
X758816D01*
Y-153804D01*
Y-153517D01*
X758529D01*
Y-153231D01*
X758243D01*
Y-152945D01*
X757670D01*
Y-152658D01*
D02*
G37*
%LPD*%
D11*
X1072449Y-202012D02*
Y-194141D01*
X1076384D01*
X1077696Y-195452D01*
Y-198076D01*
X1076384Y-199388D01*
X1072449D01*
X1075072D02*
X1077696Y-202012D01*
X1084256D02*
X1081632D01*
X1080320Y-200700D01*
Y-198076D01*
X1081632Y-196764D01*
X1084256D01*
X1085568Y-198076D01*
Y-199388D01*
X1080320D01*
X1088192Y-196764D02*
X1090815Y-202012D01*
X1093439Y-196764D01*
X718118Y-233511D02*
Y-241382D01*
X722053D01*
X723365Y-240070D01*
Y-234823D01*
X722053Y-233511D01*
X718118D01*
X729925Y-241382D02*
X727301D01*
X725989Y-240070D01*
Y-237446D01*
X727301Y-236134D01*
X729925D01*
X731237Y-237446D01*
Y-238758D01*
X725989D01*
X733861Y-241382D02*
X737796D01*
X739108Y-240070D01*
X737796Y-238758D01*
X735173D01*
X733861Y-237446D01*
X735173Y-236134D01*
X739108D01*
X744356Y-244006D02*
X745668D01*
X746980Y-242694D01*
Y-236134D01*
X743044D01*
X741732Y-237446D01*
Y-240070D01*
X743044Y-241382D01*
X746980D01*
X749604D02*
X752227D01*
X750916D01*
Y-236134D01*
X749604D01*
X756163Y-241382D02*
Y-236134D01*
X760099D01*
X761411Y-237446D01*
Y-241382D01*
X767971D02*
X765347D01*
X764035Y-240070D01*
Y-237446D01*
X765347Y-236134D01*
X767971D01*
X769282Y-237446D01*
Y-238758D01*
X764035D01*
X771906Y-236134D02*
Y-241382D01*
Y-238758D01*
X773218Y-237446D01*
X774530Y-236134D01*
X775842D01*
X914968Y-115400D02*
Y-123272D01*
X918904D01*
X920216Y-121960D01*
Y-116712D01*
X918904Y-115400D01*
X914968D01*
X924152Y-123272D02*
X926775D01*
X928087Y-121960D01*
Y-119336D01*
X926775Y-118024D01*
X924152D01*
X922840Y-119336D01*
Y-121960D01*
X924152Y-123272D01*
X935959Y-118024D02*
X932023D01*
X930711Y-119336D01*
Y-121960D01*
X932023Y-123272D01*
X935959D01*
X938583Y-118024D02*
Y-121960D01*
X939894Y-123272D01*
X943830D01*
Y-118024D01*
X946454Y-123272D02*
Y-118024D01*
X947766D01*
X949078Y-119336D01*
Y-123272D01*
Y-119336D01*
X950390Y-118024D01*
X951702Y-119336D01*
Y-123272D01*
X958261D02*
X955637D01*
X954326Y-121960D01*
Y-119336D01*
X955637Y-118024D01*
X958261D01*
X959573Y-119336D01*
Y-120648D01*
X954326D01*
X962197Y-123272D02*
Y-118024D01*
X966133D01*
X967445Y-119336D01*
Y-123272D01*
X971381Y-116712D02*
Y-118024D01*
X970068D01*
X972692D01*
X971381D01*
Y-121960D01*
X972692Y-123272D01*
X914968Y-154770D02*
Y-162642D01*
X920216D01*
X924152Y-157394D02*
X926775D01*
X928087Y-158706D01*
Y-162642D01*
X924152D01*
X922840Y-161330D01*
X924152Y-160018D01*
X928087D01*
X930711Y-157394D02*
Y-161330D01*
X932023Y-162642D01*
X935959D01*
Y-163954D01*
X934647Y-165266D01*
X933335D01*
X935959Y-162642D02*
Y-157394D01*
X942518Y-162642D02*
X939894D01*
X938583Y-161330D01*
Y-158706D01*
X939894Y-157394D01*
X942518D01*
X943830Y-158706D01*
Y-160018D01*
X938583D01*
X946454Y-157394D02*
Y-162642D01*
Y-160018D01*
X947766Y-158706D01*
X949078Y-157394D01*
X950390D01*
X962197Y-162642D02*
Y-154770D01*
X967445Y-162642D01*
Y-154770D01*
X971381Y-157394D02*
X974004D01*
X975316Y-158706D01*
Y-162642D01*
X971381D01*
X970068Y-161330D01*
X971381Y-160018D01*
X975316D01*
X977940Y-162642D02*
Y-157394D01*
X979252D01*
X980564Y-158706D01*
Y-162642D01*
Y-158706D01*
X981876Y-157394D01*
X983188Y-158706D01*
Y-162642D01*
X989747D02*
X987123D01*
X985812Y-161330D01*
Y-158706D01*
X987123Y-157394D01*
X989747D01*
X991059Y-158706D01*
Y-160018D01*
X985812D01*
X914968Y-194141D02*
Y-202012D01*
X918904D01*
X920216Y-200700D01*
Y-195452D01*
X918904Y-194141D01*
X914968D01*
X924152Y-196764D02*
X926775D01*
X928087Y-198076D01*
Y-202012D01*
X924152D01*
X922840Y-200700D01*
X924152Y-199388D01*
X928087D01*
X932023Y-195452D02*
Y-196764D01*
X930711D01*
X933335D01*
X932023D01*
Y-200700D01*
X933335Y-202012D01*
X941206D02*
X938583D01*
X937271Y-200700D01*
Y-198076D01*
X938583Y-196764D01*
X941206D01*
X942518Y-198076D01*
Y-199388D01*
X937271D01*
X914968Y-233511D02*
Y-241382D01*
X918904D01*
X920216Y-240070D01*
Y-234823D01*
X918904Y-233511D01*
X914968D01*
X924152Y-241382D02*
X926775D01*
X928087Y-240070D01*
Y-237446D01*
X926775Y-236134D01*
X924152D01*
X922840Y-237446D01*
Y-240070D01*
X924152Y-241382D01*
X935959Y-236134D02*
X932023D01*
X930711Y-237446D01*
Y-240070D01*
X932023Y-241382D01*
X935959D01*
X938583Y-236134D02*
Y-240070D01*
X939894Y-241382D01*
X943830D01*
Y-236134D01*
X946454Y-241382D02*
Y-236134D01*
X947766D01*
X949078Y-237446D01*
Y-241382D01*
Y-237446D01*
X950390Y-236134D01*
X951702Y-237446D01*
Y-241382D01*
X958261D02*
X955637D01*
X954326Y-240070D01*
Y-237446D01*
X955637Y-236134D01*
X958261D01*
X959573Y-237446D01*
Y-238758D01*
X954326D01*
X962197Y-241382D02*
Y-236134D01*
X966133D01*
X967445Y-237446D01*
Y-241382D01*
X971381Y-234823D02*
Y-236134D01*
X970068D01*
X972692D01*
X971381D01*
Y-240070D01*
X972692Y-241382D01*
D12*
X177165Y393701D02*
Y433071D01*
X-177165Y393701D02*
Y433071D01*
D13*
X19685Y354331D02*
X133858D01*
X-133858D02*
X-19685D01*
X1068511Y-229571D02*
Y-190201D01*
X911031Y-150831D02*
X1186622D01*
X911031Y-190201D02*
X1186622D01*
X714181Y-229571D02*
X1186622D01*
X714181Y-111461D02*
X1186622D01*
X714181Y-268941D02*
Y-111461D01*
X911031Y-268941D02*
Y-111461D01*
X-466922Y900350D02*
X1186622D01*
Y-268941D02*
Y900350D01*
X-466922Y-268941D02*
Y900350D01*
Y-268941D02*
X1186622D01*
X924809Y-255164D02*
X920874D01*
Y-258115D01*
X922842D01*
X920874D01*
Y-261067D01*
X926777Y-257131D02*
Y-261067D01*
Y-259099D01*
X927761Y-258115D01*
X928745Y-257131D01*
X929729D01*
X932681Y-261067D02*
X934649D01*
X933665D01*
Y-257131D01*
X932681D01*
X937601Y-256147D02*
X938585Y-255164D01*
X940552D01*
X941536Y-256147D01*
Y-257131D01*
X940552Y-258115D01*
X939568D01*
X940552D01*
X941536Y-259099D01*
Y-260083D01*
X940552Y-261067D01*
X938585D01*
X937601Y-260083D01*
X943504Y-255164D02*
Y-261067D01*
X946456D01*
X947440Y-260083D01*
Y-256147D01*
X946456Y-255164D01*
X943504D01*
X949408Y-262051D02*
X953343D01*
X959247Y-261067D02*
X955311D01*
X959247Y-257131D01*
Y-256147D01*
X958263Y-255164D01*
X956295D01*
X955311Y-256147D01*
X961215D02*
X962199Y-255164D01*
X964167D01*
X965151Y-256147D01*
Y-260083D01*
X964167Y-261067D01*
X962199D01*
X961215Y-260083D01*
Y-256147D01*
X971054Y-261067D02*
X967119D01*
X971054Y-257131D01*
Y-256147D01*
X970070Y-255164D01*
X968102D01*
X967119Y-256147D01*
X973022D02*
X974006Y-255164D01*
X975974D01*
X976958Y-256147D01*
Y-260083D01*
X975974Y-261067D01*
X974006D01*
X973022Y-260083D01*
Y-256147D01*
X978926Y-262051D02*
X982862D01*
X984829Y-256147D02*
X985813Y-255164D01*
X987781D01*
X988765Y-256147D01*
Y-260083D01*
X987781Y-261067D01*
X985813D01*
X984829Y-260083D01*
Y-256147D01*
X990733Y-261067D02*
X992701D01*
X991717D01*
Y-255164D01*
X990733Y-256147D01*
X995653Y-261067D02*
Y-260083D01*
X996637D01*
Y-261067D01*
X995653D01*
X1000572D02*
Y-255164D01*
X1003524D01*
X1004508Y-256147D01*
Y-258115D01*
X1003524Y-259099D01*
X1000572D01*
X1010412Y-257131D02*
X1007460D01*
X1006476Y-258115D01*
Y-260083D01*
X1007460Y-261067D01*
X1010412D01*
X1012379Y-255164D02*
Y-261067D01*
X1015331D01*
X1016315Y-260083D01*
Y-259099D01*
Y-258115D01*
X1015331Y-257131D01*
X1012379D01*
X1018283Y-255164D02*
Y-261067D01*
X1021235D01*
X1022219Y-260083D01*
Y-256147D01*
X1021235Y-255164D01*
X1018283D01*
X1025171Y-261067D02*
X1027139D01*
X1028122Y-260083D01*
Y-258115D01*
X1027139Y-257131D01*
X1025171D01*
X1024187Y-258115D01*
Y-260083D01*
X1025171Y-261067D01*
X1034026Y-257131D02*
X1031074D01*
X1030090Y-258115D01*
Y-260083D01*
X1031074Y-261067D01*
X1034026D01*
D15*
X188976Y181142D02*
G03*
X185039Y177205I0J-3937D01*
G01*
X-185039D02*
G03*
X-188976Y181142I-3937J0D01*
G01*
X-43307Y366142D02*
G03*
X-39370Y362205I3937J0D01*
G01*
Y393701D02*
G03*
X-43307Y389764I0J-3937D01*
G01*
X43307Y389764D02*
G03*
X39370Y393701I-3937J0D01*
G01*
Y362205D02*
G03*
X43307Y366142I0J3937D01*
G01*
X19685Y362205D02*
G03*
X19685Y354331I0J-3937D01*
G01*
X-19685D02*
G03*
X-19685Y362205I0J3937D01*
G01*
X102362Y366142D02*
G03*
X106299Y362205I3937J0D01*
G01*
Y393701D02*
G03*
X102362Y389764I0J-3937D01*
G01*
X185039Y263740D02*
G03*
X188976Y259803I3937J0D01*
G01*
X-188976D02*
G03*
X-185039Y263740I0J3937D01*
G01*
X-216535Y102362D02*
G03*
X-200787Y86614I15748J0D01*
G01*
X-200787Y181102D02*
G03*
X-216535Y165354I0J-15748D01*
G01*
X-185039Y129921D02*
G03*
X-177165Y129921I3937J0D01*
G01*
X-177165Y311024D02*
G03*
X-185039Y311024I-3937J0D01*
G01*
X-216535Y269685D02*
G03*
X-206693Y259843I9843J0D01*
G01*
X-185039Y393701D02*
G03*
X-216535Y362205I0J-31496D01*
G01*
X-82677Y389764D02*
G03*
X-86614Y393701I-3937J0D01*
G01*
Y362205D02*
G03*
X-82677Y366142I0J3937D01*
G01*
X-133858Y362205D02*
G03*
X-133858Y354331I0J-3937D01*
G01*
X133858D02*
G03*
X133858Y362205I0J3937D01*
G01*
X216535Y362205D02*
G03*
X185039Y393701I-31496J0D01*
G01*
X206693Y259843D02*
G03*
X216535Y269685I0J9843D01*
G01*
X185039Y311024D02*
G03*
X177165Y311024I-3937J0D01*
G01*
Y129921D02*
G03*
X185039Y129921I3937J0D01*
G01*
X216535Y165354D02*
G03*
X200787Y181102I-15748J0D01*
G01*
X200787Y86614D02*
G03*
X216535Y102362I0J15748D01*
G01*
X118110Y86614D02*
G03*
X102362Y70866I0J-15748D01*
G01*
X-102362D02*
G03*
X-118110Y86614I-15748J0D01*
G01*
X90551Y0D02*
G03*
X102362Y11811I0J11811D01*
G01*
X-102362D02*
G03*
X-90551Y0I11811J0D01*
G01*
X188976Y181102D02*
X200787D01*
X-200787D02*
X-188976D01*
X-39370Y393701D02*
X39370Y393701D01*
X-43307Y366142D02*
Y389764D01*
X-39370Y362205D02*
X-19685D01*
X19685Y362205D02*
X39370D01*
X43307Y366142D02*
Y389764D01*
X106299Y393701D02*
X185039Y393701D01*
X106299Y362205D02*
X133858D01*
X185039Y263740D02*
Y311024D01*
X188976Y259843D02*
X206693D01*
X102362Y366142D02*
Y389764D01*
X-82677Y366142D02*
Y389764D01*
X-206693Y259843D02*
X-188976D01*
X-185039Y129921D02*
Y177205D01*
X-216535Y102362D02*
Y165354D01*
X-216535Y269685D02*
Y362205D01*
X-185039Y263740D02*
Y311024D01*
X-133858Y362205D02*
X-86614D01*
X-185039Y393701D02*
X-86614D01*
X216535Y269685D02*
Y362205D01*
Y102362D02*
Y165354D01*
X185039Y129921D02*
Y177205D01*
X-177165Y433071D02*
X177165D01*
X102362Y11811D02*
Y70866D01*
X118110Y86614D02*
X200787D01*
X177165Y129921D02*
X177165Y311024D01*
X-177165Y311024D02*
X-177165Y129921D01*
X-200787Y86614D02*
X-118110Y86614D01*
X-102362Y11811D02*
Y70866D01*
X-90551Y0D02*
X90551D01*
D16*
X735834Y-247293D02*
Y-263036D01*
X741082Y-257788D01*
X746330Y-263036D01*
Y-247293D01*
X751577Y-263036D02*
X756825D01*
X754201D01*
Y-252540D01*
X751577D01*
X764696Y-263036D02*
Y-252540D01*
X767320D01*
X769944Y-255164D01*
Y-263036D01*
Y-255164D01*
X772568Y-252540D01*
X775192Y-255164D01*
Y-263036D01*
X780439Y-247293D02*
Y-257788D01*
X785687Y-263036D01*
X790935Y-257788D01*
Y-247293D01*
X806678Y-249917D02*
X804054Y-247293D01*
X798806D01*
X796182Y-249917D01*
Y-260412D01*
X798806Y-263036D01*
X804054D01*
X806678Y-260412D01*
Y-255164D01*
X801430D01*
X1090165Y-210546D02*
X1092789Y-207923D01*
X1098036D01*
X1100660Y-210546D01*
Y-221042D01*
X1098036Y-223665D01*
X1092789D01*
X1090165Y-221042D01*
Y-210546D01*
X1105908Y-223665D02*
X1111156D01*
X1108532D01*
Y-207923D01*
X1105908Y-210546D01*
X935963Y-223665D02*
X926779D01*
X935963Y-214482D01*
Y-212186D01*
X933667Y-209890D01*
X929075D01*
X926779Y-212186D01*
X949738Y-209890D02*
X940554D01*
Y-216778D01*
X945146Y-214482D01*
X947442D01*
X949738Y-216778D01*
Y-221370D01*
X947442Y-223665D01*
X942850D01*
X940554Y-221370D01*
X954329Y-223665D02*
X963513Y-214482D01*
X968104Y-212186D02*
X970400Y-209890D01*
X974992D01*
X977288Y-212186D01*
Y-221370D01*
X974992Y-223665D01*
X970400D01*
X968104Y-221370D01*
Y-212186D01*
X981880D02*
X984175Y-209890D01*
X988767D01*
X991063Y-212186D01*
Y-214482D01*
X988767Y-216778D01*
X986471D01*
X988767D01*
X991063Y-219074D01*
Y-221370D01*
X988767Y-223665D01*
X984175D01*
X981880Y-221370D01*
X995655Y-223665D02*
X1004838Y-214482D01*
X1018613Y-223665D02*
X1009430D01*
X1018613Y-214482D01*
Y-212186D01*
X1016317Y-209890D01*
X1011726D01*
X1009430Y-212186D01*
X1023205D02*
X1025501Y-209890D01*
X1030092D01*
X1032388Y-212186D01*
Y-221370D01*
X1030092Y-223665D01*
X1025501D01*
X1023205Y-221370D01*
Y-212186D01*
X1046163Y-223665D02*
X1036980D01*
X1046163Y-214482D01*
Y-212186D01*
X1043867Y-209890D01*
X1039276D01*
X1036980Y-212186D01*
X1050755D02*
X1053051Y-209890D01*
X1057642D01*
X1059938Y-212186D01*
Y-221370D01*
X1057642Y-223665D01*
X1053051D01*
X1050755Y-221370D01*
Y-212186D01*
X929270Y-132331D02*
X920874D01*
Y-138628D01*
X925072D01*
X920874D01*
Y-144925D01*
X933468Y-136529D02*
Y-144925D01*
Y-140727D01*
X935567Y-138628D01*
X937666Y-136529D01*
X939765D01*
X946062Y-144925D02*
X950261D01*
X948162D01*
Y-136529D01*
X946062D01*
X956558Y-134430D02*
X958657Y-132331D01*
X962855D01*
X964954Y-134430D01*
Y-136529D01*
X962855Y-138628D01*
X960756D01*
X962855D01*
X964954Y-140727D01*
Y-142826D01*
X962855Y-144925D01*
X958657D01*
X956558Y-142826D01*
X969152Y-132331D02*
Y-144925D01*
X975449D01*
X977548Y-142826D01*
Y-134430D01*
X975449Y-132331D01*
X969152D01*
X994341D02*
Y-144925D01*
X1000638D01*
X1002737Y-142826D01*
Y-140727D01*
X1000638Y-138628D01*
X994341D01*
X1000638D01*
X1002737Y-136529D01*
Y-134430D01*
X1000638Y-132331D01*
X994341D01*
X1009034Y-136529D02*
X1013232D01*
X1015331Y-138628D01*
Y-144925D01*
X1009034D01*
X1006935Y-142826D01*
X1009034Y-140727D01*
X1015331D01*
X1027926Y-132331D02*
Y-144925D01*
X1021629D01*
X1019530Y-142826D01*
Y-138628D01*
X1021629Y-136529D01*
X1027926D01*
X1036322Y-149124D02*
X1038421D01*
X1040520Y-147024D01*
Y-136529D01*
X1034223D01*
X1032124Y-138628D01*
Y-142826D01*
X1034223Y-144925D01*
X1040520D01*
X1051015D02*
X1046817D01*
X1044718Y-142826D01*
Y-138628D01*
X1046817Y-136529D01*
X1051015D01*
X1053115Y-138628D01*
Y-140727D01*
X1044718D01*
X1078303Y-144925D02*
X1069907D01*
X1078303Y-136529D01*
Y-134430D01*
X1076204Y-132331D01*
X1072006D01*
X1069907Y-134430D01*
X1082501D02*
X1084600Y-132331D01*
X1088799D01*
X1090898Y-134430D01*
Y-142826D01*
X1088799Y-144925D01*
X1084600D01*
X1082501Y-142826D01*
Y-134430D01*
X1103492Y-144925D02*
X1095096D01*
X1103492Y-136529D01*
Y-134430D01*
X1101393Y-132331D01*
X1097195D01*
X1095096Y-134430D01*
X1107690D02*
X1109789Y-132331D01*
X1113987D01*
X1116086Y-134430D01*
Y-142826D01*
X1113987Y-144925D01*
X1109789D01*
X1107690Y-142826D01*
Y-134430D01*
X932685Y-168552D02*
Y-182327D01*
X939572D01*
X941868Y-180031D01*
Y-170848D01*
X939572Y-168552D01*
X932685D01*
X946460Y-173144D02*
Y-182327D01*
Y-177735D01*
X948756Y-175439D01*
X951052Y-173144D01*
X953347D01*
X960235Y-182327D02*
X964827D01*
X962531D01*
Y-173144D01*
X960235D01*
X971714Y-182327D02*
X976306D01*
X974010D01*
Y-168552D01*
X971714D01*
X983193Y-182327D02*
X987785D01*
X985489D01*
Y-168552D01*
X983193D01*
X1017631Y-170848D02*
X1015335Y-168552D01*
X1010744D01*
X1008448Y-170848D01*
Y-180031D01*
X1010744Y-182327D01*
X1015335D01*
X1017631Y-180031D01*
Y-175439D01*
X1013039D01*
X1022223Y-173144D02*
Y-180031D01*
X1024519Y-182327D01*
X1031406D01*
Y-173144D01*
X1035998Y-182327D02*
X1040590D01*
X1038294D01*
Y-173144D01*
X1035998D01*
X1056660Y-168552D02*
Y-182327D01*
X1049773D01*
X1047477Y-180031D01*
Y-175439D01*
X1049773Y-173144D01*
X1056660D01*
X1068140Y-182327D02*
X1063548D01*
X1061252Y-180031D01*
Y-175439D01*
X1063548Y-173144D01*
X1068140D01*
X1070436Y-175439D01*
Y-177735D01*
X1061252D01*
D190*
X210817Y304409D02*
X212785D01*
X211801Y303425D02*
Y305394D01*
X210817Y276260D02*
X212785D01*
X211801Y275276D02*
Y277244D01*
X183583Y387795D02*
X187126D01*
X185354Y386024D02*
Y389567D01*
X173583Y387795D02*
X177126D01*
X175354Y386024D02*
Y389567D01*
X163583Y387795D02*
X167126D01*
X165354Y386024D02*
Y389567D01*
X153583Y387795D02*
X157126D01*
X155354Y386024D02*
Y389567D01*
X143583Y387795D02*
X147126D01*
X145354Y386024D02*
Y389567D01*
X133583Y387795D02*
X137126D01*
X135354Y386024D02*
Y389567D01*
X118307Y369094D02*
X121850D01*
X120079Y367323D02*
Y370866D01*
X130118Y369094D02*
X133661D01*
X131890Y367323D02*
Y370866D01*
X196153Y276024D02*
X198713D01*
X197433Y274744D02*
Y277303D01*
X196153Y298780D02*
X198713D01*
X197433Y297500D02*
Y300059D01*
X210620Y270394D02*
X212982D01*
X211801Y269213D02*
Y271575D01*
X210620Y304409D02*
X212982D01*
X211801Y303228D02*
Y305591D01*
X194163Y270394D02*
X196526D01*
X195344Y269213D02*
Y271575D01*
X194163Y304409D02*
X196526D01*
X195344Y303228D02*
Y305591D01*
X8228Y78740D02*
X11772D01*
X10000Y76968D02*
Y80512D01*
X-11772Y78740D02*
X-8228D01*
X-10000Y76968D02*
Y80512D01*
X-1772Y78740D02*
X1772D01*
X0Y76968D02*
Y80512D01*
X167520Y178150D02*
X171063D01*
X169291Y176378D02*
Y179921D01*
X167520Y189961D02*
X171063D01*
X169291Y188189D02*
Y191732D01*
X167520Y214567D02*
X171063D01*
X169291Y212795D02*
Y216339D01*
X167520Y226378D02*
X171063D01*
X169291Y224606D02*
Y228150D01*
X82933Y334244D02*
X85492D01*
X84213Y332965D02*
Y335524D01*
X60177Y334244D02*
X62736D01*
X61457Y332965D02*
Y335524D01*
X88661Y348612D02*
X91024D01*
X89842Y347431D02*
Y349793D01*
X54646Y348612D02*
X57008D01*
X55827Y347431D02*
Y349793D01*
X88661Y332155D02*
X91024D01*
X89842Y330974D02*
Y333337D01*
X54646Y332155D02*
X57008D01*
X55827Y330974D02*
Y333337D01*
X-106102Y382953D02*
X-102559D01*
X-104331Y381181D02*
Y384724D01*
X-106102Y372953D02*
X-102559D01*
X-104331Y371181D02*
Y374724D01*
X-210433Y334646D02*
X-206890D01*
X-208661Y332874D02*
Y336417D01*
X-210433Y322835D02*
X-206890D01*
X-208661Y321063D02*
Y324606D01*
X-198713Y300748D02*
X-196153D01*
X-197433Y299468D02*
Y302028D01*
X-198713Y277992D02*
X-196153D01*
X-197433Y276713D02*
Y279272D01*
X-212982Y306378D02*
X-210620D01*
X-211801Y305197D02*
Y307559D01*
X-212982Y272362D02*
X-210620D01*
X-211801Y271181D02*
Y273543D01*
X-196526Y306378D02*
X-194163D01*
X-195344Y305197D02*
Y307559D01*
X-196526Y272362D02*
X-194163D01*
X-195344Y271181D02*
Y273543D01*
X189575Y119438D02*
X193118D01*
X191346Y117666D02*
Y121210D01*
X196002Y111778D02*
X199546D01*
X197774Y110006D02*
Y113549D01*
X202430Y104117D02*
X205974D01*
X204202Y102346D02*
Y105889D01*
X208858Y96457D02*
X212402D01*
X210630Y94685D02*
Y98228D01*
X189575Y174556D02*
X193118D01*
X191346Y172784D02*
Y176328D01*
X196002Y166896D02*
X199546D01*
X197774Y165124D02*
Y168667D01*
X202430Y159235D02*
X205974D01*
X204202Y157464D02*
Y161007D01*
X208858Y151575D02*
X212402D01*
X210630Y149803D02*
Y153347D01*
X8858Y354331D02*
X10827D01*
X9843Y353346D02*
Y355315D01*
X-10827Y354331D02*
X-8858D01*
X-9843Y353346D02*
Y355315D01*
X984Y354331D02*
X2953D01*
X1969Y353346D02*
Y355315D01*
X-2953Y354331D02*
X-984D01*
X-1969Y353346D02*
Y355315D01*
X-178150Y96457D02*
X-176181D01*
X-177165Y95473D02*
Y97441D01*
X-178150Y104331D02*
X-176181D01*
X-177165Y103347D02*
Y105315D01*
X-178150Y108268D02*
X-176181D01*
X-177165Y107284D02*
Y109252D01*
X-178150Y116142D02*
X-176181D01*
X-177165Y115158D02*
Y117126D01*
X-178150Y120079D02*
X-176181D01*
X-177165Y119095D02*
Y121063D01*
X-178150Y92520D02*
X-176181D01*
X-177165Y91536D02*
Y93504D01*
X-178150Y318898D02*
X-176181D01*
X-177165Y317913D02*
Y319882D01*
X-178150Y322835D02*
X-176181D01*
X-177165Y321850D02*
Y323819D01*
X-178150Y330709D02*
X-176181D01*
X-177165Y329724D02*
Y331693D01*
X-178150Y334646D02*
X-176181D01*
X-177165Y333661D02*
Y335630D01*
X-178150Y342520D02*
X-176181D01*
X-177165Y341535D02*
Y343504D01*
X-178150Y346457D02*
X-176181D01*
X-177165Y345472D02*
Y347441D01*
X-142717Y354331D02*
X-140748D01*
X-141732Y353346D02*
Y355315D01*
X-146653Y354331D02*
X-144685D01*
X-145669Y353346D02*
Y355315D01*
X-170276Y354331D02*
X-168307D01*
X-169291Y353346D02*
Y355315D01*
X-166339Y354331D02*
X-164370D01*
X-165354Y353346D02*
Y355315D01*
X-158465Y354331D02*
X-156496D01*
X-157480Y353346D02*
Y355315D01*
X-154527Y354331D02*
X-152559D01*
X-153543Y353346D02*
Y355315D01*
X-173819Y352756D02*
X-171850D01*
X-172835Y351772D02*
Y353740D01*
X-176575Y350000D02*
X-174606D01*
X-175591Y349016D02*
Y350984D01*
X176181Y92520D02*
X178150D01*
X177165Y91535D02*
Y93504D01*
X176181Y120079D02*
X178150D01*
X177165Y119095D02*
Y121063D01*
X176181Y116142D02*
X178150D01*
X177165Y115157D02*
Y117126D01*
X176181Y108268D02*
X178150D01*
X177165Y107283D02*
Y109252D01*
X176181Y104331D02*
X178150D01*
X177165Y103347D02*
Y105315D01*
X176181Y96457D02*
X178150D01*
X177165Y95472D02*
Y97441D01*
X174606Y350000D02*
X176575D01*
X175591Y349016D02*
Y350984D01*
X171850Y352756D02*
X173819D01*
X172835Y351772D02*
Y353740D01*
X152559Y354331D02*
X154527D01*
X153543Y353346D02*
Y355315D01*
X156496Y354331D02*
X158465D01*
X157480Y353346D02*
Y355315D01*
X164370Y354331D02*
X166339D01*
X165354Y353346D02*
Y355315D01*
X168307Y354331D02*
X170276D01*
X169291Y353346D02*
Y355315D01*
X144685Y354331D02*
X146653D01*
X145669Y353346D02*
Y355315D01*
X140748Y354331D02*
X142717D01*
X141732Y353346D02*
Y355315D01*
X176181Y346457D02*
X178150D01*
X177165Y345472D02*
Y347441D01*
X176181Y342520D02*
X178150D01*
X177165Y341535D02*
Y343504D01*
X176181Y334646D02*
X178150D01*
X177165Y333661D02*
Y335630D01*
X176181Y330709D02*
X178150D01*
X177165Y329724D02*
Y331693D01*
X176181Y322835D02*
X178150D01*
X177165Y321850D02*
Y323819D01*
X176181Y318898D02*
X178150D01*
X177165Y317913D02*
Y319882D01*
X183071Y370079D02*
X202756D01*
X192913Y360236D02*
Y379921D01*
X-202756Y370079D02*
X-183071D01*
X-192913Y360236D02*
Y379921D01*
X-131890Y421260D02*
X-120079D01*
X-125984Y415354D02*
Y427165D01*
X120079Y421260D02*
X131890D01*
X125984Y415354D02*
Y427165D01*
X80315Y70866D02*
X92913D01*
X86614Y64567D02*
Y77165D01*
X-92913Y70866D02*
X-80315D01*
X-86614Y64567D02*
Y77165D01*
X137402Y264764D02*
X142126D01*
X139764Y262402D02*
Y267126D01*
X138189Y274606D02*
X141339D01*
X139764Y273031D02*
Y276181D01*
X138189Y284449D02*
X141339D01*
X139764Y282874D02*
Y286024D01*
X138189Y254921D02*
X141339D01*
X139764Y253346D02*
Y256496D01*
X138189Y245079D02*
X141339D01*
X139764Y243504D02*
Y246654D01*
X157874Y264764D02*
X161024D01*
X159449Y263189D02*
Y266339D01*
X166929Y245079D02*
X171653D01*
X169291Y242717D02*
Y247441D01*
X157087Y245079D02*
X161811D01*
X159449Y242717D02*
Y247441D01*
X157087Y284449D02*
X161811D01*
X159449Y282087D02*
Y286811D01*
X166929Y284449D02*
X171653D01*
X169291Y282087D02*
Y286811D01*
X-167717Y338583D02*
X-155118D01*
X-161417Y332283D02*
Y344882D01*
X155118Y338583D02*
X167717D01*
X161417Y332283D02*
Y344882D01*
X-65354Y338583D02*
X-52756D01*
X-59055Y332283D02*
Y344882D01*
X-52874Y27559D02*
X-37126D01*
X-45000Y19685D02*
Y35433D01*
X-7874Y27559D02*
X7874D01*
X0Y19685D02*
Y35433D01*
X37126Y27559D02*
X52874D01*
X45000Y19685D02*
Y35433D01*
X-92874Y27559D02*
X-77126D01*
X-85000Y19685D02*
Y35433D01*
X77126Y27559D02*
X92874D01*
X85000Y19685D02*
Y35433D01*
X-138189Y129921D02*
X-133465D01*
X-135827Y127559D02*
Y132283D01*
X135433Y129921D02*
X140157D01*
X137795Y127559D02*
Y132283D01*
X167520Y126142D02*
X171063D01*
X169291Y124370D02*
Y127913D01*
X157520Y126142D02*
X161063D01*
X159291Y124370D02*
Y127913D01*
X167520Y116142D02*
X171063D01*
X169291Y114370D02*
Y117913D01*
X157520Y116142D02*
X161063D01*
X159291Y114370D02*
Y117913D01*
X167520Y106142D02*
X171063D01*
X169291Y104370D02*
Y107913D01*
X157520Y106142D02*
X161063D01*
X159291Y104370D02*
Y107913D01*
X141339Y201969D02*
X142520D01*
X141929Y201378D02*
Y202559D01*
X121850Y185039D02*
X123031D01*
X122441Y184449D02*
Y185630D01*
X137402Y221654D02*
X138583D01*
X137992Y221063D02*
Y222244D01*
X124557Y206496D02*
X125738D01*
X125148Y205906D02*
Y207087D01*
X-105709Y214961D02*
X-104528D01*
X-105118Y214370D02*
Y215551D01*
X-159744Y119882D02*
X-158563D01*
X-159153Y119291D02*
Y120472D01*
X94685Y298819D02*
X95866D01*
X95276Y298228D02*
Y299410D01*
X-170866Y386811D02*
X-169685D01*
X-170276Y386221D02*
Y387402D01*
X-187598Y387795D02*
X-186417D01*
X-187008Y387205D02*
Y388386D01*
X-197441Y289370D02*
X-196260D01*
X-196850Y288779D02*
Y289961D01*
X-188582Y338189D02*
X-187401D01*
X-187992Y337598D02*
Y338779D01*
X-147244Y359252D02*
X-146063D01*
X-146653Y358661D02*
Y359842D01*
X-144291Y359252D02*
X-143110D01*
X-143701Y358661D02*
Y359842D01*
X-141339Y359252D02*
X-140157D01*
X-140748Y358661D02*
Y359842D01*
X-197343Y281299D02*
X-196161D01*
X-196752Y280709D02*
Y281890D01*
X-197343Y297441D02*
X-196161D01*
X-196752Y296850D02*
Y298031D01*
X-155118Y371063D02*
X-153937D01*
X-154528Y370472D02*
Y371654D01*
X-158071Y373031D02*
X-156890D01*
X-157480Y372441D02*
Y373622D01*
X-169882Y373031D02*
X-168701D01*
X-169291Y372441D02*
Y373622D01*
X-169882Y376969D02*
X-168701D01*
X-169291Y376378D02*
Y377559D01*
X-163976Y373031D02*
X-162795D01*
X-163386Y372441D02*
Y373622D01*
X-163976Y376969D02*
X-162795D01*
X-163386Y376378D02*
Y377559D01*
X-166929Y371063D02*
X-165748D01*
X-166339Y370472D02*
Y371654D01*
X-166929Y378937D02*
X-165748D01*
X-166339Y378346D02*
Y379528D01*
X-166929Y375000D02*
X-165748D01*
X-166339Y374410D02*
Y375590D01*
X-158071Y376969D02*
X-156890D01*
X-157480Y376378D02*
Y377559D01*
X-161024Y371063D02*
X-159843D01*
X-160433Y370472D02*
Y371654D01*
X-161024Y378937D02*
X-159843D01*
X-160433Y378346D02*
Y379528D01*
X-161024Y375000D02*
X-159843D01*
X-160433Y374410D02*
Y375590D01*
X-155118Y375000D02*
X-153937D01*
X-154528Y374410D02*
Y375590D01*
X-155118Y378937D02*
X-153937D01*
X-154528Y378346D02*
Y379528D01*
X-152165Y376969D02*
X-150984D01*
X-151575Y376378D02*
Y377559D01*
X-152165Y373031D02*
X-150984D01*
X-151575Y372441D02*
Y373622D01*
X-149213Y371063D02*
X-148031D01*
X-148622Y370472D02*
Y371654D01*
X-149213Y378937D02*
X-148031D01*
X-148622Y378346D02*
Y379528D01*
X-149213Y375000D02*
X-148031D01*
X-148622Y374410D02*
Y375590D01*
X-133465Y367126D02*
X-132283D01*
X-132874Y366535D02*
Y367717D01*
X-133465Y371063D02*
X-132283D01*
X-132874Y370472D02*
Y371654D01*
X-133465Y375000D02*
X-132283D01*
X-132874Y374410D02*
Y375590D01*
X-133465Y378937D02*
X-132283D01*
X-132874Y378346D02*
Y379528D01*
X-136417Y365158D02*
X-135236D01*
X-135827Y364567D02*
Y365748D01*
X-136417Y369094D02*
X-135236D01*
X-135827Y368504D02*
Y369685D01*
X-136417Y380906D02*
X-135236D01*
X-135827Y380315D02*
Y381496D01*
X-136417Y373031D02*
X-135236D01*
X-135827Y372441D02*
Y373622D01*
X-136417Y376969D02*
X-135236D01*
X-135827Y376378D02*
Y377559D01*
X-139370Y375000D02*
X-138189D01*
X-138779Y374410D02*
Y375590D01*
X-142323Y375000D02*
X-141142D01*
X-141732Y374410D02*
Y375590D01*
X-145276Y375000D02*
X-144095D01*
X-144685Y374410D02*
Y375590D01*
X198228Y334646D02*
X199409D01*
X198819Y334055D02*
Y335236D01*
X142126Y360728D02*
X143307D01*
X142717Y360138D02*
Y361319D01*
X168701Y372047D02*
X169882D01*
X169291Y371457D02*
Y372638D01*
X173819Y357087D02*
X175000D01*
X174409Y356496D02*
Y357677D01*
X138189Y377658D02*
X139370D01*
X138779Y377067D02*
Y378248D01*
X152559Y379528D02*
X153740D01*
X153150Y378937D02*
Y380118D01*
X167520Y381496D02*
X168701D01*
X168110Y380906D02*
Y382087D01*
X194685Y352146D02*
X195866D01*
X195276Y351555D02*
Y352736D01*
X210039Y370079D02*
X211221D01*
X210630Y369488D02*
Y370669D01*
X180512Y320866D02*
X181693D01*
X181102Y320276D02*
Y321457D01*
X196047Y279331D02*
X197228D01*
X196638Y278740D02*
Y279921D01*
X196161Y295472D02*
X197343D01*
X196752Y294882D02*
Y296063D01*
X195965Y283957D02*
X197146D01*
X196555Y283366D02*
Y284547D01*
X205217Y290354D02*
X206398D01*
X205807Y289764D02*
Y290945D01*
X195965Y289075D02*
X197146D01*
X196555Y288484D02*
Y289665D01*
X134842Y314566D02*
X136023D01*
X135433Y313976D02*
Y315157D01*
X128543Y320079D02*
X129724D01*
X129134Y319488D02*
Y320669D01*
X139567Y313779D02*
X140748D01*
X140157Y313189D02*
Y314370D01*
X67126Y322835D02*
X68307D01*
X67716Y322244D02*
Y323425D01*
X139173Y299213D02*
X140354D01*
X139764Y298622D02*
Y299803D01*
X107677Y314961D02*
X108858D01*
X108268Y314370D02*
Y315551D01*
X78154Y322830D02*
X79335D01*
X78745Y322239D02*
Y323421D01*
X-32874Y103150D02*
X-31693D01*
X-32283Y102559D02*
Y103740D01*
X10039Y135827D02*
X11220D01*
X10630Y135236D02*
Y136417D01*
X26969Y139764D02*
X28150D01*
X27559Y139173D02*
Y140354D01*
X-92323Y103150D02*
X-91142D01*
X-91732Y102559D02*
Y103740D01*
X13976Y138976D02*
X15157D01*
X14567Y138386D02*
Y139567D01*
X-52559Y98426D02*
X-51378D01*
X-51968Y97835D02*
Y99016D01*
X131116Y254527D02*
X132297D01*
X131706Y253937D02*
Y255118D01*
X100197Y250394D02*
X101378D01*
X100787Y249803D02*
Y250984D01*
X-50197Y314567D02*
X-49016D01*
X-49606Y313976D02*
Y315158D01*
X25000Y309055D02*
X26181D01*
X25591Y308465D02*
Y309646D01*
X10039Y229134D02*
X11220D01*
X10630Y228543D02*
Y229724D01*
X12402Y231496D02*
X13583D01*
X12992Y230906D02*
Y232087D01*
X127362Y163386D02*
X128543D01*
X127953Y162795D02*
Y163976D01*
X150197Y287008D02*
X151378D01*
X150787Y286417D02*
Y287598D01*
X56102Y272026D02*
X57284D01*
X56693Y271436D02*
Y272617D01*
X67126Y272026D02*
X68307D01*
X67716Y271436D02*
Y272617D01*
X123622Y302756D02*
X124803D01*
X124213Y302165D02*
Y303346D01*
X76575Y85827D02*
X77756D01*
X77165Y85236D02*
Y86417D01*
X-165157Y312992D02*
X-163976D01*
X-164567Y312402D02*
Y313583D01*
X-167913Y312992D02*
X-166732D01*
X-167323Y312402D02*
Y313583D01*
X-126181Y311417D02*
X-125000D01*
X-125591Y310827D02*
Y312008D01*
X-129331Y311417D02*
X-128150D01*
X-128740Y310827D02*
Y312008D01*
X-87205Y311417D02*
X-86024D01*
X-86614Y310827D02*
Y312008D01*
X-89961Y311417D02*
X-88779D01*
X-89370Y310827D02*
Y312008D01*
X-55709Y308661D02*
X-54528D01*
X-55118Y308071D02*
Y309252D01*
X-58329Y310495D02*
X-57148D01*
X-57739Y309904D02*
Y311085D01*
X71063Y106693D02*
X72244D01*
X71653Y106102D02*
Y107283D01*
X10827Y110630D02*
X12008D01*
X11417Y110039D02*
Y111221D01*
X8465Y113779D02*
X9646D01*
X9055Y113189D02*
Y114370D01*
X-30325Y85682D02*
X-29144D01*
X-29734Y85091D02*
Y86272D01*
X-66512Y85682D02*
X-65330D01*
X-65921Y85091D02*
Y86272D01*
X61221Y111811D02*
X62402D01*
X61811Y111221D02*
Y112402D01*
X-31884Y89843D02*
X-30703D01*
X-31293Y89252D02*
Y90434D01*
X-110390Y89843D02*
X-109209D01*
X-109799Y89252D02*
Y90434D01*
X18307Y109252D02*
X19488D01*
X18898Y108661D02*
Y109842D01*
X70276Y53543D02*
X71457D01*
X70866Y52953D02*
Y54134D01*
X98228Y79134D02*
X99410D01*
X98819Y78543D02*
Y79724D01*
X127559Y94457D02*
X128740D01*
X128149Y93866D02*
Y95047D01*
X-34449Y98426D02*
X-33268D01*
X-33858Y97835D02*
Y99016D01*
X56102Y229528D02*
X57284D01*
X56693Y228937D02*
Y230118D01*
X34449Y229528D02*
X35630D01*
X35039Y228937D02*
Y230118D01*
X26969Y242520D02*
X28150D01*
X27559Y241929D02*
Y243110D01*
X-63976Y283858D02*
X-62795D01*
X-63386Y283268D02*
Y284449D01*
X48228Y282283D02*
X49409D01*
X48819Y281693D02*
Y282874D01*
X137598Y292126D02*
X138779D01*
X138189Y291535D02*
Y292717D01*
X-89961Y137795D02*
X-88779D01*
X-89370Y137205D02*
Y138386D01*
X-61221Y140551D02*
X-60039D01*
X-60630Y139961D02*
Y141142D01*
X7283Y149016D02*
X8465D01*
X7874Y148425D02*
Y149606D01*
X-34449Y149016D02*
X-33268D01*
X-33858Y148425D02*
Y149606D01*
X57284Y118898D02*
X58465D01*
X57874Y118307D02*
Y119488D01*
X5906Y57480D02*
X7087D01*
X6496Y56890D02*
Y58071D01*
X58071Y147638D02*
X59252D01*
X58661Y147047D02*
Y148228D01*
X97835Y147638D02*
X99016D01*
X98425Y147047D02*
Y148228D01*
X-60138Y155217D02*
X-58957D01*
X-59547Y154626D02*
Y155807D01*
X-65551Y152756D02*
X-64370D01*
X-64961Y152165D02*
Y153346D01*
X-94685Y141929D02*
X-93504D01*
X-94095Y141339D02*
Y142520D01*
X-112402Y149016D02*
X-111221D01*
X-111811Y148425D02*
Y149606D01*
X-46260Y158071D02*
X-45079D01*
X-45669Y157480D02*
Y158661D01*
X-109252Y261024D02*
X-108071D01*
X-108661Y260433D02*
Y261614D01*
X-152165Y261024D02*
X-150984D01*
X-151575Y260433D02*
Y261614D01*
X35236Y222835D02*
X36417D01*
X35827Y222244D02*
Y223425D01*
X50197Y222835D02*
X51378D01*
X50787Y222244D02*
Y223425D01*
X45079Y242520D02*
X46260D01*
X45669Y241929D02*
Y243110D01*
X-39370Y281890D02*
X-38189D01*
X-38780Y281299D02*
Y282480D01*
X-36811Y279134D02*
X-35630D01*
X-36220Y278543D02*
Y279724D01*
X-36811Y241339D02*
X-35630D01*
X-36220Y240748D02*
Y241929D01*
X-61221Y257169D02*
X-60039D01*
X-60630Y256578D02*
Y257759D01*
X-121457Y257169D02*
X-120276D01*
X-120866Y256578D02*
Y257759D01*
X-28367Y76161D02*
X-27186D01*
X-27776Y75570D02*
Y76751D01*
X-55188Y76161D02*
X-54006D01*
X-54597Y75570D02*
Y76751D01*
X43110Y249606D02*
X44291D01*
X43701Y249016D02*
Y250197D01*
X34872Y249606D02*
X36053D01*
X35463Y249016D02*
Y250197D01*
X47835Y245669D02*
X49016D01*
X48425Y245079D02*
Y246260D01*
X32480Y245669D02*
X33661D01*
X33071Y245079D02*
Y246260D01*
X-87205Y214961D02*
X-86024D01*
X-86614Y214370D02*
Y215551D01*
X48622Y338386D02*
X49804D01*
X49213Y337795D02*
Y338976D01*
X99803Y334055D02*
X100985D01*
X100394Y333464D02*
Y334645D01*
X45079Y292520D02*
X46260D01*
X45669Y291929D02*
Y293110D01*
X41929Y295276D02*
X43110D01*
X42520Y294685D02*
Y295866D01*
X160630Y220276D02*
X161811D01*
X161221Y219685D02*
Y220866D01*
X160630Y214764D02*
X161811D01*
X161221Y214173D02*
Y215354D01*
X160630Y232874D02*
X161811D01*
X161221Y232283D02*
Y233465D01*
X160630Y178346D02*
X161811D01*
X161221Y177756D02*
Y178937D01*
X160630Y183858D02*
X161811D01*
X161221Y183268D02*
Y184449D01*
X134449Y159843D02*
X135630D01*
X135039Y159252D02*
Y160433D01*
X134449Y162598D02*
X135630D01*
X135039Y162008D02*
Y163189D01*
X-36811Y314173D02*
X-35630D01*
X-36220Y313583D02*
Y314764D01*
X-39370Y302362D02*
X-38189D01*
X-38780Y301772D02*
Y302953D01*
X28386Y292945D02*
X29567D01*
X28976Y292354D02*
Y293535D01*
X31299Y300000D02*
X32480D01*
X31890Y299410D02*
Y300590D01*
X69095Y333465D02*
X70276D01*
X69685Y332874D02*
Y334055D01*
X39173Y127165D02*
X40354D01*
X39764Y126575D02*
Y127756D01*
X-65158Y94488D02*
X-63976D01*
X-64567Y93898D02*
Y95079D01*
X-34449Y94488D02*
X-33268D01*
X-33858Y93898D02*
Y95079D01*
X-100197Y207874D02*
X-99016D01*
X-99606Y207283D02*
Y208465D01*
X-91535Y202953D02*
X-90354D01*
X-90945Y202362D02*
Y203543D01*
X-96653Y220669D02*
X-95472D01*
X-96063Y220079D02*
Y221260D01*
X-118898Y202953D02*
X-117717D01*
X-118307Y202362D02*
Y203543D01*
X-121457Y217126D02*
X-120276D01*
X-120866Y216535D02*
Y217717D01*
X-119095Y210236D02*
X-117913D01*
X-118504Y209646D02*
Y210827D01*
X-105315Y205413D02*
X-104134D01*
X-104724Y204823D02*
Y206004D01*
X-124016Y205413D02*
X-122835D01*
X-123425Y204823D02*
Y206004D01*
X-129134Y207874D02*
X-127953D01*
X-128543Y207283D02*
Y208465D01*
X-131693Y210236D02*
X-130512D01*
X-131102Y209646D02*
Y210827D01*
X-96653Y241339D02*
X-95472D01*
X-96063Y240748D02*
Y241929D01*
X-109449Y235827D02*
X-108268D01*
X-108858Y235236D02*
Y236417D01*
X-106890Y232283D02*
X-105709D01*
X-106299Y231693D02*
Y232874D01*
X-136811Y223622D02*
X-135630D01*
X-136221Y223031D02*
Y224213D01*
X-134216Y225984D02*
X-133035D01*
X-133625Y225394D02*
Y226575D01*
X-118877Y223228D02*
X-117696D01*
X-118286Y222638D02*
Y223819D01*
X-41929Y235827D02*
X-40748D01*
X-41339Y235236D02*
Y236417D01*
X-49409Y232283D02*
X-48228D01*
X-48819Y231693D02*
Y232874D01*
X-52559Y229134D02*
X-51378D01*
X-51968Y228543D02*
Y229724D01*
X-55188Y225984D02*
X-54006D01*
X-54597Y225394D02*
Y226575D01*
X-57747Y223228D02*
X-56566D01*
X-57156Y222638D02*
Y223819D01*
X-116339Y212950D02*
X-115157D01*
X-115748Y212360D02*
Y213541D01*
X-101772Y217820D02*
X-100591D01*
X-101181Y217229D02*
Y218410D01*
X-121457Y220866D02*
X-120276D01*
X-120866Y220276D02*
Y221457D01*
X-126575Y218359D02*
X-125394D01*
X-125984Y217768D02*
Y218949D01*
X-142982Y212950D02*
X-141801D01*
X-142392Y212360D02*
Y213541D01*
X-145518Y215851D02*
X-144337D01*
X-144928Y215261D02*
Y216442D01*
X-148054Y218359D02*
X-146873D01*
X-147464Y217768D02*
Y218949D01*
X-150591Y220866D02*
X-149409D01*
X-150000Y220276D02*
Y221457D01*
X79562Y316964D02*
X80743D01*
X80152Y316373D02*
Y317554D01*
X112598Y287992D02*
X113779D01*
X113189Y287401D02*
Y288582D01*
X45079Y327362D02*
X46260D01*
X45670Y326771D02*
Y327952D01*
X150197Y293701D02*
X151378D01*
X150787Y293110D02*
Y294291D01*
X150984Y303937D02*
X152165D01*
X151575Y303346D02*
Y304528D01*
X140084Y305438D02*
X141265D01*
X140674Y304848D02*
Y306029D01*
X5709Y343110D02*
X6890D01*
X6299Y342520D02*
Y343701D01*
X127756Y142913D02*
X128937D01*
X128347Y142323D02*
Y143504D01*
X138779Y114567D02*
X139961D01*
X139370Y113976D02*
Y115157D01*
X138779Y117717D02*
X139961D01*
X139370Y117126D02*
Y118307D01*
X138779Y120866D02*
X139961D01*
X139370Y120276D02*
Y121457D01*
X138779Y111417D02*
X139961D01*
X139370Y110827D02*
Y112008D01*
X138779Y108268D02*
X139961D01*
X139370Y107677D02*
Y108858D01*
X136024Y109843D02*
X137205D01*
X136614Y109252D02*
Y110433D01*
X133268Y108268D02*
X134449D01*
X133858Y107677D02*
Y108858D01*
X133268Y111417D02*
X134449D01*
X133858Y110827D02*
Y112008D01*
X133268Y120866D02*
X134449D01*
X133858Y120276D02*
Y121457D01*
X136024Y119291D02*
X137205D01*
X136614Y118701D02*
Y119882D01*
X136024Y116142D02*
X137205D01*
X136614Y115551D02*
Y116732D01*
X136024Y112992D02*
X137205D01*
X136614Y112402D02*
Y113583D01*
X133268Y117717D02*
X134449D01*
X133858Y117126D02*
Y118307D01*
X133268Y114567D02*
X134449D01*
X133858Y113976D02*
Y115157D01*
X130512Y112992D02*
X131693D01*
X131102Y112402D02*
Y113583D01*
X130512Y116142D02*
X131693D01*
X131102Y115551D02*
Y116732D01*
X130512Y119291D02*
X131693D01*
X131102Y118701D02*
Y119882D01*
X117913Y119291D02*
X119095D01*
X118504Y118701D02*
Y119882D01*
X117913Y116142D02*
X119095D01*
X118504Y115551D02*
Y116732D01*
X117913Y112992D02*
X119095D01*
X118504Y112402D02*
Y113583D01*
X120669Y117717D02*
X121850D01*
X121260Y117126D02*
Y118307D01*
X120669Y114567D02*
X121850D01*
X121260Y113976D02*
Y115157D01*
X93110Y105118D02*
X94291D01*
X93701Y104528D02*
Y105709D01*
X93110Y108268D02*
X94291D01*
X93701Y107677D02*
Y108858D01*
X93110Y127165D02*
X94291D01*
X93701Y126575D02*
Y127756D01*
X93110Y124016D02*
X94291D01*
X93701Y123425D02*
Y124606D01*
X93110Y114567D02*
X94291D01*
X93701Y113976D02*
Y115157D01*
X93110Y117717D02*
X94291D01*
X93701Y117126D02*
Y118307D01*
X93110Y120866D02*
X94291D01*
X93701Y120276D02*
Y121457D01*
X93110Y111417D02*
X94291D01*
X93701Y110827D02*
Y112008D01*
X95866Y109843D02*
X97047D01*
X96457Y109252D02*
Y110433D01*
X95866Y106693D02*
X97047D01*
X96457Y106102D02*
Y107283D01*
X95866Y122441D02*
X97047D01*
X96457Y121850D02*
Y123031D01*
X95866Y125591D02*
X97047D01*
X96457Y125000D02*
Y126181D01*
X95866Y119291D02*
X97047D01*
X96457Y118701D02*
Y119882D01*
X95866Y116142D02*
X97047D01*
X96457Y115551D02*
Y116732D01*
X95866Y112992D02*
X97047D01*
X96457Y112402D02*
Y113583D01*
X98622Y114567D02*
X99803D01*
X99213Y113976D02*
Y115157D01*
X98622Y117717D02*
X99803D01*
X99213Y117126D02*
Y118307D01*
X101378Y112992D02*
X102559D01*
X101969Y112402D02*
Y113583D01*
X101378Y116142D02*
X102559D01*
X101969Y115551D02*
Y116732D01*
X101378Y119291D02*
X102559D01*
X101969Y118701D02*
Y119882D01*
X-18897Y94882D02*
X-17716D01*
X-18307Y94292D02*
Y95473D01*
X52953Y84646D02*
X54134D01*
X53543Y84055D02*
Y85236D01*
X27953Y86831D02*
X29134D01*
X28543Y86240D02*
Y87421D01*
X-108858Y301181D02*
X-107677D01*
X-108268Y300590D02*
Y301772D01*
X-108858Y275665D02*
X-107677D01*
X-108268Y275075D02*
Y276256D01*
X-158071Y271260D02*
X-156890D01*
X-157480Y270669D02*
Y271850D01*
X131644Y194685D02*
X132825D01*
X132234Y194095D02*
Y195276D01*
X113238Y207677D02*
X114419D01*
X113829Y207087D02*
Y208268D01*
X120472Y302756D02*
X121653D01*
X121063Y302165D02*
Y303346D01*
X83071Y292717D02*
X84252D01*
X83661Y292126D02*
Y293307D01*
X106496Y287795D02*
X107677D01*
X107087Y287205D02*
Y288386D01*
X106102Y302756D02*
X107283D01*
X106693Y302165D02*
Y303346D01*
X82087Y304134D02*
X83268D01*
X82678Y303544D02*
Y304725D01*
X31280Y127953D02*
X32461D01*
X31870Y127362D02*
Y128543D01*
X116536Y96457D02*
X117717D01*
X117126Y95867D02*
Y97048D01*
X76181Y133859D02*
X77363D01*
X76772Y133268D02*
Y134449D01*
X52559Y123031D02*
X53741D01*
X53150Y122441D02*
Y123622D01*
X37205Y89370D02*
X38386D01*
X37795Y88779D02*
Y89961D01*
X-150000Y119882D02*
X-148819D01*
X-149409Y119291D02*
Y120472D01*
X-153346Y107874D02*
X-152165D01*
X-152756Y107283D02*
Y108465D01*
X-156890Y107874D02*
X-155709D01*
X-156299Y107283D02*
Y108465D01*
X140157Y318897D02*
X141338D01*
X140748Y318307D02*
Y319488D01*
X115551Y218504D02*
X116733D01*
X116142Y217914D02*
Y219095D01*
X119095Y222048D02*
X120276D01*
X119685Y221457D02*
Y222638D01*
X125788Y222048D02*
X126969D01*
X126378Y221457D02*
Y222638D01*
X99410Y327362D02*
X100591D01*
X100000Y326771D02*
Y327952D01*
X117520Y264763D02*
X118701D01*
X118111Y264173D02*
Y265354D01*
X121063Y261220D02*
X122244D01*
X121654Y260630D02*
Y261811D01*
X90355Y236811D02*
X91536D01*
X90945Y236220D02*
Y237401D01*
X93898Y233267D02*
X95079D01*
X94489Y232677D02*
Y233858D01*
X93898Y264763D02*
X95079D01*
X94489Y264173D02*
Y265354D01*
X90355Y261220D02*
X91536D01*
X90945Y260630D02*
Y261811D01*
X90355Y243504D02*
X91536D01*
X90945Y242913D02*
Y244094D01*
X93898Y247047D02*
X95079D01*
X94489Y246456D02*
Y247638D01*
X117520Y247047D02*
X118701D01*
X118111Y246456D02*
Y247638D01*
X121063Y243504D02*
X122244D01*
X121654Y242913D02*
Y244094D01*
X86418Y107677D02*
X87599D01*
X87008Y107087D02*
Y108268D01*
X84055Y100393D02*
X85236D01*
X84645Y99803D02*
Y100984D01*
X84055Y94488D02*
X85236D01*
X84645Y93897D02*
Y95078D01*
X52559Y109252D02*
X53741D01*
X53150Y108661D02*
Y109842D01*
X24016Y68898D02*
X25197D01*
X24607Y68307D02*
Y69489D01*
X18110Y93504D02*
X19291D01*
X18700Y92914D02*
Y94095D01*
X18111Y88582D02*
X19292D01*
X18701Y87992D02*
Y89173D01*
X-158661Y111811D02*
X-157480D01*
X-158071Y111220D02*
Y112401D01*
X-151575Y111811D02*
X-150393D01*
X-150984Y111220D02*
Y112401D01*
X-140748Y100787D02*
X-139567D01*
X-140158Y100197D02*
Y101378D01*
X-109842D02*
X-108661D01*
X-109252Y100787D02*
Y101968D01*
X-134449Y160433D02*
X-133268D01*
X-133858Y159843D02*
Y161024D01*
X-139567Y150197D02*
X-138385D01*
X-138976Y149606D02*
Y150787D01*
X-46260Y149016D02*
X-45079D01*
X-45669Y148425D02*
Y149606D01*
X32480Y149016D02*
X33661D01*
X33071Y148425D02*
Y149606D01*
X45079Y168307D02*
X46260D01*
X45669Y167717D02*
Y168898D01*
X-93110Y152756D02*
X-91929D01*
X-92520Y152165D02*
Y153346D01*
X-33661Y168307D02*
X-32480D01*
X-33071Y167717D02*
Y168898D01*
X-112402Y168307D02*
X-111221D01*
X-111811Y167717D02*
Y168898D01*
X-148229Y247945D02*
X-147048D01*
X-147638Y247354D02*
Y248535D01*
X-116732Y275665D02*
X-115551D01*
X-116142Y275075D02*
Y276256D01*
X-116732Y301181D02*
X-115551D01*
X-116142Y300590D02*
Y301772D01*
X-69488Y317945D02*
X-68307D01*
X-68897Y317354D02*
Y318535D01*
X-148229Y317945D02*
X-147048D01*
X-147638Y317354D02*
Y318535D01*
X-164961Y322441D02*
X-163779D01*
X-164370Y321850D02*
Y323031D01*
X-164961Y318701D02*
X-163779D01*
X-164370Y318110D02*
Y319291D01*
X-165945Y301181D02*
X-164764D01*
X-165354Y300591D02*
Y301772D01*
M02*
