G04*
G04 #@! TF.GenerationSoftware,Altium Limited,Altium Designer,20.0.13 (296)*
G04*
G04 Layer_Color=8421504*
%FSLAX25Y25*%
%MOIN*%
G70*
G01*
G75*
%ADD10C,0.01575*%
%ADD11R,0.03937X0.03937*%
%ADD12R,0.03937X0.03937*%
%ADD13R,0.07874X0.07874*%
%ADD14C,0.00591*%
%ADD15R,0.02559X0.01181*%
%ADD16R,0.03150X0.01181*%
%ADD17R,0.03740X0.01575*%
%ADD18R,0.03347X0.03937*%
%ADD19R,0.03347X0.03937*%
%ADD20R,0.03937X0.05906*%
%ADD21R,0.03937X0.03150*%
%ADD22R,0.02756X0.04331*%
%ADD23R,0.03937X0.04331*%
%ADD24R,0.04528X0.02362*%
%ADD25R,0.05906X0.05118*%
%ADD26O,0.08661X0.02362*%
%ADD27R,0.04331X0.03937*%
%ADD28R,0.05709X0.01181*%
%ADD29R,0.07874X0.05512*%
%ADD30O,0.01772X0.05512*%
%ADD31R,0.05118X0.03937*%
%ADD32R,0.23622X0.11811*%
%ADD33R,0.05000X0.03937*%
%ADD34R,0.00984X0.01083*%
%ADD35R,0.01083X0.00984*%
%ADD36R,0.03937X0.05118*%
%ADD37R,0.03150X0.03937*%
%ADD38R,0.04331X0.02756*%
%ADD39R,0.10236X0.06693*%
%ADD40R,0.05118X0.05906*%
%ADD41R,0.02165X0.03150*%
%ADD42O,0.02953X0.00984*%
%ADD43O,0.00984X0.02953*%
%ADD44R,0.01181X0.05709*%
%ADD45C,0.01968*%
%ADD46R,0.03937X0.01575*%
%ADD47R,0.07874X0.03543*%
%ADD48R,0.13386X0.05906*%
%ADD49R,0.12205X0.04724*%
%ADD50O,0.02362X0.07874*%
%ADD51R,0.12992X0.09488*%
%ADD52C,0.03150*%
%ADD53O,0.02362X0.08661*%
G36*
X128855Y548834D02*
X130647Y548092D01*
X132258Y547015D01*
X133630Y545644D01*
X134707Y544032D01*
X135449Y542241D01*
X135827Y540340D01*
Y539370D01*
Y538401D01*
X135449Y536499D01*
X134707Y534708D01*
X133630Y533096D01*
X132258Y531725D01*
X130647Y530648D01*
X128855Y529906D01*
X126954Y529528D01*
X125015D01*
X123113Y529906D01*
X121322Y530648D01*
X119710Y531725D01*
X118339Y533096D01*
X117262Y534708D01*
X116520Y536499D01*
X116142Y538401D01*
Y539370D01*
Y540340D01*
X116520Y542241D01*
X117262Y544032D01*
X118339Y545644D01*
X119710Y547015D01*
X121322Y548092D01*
X123113Y548834D01*
X125015Y549213D01*
X126954D01*
X128855Y548834D01*
D02*
G37*
G36*
X-123113D02*
X-121322Y548092D01*
X-119710Y547015D01*
X-118339Y545644D01*
X-117262Y544032D01*
X-116520Y542241D01*
X-116142Y540340D01*
Y539370D01*
Y538401D01*
X-116520Y536499D01*
X-117262Y534708D01*
X-118339Y533096D01*
X-119710Y531725D01*
X-121322Y530648D01*
X-123113Y529906D01*
X-125015Y529528D01*
X-126954D01*
X-128855Y529906D01*
X-130646Y530648D01*
X-132258Y531725D01*
X-133629Y533096D01*
X-134706Y534708D01*
X-135449Y536499D01*
X-135827Y538401D01*
Y539370D01*
Y540340D01*
X-135449Y542241D01*
X-134706Y544032D01*
X-133629Y545644D01*
X-132258Y547015D01*
X-130646Y548092D01*
X-128855Y548834D01*
X-126954Y549213D01*
X-125015D01*
X-123113Y548834D01*
D02*
G37*
G36*
X-153938Y278346D02*
X-153938Y275745D01*
X-154121Y275799D01*
X-154443Y276020D01*
X-154681Y276328D01*
X-154738Y276488D01*
X-154824Y276882D01*
X-154825Y276884D01*
X-154825Y276886D01*
X-154832Y276908D01*
X-154839Y276932D01*
X-154839Y276933D01*
X-154840Y276935D01*
X-154850Y276957D01*
X-154859Y276979D01*
X-154860Y276980D01*
X-154861Y276982D01*
X-155261Y277739D01*
X-155271Y277756D01*
X-155281Y277773D01*
X-155285Y277778D01*
X-155288Y277783D01*
X-155300Y277798D01*
X-155312Y277814D01*
X-155316Y277818D01*
X-155320Y277823D01*
X-155335Y277837D01*
X-155349Y277851D01*
X-155990Y278417D01*
X-156006Y278429D01*
X-156021Y278442D01*
X-156026Y278445D01*
X-156031Y278449D01*
X-156048Y278459D01*
X-156065Y278469D01*
X-156070Y278472D01*
X-156076Y278475D01*
X-156094Y278483D01*
X-156112Y278491D01*
X-156913Y278794D01*
X-156931Y278799D01*
X-156950Y278806D01*
X-156956Y278807D01*
X-156962Y278809D01*
X-156981Y278812D01*
X-157001Y278816D01*
X-157007Y278816D01*
X-157013Y278817D01*
X-157033Y278818D01*
X-157052Y278819D01*
X-157908Y278819D01*
X-157928Y278818D01*
X-157948Y278817D01*
X-157954Y278816D01*
X-157960Y278816D01*
X-157979Y278812D01*
X-157999Y278809D01*
X-158004Y278807D01*
X-158010Y278806D01*
X-158029Y278799D01*
X-158048Y278794D01*
X-158849Y278491D01*
X-158866Y278483D01*
X-158885Y278475D01*
X-158890Y278472D01*
X-158896Y278469D01*
X-158912Y278459D01*
X-158929Y278449D01*
X-158934Y278445D01*
X-158940Y278442D01*
X-158955Y278429D01*
X-158970Y278417D01*
X-159612Y277851D01*
X-159626Y277837D01*
X-159640Y277823D01*
X-159644Y277818D01*
X-159648Y277814D01*
X-159660Y277799D01*
X-159673Y277783D01*
X-159676Y277778D01*
X-159680Y277773D01*
X-159690Y277756D01*
X-159700Y277739D01*
X-160100Y276982D01*
X-160100Y276980D01*
X-160101Y276979D01*
X-160111Y276957D01*
X-160121Y276935D01*
X-160121Y276933D01*
X-160122Y276932D01*
X-160129Y276908D01*
X-160135Y276886D01*
X-160136Y276884D01*
X-160136Y276882D01*
X-160222Y276488D01*
X-160280Y276328D01*
X-160518Y276020D01*
X-160840Y275800D01*
X-161023Y275745D01*
X-161023Y278346D01*
Y279920D01*
X-153938D01*
Y278346D01*
D02*
G37*
G36*
X-157190Y277311D02*
X-156665Y277063D01*
X-156297Y276614D01*
X-156157Y276051D01*
X-156214Y275766D01*
X-156215Y275757D01*
X-156217Y275747D01*
X-156219Y275731D01*
X-156221Y275715D01*
X-156221Y275705D01*
X-156221Y275695D01*
X-156221Y275679D01*
X-156221Y275664D01*
X-156219Y275654D01*
X-156219Y275644D01*
X-156216Y275628D01*
X-156214Y275612D01*
X-156211Y275603D01*
X-156210Y275593D01*
X-156205Y275578D01*
X-156201Y275563D01*
X-156197Y275553D01*
X-156194Y275544D01*
X-156187Y275530D01*
X-156181Y275515D01*
X-156176Y275506D01*
X-156172Y275497D01*
X-156001Y275190D01*
X-155988Y275170D01*
X-155975Y275149D01*
X-155974Y275148D01*
X-155973Y275147D01*
X-155957Y275128D01*
X-155942Y275110D01*
X-155458Y274603D01*
X-155447Y274592D01*
X-155437Y274581D01*
X-155428Y274575D01*
X-155420Y274568D01*
X-155408Y274559D01*
X-155396Y274549D01*
X-155387Y274544D01*
X-155378Y274538D01*
X-155365Y274531D01*
X-155352Y274523D01*
X-154727Y274205D01*
X-154713Y274200D01*
X-154700Y274193D01*
X-154690Y274189D01*
X-154680Y274185D01*
X-154665Y274181D01*
X-154651Y274176D01*
X-154640Y274174D01*
X-154630Y274171D01*
X-154615Y274169D01*
X-154600Y274166D01*
X-153906Y274074D01*
X-153900Y274074D01*
X-153900Y273623D01*
X-161023D01*
Y274077D01*
X-161018Y274077D01*
X-160333Y274173D01*
X-160319Y274176D01*
X-160303Y274178D01*
X-160293Y274181D01*
X-160283Y274183D01*
X-160268Y274188D01*
X-160254Y274192D01*
X-160244Y274197D01*
X-160234Y274200D01*
X-160221Y274207D01*
X-160207Y274213D01*
X-159593Y274531D01*
X-159580Y274538D01*
X-159566Y274546D01*
X-159557Y274552D01*
X-159548Y274557D01*
X-159537Y274567D01*
X-159524Y274575D01*
X-159516Y274583D01*
X-159508Y274589D01*
X-159497Y274600D01*
X-159486Y274611D01*
X-159013Y275114D01*
X-158998Y275133D01*
X-158982Y275152D01*
X-158981Y275153D01*
X-158980Y275154D01*
X-158967Y275175D01*
X-158954Y275195D01*
X-158788Y275500D01*
X-158784Y275506D01*
X-158781Y275513D01*
X-158780Y275514D01*
X-158780Y275515D01*
X-158773Y275531D01*
X-158766Y275547D01*
X-158764Y275553D01*
X-158761Y275560D01*
X-158760Y275561D01*
X-158760Y275563D01*
X-158755Y275580D01*
X-158750Y275596D01*
X-158749Y275603D01*
X-158747Y275610D01*
X-158747Y275611D01*
X-158747Y275612D01*
X-158744Y275630D01*
X-158741Y275646D01*
X-158741Y275654D01*
X-158740Y275661D01*
X-158740Y275662D01*
X-158740Y275664D01*
X-158740Y275681D01*
X-158739Y275698D01*
X-158740Y275705D01*
X-158740Y275713D01*
X-158740Y275714D01*
Y275715D01*
X-158742Y275733D01*
X-158744Y275749D01*
X-158745Y275757D01*
X-158746Y275764D01*
X-158747Y275765D01*
X-158747Y275766D01*
X-158804Y276051D01*
X-158663Y276614D01*
X-158295Y277063D01*
X-157771Y277311D01*
X-157190Y277311D01*
D02*
G37*
D10*
X932685Y-168552D02*
X941868D01*
X937276D01*
Y-182327D01*
X948756D02*
X953347D01*
X955643Y-180031D01*
Y-175439D01*
X953347Y-173144D01*
X948756D01*
X946460Y-175439D01*
Y-180031D01*
X948756Y-182327D01*
X960235Y-186919D02*
Y-173144D01*
X967122D01*
X969418Y-175439D01*
Y-180031D01*
X967122Y-182327D01*
X960235D01*
X987785D02*
Y-168552D01*
X994673D01*
X996968Y-170848D01*
Y-175439D01*
X994673Y-177735D01*
X987785D01*
X1003856Y-173144D02*
X1008448D01*
X1010744Y-175439D01*
Y-182327D01*
X1003856D01*
X1001560Y-180031D01*
X1003856Y-177735D01*
X1010744D01*
X1015335Y-182327D02*
X1022223D01*
X1024519Y-180031D01*
X1022223Y-177735D01*
X1017631D01*
X1015335Y-175439D01*
X1017631Y-173144D01*
X1024519D01*
X1031406Y-170848D02*
Y-173144D01*
X1029110D01*
X1033702D01*
X1031406D01*
Y-180031D01*
X1033702Y-182327D01*
X1047477D02*
X1042885D01*
X1040590Y-180031D01*
Y-175439D01*
X1042885Y-173144D01*
X1047477D01*
X1049773Y-175439D01*
Y-177735D01*
X1040590D01*
D11*
X111220Y312008D02*
D03*
X105315Y317914D02*
D03*
X111220D02*
D03*
D12*
X105315Y312008D02*
D03*
D13*
X-116928Y283698D02*
D03*
X-107480D02*
D03*
Y293147D02*
D03*
X-116928D02*
D03*
D14*
X255905Y614173D02*
X255906Y-116142D01*
X-255906D02*
X-255906Y614173D01*
X-255906Y-116142D02*
X255906D01*
X-255906Y614173D02*
X255906D01*
D15*
X128691Y206496D02*
D03*
Y208858D02*
D03*
Y204134D02*
D03*
Y201772D02*
D03*
Y199409D02*
D03*
Y197047D02*
D03*
Y194685D02*
D03*
D16*
X117372Y210039D02*
D03*
Y207677D02*
D03*
Y205315D02*
D03*
Y202953D02*
D03*
Y200591D02*
D03*
Y198228D02*
D03*
Y195866D02*
D03*
Y193504D02*
D03*
D17*
X118455Y212598D02*
D03*
Y190945D02*
D03*
D18*
X141732Y192520D02*
D03*
X145472Y201969D02*
D03*
X-21654Y114961D02*
D03*
X-25394Y105512D02*
D03*
X79921Y118307D02*
D03*
X83661Y127756D02*
D03*
X145472Y170866D02*
D03*
X141732Y161417D02*
D03*
X129134Y310236D02*
D03*
X132874Y319685D02*
D03*
X136614Y303937D02*
D03*
X132874Y294488D02*
D03*
X192913Y135827D02*
D03*
X196653Y145276D02*
D03*
X208661Y124016D02*
D03*
X212402Y133465D02*
D03*
D19*
X137992Y201969D02*
D03*
X-17913Y105512D02*
D03*
X87402Y118307D02*
D03*
X137992Y170866D02*
D03*
X136614Y310236D02*
D03*
X129134Y303937D02*
D03*
X189173Y145276D02*
D03*
X204921Y133465D02*
D03*
D20*
X-6299Y328937D02*
D03*
X6299D02*
D03*
Y348228D02*
D03*
X-6299D02*
D03*
X-45669Y163189D02*
D03*
X-33071D02*
D03*
Y143898D02*
D03*
X-45669D02*
D03*
X-124409D02*
D03*
X-111811D02*
D03*
Y163189D02*
D03*
X-124409D02*
D03*
X111811D02*
D03*
X124409D02*
D03*
Y143898D02*
D03*
X111811D02*
D03*
X33071Y163189D02*
D03*
X45669D02*
D03*
Y143898D02*
D03*
X33071D02*
D03*
D21*
X140748Y373622D02*
D03*
X111221D02*
D03*
Y364567D02*
D03*
X140748D02*
D03*
D22*
X117126Y377165D02*
D03*
X134843D02*
D03*
X128937D02*
D03*
D23*
X146653Y367520D02*
D03*
Y360827D02*
D03*
X210630Y358858D02*
D03*
Y365551D02*
D03*
X181102Y332087D02*
D03*
Y325394D02*
D03*
X-133858Y150197D02*
D03*
Y156889D02*
D03*
X-121063Y118701D02*
D03*
Y125393D02*
D03*
X-121063Y111615D02*
D03*
Y104922D02*
D03*
X-115158D02*
D03*
Y111615D02*
D03*
X-109252Y111614D02*
D03*
Y104921D02*
D03*
X6496Y68307D02*
D03*
Y61614D02*
D03*
X-31496Y136220D02*
D03*
Y129527D02*
D03*
X-31496Y115748D02*
D03*
Y122441D02*
D03*
X18701Y78346D02*
D03*
Y85039D02*
D03*
X18700Y97048D02*
D03*
Y103741D02*
D03*
X45276Y57480D02*
D03*
Y50787D02*
D03*
X41338Y73229D02*
D03*
Y66536D02*
D03*
X47244Y73229D02*
D03*
Y66536D02*
D03*
X65945Y111811D02*
D03*
Y118504D02*
D03*
X53150Y119488D02*
D03*
Y112795D02*
D03*
X71850Y111811D02*
D03*
Y118504D02*
D03*
X94489Y243504D02*
D03*
Y236811D02*
D03*
Y261220D02*
D03*
Y254527D02*
D03*
X118111Y243504D02*
D03*
Y236811D02*
D03*
Y254527D02*
D03*
Y261220D02*
D03*
X113189Y298622D02*
D03*
Y291929D02*
D03*
X49213Y327362D02*
D03*
Y334055D02*
D03*
X96457Y327362D02*
D03*
Y334055D02*
D03*
X-151575Y313582D02*
D03*
Y320275D02*
D03*
X-176181Y372244D02*
D03*
Y365551D02*
D03*
X-191929Y344882D02*
D03*
Y338189D02*
D03*
Y319291D02*
D03*
Y312598D02*
D03*
X-191929Y325394D02*
D03*
Y332087D02*
D03*
D24*
X162106Y360433D02*
D03*
Y364173D02*
D03*
Y367913D02*
D03*
X152854D02*
D03*
Y360433D02*
D03*
X-128248Y119882D02*
D03*
Y112402D02*
D03*
X-137500D02*
D03*
Y116142D02*
D03*
Y119882D02*
D03*
X-128248Y116142D02*
D03*
X110925Y254134D02*
D03*
Y257874D02*
D03*
Y261614D02*
D03*
X101673D02*
D03*
Y254134D02*
D03*
X110925Y236417D02*
D03*
Y240158D02*
D03*
Y243898D02*
D03*
X101673D02*
D03*
Y236417D02*
D03*
D25*
X169291Y360433D02*
D03*
Y367913D02*
D03*
X125545Y104523D02*
D03*
Y112003D02*
D03*
Y127751D02*
D03*
Y120271D02*
D03*
X-142717Y370866D02*
D03*
Y363386D02*
D03*
Y379134D02*
D03*
Y386614D02*
D03*
X122638Y314764D02*
D03*
Y307283D02*
D03*
X-159449Y320669D02*
D03*
Y313189D02*
D03*
D26*
X189370Y352146D02*
D03*
Y347146D02*
D03*
Y342146D02*
D03*
Y337146D02*
D03*
Y322146D02*
D03*
Y327146D02*
D03*
Y332146D02*
D03*
Y317146D02*
D03*
X208268Y322146D02*
D03*
Y317146D02*
D03*
Y327146D02*
D03*
Y332146D02*
D03*
Y337146D02*
D03*
Y342146D02*
D03*
Y352146D02*
D03*
Y347146D02*
D03*
D27*
X189567Y311024D02*
D03*
X196260D02*
D03*
X189567Y263780D02*
D03*
X196260D02*
D03*
X-140158Y104330D02*
D03*
X-133465D02*
D03*
X-25000Y98426D02*
D03*
X-18307D02*
D03*
X44882Y97441D02*
D03*
X51574D02*
D03*
X44882Y103346D02*
D03*
X51574D02*
D03*
X45078Y50787D02*
D03*
X38385D02*
D03*
X80315Y111221D02*
D03*
X87008D02*
D03*
X88189Y88583D02*
D03*
X94882D02*
D03*
X94882Y94488D02*
D03*
X88189D02*
D03*
X94882Y100393D02*
D03*
X88189D02*
D03*
X113583Y96457D02*
D03*
X106890D02*
D03*
X144291Y153543D02*
D03*
X150984D02*
D03*
X144291Y143701D02*
D03*
X150984D02*
D03*
Y299212D02*
D03*
X144291D02*
D03*
X150984Y309055D02*
D03*
X144291D02*
D03*
X150984Y318897D02*
D03*
X144291D02*
D03*
X100000Y299212D02*
D03*
X106693D02*
D03*
X86221Y304134D02*
D03*
X92914D02*
D03*
X-160826Y307087D02*
D03*
X-154133D02*
D03*
Y301181D02*
D03*
X-160826D02*
D03*
Y295276D02*
D03*
X-154133D02*
D03*
X-195078Y353347D02*
D03*
X-188385D02*
D03*
X-204134Y265748D02*
D03*
X-197441D02*
D03*
X196260Y129922D02*
D03*
X189567D02*
D03*
X205315Y118110D02*
D03*
X212008D02*
D03*
X205315Y139370D02*
D03*
X212008D02*
D03*
X189567Y151181D02*
D03*
X196259D02*
D03*
X87008Y133859D02*
D03*
X80315D02*
D03*
X126378Y218504D02*
D03*
X119685D02*
D03*
X118111Y185040D02*
D03*
X111418D02*
D03*
X158071Y292322D02*
D03*
X164763D02*
D03*
X34843Y68898D02*
D03*
X28150D02*
D03*
X125394Y285433D02*
D03*
X118701D02*
D03*
X118701Y279527D02*
D03*
X125393D02*
D03*
D28*
X191742Y277362D02*
D03*
Y278543D02*
D03*
Y280512D02*
D03*
Y282480D02*
D03*
Y284449D02*
D03*
Y286417D02*
D03*
Y288386D02*
D03*
Y290354D02*
D03*
Y292323D02*
D03*
Y294291D02*
D03*
Y296260D02*
D03*
Y297441D02*
D03*
Y300689D02*
D03*
Y299508D02*
D03*
Y275295D02*
D03*
Y274114D02*
D03*
X-191742Y299410D02*
D03*
Y298228D02*
D03*
Y296260D02*
D03*
Y294291D02*
D03*
Y292323D02*
D03*
Y290354D02*
D03*
Y288386D02*
D03*
Y286417D02*
D03*
Y284449D02*
D03*
Y282480D02*
D03*
Y280512D02*
D03*
Y279331D02*
D03*
Y276083D02*
D03*
Y277264D02*
D03*
Y301476D02*
D03*
Y302658D02*
D03*
D29*
X-92520Y159449D02*
D03*
X-64961D02*
D03*
X-92520Y147638D02*
D03*
X-64961D02*
D03*
X64961Y159449D02*
D03*
X92520D02*
D03*
X64961Y147638D02*
D03*
X92520D02*
D03*
D30*
X-158366Y103543D02*
D03*
X-155807D02*
D03*
X-153248D02*
D03*
X-150689D02*
D03*
X-158366Y126772D02*
D03*
X-155807D02*
D03*
X-153248D02*
D03*
X-150689D02*
D03*
D31*
X0Y60827D02*
D03*
Y69095D02*
D03*
X-176181Y378543D02*
D03*
Y386811D02*
D03*
D32*
X0Y125000D02*
D03*
Y172244D02*
D03*
D33*
X25197Y93425D02*
D03*
Y98425D02*
D03*
Y103425D02*
D03*
X37795D02*
D03*
Y98425D02*
D03*
Y93425D02*
D03*
D34*
X34449Y80709D02*
D03*
Y74803D02*
D03*
X32480Y80709D02*
D03*
Y74803D02*
D03*
X30512Y80709D02*
D03*
Y74803D02*
D03*
X28543Y80709D02*
D03*
Y74803D02*
D03*
D35*
X34449Y78740D02*
D03*
Y76772D02*
D03*
X28543Y78740D02*
D03*
Y76772D02*
D03*
D36*
X157283Y143701D02*
D03*
X165551D02*
D03*
Y153543D02*
D03*
X157283D02*
D03*
Y299213D02*
D03*
X165551D02*
D03*
X157283Y309055D02*
D03*
X165551D02*
D03*
Y318898D02*
D03*
X157283D02*
D03*
X-209646Y353346D02*
D03*
X-201378D02*
D03*
D37*
X164764Y198819D02*
D03*
Y169291D02*
D03*
X173819D02*
D03*
Y198819D02*
D03*
X164764Y235236D02*
D03*
Y205709D02*
D03*
X173819D02*
D03*
Y235236D02*
D03*
X-204134Y313976D02*
D03*
Y343504D02*
D03*
X-213189D02*
D03*
Y313976D02*
D03*
D38*
X161221Y175197D02*
D03*
Y192913D02*
D03*
Y187008D02*
D03*
Y211614D02*
D03*
Y229331D02*
D03*
Y223425D02*
D03*
X-200591Y337598D02*
D03*
Y319882D02*
D03*
Y325787D02*
D03*
D39*
X150591Y180709D02*
D03*
X134449D02*
D03*
D40*
X99606Y292323D02*
D03*
X107087D02*
D03*
X83858Y297244D02*
D03*
X91339D02*
D03*
D41*
X82874Y310236D02*
D03*
X86614D02*
D03*
X90354D02*
D03*
Y319685D02*
D03*
X86614D02*
D03*
X82874D02*
D03*
D42*
X116043Y310039D02*
D03*
X100492D02*
D03*
Y319882D02*
D03*
Y317913D02*
D03*
Y315945D02*
D03*
Y313976D02*
D03*
Y312008D02*
D03*
X116043D02*
D03*
Y313976D02*
D03*
Y315945D02*
D03*
Y317913D02*
D03*
Y319882D02*
D03*
D43*
X113189Y307185D02*
D03*
Y322736D02*
D03*
X103347Y307185D02*
D03*
X105315D02*
D03*
X107283D02*
D03*
X109252D02*
D03*
X111221D02*
D03*
Y322736D02*
D03*
X109252D02*
D03*
X107283D02*
D03*
X105315D02*
D03*
X103347D02*
D03*
D44*
X82874Y328553D02*
D03*
X81693D02*
D03*
X79724Y328553D02*
D03*
X77756D02*
D03*
X75787Y328553D02*
D03*
X73819D02*
D03*
X71850D02*
D03*
X69882D02*
D03*
X67913Y328553D02*
D03*
X65945Y328553D02*
D03*
X63976D02*
D03*
X62795D02*
D03*
X59547D02*
D03*
X60728D02*
D03*
X84941D02*
D03*
X86122D02*
D03*
D45*
X-157480Y275590D02*
D03*
D46*
Y279528D02*
D03*
D47*
X-74803Y227953D02*
D03*
Y232953D02*
D03*
Y237953D02*
D03*
Y242953D02*
D03*
Y247945D02*
D03*
Y317945D02*
D03*
Y312945D02*
D03*
Y307945D02*
D03*
Y302945D02*
D03*
Y297945D02*
D03*
Y292945D02*
D03*
Y287945D02*
D03*
Y282945D02*
D03*
Y277945D02*
D03*
Y272945D02*
D03*
Y267945D02*
D03*
Y262945D02*
D03*
Y257945D02*
D03*
Y252945D02*
D03*
X-141732Y247945D02*
D03*
Y242953D02*
D03*
Y237953D02*
D03*
Y232953D02*
D03*
Y227953D02*
D03*
Y252945D02*
D03*
Y257945D02*
D03*
Y262945D02*
D03*
Y267945D02*
D03*
Y272945D02*
D03*
Y277945D02*
D03*
Y282945D02*
D03*
Y287945D02*
D03*
Y292945D02*
D03*
Y297945D02*
D03*
Y302945D02*
D03*
Y307945D02*
D03*
Y312945D02*
D03*
Y317945D02*
D03*
D48*
X-116142Y381890D02*
D03*
Y374016D02*
D03*
D49*
X-93898Y390551D02*
D03*
Y365354D02*
D03*
D50*
X-150965Y384842D02*
D03*
X-155965D02*
D03*
X-160965D02*
D03*
X-165965D02*
D03*
X-150965Y365158D02*
D03*
X-155965D02*
D03*
X-160965D02*
D03*
X-165965D02*
D03*
X102736Y106299D02*
D03*
X107736D02*
D03*
X112736D02*
D03*
X117736D02*
D03*
X102736Y125984D02*
D03*
X107736D02*
D03*
X112736D02*
D03*
X117736D02*
D03*
D51*
X-158464Y375000D02*
D03*
X110237Y116142D02*
D03*
D52*
X41339Y78740D02*
D03*
D53*
X46870Y134449D02*
D03*
X41870D02*
D03*
X36870D02*
D03*
X31870D02*
D03*
X46870Y115551D02*
D03*
X41870D02*
D03*
X36870D02*
D03*
X31870D02*
D03*
M02*
