M48
;Layer_Color=9474304
;FILE_FORMAT=2:5
INCH,LZ
;TYPE=PLATED
T3F00S00C0.01968
T4F00S00C0.02362
T5F00S00C0.03150
T8F00S00C0.04724
;TYPE=NON_PLATED
%
G90
G05
T03
G00X0213081Y027626
M15
G01X0210522
M16
G00X0210522Y0304409
M15
G01X0213081
M16
T04
G00X019751Y0270394
M15
G01X0193179
M16
G00X0212982Y0270394
M15
G01X021062
M16
G00X0212982Y0304409
M15
G01X021062
M16
G00X019751Y0304409
M15
G01X0193179
M16
G00X0089842Y0334321
M15
G01Y032999
M16
G00X0089842Y0349793
M15
G01Y0347431
M16
G00X0055827Y0349793
M15
G01Y0347431
M16
G00X0055827Y0334321
M15
G01Y032999
M16
G00X-019751Y0306378
M15
G01X-0193179
M16
G00X-0212982Y0306378
M15
G01X-021062
M16
G00X-0212982Y0272362
M15
G01X-021062
M16
G00X-019751Y0272362
M15
G01X-0193179
M16
T05
G00X0141142Y0245079
M15
G01X0138386
M16
G00X0141142Y0254921
M15
G01X0138386
M16
G00X0141142Y0274606
M15
G01X0138386
M16
G00X0141142Y0284449
M15
G01X0138386
M16
G00X0159449Y0263386
M15
G01Y0266142
M16
T08
G00X-0140551Y0129921
M15
G01X-0131102
M16
M17
M30
