G04*
G04 #@! TF.GenerationSoftware,Altium Limited,Altium Designer,22.6.0 (29)*
G04*
G04 Layer_Color=8388736*
%FSLAX25Y25*%
%MOIN*%
G70*
G04*
G04 #@! TF.SameCoordinates,2F1E6D50-AEE9-41E4-90EB-1875A1A680C2*
G04*
G04*
G04 #@! TF.FilePolarity,Positive*
G04*
G01*
G75*
%ADD11C,0.00787*%
%ADD12C,0.01575*%
%ADD14C,0.00394*%
%ADD15C,0.00984*%
%ADD198C,0.01000*%
%ADD199C,0.00600*%
G36*
X761965Y-141778D02*
X763683D01*
Y-142065D01*
X764542D01*
Y-142351D01*
X765401D01*
Y-142637D01*
X766260D01*
Y-142924D01*
X766832D01*
Y-143210D01*
X767119D01*
Y-143496D01*
X767691D01*
Y-143783D01*
X767978D01*
Y-144069D01*
X768550D01*
Y-144355D01*
X768837D01*
Y-144641D01*
X769123D01*
Y-144928D01*
X769409D01*
Y-145214D01*
X769696D01*
Y-145501D01*
X769982D01*
Y-145787D01*
X770268D01*
Y-146073D01*
Y-146359D01*
X770554D01*
Y-146646D01*
X770841D01*
Y-146932D01*
Y-147218D01*
X771127D01*
Y-147505D01*
X771414D01*
Y-147791D01*
Y-148077D01*
X771700D01*
Y-148364D01*
Y-148650D01*
Y-148936D01*
X771986D01*
Y-149223D01*
Y-149509D01*
Y-149795D01*
X772272D01*
Y-150082D01*
Y-150368D01*
Y-150654D01*
Y-150940D01*
X772559D01*
Y-151227D01*
Y-151513D01*
Y-151799D01*
Y-152086D01*
Y-152372D01*
X772845D01*
Y-152658D01*
Y-152945D01*
Y-153231D01*
Y-153517D01*
Y-153804D01*
Y-154090D01*
Y-154376D01*
Y-154663D01*
Y-154949D01*
Y-155235D01*
Y-155521D01*
Y-155808D01*
Y-156094D01*
Y-156380D01*
Y-156667D01*
Y-156953D01*
Y-157239D01*
Y-157526D01*
Y-157812D01*
Y-158098D01*
X772559D01*
Y-158385D01*
Y-158671D01*
Y-158957D01*
Y-159244D01*
Y-159530D01*
Y-159816D01*
Y-160102D01*
X772272D01*
Y-160389D01*
Y-160675D01*
Y-160961D01*
Y-161248D01*
Y-161534D01*
X771986D01*
Y-161820D01*
Y-162107D01*
Y-162393D01*
Y-162679D01*
Y-162966D01*
X771700D01*
Y-163252D01*
Y-163538D01*
Y-163824D01*
X771414D01*
Y-164111D01*
Y-164397D01*
Y-164683D01*
Y-164970D01*
X771127D01*
Y-165256D01*
Y-165542D01*
Y-165829D01*
X770841D01*
Y-166115D01*
Y-166401D01*
X770554D01*
Y-166688D01*
Y-166974D01*
Y-167260D01*
X770268D01*
Y-167547D01*
Y-167833D01*
X769982D01*
Y-168119D01*
Y-168405D01*
X769696D01*
Y-168692D01*
Y-168978D01*
X769409D01*
Y-169264D01*
X769123D01*
Y-169551D01*
Y-169837D01*
X768837D01*
Y-170123D01*
X768550D01*
Y-170410D01*
X768264D01*
Y-170696D01*
Y-170982D01*
X767978D01*
Y-171269D01*
X767691D01*
Y-171555D01*
X767405D01*
Y-171841D01*
X767119D01*
Y-172127D01*
X766832D01*
Y-172414D01*
X766260D01*
Y-172700D01*
X765974D01*
Y-172986D01*
X765401D01*
Y-173273D01*
X765115D01*
Y-173559D01*
X764542D01*
Y-173845D01*
X763683D01*
Y-174132D01*
X762824D01*
Y-174418D01*
X761965D01*
Y-174704D01*
X760247D01*
Y-174991D01*
X755094D01*
Y-174704D01*
X752517D01*
Y-174418D01*
X750513D01*
Y-174132D01*
X749081D01*
Y-173845D01*
X747649D01*
Y-173559D01*
X746218D01*
Y-173845D01*
Y-174132D01*
Y-174418D01*
Y-174704D01*
Y-174991D01*
Y-175277D01*
Y-175563D01*
X745932D01*
Y-175850D01*
Y-176136D01*
Y-176422D01*
Y-176709D01*
Y-176995D01*
Y-177281D01*
X745645D01*
Y-177568D01*
Y-177854D01*
Y-178140D01*
Y-178426D01*
Y-178713D01*
Y-178999D01*
X745359D01*
Y-179285D01*
Y-179572D01*
Y-179858D01*
Y-180144D01*
Y-180431D01*
Y-180717D01*
Y-181003D01*
X745073D01*
Y-181290D01*
Y-181576D01*
Y-181862D01*
Y-182149D01*
Y-182435D01*
Y-182721D01*
X744786D01*
Y-183007D01*
Y-183294D01*
Y-183580D01*
Y-183866D01*
Y-184153D01*
Y-184439D01*
X744500D01*
Y-184725D01*
Y-185012D01*
Y-185298D01*
Y-185584D01*
Y-185871D01*
Y-186157D01*
Y-186443D01*
X744214D01*
Y-186730D01*
Y-187016D01*
Y-187302D01*
Y-187588D01*
Y-187875D01*
Y-188161D01*
X743927D01*
Y-188447D01*
Y-188734D01*
Y-189020D01*
Y-189306D01*
Y-189593D01*
Y-189879D01*
X743641D01*
Y-190165D01*
Y-190452D01*
Y-190738D01*
Y-191024D01*
Y-191311D01*
Y-191597D01*
Y-191883D01*
X730184D01*
Y-191597D01*
X730471D01*
Y-191311D01*
Y-191024D01*
Y-190738D01*
Y-190452D01*
Y-190165D01*
X730757D01*
Y-189879D01*
Y-189593D01*
Y-189306D01*
Y-189020D01*
Y-188734D01*
Y-188447D01*
Y-188161D01*
X731043D01*
Y-187875D01*
Y-187588D01*
Y-187302D01*
Y-187016D01*
Y-186730D01*
Y-186443D01*
X731330D01*
Y-186157D01*
Y-185871D01*
Y-185584D01*
Y-185298D01*
Y-185012D01*
Y-184725D01*
X731616D01*
Y-184439D01*
Y-184153D01*
Y-183866D01*
Y-183580D01*
Y-183294D01*
Y-183007D01*
Y-182721D01*
X731902D01*
Y-182435D01*
Y-182149D01*
Y-181862D01*
Y-181576D01*
Y-181290D01*
Y-181003D01*
X732189D01*
Y-180717D01*
Y-180431D01*
Y-180144D01*
Y-179858D01*
Y-179572D01*
Y-179285D01*
X732475D01*
Y-178999D01*
Y-178713D01*
Y-178426D01*
Y-178140D01*
Y-177854D01*
Y-177568D01*
X732761D01*
Y-177281D01*
Y-176995D01*
Y-176709D01*
Y-176422D01*
Y-176136D01*
Y-175850D01*
Y-175563D01*
X733047D01*
Y-175277D01*
Y-174991D01*
Y-174704D01*
Y-174418D01*
Y-174132D01*
Y-173845D01*
X733334D01*
Y-173559D01*
Y-173273D01*
Y-172986D01*
Y-172700D01*
Y-172414D01*
Y-172127D01*
X733620D01*
Y-171841D01*
Y-171555D01*
Y-171269D01*
Y-170982D01*
Y-170696D01*
Y-170410D01*
X733907D01*
Y-170123D01*
Y-169837D01*
Y-169551D01*
Y-169264D01*
Y-168978D01*
Y-168692D01*
Y-168405D01*
X734193D01*
Y-168119D01*
Y-167833D01*
Y-167547D01*
Y-167260D01*
Y-166974D01*
Y-166688D01*
X734479D01*
Y-166401D01*
Y-166115D01*
Y-165829D01*
Y-165542D01*
Y-165256D01*
Y-164970D01*
X734765D01*
Y-164683D01*
Y-164397D01*
Y-164111D01*
Y-163824D01*
Y-163538D01*
Y-163252D01*
Y-162966D01*
X735052D01*
Y-162679D01*
Y-162393D01*
Y-162107D01*
Y-161820D01*
Y-161534D01*
Y-161248D01*
X735338D01*
Y-160961D01*
Y-160675D01*
Y-160389D01*
Y-160102D01*
Y-159816D01*
Y-159530D01*
X735624D01*
Y-159244D01*
Y-158957D01*
Y-158671D01*
Y-158385D01*
Y-158098D01*
Y-157812D01*
X735911D01*
Y-157526D01*
Y-157239D01*
Y-156953D01*
Y-156667D01*
Y-156380D01*
Y-156094D01*
Y-155808D01*
X736197D01*
Y-155521D01*
Y-155235D01*
Y-154949D01*
Y-154663D01*
Y-154376D01*
Y-154090D01*
X736483D01*
Y-153804D01*
Y-153517D01*
Y-153231D01*
Y-152945D01*
Y-152658D01*
Y-152372D01*
X736770D01*
Y-152086D01*
Y-151799D01*
Y-151513D01*
Y-151227D01*
Y-150940D01*
Y-150654D01*
Y-150368D01*
X737056D01*
Y-150082D01*
Y-149795D01*
Y-149509D01*
Y-149223D01*
Y-148936D01*
Y-148650D01*
X737342D01*
Y-148364D01*
Y-148077D01*
Y-147791D01*
Y-147505D01*
Y-147218D01*
Y-146932D01*
X737629D01*
Y-146646D01*
Y-146359D01*
Y-146073D01*
Y-145787D01*
Y-145501D01*
Y-145214D01*
Y-144928D01*
X737915D01*
Y-144641D01*
Y-144355D01*
Y-144069D01*
Y-143783D01*
Y-143496D01*
Y-143210D01*
X738201D01*
Y-142924D01*
Y-142637D01*
Y-142351D01*
Y-142065D01*
Y-141778D01*
Y-141492D01*
X761965D01*
Y-141778D01*
D02*
G37*
G36*
X793173Y-138343D02*
Y-138629D01*
X792887D01*
Y-138915D01*
Y-139202D01*
Y-139488D01*
Y-139774D01*
Y-140060D01*
Y-140347D01*
X792601D01*
Y-140633D01*
Y-140919D01*
Y-141206D01*
Y-141492D01*
Y-141778D01*
Y-142065D01*
X792314D01*
Y-142351D01*
Y-142637D01*
Y-142924D01*
Y-143210D01*
Y-143496D01*
Y-143783D01*
Y-144069D01*
X792028D01*
Y-144355D01*
Y-144641D01*
Y-144928D01*
Y-145214D01*
Y-145501D01*
Y-145787D01*
X791742D01*
Y-146073D01*
Y-146359D01*
Y-146646D01*
Y-146932D01*
Y-147218D01*
Y-147505D01*
X791455D01*
Y-147791D01*
Y-148077D01*
Y-148364D01*
Y-148650D01*
Y-148936D01*
Y-149223D01*
Y-149509D01*
X791169D01*
Y-149795D01*
Y-150082D01*
Y-150368D01*
Y-150654D01*
Y-150940D01*
Y-151227D01*
X790883D01*
Y-151513D01*
Y-151799D01*
Y-152086D01*
Y-152372D01*
Y-152658D01*
Y-152945D01*
X790596D01*
Y-153231D01*
Y-153517D01*
Y-153804D01*
Y-154090D01*
Y-154376D01*
Y-154663D01*
X790310D01*
Y-154949D01*
Y-155235D01*
Y-155521D01*
Y-155808D01*
Y-156094D01*
Y-156380D01*
Y-156667D01*
X790024D01*
Y-156953D01*
Y-157239D01*
Y-157526D01*
Y-157812D01*
Y-158098D01*
Y-158385D01*
X789738D01*
Y-158671D01*
Y-158957D01*
X790310D01*
Y-158671D01*
X790596D01*
Y-158385D01*
X790883D01*
Y-158098D01*
X791455D01*
Y-157812D01*
X791742D01*
Y-157526D01*
X792028D01*
Y-157239D01*
X792601D01*
Y-156953D01*
X793173D01*
Y-156667D01*
X793460D01*
Y-156380D01*
X794032D01*
Y-156094D01*
X794891D01*
Y-155808D01*
X795464D01*
Y-155521D01*
X796323D01*
Y-155235D01*
X797754D01*
Y-154949D01*
X804053D01*
Y-155235D01*
X805198D01*
Y-155521D01*
X806057D01*
Y-155808D01*
X806630D01*
Y-156094D01*
X806916D01*
Y-156380D01*
X807489D01*
Y-156667D01*
X807775D01*
Y-156953D01*
X808062D01*
Y-157239D01*
X808348D01*
Y-157526D01*
X808634D01*
Y-157812D01*
Y-158098D01*
X808920D01*
Y-158385D01*
Y-158671D01*
X809207D01*
Y-158957D01*
Y-159244D01*
Y-159530D01*
X809493D01*
Y-159816D01*
Y-160102D01*
Y-160389D01*
Y-160675D01*
X809779D01*
Y-160961D01*
Y-161248D01*
Y-161534D01*
Y-161820D01*
Y-162107D01*
Y-162393D01*
Y-162679D01*
Y-162966D01*
Y-163252D01*
Y-163538D01*
Y-163824D01*
Y-164111D01*
Y-164397D01*
Y-164683D01*
Y-164970D01*
Y-165256D01*
Y-165542D01*
Y-165829D01*
X809493D01*
Y-166115D01*
Y-166401D01*
Y-166688D01*
Y-166974D01*
Y-167260D01*
Y-167547D01*
Y-167833D01*
X809207D01*
Y-168119D01*
Y-168405D01*
Y-168692D01*
Y-168978D01*
Y-169264D01*
Y-169551D01*
Y-169837D01*
X808920D01*
Y-170123D01*
Y-170410D01*
Y-170696D01*
Y-170982D01*
Y-171269D01*
Y-171555D01*
X808634D01*
Y-171841D01*
Y-172127D01*
Y-172414D01*
Y-172700D01*
Y-172986D01*
Y-173273D01*
X808348D01*
Y-173559D01*
Y-173845D01*
Y-174132D01*
Y-174418D01*
Y-174704D01*
Y-174991D01*
X808062D01*
Y-175277D01*
Y-175563D01*
Y-175850D01*
Y-176136D01*
Y-176422D01*
Y-176709D01*
Y-176995D01*
X807775D01*
Y-177281D01*
Y-177568D01*
Y-177854D01*
Y-178140D01*
Y-178426D01*
Y-178713D01*
X807489D01*
Y-178999D01*
Y-179285D01*
Y-179572D01*
Y-179858D01*
Y-180144D01*
Y-180431D01*
X807203D01*
Y-180717D01*
Y-181003D01*
Y-181290D01*
Y-181576D01*
Y-181862D01*
Y-182149D01*
Y-182435D01*
X806916D01*
Y-182721D01*
Y-183007D01*
Y-183294D01*
Y-183580D01*
Y-183866D01*
Y-184153D01*
X806630D01*
Y-184439D01*
Y-184725D01*
Y-185012D01*
Y-185298D01*
Y-185584D01*
Y-185871D01*
X806344D01*
Y-186157D01*
Y-186443D01*
Y-186730D01*
Y-187016D01*
Y-187302D01*
Y-187588D01*
X806057D01*
Y-187875D01*
Y-188161D01*
Y-188447D01*
Y-188734D01*
Y-189020D01*
Y-189306D01*
Y-189593D01*
X805771D01*
Y-189879D01*
Y-190165D01*
Y-190452D01*
Y-190738D01*
Y-191024D01*
Y-191311D01*
X805485D01*
Y-191597D01*
Y-191883D01*
X792314D01*
Y-191597D01*
Y-191311D01*
X792601D01*
Y-191024D01*
Y-190738D01*
Y-190452D01*
Y-190165D01*
Y-189879D01*
Y-189593D01*
X792887D01*
Y-189306D01*
Y-189020D01*
Y-188734D01*
Y-188447D01*
Y-188161D01*
Y-187875D01*
Y-187588D01*
X793173D01*
Y-187302D01*
Y-187016D01*
Y-186730D01*
Y-186443D01*
Y-186157D01*
Y-185871D01*
X793460D01*
Y-185584D01*
Y-185298D01*
Y-185012D01*
Y-184725D01*
Y-184439D01*
Y-184153D01*
X793746D01*
Y-183866D01*
Y-183580D01*
Y-183294D01*
Y-183007D01*
Y-182721D01*
Y-182435D01*
Y-182149D01*
X794032D01*
Y-181862D01*
Y-181576D01*
Y-181290D01*
Y-181003D01*
Y-180717D01*
Y-180431D01*
X794318D01*
Y-180144D01*
Y-179858D01*
Y-179572D01*
Y-179285D01*
Y-178999D01*
Y-178713D01*
Y-178426D01*
X794605D01*
Y-178140D01*
Y-177854D01*
Y-177568D01*
Y-177281D01*
Y-176995D01*
Y-176709D01*
X794891D01*
Y-176422D01*
Y-176136D01*
Y-175850D01*
Y-175563D01*
Y-175277D01*
Y-174991D01*
X795177D01*
Y-174704D01*
Y-174418D01*
Y-174132D01*
Y-173845D01*
Y-173559D01*
Y-173273D01*
X795464D01*
Y-172986D01*
Y-172700D01*
Y-172414D01*
Y-172127D01*
Y-171841D01*
Y-171555D01*
Y-171269D01*
X795750D01*
Y-170982D01*
Y-170696D01*
Y-170410D01*
Y-170123D01*
Y-169837D01*
Y-169551D01*
X796036D01*
Y-169264D01*
Y-168978D01*
Y-168692D01*
Y-168405D01*
Y-168119D01*
Y-167833D01*
Y-167547D01*
X796323D01*
Y-167260D01*
Y-166974D01*
Y-166688D01*
Y-166401D01*
Y-166115D01*
Y-165829D01*
X796036D01*
Y-165542D01*
Y-165256D01*
X795750D01*
Y-164970D01*
X795464D01*
Y-164683D01*
X794891D01*
Y-164397D01*
X793173D01*
Y-164683D01*
X791742D01*
Y-164970D01*
X790883D01*
Y-165256D01*
X790310D01*
Y-165542D01*
X790024D01*
Y-165829D01*
X789451D01*
Y-166115D01*
X789165D01*
Y-166401D01*
X788878D01*
Y-166688D01*
Y-166974D01*
X788592D01*
Y-167260D01*
Y-167547D01*
Y-167833D01*
X788306D01*
Y-168119D01*
Y-168405D01*
Y-168692D01*
Y-168978D01*
Y-169264D01*
Y-169551D01*
X788020D01*
Y-169837D01*
Y-170123D01*
Y-170410D01*
Y-170696D01*
Y-170982D01*
Y-171269D01*
Y-171555D01*
X787733D01*
Y-171841D01*
Y-172127D01*
Y-172414D01*
Y-172700D01*
Y-172986D01*
Y-173273D01*
X787447D01*
Y-173559D01*
Y-173845D01*
Y-174132D01*
Y-174418D01*
Y-174704D01*
Y-174991D01*
X787161D01*
Y-175277D01*
Y-175563D01*
Y-175850D01*
Y-176136D01*
Y-176422D01*
Y-176709D01*
X786874D01*
Y-176995D01*
Y-177281D01*
Y-177568D01*
Y-177854D01*
Y-178140D01*
Y-178426D01*
Y-178713D01*
X786588D01*
Y-178999D01*
Y-179285D01*
Y-179572D01*
Y-179858D01*
Y-180144D01*
Y-180431D01*
X786302D01*
Y-180717D01*
Y-181003D01*
Y-181290D01*
Y-181576D01*
Y-181862D01*
Y-182149D01*
X786015D01*
Y-182435D01*
Y-182721D01*
Y-183007D01*
Y-183294D01*
Y-183580D01*
Y-183866D01*
Y-184153D01*
X785729D01*
Y-184439D01*
Y-184725D01*
Y-185012D01*
Y-185298D01*
Y-185584D01*
Y-185871D01*
X785443D01*
Y-186157D01*
Y-186443D01*
Y-186730D01*
Y-187016D01*
Y-187302D01*
Y-187588D01*
X785156D01*
Y-187875D01*
Y-188161D01*
Y-188447D01*
Y-188734D01*
Y-189020D01*
Y-189306D01*
X784870D01*
Y-189593D01*
Y-189879D01*
Y-190165D01*
Y-190452D01*
Y-190738D01*
Y-191024D01*
Y-191311D01*
X784584D01*
Y-191597D01*
Y-191883D01*
X771414D01*
Y-191597D01*
Y-191311D01*
X771700D01*
Y-191024D01*
Y-190738D01*
Y-190452D01*
Y-190165D01*
Y-189879D01*
Y-189593D01*
Y-189306D01*
X771986D01*
Y-189020D01*
Y-188734D01*
Y-188447D01*
Y-188161D01*
Y-187875D01*
Y-187588D01*
X772272D01*
Y-187302D01*
Y-187016D01*
Y-186730D01*
Y-186443D01*
Y-186157D01*
Y-185871D01*
X772559D01*
Y-185584D01*
Y-185298D01*
Y-185012D01*
Y-184725D01*
Y-184439D01*
Y-184153D01*
Y-183866D01*
X772845D01*
Y-183580D01*
Y-183294D01*
Y-183007D01*
Y-182721D01*
Y-182435D01*
Y-182149D01*
X773131D01*
Y-181862D01*
Y-181576D01*
Y-181290D01*
Y-181003D01*
Y-180717D01*
Y-180431D01*
X773418D01*
Y-180144D01*
Y-179858D01*
Y-179572D01*
Y-179285D01*
Y-178999D01*
Y-178713D01*
X773704D01*
Y-178426D01*
Y-178140D01*
Y-177854D01*
Y-177568D01*
Y-177281D01*
Y-176995D01*
Y-176709D01*
X773990D01*
Y-176422D01*
Y-176136D01*
Y-175850D01*
Y-175563D01*
Y-175277D01*
Y-174991D01*
X774277D01*
Y-174704D01*
Y-174418D01*
Y-174132D01*
Y-173845D01*
Y-173559D01*
Y-173273D01*
X774563D01*
Y-172986D01*
Y-172700D01*
Y-172414D01*
Y-172127D01*
Y-171841D01*
Y-171555D01*
Y-171269D01*
X774849D01*
Y-170982D01*
Y-170696D01*
Y-170410D01*
Y-170123D01*
Y-169837D01*
Y-169551D01*
X775136D01*
Y-169264D01*
Y-168978D01*
Y-168692D01*
Y-168405D01*
Y-168119D01*
Y-167833D01*
X775422D01*
Y-167547D01*
Y-167260D01*
Y-166974D01*
Y-166688D01*
Y-166401D01*
Y-166115D01*
X775708D01*
Y-165829D01*
Y-165542D01*
Y-165256D01*
Y-164970D01*
Y-164683D01*
Y-164397D01*
Y-164111D01*
X775994D01*
Y-163824D01*
Y-163538D01*
Y-163252D01*
Y-162966D01*
Y-162679D01*
Y-162393D01*
X776281D01*
Y-162107D01*
Y-161820D01*
Y-161534D01*
Y-161248D01*
Y-160961D01*
Y-160675D01*
X776567D01*
Y-160389D01*
Y-160102D01*
Y-159816D01*
Y-159530D01*
Y-159244D01*
Y-158957D01*
X776853D01*
Y-158671D01*
Y-158385D01*
Y-158098D01*
Y-157812D01*
Y-157526D01*
Y-157239D01*
Y-156953D01*
X777140D01*
Y-156667D01*
Y-156380D01*
Y-156094D01*
Y-155808D01*
Y-155521D01*
Y-155235D01*
X777426D01*
Y-154949D01*
Y-154663D01*
Y-154376D01*
Y-154090D01*
Y-153804D01*
Y-153517D01*
X777712D01*
Y-153231D01*
Y-152945D01*
Y-152658D01*
Y-152372D01*
Y-152086D01*
Y-151799D01*
Y-151513D01*
X777999D01*
Y-151227D01*
Y-150940D01*
Y-150654D01*
Y-150368D01*
Y-150082D01*
Y-149795D01*
X778285D01*
Y-149509D01*
Y-149223D01*
Y-148936D01*
Y-148650D01*
Y-148364D01*
Y-148077D01*
X778571D01*
Y-147791D01*
Y-147505D01*
Y-147218D01*
Y-146932D01*
Y-146646D01*
Y-146359D01*
X778858D01*
Y-146073D01*
Y-145787D01*
Y-145501D01*
Y-145214D01*
Y-144928D01*
Y-144641D01*
Y-144355D01*
X779144D01*
Y-144069D01*
Y-143783D01*
Y-143496D01*
Y-143210D01*
Y-142924D01*
Y-142637D01*
X779430D01*
Y-142351D01*
Y-142065D01*
Y-141778D01*
Y-141492D01*
Y-141206D01*
Y-140919D01*
X779716D01*
Y-140633D01*
Y-140347D01*
Y-140060D01*
Y-139774D01*
Y-139488D01*
Y-139202D01*
Y-138915D01*
X780003D01*
Y-138629D01*
Y-138343D01*
Y-138056D01*
X793173D01*
Y-138343D01*
D02*
G37*
G36*
X895101Y-155808D02*
X894814D01*
Y-156094D01*
X894528D01*
Y-156380D01*
Y-156667D01*
X894242D01*
Y-156953D01*
X893955D01*
Y-157239D01*
X893669D01*
Y-157526D01*
Y-157812D01*
X893383D01*
Y-158098D01*
X893096D01*
Y-158385D01*
X892810D01*
Y-158671D01*
X892524D01*
Y-158957D01*
Y-159244D01*
X892237D01*
Y-159530D01*
X891951D01*
Y-159816D01*
X891665D01*
Y-160102D01*
Y-160389D01*
X891378D01*
Y-160675D01*
X891092D01*
Y-160961D01*
X890806D01*
Y-161248D01*
X890520D01*
Y-161534D01*
Y-161820D01*
X890233D01*
Y-162107D01*
X889947D01*
Y-162393D01*
X889661D01*
Y-162679D01*
Y-162966D01*
X889374D01*
Y-163252D01*
X889088D01*
Y-163538D01*
X888802D01*
Y-163824D01*
Y-164111D01*
X888515D01*
Y-164397D01*
X888229D01*
Y-164683D01*
X887943D01*
Y-164970D01*
X887656D01*
Y-165256D01*
Y-165542D01*
X887370D01*
Y-165829D01*
X887084D01*
Y-166115D01*
X886798D01*
Y-166401D01*
Y-166688D01*
X886511D01*
Y-166974D01*
X886225D01*
Y-167260D01*
X885939D01*
Y-167547D01*
Y-167833D01*
X885652D01*
Y-168119D01*
X885366D01*
Y-168405D01*
X885080D01*
Y-168692D01*
X884793D01*
Y-168978D01*
Y-169264D01*
X884507D01*
Y-169551D01*
X884221D01*
Y-169837D01*
X883934D01*
Y-170123D01*
Y-170410D01*
X883648D01*
Y-170696D01*
X883362D01*
Y-170982D01*
X883076D01*
Y-171269D01*
Y-171555D01*
X882789D01*
Y-171841D01*
X882503D01*
Y-172127D01*
X882216D01*
Y-172414D01*
X881930D01*
Y-172700D01*
Y-172986D01*
X881644D01*
Y-173273D01*
X881358D01*
Y-173559D01*
X881071D01*
Y-173845D01*
Y-174132D01*
X880785D01*
Y-174418D01*
X880499D01*
Y-174704D01*
X880212D01*
Y-174991D01*
X879926D01*
Y-175277D01*
Y-175563D01*
X880212D01*
Y-175850D01*
Y-176136D01*
X880499D01*
Y-176422D01*
Y-176709D01*
X880785D01*
Y-176995D01*
X881071D01*
Y-177281D01*
Y-177568D01*
X881358D01*
Y-177854D01*
Y-178140D01*
X881644D01*
Y-178426D01*
Y-178713D01*
X881930D01*
Y-178999D01*
Y-179285D01*
X882216D01*
Y-179572D01*
Y-179858D01*
X882503D01*
Y-180144D01*
Y-180431D01*
X882789D01*
Y-180717D01*
Y-181003D01*
X883076D01*
Y-181290D01*
Y-181576D01*
X883362D01*
Y-181862D01*
X883648D01*
Y-182149D01*
Y-182435D01*
X883934D01*
Y-182721D01*
Y-183007D01*
X884221D01*
Y-183294D01*
Y-183580D01*
X884507D01*
Y-183866D01*
Y-184153D01*
X884793D01*
Y-184439D01*
Y-184725D01*
X885080D01*
Y-185012D01*
Y-185298D01*
X885366D01*
Y-185584D01*
Y-185871D01*
X885652D01*
Y-186157D01*
X885939D01*
Y-186443D01*
Y-186730D01*
X886225D01*
Y-187016D01*
Y-187302D01*
X886511D01*
Y-187588D01*
Y-187875D01*
X886798D01*
Y-188161D01*
Y-188447D01*
X887084D01*
Y-188734D01*
Y-189020D01*
X887370D01*
Y-189306D01*
Y-189593D01*
X887656D01*
Y-189879D01*
Y-190165D01*
X887943D01*
Y-190452D01*
X888229D01*
Y-190738D01*
Y-191024D01*
X888515D01*
Y-191311D01*
Y-191597D01*
X888802D01*
Y-191883D01*
X873627D01*
Y-191597D01*
X873341D01*
Y-191311D01*
Y-191024D01*
Y-190738D01*
X873055D01*
Y-190452D01*
Y-190165D01*
Y-189879D01*
X872768D01*
Y-189593D01*
Y-189306D01*
X872482D01*
Y-189020D01*
Y-188734D01*
Y-188447D01*
X872196D01*
Y-188161D01*
Y-187875D01*
Y-187588D01*
X871909D01*
Y-187302D01*
Y-187016D01*
X871623D01*
Y-186730D01*
Y-186443D01*
Y-186157D01*
X871337D01*
Y-185871D01*
Y-185584D01*
Y-185298D01*
X871050D01*
Y-185012D01*
Y-184725D01*
Y-184439D01*
X870764D01*
Y-184153D01*
X870191D01*
Y-184439D01*
Y-184725D01*
X869905D01*
Y-185012D01*
X869619D01*
Y-185298D01*
Y-185584D01*
X869332D01*
Y-185871D01*
X869046D01*
Y-186157D01*
Y-186443D01*
X868760D01*
Y-186730D01*
X868474D01*
Y-187016D01*
Y-187302D01*
X868187D01*
Y-187588D01*
X867901D01*
Y-187875D01*
X867615D01*
Y-188161D01*
Y-188447D01*
X867328D01*
Y-188734D01*
X867042D01*
Y-189020D01*
Y-189306D01*
X866756D01*
Y-189593D01*
X866469D01*
Y-189879D01*
Y-190165D01*
X866183D01*
Y-190452D01*
X865897D01*
Y-190738D01*
Y-191024D01*
X865610D01*
Y-191311D01*
X865324D01*
Y-191597D01*
Y-191883D01*
X849290D01*
Y-191597D01*
X849577D01*
Y-191311D01*
X849863D01*
Y-191024D01*
X850150D01*
Y-190738D01*
X850436D01*
Y-190452D01*
Y-190165D01*
X850722D01*
Y-189879D01*
X851008D01*
Y-189593D01*
X851295D01*
Y-189306D01*
X851581D01*
Y-189020D01*
Y-188734D01*
X851867D01*
Y-188447D01*
X852154D01*
Y-188161D01*
X852440D01*
Y-187875D01*
Y-187588D01*
X852726D01*
Y-187302D01*
X853013D01*
Y-187016D01*
X853299D01*
Y-186730D01*
X853585D01*
Y-186443D01*
Y-186157D01*
X853872D01*
Y-185871D01*
X854158D01*
Y-185584D01*
X854444D01*
Y-185298D01*
X854731D01*
Y-185012D01*
Y-184725D01*
X855017D01*
Y-184439D01*
X855303D01*
Y-184153D01*
X855589D01*
Y-183866D01*
Y-183580D01*
X855876D01*
Y-183294D01*
X856162D01*
Y-183007D01*
X856448D01*
Y-182721D01*
X856735D01*
Y-182435D01*
Y-182149D01*
X857021D01*
Y-181862D01*
X857307D01*
Y-181576D01*
X857594D01*
Y-181290D01*
Y-181003D01*
X857880D01*
Y-180717D01*
X858166D01*
Y-180431D01*
X858453D01*
Y-180144D01*
X858739D01*
Y-179858D01*
Y-179572D01*
X859025D01*
Y-179285D01*
X859311D01*
Y-178999D01*
X859598D01*
Y-178713D01*
Y-178426D01*
X859884D01*
Y-178140D01*
X860170D01*
Y-177854D01*
X860457D01*
Y-177568D01*
X860743D01*
Y-177281D01*
Y-176995D01*
X861029D01*
Y-176709D01*
X861316D01*
Y-176422D01*
X861602D01*
Y-176136D01*
X861888D01*
Y-175850D01*
Y-175563D01*
X862175D01*
Y-175277D01*
X862461D01*
Y-174991D01*
X862747D01*
Y-174704D01*
Y-174418D01*
X863034D01*
Y-174132D01*
X863320D01*
Y-173845D01*
X863606D01*
Y-173559D01*
X863892D01*
Y-173273D01*
Y-172986D01*
X864179D01*
Y-172700D01*
Y-172414D01*
Y-172127D01*
X863892D01*
Y-171841D01*
X863606D01*
Y-171555D01*
Y-171269D01*
X863320D01*
Y-170982D01*
Y-170696D01*
X863034D01*
Y-170410D01*
Y-170123D01*
X862747D01*
Y-169837D01*
Y-169551D01*
X862461D01*
Y-169264D01*
Y-168978D01*
X862175D01*
Y-168692D01*
Y-168405D01*
X861888D01*
Y-168119D01*
X861602D01*
Y-167833D01*
Y-167547D01*
X861316D01*
Y-167260D01*
Y-166974D01*
X861029D01*
Y-166688D01*
Y-166401D01*
X860743D01*
Y-166115D01*
Y-165829D01*
X860457D01*
Y-165542D01*
Y-165256D01*
X860170D01*
Y-164970D01*
Y-164683D01*
X859884D01*
Y-164397D01*
X859598D01*
Y-164111D01*
Y-163824D01*
X859311D01*
Y-163538D01*
Y-163252D01*
X859025D01*
Y-162966D01*
Y-162679D01*
X858739D01*
Y-162393D01*
Y-162107D01*
X858453D01*
Y-161820D01*
Y-161534D01*
X858166D01*
Y-161248D01*
Y-160961D01*
X857880D01*
Y-160675D01*
Y-160389D01*
X857594D01*
Y-160102D01*
X857307D01*
Y-159816D01*
Y-159530D01*
X857021D01*
Y-159244D01*
Y-158957D01*
X856735D01*
Y-158671D01*
Y-158385D01*
X856448D01*
Y-158098D01*
Y-157812D01*
X856162D01*
Y-157526D01*
Y-157239D01*
X855876D01*
Y-156953D01*
Y-156667D01*
X855589D01*
Y-156380D01*
X855303D01*
Y-156094D01*
Y-155808D01*
X855017D01*
Y-155521D01*
X870764D01*
Y-155808D01*
X871050D01*
Y-156094D01*
Y-156380D01*
Y-156667D01*
X871337D01*
Y-156953D01*
Y-157239D01*
Y-157526D01*
X871623D01*
Y-157812D01*
Y-158098D01*
Y-158385D01*
X871909D01*
Y-158671D01*
Y-158957D01*
Y-159244D01*
X872196D01*
Y-159530D01*
Y-159816D01*
Y-160102D01*
X872482D01*
Y-160389D01*
Y-160675D01*
Y-160961D01*
X872768D01*
Y-161248D01*
Y-161534D01*
Y-161820D01*
X873055D01*
Y-162107D01*
Y-162393D01*
Y-162679D01*
X873341D01*
Y-162966D01*
Y-163252D01*
Y-163538D01*
Y-163824D01*
X873913D01*
Y-163538D01*
X874200D01*
Y-163252D01*
X874486D01*
Y-162966D01*
Y-162679D01*
X874772D01*
Y-162393D01*
X875059D01*
Y-162107D01*
Y-161820D01*
X875345D01*
Y-161534D01*
X875631D01*
Y-161248D01*
Y-160961D01*
X875918D01*
Y-160675D01*
X876204D01*
Y-160389D01*
Y-160102D01*
X876490D01*
Y-159816D01*
X876777D01*
Y-159530D01*
Y-159244D01*
X877063D01*
Y-158957D01*
X877349D01*
Y-158671D01*
Y-158385D01*
X877635D01*
Y-158098D01*
X877922D01*
Y-157812D01*
Y-157526D01*
X878208D01*
Y-157239D01*
X878494D01*
Y-156953D01*
Y-156667D01*
X878781D01*
Y-156380D01*
X879067D01*
Y-156094D01*
Y-155808D01*
X879353D01*
Y-155521D01*
X895101D01*
Y-155808D01*
D02*
G37*
G36*
X851008D02*
Y-156094D01*
Y-156380D01*
Y-156667D01*
Y-156953D01*
Y-157239D01*
Y-157526D01*
Y-157812D01*
Y-158098D01*
Y-158385D01*
Y-158671D01*
Y-158957D01*
Y-159244D01*
Y-159530D01*
Y-159816D01*
Y-160102D01*
Y-160389D01*
Y-160675D01*
Y-160961D01*
Y-161248D01*
Y-161534D01*
X850722D01*
Y-161820D01*
Y-162107D01*
Y-162393D01*
Y-162679D01*
Y-162966D01*
X850436D01*
Y-163252D01*
Y-163538D01*
Y-163824D01*
Y-164111D01*
X850150D01*
Y-164397D01*
Y-164683D01*
Y-164970D01*
Y-165256D01*
X849863D01*
Y-165542D01*
Y-165829D01*
Y-166115D01*
X849577D01*
Y-166401D01*
Y-166688D01*
Y-166974D01*
X849290D01*
Y-167260D01*
Y-167547D01*
Y-167833D01*
X849004D01*
Y-168119D01*
Y-168405D01*
Y-168692D01*
X848718D01*
Y-168978D01*
Y-169264D01*
X848432D01*
Y-169551D01*
Y-169837D01*
X848145D01*
Y-170123D01*
Y-170410D01*
Y-170696D01*
X847859D01*
Y-170982D01*
Y-171269D01*
X847573D01*
Y-171555D01*
Y-171841D01*
Y-172127D01*
X847286D01*
Y-172414D01*
Y-172700D01*
X847000D01*
Y-172986D01*
Y-173273D01*
Y-173559D01*
X846714D01*
Y-173845D01*
Y-174132D01*
X846427D01*
Y-174418D01*
Y-174704D01*
Y-174991D01*
X846141D01*
Y-175277D01*
Y-175563D01*
X845855D01*
Y-175850D01*
Y-176136D01*
Y-176422D01*
X845568D01*
Y-176709D01*
Y-176995D01*
X845282D01*
Y-177281D01*
Y-177568D01*
Y-177854D01*
X844996D01*
Y-178140D01*
Y-178426D01*
X844709D01*
Y-178713D01*
Y-178999D01*
Y-179285D01*
X844423D01*
Y-179572D01*
Y-179858D01*
X844137D01*
Y-180144D01*
Y-180431D01*
Y-180717D01*
X843851D01*
Y-181003D01*
Y-181290D01*
X843564D01*
Y-181576D01*
Y-181862D01*
Y-182149D01*
X843278D01*
Y-182435D01*
Y-182721D01*
X842992D01*
Y-183007D01*
Y-183294D01*
Y-183580D01*
X842705D01*
Y-183866D01*
Y-184153D01*
X842419D01*
Y-184439D01*
Y-184725D01*
Y-185012D01*
X842133D01*
Y-185298D01*
Y-185584D01*
X841846D01*
Y-185871D01*
Y-186157D01*
Y-186443D01*
X841560D01*
Y-186730D01*
Y-187016D01*
X841274D01*
Y-187302D01*
Y-187588D01*
Y-187875D01*
X840987D01*
Y-188161D01*
Y-188447D01*
X840701D01*
Y-188734D01*
Y-189020D01*
Y-189306D01*
X840415D01*
Y-189593D01*
Y-189879D01*
X840129D01*
Y-190165D01*
Y-190452D01*
Y-190738D01*
X839842D01*
Y-191024D01*
Y-191311D01*
X839556D01*
Y-191597D01*
Y-191883D01*
Y-192169D01*
X839270D01*
Y-192456D01*
Y-192742D01*
X838983D01*
Y-193028D01*
Y-193315D01*
X838697D01*
Y-193601D01*
Y-193887D01*
X838411D01*
Y-194174D01*
Y-194460D01*
Y-194746D01*
X838124D01*
Y-195033D01*
X837838D01*
Y-195319D01*
Y-195605D01*
Y-195891D01*
X837552D01*
Y-196178D01*
X837265D01*
Y-196464D01*
Y-196750D01*
X836979D01*
Y-197037D01*
Y-197323D01*
X836693D01*
Y-197609D01*
Y-197896D01*
X836407D01*
Y-198182D01*
Y-198468D01*
X836120D01*
Y-198755D01*
X835834D01*
Y-199041D01*
Y-199327D01*
X835548D01*
Y-199614D01*
Y-199900D01*
X835261D01*
Y-200186D01*
X834975D01*
Y-200472D01*
X834689D01*
Y-200759D01*
Y-201045D01*
X834402D01*
Y-201331D01*
X834116D01*
Y-201618D01*
Y-201904D01*
X833830D01*
Y-202190D01*
X833543D01*
Y-202477D01*
X833257D01*
Y-202763D01*
Y-203049D01*
X832971D01*
Y-203336D01*
X832684D01*
Y-203622D01*
X832398D01*
Y-203908D01*
X832112D01*
Y-204195D01*
X831826D01*
Y-204481D01*
Y-204767D01*
X831539D01*
Y-205053D01*
X831253D01*
Y-205340D01*
X830966D01*
Y-205626D01*
X830680D01*
Y-205912D01*
X830394D01*
Y-206199D01*
X830108D01*
Y-206485D01*
X829821D01*
Y-206771D01*
X829249D01*
Y-207058D01*
X828962D01*
Y-207344D01*
X828676D01*
Y-207630D01*
X828390D01*
Y-207917D01*
X828103D01*
Y-208203D01*
X827531D01*
Y-208489D01*
X827244D01*
Y-208776D01*
X826672D01*
Y-209062D01*
X826385D01*
Y-209348D01*
X825813D01*
Y-209634D01*
X825527D01*
Y-209921D01*
X824954D01*
Y-210207D01*
X824381D01*
Y-210493D01*
X823809D01*
Y-210780D01*
X823236D01*
Y-211066D01*
X822663D01*
Y-211352D01*
X821805D01*
Y-211639D01*
X821232D01*
Y-211925D01*
X820373D01*
Y-212211D01*
X819228D01*
Y-212498D01*
X818082D01*
Y-212784D01*
X816365D01*
Y-213070D01*
X814360D01*
Y-213357D01*
X814074D01*
Y-213070D01*
Y-212784D01*
Y-212498D01*
Y-212211D01*
Y-211925D01*
Y-211639D01*
Y-211352D01*
Y-211066D01*
Y-210780D01*
Y-210493D01*
Y-210207D01*
Y-209921D01*
Y-209634D01*
Y-209348D01*
Y-209062D01*
Y-208776D01*
Y-208489D01*
Y-208203D01*
Y-207917D01*
Y-207630D01*
Y-207344D01*
Y-207058D01*
Y-206771D01*
Y-206485D01*
Y-206199D01*
Y-205912D01*
Y-205626D01*
Y-205340D01*
Y-205053D01*
Y-204767D01*
Y-204481D01*
Y-204195D01*
Y-203908D01*
X814647D01*
Y-203622D01*
X815219D01*
Y-203336D01*
X815792D01*
Y-203049D01*
X816365D01*
Y-202763D01*
X816937D01*
Y-202477D01*
X817510D01*
Y-202190D01*
X817796D01*
Y-201904D01*
X818369D01*
Y-201618D01*
X818655D01*
Y-201331D01*
X819228D01*
Y-201045D01*
X819514D01*
Y-200759D01*
X819800D01*
Y-200472D01*
X820373D01*
Y-200186D01*
X820659D01*
Y-199900D01*
X820946D01*
Y-199614D01*
X821232D01*
Y-199327D01*
X821518D01*
Y-199041D01*
X821805D01*
Y-198755D01*
X822091D01*
Y-198468D01*
X822377D01*
Y-198182D01*
X822663D01*
Y-197896D01*
X822950D01*
Y-197609D01*
X823236D01*
Y-197323D01*
X823522D01*
Y-197037D01*
Y-196750D01*
X823809D01*
Y-196464D01*
X824095D01*
Y-196178D01*
X824381D01*
Y-195891D01*
Y-195605D01*
X824668D01*
Y-195319D01*
X824954D01*
Y-195033D01*
Y-194746D01*
X825240D01*
Y-194460D01*
Y-194174D01*
X825527D01*
Y-193887D01*
X825813D01*
Y-193601D01*
Y-193315D01*
X826099D01*
Y-193028D01*
Y-192742D01*
X826385D01*
Y-192456D01*
Y-192169D01*
X824668D01*
Y-191883D01*
X822663D01*
Y-191597D01*
X821518D01*
Y-191311D01*
X820946D01*
Y-191024D01*
X820087D01*
Y-190738D01*
X819514D01*
Y-190452D01*
X819228D01*
Y-190165D01*
X818655D01*
Y-189879D01*
X818369D01*
Y-189593D01*
X818082D01*
Y-189306D01*
X817796D01*
Y-189020D01*
X817510D01*
Y-188734D01*
X817223D01*
Y-188447D01*
Y-188161D01*
X816937D01*
Y-187875D01*
X816651D01*
Y-187588D01*
Y-187302D01*
X816365D01*
Y-187016D01*
Y-186730D01*
X816078D01*
Y-186443D01*
Y-186157D01*
X815792D01*
Y-185871D01*
Y-185584D01*
Y-185298D01*
X815506D01*
Y-185012D01*
Y-184725D01*
Y-184439D01*
Y-184153D01*
X815219D01*
Y-183866D01*
Y-183580D01*
Y-183294D01*
Y-183007D01*
Y-182721D01*
Y-182435D01*
Y-182149D01*
X814933D01*
Y-181862D01*
Y-181576D01*
Y-181290D01*
Y-181003D01*
Y-180717D01*
Y-180431D01*
Y-180144D01*
Y-179858D01*
Y-179572D01*
Y-179285D01*
Y-178999D01*
Y-178713D01*
Y-178426D01*
Y-178140D01*
Y-177854D01*
X814647D01*
Y-177568D01*
Y-177281D01*
Y-176995D01*
Y-176709D01*
Y-176422D01*
Y-176136D01*
Y-175850D01*
Y-175563D01*
Y-175277D01*
Y-174991D01*
Y-174704D01*
Y-174418D01*
Y-174132D01*
Y-173845D01*
Y-173559D01*
X814360D01*
Y-173273D01*
Y-172986D01*
Y-172700D01*
Y-172414D01*
Y-172127D01*
Y-171841D01*
Y-171555D01*
Y-171269D01*
Y-170982D01*
Y-170696D01*
Y-170410D01*
Y-170123D01*
Y-169837D01*
Y-169551D01*
Y-169264D01*
Y-168978D01*
X814074D01*
Y-168692D01*
Y-168405D01*
Y-168119D01*
Y-167833D01*
Y-167547D01*
Y-167260D01*
Y-166974D01*
Y-166688D01*
Y-166401D01*
Y-166115D01*
Y-165829D01*
Y-165542D01*
Y-165256D01*
Y-164970D01*
Y-164683D01*
Y-164397D01*
X813788D01*
Y-164111D01*
Y-163824D01*
Y-163538D01*
Y-163252D01*
Y-162966D01*
Y-162679D01*
Y-162393D01*
Y-162107D01*
Y-161820D01*
Y-161534D01*
Y-161248D01*
Y-160961D01*
Y-160675D01*
Y-160389D01*
X813501D01*
Y-160102D01*
Y-159816D01*
Y-159530D01*
Y-159244D01*
Y-158957D01*
Y-158671D01*
Y-158385D01*
Y-158098D01*
Y-157812D01*
Y-157526D01*
Y-157239D01*
Y-156953D01*
Y-156667D01*
Y-156380D01*
Y-156094D01*
Y-155808D01*
X813215D01*
Y-155521D01*
X826958D01*
Y-155808D01*
Y-156094D01*
Y-156380D01*
Y-156667D01*
Y-156953D01*
Y-157239D01*
Y-157526D01*
Y-157812D01*
Y-158098D01*
Y-158385D01*
Y-158671D01*
Y-158957D01*
Y-159244D01*
Y-159530D01*
X827244D01*
Y-159816D01*
Y-160102D01*
Y-160389D01*
Y-160675D01*
Y-160961D01*
Y-161248D01*
Y-161534D01*
Y-161820D01*
Y-162107D01*
Y-162393D01*
Y-162679D01*
Y-162966D01*
Y-163252D01*
Y-163538D01*
Y-163824D01*
Y-164111D01*
Y-164397D01*
Y-164683D01*
Y-164970D01*
Y-165256D01*
Y-165542D01*
Y-165829D01*
Y-166115D01*
Y-166401D01*
Y-166688D01*
Y-166974D01*
Y-167260D01*
Y-167547D01*
Y-167833D01*
Y-168119D01*
Y-168405D01*
Y-168692D01*
Y-168978D01*
Y-169264D01*
Y-169551D01*
Y-169837D01*
Y-170123D01*
Y-170410D01*
Y-170696D01*
Y-170982D01*
Y-171269D01*
X827531D01*
Y-171555D01*
X827244D01*
Y-171841D01*
Y-172127D01*
X827531D01*
Y-172414D01*
Y-172700D01*
Y-172986D01*
Y-173273D01*
Y-173559D01*
Y-173845D01*
Y-174132D01*
Y-174418D01*
Y-174704D01*
Y-174991D01*
Y-175277D01*
Y-175563D01*
Y-175850D01*
Y-176136D01*
Y-176422D01*
Y-176709D01*
Y-176995D01*
Y-177281D01*
Y-177568D01*
Y-177854D01*
Y-178140D01*
Y-178426D01*
Y-178713D01*
Y-178999D01*
Y-179285D01*
Y-179572D01*
X827817D01*
Y-179858D01*
Y-180144D01*
Y-180431D01*
X828103D01*
Y-180717D01*
X828390D01*
Y-181003D01*
X828676D01*
Y-181290D01*
X829535D01*
Y-181576D01*
X830394D01*
Y-181290D01*
X830680D01*
Y-181003D01*
Y-180717D01*
Y-180431D01*
X830966D01*
Y-180144D01*
Y-179858D01*
X831253D01*
Y-179572D01*
Y-179285D01*
Y-178999D01*
X831539D01*
Y-178713D01*
Y-178426D01*
Y-178140D01*
X831826D01*
Y-177854D01*
Y-177568D01*
Y-177281D01*
X832112D01*
Y-176995D01*
Y-176709D01*
Y-176422D01*
X832398D01*
Y-176136D01*
Y-175850D01*
X832684D01*
Y-175563D01*
Y-175277D01*
Y-174991D01*
X832971D01*
Y-174704D01*
Y-174418D01*
Y-174132D01*
X833257D01*
Y-173845D01*
Y-173559D01*
Y-173273D01*
X833543D01*
Y-172986D01*
Y-172700D01*
X833830D01*
Y-172414D01*
Y-172127D01*
Y-171841D01*
X834116D01*
Y-171555D01*
Y-171269D01*
Y-170982D01*
X834402D01*
Y-170696D01*
Y-170410D01*
Y-170123D01*
X834689D01*
Y-169837D01*
Y-169551D01*
X834975D01*
Y-169264D01*
Y-168978D01*
Y-168692D01*
X835261D01*
Y-168405D01*
Y-168119D01*
Y-167833D01*
X835548D01*
Y-167547D01*
Y-167260D01*
Y-166974D01*
X835834D01*
Y-166688D01*
Y-166401D01*
X836120D01*
Y-166115D01*
Y-165829D01*
Y-165542D01*
X836407D01*
Y-165256D01*
Y-164970D01*
Y-164683D01*
X836693D01*
Y-164397D01*
Y-164111D01*
Y-163824D01*
X836979D01*
Y-163538D01*
Y-163252D01*
Y-162966D01*
Y-162679D01*
X837265D01*
Y-162393D01*
Y-162107D01*
Y-161820D01*
Y-161534D01*
X837552D01*
Y-161248D01*
Y-160961D01*
Y-160675D01*
Y-160389D01*
Y-160102D01*
X837838D01*
Y-159816D01*
Y-159530D01*
Y-159244D01*
Y-158957D01*
Y-158671D01*
Y-158385D01*
X838124D01*
Y-158098D01*
Y-157812D01*
Y-157526D01*
Y-157239D01*
Y-156953D01*
Y-156667D01*
Y-156380D01*
Y-156094D01*
Y-155808D01*
Y-155521D01*
X851008D01*
Y-155808D01*
D02*
G37*
%LPC*%
G36*
X757670Y-152658D02*
X749654D01*
Y-152945D01*
Y-153231D01*
Y-153517D01*
Y-153804D01*
Y-154090D01*
X749367D01*
Y-154376D01*
Y-154663D01*
Y-154949D01*
Y-155235D01*
Y-155521D01*
Y-155808D01*
X749081D01*
Y-156094D01*
Y-156380D01*
Y-156667D01*
Y-156953D01*
Y-157239D01*
Y-157526D01*
X748795D01*
Y-157812D01*
Y-158098D01*
Y-158385D01*
Y-158671D01*
Y-158957D01*
Y-159244D01*
X748508D01*
Y-159530D01*
Y-159816D01*
Y-160102D01*
Y-160389D01*
Y-160675D01*
Y-160961D01*
Y-161248D01*
X748222D01*
Y-161534D01*
Y-161820D01*
Y-162107D01*
Y-162393D01*
Y-162679D01*
Y-162966D01*
X747936D01*
Y-163252D01*
Y-163538D01*
Y-163824D01*
X755094D01*
Y-163538D01*
X756239D01*
Y-163252D01*
X756812D01*
Y-162966D01*
X757098D01*
Y-162679D01*
X757384D01*
Y-162393D01*
X757670D01*
Y-162107D01*
X757957D01*
Y-161820D01*
Y-161534D01*
X758243D01*
Y-161248D01*
Y-160961D01*
X758529D01*
Y-160675D01*
Y-160389D01*
X758816D01*
Y-160102D01*
Y-159816D01*
Y-159530D01*
Y-159244D01*
X759102D01*
Y-158957D01*
Y-158671D01*
Y-158385D01*
Y-158098D01*
Y-157812D01*
X759388D01*
Y-157526D01*
Y-157239D01*
Y-156953D01*
Y-156667D01*
Y-156380D01*
Y-156094D01*
Y-155808D01*
Y-155521D01*
Y-155235D01*
Y-154949D01*
Y-154663D01*
X759102D01*
Y-154376D01*
Y-154090D01*
X758816D01*
Y-153804D01*
Y-153517D01*
X758529D01*
Y-153231D01*
X758243D01*
Y-152945D01*
X757670D01*
Y-152658D01*
D02*
G37*
%LPD*%
D11*
X1068511Y-229571D02*
Y-190201D01*
X911031Y-150831D02*
X1186622D01*
X911031Y-190201D02*
X1186622D01*
X714181Y-229571D02*
X1186622D01*
X714181Y-111461D02*
X1186622D01*
X714181Y-268941D02*
Y-111461D01*
X911031Y-268941D02*
Y-111461D01*
X-466922Y900350D02*
X1186622D01*
Y-268941D02*
Y900350D01*
X-466922Y-268941D02*
Y900350D01*
Y-268941D02*
X1186622D01*
X924809Y-255164D02*
X920874D01*
Y-258115D01*
X922842D01*
X920874D01*
Y-261067D01*
X926777Y-257131D02*
Y-261067D01*
Y-259099D01*
X927761Y-258115D01*
X928745Y-257131D01*
X929729D01*
X932681Y-261067D02*
X934649D01*
X933665D01*
Y-257131D01*
X932681D01*
X937601Y-256147D02*
X938585Y-255164D01*
X940552D01*
X941536Y-256147D01*
Y-257131D01*
X940552Y-258115D01*
X939568D01*
X940552D01*
X941536Y-259099D01*
Y-260083D01*
X940552Y-261067D01*
X938585D01*
X937601Y-260083D01*
X943504Y-255164D02*
Y-261067D01*
X946456D01*
X947440Y-260083D01*
Y-256147D01*
X946456Y-255164D01*
X943504D01*
X949408Y-262051D02*
X953343D01*
X959247Y-261067D02*
X955311D01*
X959247Y-257131D01*
Y-256147D01*
X958263Y-255164D01*
X956295D01*
X955311Y-256147D01*
X961215D02*
X962199Y-255164D01*
X964167D01*
X965151Y-256147D01*
Y-260083D01*
X964167Y-261067D01*
X962199D01*
X961215Y-260083D01*
Y-256147D01*
X971054Y-261067D02*
X967119D01*
X971054Y-257131D01*
Y-256147D01*
X970070Y-255164D01*
X968102D01*
X967119Y-256147D01*
X973022D02*
X974006Y-255164D01*
X975974D01*
X976958Y-256147D01*
Y-260083D01*
X975974Y-261067D01*
X974006D01*
X973022Y-260083D01*
Y-256147D01*
X978926Y-262051D02*
X982862D01*
X984829Y-256147D02*
X985813Y-255164D01*
X987781D01*
X988765Y-256147D01*
Y-260083D01*
X987781Y-261067D01*
X985813D01*
X984829Y-260083D01*
Y-256147D01*
X990733D02*
X991717Y-255164D01*
X993685D01*
X994669Y-256147D01*
Y-257131D01*
X993685Y-258115D01*
X992701D01*
X993685D01*
X994669Y-259099D01*
Y-260083D01*
X993685Y-261067D01*
X991717D01*
X990733Y-260083D01*
X996637Y-261067D02*
Y-260083D01*
X997620D01*
Y-261067D01*
X996637D01*
X1001556D02*
Y-255164D01*
X1004508D01*
X1005492Y-256147D01*
Y-258115D01*
X1004508Y-259099D01*
X1001556D01*
X1011396Y-257131D02*
X1008444D01*
X1007460Y-258115D01*
Y-260083D01*
X1008444Y-261067D01*
X1011396D01*
X1013363Y-255164D02*
Y-261067D01*
X1016315D01*
X1017299Y-260083D01*
Y-259099D01*
Y-258115D01*
X1016315Y-257131D01*
X1013363D01*
X1019267Y-255164D02*
Y-261067D01*
X1022219D01*
X1023203Y-260083D01*
Y-256147D01*
X1022219Y-255164D01*
X1019267D01*
X1026155Y-261067D02*
X1028122D01*
X1029106Y-260083D01*
Y-258115D01*
X1028122Y-257131D01*
X1026155D01*
X1025171Y-258115D01*
Y-260083D01*
X1026155Y-261067D01*
X1035010Y-257131D02*
X1032058D01*
X1031074Y-258115D01*
Y-260083D01*
X1032058Y-261067D01*
X1035010D01*
D12*
X941868Y-168552D02*
X932685D01*
Y-175439D01*
X937276D01*
X932685D01*
Y-182327D01*
X948756Y-173143D02*
X953347D01*
X955643Y-175439D01*
Y-182327D01*
X948756D01*
X946460Y-180031D01*
X948756Y-177735D01*
X955643D01*
X960235Y-168552D02*
Y-182327D01*
X967122D01*
X969418Y-180031D01*
Y-177735D01*
Y-175439D01*
X967122Y-173143D01*
X960235D01*
X974010D02*
Y-182327D01*
Y-177735D01*
X976306Y-175439D01*
X978602Y-173143D01*
X980898D01*
X987785Y-182327D02*
X992377D01*
X990081D01*
Y-173143D01*
X987785D01*
X1008448D02*
X1001560D01*
X999264Y-175439D01*
Y-180031D01*
X1001560Y-182327D01*
X1008448D01*
X1015335Y-173143D02*
X1019927D01*
X1022223Y-175439D01*
Y-182327D01*
X1015335D01*
X1013039Y-180031D01*
X1015335Y-177735D01*
X1022223D01*
X1029110Y-170848D02*
Y-173143D01*
X1026814D01*
X1031406D01*
X1029110D01*
Y-180031D01*
X1031406Y-182327D01*
X1038294D02*
X1042885D01*
X1040590D01*
Y-173143D01*
X1038294D01*
X1052069Y-182327D02*
X1056660D01*
X1058956Y-180031D01*
Y-175439D01*
X1056660Y-173143D01*
X1052069D01*
X1049773Y-175439D01*
Y-180031D01*
X1052069Y-182327D01*
X1063548D02*
Y-173143D01*
X1070436D01*
X1072731Y-175439D01*
Y-182327D01*
X735834Y-247293D02*
Y-263036D01*
X741082Y-257788D01*
X746330Y-263036D01*
Y-247293D01*
X751577Y-263036D02*
X756825D01*
X754201D01*
Y-252540D01*
X751577D01*
X764696Y-263036D02*
Y-252540D01*
X767320D01*
X769944Y-255164D01*
Y-263036D01*
Y-255164D01*
X772568Y-252540D01*
X775192Y-255164D01*
Y-263036D01*
X780439Y-247293D02*
Y-257788D01*
X785687Y-263036D01*
X790935Y-257788D01*
Y-247293D01*
X806678Y-249917D02*
X804054Y-247293D01*
X798806D01*
X796182Y-249917D01*
Y-260412D01*
X798806Y-263036D01*
X804054D01*
X806678Y-260412D01*
Y-255164D01*
X801430D01*
X1090165Y-210546D02*
X1092789Y-207923D01*
X1098036D01*
X1100660Y-210546D01*
Y-221042D01*
X1098036Y-223665D01*
X1092789D01*
X1090165Y-221042D01*
Y-210546D01*
X1105908D02*
X1108532Y-207923D01*
X1113779D01*
X1116403Y-210546D01*
Y-213170D01*
X1113779Y-215794D01*
X1111156D01*
X1113779D01*
X1116403Y-218418D01*
Y-221042D01*
X1113779Y-223665D01*
X1108532D01*
X1105908Y-221042D01*
X926779Y-212186D02*
X929075Y-209890D01*
X933667D01*
X935963Y-212186D01*
Y-221370D01*
X933667Y-223665D01*
X929075D01*
X926779Y-221370D01*
Y-212186D01*
X949738Y-209890D02*
X945146Y-212186D01*
X940554Y-216778D01*
Y-221370D01*
X942850Y-223665D01*
X947442D01*
X949738Y-221370D01*
Y-219074D01*
X947442Y-216778D01*
X940554D01*
X954329Y-223665D02*
X963513Y-214482D01*
X968104Y-212186D02*
X970400Y-209890D01*
X974992D01*
X977288Y-212186D01*
Y-221370D01*
X974992Y-223665D01*
X970400D01*
X968104Y-221370D01*
Y-212186D01*
X991063Y-209890D02*
X986471Y-212186D01*
X981880Y-216778D01*
Y-221370D01*
X984175Y-223665D01*
X988767D01*
X991063Y-221370D01*
Y-219074D01*
X988767Y-216778D01*
X981880D01*
X995655Y-223665D02*
X1004838Y-214482D01*
X1018613Y-223665D02*
X1009430D01*
X1018613Y-214482D01*
Y-212186D01*
X1016317Y-209890D01*
X1011726D01*
X1009430Y-212186D01*
X1023205D02*
X1025501Y-209890D01*
X1030092D01*
X1032388Y-212186D01*
Y-221370D01*
X1030092Y-223665D01*
X1025501D01*
X1023205Y-221370D01*
Y-212186D01*
X1046163Y-223665D02*
X1036980D01*
X1046163Y-214482D01*
Y-212186D01*
X1043867Y-209890D01*
X1039276D01*
X1036980Y-212186D01*
X1059938Y-223665D02*
X1050755D01*
X1059938Y-214482D01*
Y-212186D01*
X1057642Y-209890D01*
X1053051D01*
X1050755Y-212186D01*
X929270Y-132331D02*
X920874D01*
Y-138628D01*
X925072D01*
X920874D01*
Y-144925D01*
X933468Y-136529D02*
Y-144925D01*
Y-140727D01*
X935567Y-138628D01*
X937666Y-136529D01*
X939765D01*
X946062Y-144925D02*
X950261D01*
X948162D01*
Y-136529D01*
X946062D01*
X956558Y-134430D02*
X958657Y-132331D01*
X962855D01*
X964954Y-134430D01*
Y-136529D01*
X962855Y-138628D01*
X960756D01*
X962855D01*
X964954Y-140727D01*
Y-142826D01*
X962855Y-144925D01*
X958657D01*
X956558Y-142826D01*
X969152Y-132331D02*
Y-144925D01*
X975449D01*
X977548Y-142826D01*
Y-134430D01*
X975449Y-132331D01*
X969152D01*
X994341D02*
Y-144925D01*
X1000638D01*
X1002737Y-142826D01*
Y-140727D01*
X1000638Y-138628D01*
X994341D01*
X1000638D01*
X1002737Y-136529D01*
Y-134430D01*
X1000638Y-132331D01*
X994341D01*
X1009034Y-136529D02*
X1013232D01*
X1015331Y-138628D01*
Y-144925D01*
X1009034D01*
X1006935Y-142826D01*
X1009034Y-140727D01*
X1015331D01*
X1027926Y-132331D02*
Y-144925D01*
X1021629D01*
X1019530Y-142826D01*
Y-138628D01*
X1021629Y-136529D01*
X1027926D01*
X1036322Y-149124D02*
X1038421D01*
X1040520Y-147024D01*
Y-136529D01*
X1034223D01*
X1032124Y-138628D01*
Y-142826D01*
X1034223Y-144925D01*
X1040520D01*
X1051015D02*
X1046817D01*
X1044718Y-142826D01*
Y-138628D01*
X1046817Y-136529D01*
X1051015D01*
X1053115Y-138628D01*
Y-140727D01*
X1044718D01*
X1078303Y-144925D02*
X1069907D01*
X1078303Y-136529D01*
Y-134430D01*
X1076204Y-132331D01*
X1072006D01*
X1069907Y-134430D01*
X1082501D02*
X1084600Y-132331D01*
X1088799D01*
X1090898Y-134430D01*
Y-142826D01*
X1088799Y-144925D01*
X1084600D01*
X1082501Y-142826D01*
Y-134430D01*
X1103492Y-144925D02*
X1095096D01*
X1103492Y-136529D01*
Y-134430D01*
X1101393Y-132331D01*
X1097195D01*
X1095096Y-134430D01*
X1116086Y-144925D02*
X1107690D01*
X1116086Y-136529D01*
Y-134430D01*
X1113987Y-132331D01*
X1109789D01*
X1107690Y-134430D01*
D14*
X-195404Y106420D02*
G03*
X-198584Y106781I-1957J-3051D01*
G01*
X-174945Y135253D02*
G03*
X-172723Y140656I-24759J13342D01*
G01*
X-181223Y128309D02*
G03*
X-174945Y135253I-10191J15523D01*
G01*
X-192779Y118031D02*
G03*
X-140122Y99041I54194J67772D01*
G01*
X-195404Y106420D02*
G03*
X-126022Y86156I68283J104883D01*
G01*
X-178525Y133775D02*
G03*
X-180057Y130742I119550J-62266D01*
G01*
X-177140Y136392D02*
G03*
X-175126Y141350I-23950J12616D01*
G01*
D02*
G03*
X-174362Y149086I-18352J5718D01*
G01*
X-174362Y149086D02*
G03*
X-176529Y155739I-17104J-1891D01*
G01*
X-176529D02*
G03*
X-177737Y157656I-16401J-9001D01*
G01*
Y157656D02*
G03*
X-178237Y158336I-4299J-2634D01*
G01*
X-176862Y160586D02*
G03*
X-176977Y160733I-5280J-4044D01*
G01*
X-175723Y159086D02*
G03*
X-176279Y159850I-5881J-3693D01*
G01*
X-174334Y156961D02*
G03*
X-175723Y159086I-16377J-9188D01*
G01*
X-171862Y149364D02*
G03*
X-174334Y156961I-19898J-2274D01*
G01*
X-172681Y140614D02*
G03*
X-171862Y149364I-20686J6351D01*
G01*
X-176977Y160733D02*
G03*
X-177106Y160888I-7245J-5877D01*
G01*
X-239334Y157253D02*
G03*
X-236654Y117731I29523J-17850D01*
G01*
X-226473Y162475D02*
G03*
X-239237Y140253I13719J-22656D01*
G01*
D02*
G03*
X-230579Y121090I25934J180D01*
G01*
X-214297Y147718D02*
G03*
X-218430Y144125I9708J-15340D01*
G01*
X-218430Y144125D02*
G03*
X-221139Y139569I12113J-10287D01*
G01*
X-221139Y139569D02*
G03*
X-222112Y134323I13655J-5245D01*
G01*
X-218368Y153450D02*
G03*
X-227014Y130591I9403J-16622D01*
G01*
X-239334Y157253D02*
G03*
X-239029Y160364I-2995J1865D01*
G01*
X-203015Y150920D02*
G03*
X-214297Y147718I-139J-20987D01*
G01*
X-194320Y149086D02*
G03*
X-218368Y153450I-14644J-12258D01*
G01*
X-194320Y149086D02*
G03*
X-202973Y150878I-8544J-19472D01*
G01*
X-178779Y159003D02*
G03*
X-178998Y159278I-4664J-3489D01*
G01*
Y159278D02*
G03*
X-179126Y159428I-7694J-6479D01*
G01*
X-180306Y160698D02*
G03*
X-185945Y165378I-31634J-32374D01*
G01*
X-185945Y165378D02*
G03*
X-197959Y171350I-22927J-31050D01*
G01*
X-178543Y162448D02*
G03*
X-184487Y167406I-34010J-34732D01*
G01*
D02*
G03*
X-197307Y173739I-24148J-32738D01*
G01*
X-197959Y171350D02*
G03*
X-206681Y173350I-20220J-68161D01*
G01*
X-197307Y173739D02*
G03*
X-206681Y173350I-4134J-13550D01*
G01*
X-236654Y117731D02*
G03*
X-198584Y106781I26843J21672D01*
G01*
X-230579Y121090D02*
G03*
X-214475Y113510I20467J22589D01*
G01*
X-209682Y113156D02*
G03*
X-192779Y118031I137J31264D01*
G01*
X-222112Y134323D02*
G03*
X-219087Y125327I15003J38D01*
G01*
X-219087D02*
G03*
X-215653Y121864I13993J10442D01*
G01*
Y121864D02*
G03*
X-208750Y118492I12071J15959D01*
G01*
X-227014Y130591D02*
G03*
X-206098Y117948I18050J6238D01*
G01*
X-208750Y118492D02*
G03*
X-206098Y117948I5660J20860D01*
G01*
X-214475Y113510D02*
G03*
X-209682Y113156I4780J32057D01*
G01*
X-28196Y148926D02*
G03*
X-28626Y148614I8329J-11950D01*
G01*
X-19404Y153420D02*
G03*
X-26126Y150281I13289J-37227D01*
G01*
X-18710Y151378D02*
G03*
X-25057Y148420I12251J-34574D01*
G01*
X-9793Y153586D02*
G03*
X-10543Y153475I437J-5538D01*
G01*
X-10112Y155711D02*
G03*
X-10890Y155600I174J-3996D01*
G01*
X-6379Y156128D02*
G03*
X-6665Y156106I1023J-15043D01*
G01*
D02*
G03*
X-7210Y156045I858J-10044D01*
G01*
X-5649Y154038D02*
G03*
X-5940Y154023I601J-14317D01*
G01*
D02*
G03*
X-6222Y154001I701J-11244D01*
G01*
Y154001D02*
G03*
X-6496Y153973I788J-9001D01*
G01*
D02*
G03*
X-6760Y153937I864J-7304D01*
G01*
X-6760D02*
G03*
X-7015Y153892I929J-5988D01*
G01*
X-30223Y147392D02*
G03*
X-33154Y144211I9833J-12000D01*
G01*
X-26998Y147158D02*
G03*
X-27207Y147011I7630J-10988D01*
G01*
X-27207D02*
G03*
X-27404Y146864I6022J-8329D01*
G01*
X47846Y166475D02*
G03*
X59776Y163142I11941J19722D01*
G01*
X53263Y165934D02*
G03*
X72482Y173895I0J27180D01*
G01*
D02*
G03*
X80443Y193114I-19219J19219D01*
G01*
X79777Y174595D02*
G03*
X80026Y197642I-20003J11741D01*
G01*
X59776Y163142D02*
G03*
X79777Y174595I-3J23194D01*
G01*
X80443Y193114D02*
G03*
X80026Y197642I-26902J-193D01*
G01*
X47846Y166475D02*
G03*
X53263Y165934I5459J27236D01*
G01*
X-22144Y99695D02*
G03*
X-1960Y94573I19881J36007D01*
G01*
X-15921Y104430D02*
G03*
X-6616Y102641I13881J47106D01*
G01*
X-6616Y102641D02*
G03*
X-1640Y102406I4961J52268D01*
G01*
Y102406D02*
G03*
X11890Y104215I134J50484D01*
G01*
D02*
G03*
X19726Y107220I-11566J41887D01*
G01*
X13124Y97318D02*
G03*
X21478Y101790I-13128J34568D01*
G01*
X-1960Y94586D02*
G03*
X13124Y97318I145J42206D01*
G01*
X-1677Y156291D02*
G03*
X-2047Y156295I-409J-18916D01*
G01*
X-1303Y156279D02*
G03*
X-1677Y156291I-734J-16658D01*
G01*
X-924Y156257D02*
G03*
X-1303Y156279I-1038J-14953D01*
G01*
X-543Y156225D02*
G03*
X-924Y156257I-1330J-13622D01*
G01*
X-17043Y151975D02*
G03*
X-17375Y151869I2962J-9839D01*
G01*
X-32648Y108981D02*
G03*
X-29717Y105472I23841J16937D01*
G01*
X-36479Y116979D02*
G03*
X-32648Y108981I24614J6874D01*
G01*
X-37251Y121364D02*
G03*
X-33434Y115185I21513J9019D01*
G01*
X-30758Y112437D02*
G03*
X-27626Y109957I21687J24173D01*
G01*
Y109957D02*
G03*
X-24081Y107776I20968J30107D01*
G01*
Y107776D02*
G03*
X-15921Y104430I20181J37596D01*
G01*
X-33434Y115185D02*
G03*
X-30758Y112437I21659J18417D01*
G01*
X-29717Y105472D02*
G03*
X-22144Y99695I24010J23624D01*
G01*
X-37251Y121364D02*
G03*
X-36479Y116979I23552J1885D01*
G01*
X11596Y154378D02*
G03*
X-543Y156225I-15404J-60415D01*
G01*
X11096Y152295D02*
G03*
X18971Y151142I10185J42105D01*
G01*
X11096Y152295D02*
G03*
X-612Y154059I-15148J-60808D01*
G01*
X18971Y151142D02*
G03*
X11596Y154378I-12378J-18187D01*
G01*
X86740Y112689D02*
G03*
X80709Y119597I-220120J-186086D01*
G01*
X77929Y122642D02*
G03*
X81596Y133198I-62540J27639D01*
G01*
D02*
G03*
X83383Y122578I20550J-2002D01*
G01*
X85120Y119322D02*
G03*
X87330Y116211I27737J17364D01*
G01*
X19726Y107220D02*
G03*
X23182Y109186I-16982J33873D01*
G01*
D02*
G03*
X26281Y111427I-18277J28544D01*
G01*
X26281Y111427D02*
G03*
X28988Y113917I-18889J23250D01*
G01*
X28988Y113917D02*
G03*
X31267Y116632I-18979J18247D01*
G01*
X27939Y107949D02*
G03*
X33082Y119545I-19739J15694D01*
G01*
X21478Y101790D02*
G03*
X27939Y107949I-18202J25559D01*
G01*
X31267Y116632D02*
G03*
X33082Y119545I-18767J13713D01*
G01*
X83383Y122578D02*
G03*
X85120Y119322I24369J10915D01*
G01*
X-33112Y144170D02*
G03*
X-34876Y140698I10828J-7685D01*
G01*
X-33990Y141519D02*
G03*
X-34575Y140985I17011J-19256D01*
G01*
X145290Y371975D02*
G03*
X149915Y371795I2421J2680D01*
G01*
X149756Y332897D02*
G03*
X144924Y337840I-280818J-269675D01*
G01*
X154439Y327921D02*
G03*
X149756Y332897I-247741J-228454D01*
G01*
X156273Y335126D02*
G03*
X147013Y343838I-171352J-172843D01*
G01*
X165680Y325130D02*
G03*
X156273Y335126I-148947J-130749D01*
G01*
X158930Y322935D02*
G03*
X154439Y327921I-215865J-189953D01*
G01*
X-68392Y318280D02*
G03*
X-71210Y307322I19884J-10953D01*
G01*
X-71194Y306556D02*
G03*
X-71186Y306429I6053J356D01*
G01*
D02*
G03*
X-71174Y306301I5326J426D01*
G01*
D02*
G03*
X-71140Y306045I4599J476D01*
G01*
X-72612Y313892D02*
G03*
X-71140Y306045I21542J-20D01*
G01*
X-65001Y330002D02*
G03*
X-72612Y313892I12851J-15924D01*
G01*
X-71201Y306683D02*
G03*
X-71194Y306556I7084J289D01*
G01*
X-71210Y307322D02*
G03*
X-71209Y307065I39458J-43D01*
G01*
X197901Y303058D02*
G03*
X200179Y301864I7730J11971D01*
G01*
X198707Y304420D02*
G03*
X200748Y303350I7036J10948D01*
G01*
X207693Y301142D02*
G03*
X204915Y302197I-4272J-7058D01*
G01*
X200124Y301864D02*
G03*
X204624Y300614I7226J17287D01*
G01*
X200748Y303350D02*
G03*
X204915Y302197I6863J16700D01*
G01*
X204624Y300614D02*
G03*
X207693Y301142I802J4527D01*
G01*
X195707Y307336D02*
G03*
X196429Y306364I4166J2340D01*
G01*
D02*
G03*
X197137Y305614I4883J3902D01*
G01*
X195276Y305308D02*
G03*
X196096Y304433I5694J4511D01*
G01*
X134990Y347525D02*
G03*
X124985Y356781I-401517J-424008D01*
G01*
X71926Y339213D02*
G03*
X-71776Y339213I-71851J-123510D01*
G01*
X147013Y343838D02*
G03*
X138340Y351321I-227079J-254454D01*
G01*
X67124Y337265D02*
G03*
X-66210Y337265I-66667J-115470D01*
G01*
X163804Y351003D02*
G03*
X169862Y363182I-4963J10065D01*
G01*
Y363182D02*
G03*
X159728Y372255I-11021J-2114D01*
G01*
X170137Y355350D02*
G03*
X171096Y351183I3231J-1450D01*
G01*
X-44501Y331086D02*
G03*
X-54015Y333864I-9457J-14708D01*
G01*
X-45708Y331161D02*
G03*
X-45861Y331167I-351J-6642D01*
G01*
X-45861D02*
G03*
X-46015Y331170I-156J-5240D01*
G01*
X-46015Y331170D02*
G03*
X-68392Y318280I-262J-25414D01*
G01*
X-54015Y333864D02*
G03*
X-65001Y330002I38J-17665D01*
G01*
X-44801Y331095D02*
G03*
X-44501Y331086I313J5632D01*
G01*
X182902Y160323D02*
G03*
X182773Y160172I6632J-5787D01*
G01*
X182773D02*
G03*
X182657Y160029I4662J-3888D01*
G01*
D02*
G03*
X182554Y159892I3331J-2611D01*
G01*
X180096Y160739D02*
G03*
X179526Y159989I4634J-4110D01*
G01*
X182012Y159239D02*
G03*
X181512Y158545I4675J-3893D01*
G01*
X179526Y159989D02*
G03*
X178137Y157850I19079J-13909D01*
G01*
X180923Y161782D02*
G03*
X180679Y161475I5119J-4320D01*
G01*
X181064Y161947D02*
G03*
X180923Y161782I8497J-7419D01*
G01*
X188304Y168309D02*
G03*
X182346Y163336I28879J-40663D01*
G01*
X239040Y160406D02*
G03*
X248429Y205142I-141191J52985D01*
G01*
X240165Y140239D02*
G03*
X227401Y162461I-26482J-434D01*
G01*
D02*
G03*
X238387Y190309I-197374J93957D01*
G01*
X238387D02*
G03*
X242665Y212781I-90506J28872D01*
G01*
X239040Y160406D02*
G03*
X239346Y157295I3300J-1246D01*
G01*
X236645Y117789D02*
G03*
X239346Y157295I-26854J21681D01*
G01*
X238658Y131672D02*
G03*
X240165Y140239I-23527J8555D01*
G01*
X231507Y121076D02*
G03*
X238658Y131672I-18039J19885D01*
G01*
X198596Y106823D02*
G03*
X236645Y117789I11195J32648D01*
G01*
X193748Y118100D02*
G03*
X210610Y113142I16895J26305D01*
G01*
X210610Y113142D02*
G03*
X231507Y121076I238J30863D01*
G01*
X198596Y106823D02*
G03*
X195415Y106462I-1223J-3412D01*
G01*
X201123Y174628D02*
G03*
X188304Y168309I11048J-38574D01*
G01*
X210471Y174253D02*
G03*
X201748Y172253I10816J-67191D01*
G01*
D02*
G03*
X189637Y166281I10777J-37120D01*
G01*
X210471Y174253D02*
G03*
X201123Y174628I-5210J-13174D01*
G01*
X212637Y118587D02*
G03*
X231748Y137698I0J19111D01*
G01*
X209790Y118823D02*
G03*
X219356Y122765I-2759J20272D01*
G01*
D02*
G03*
X222792Y126236I-10656J13986D01*
G01*
Y126236D02*
G03*
X225023Y130445I-12476J9307D01*
G01*
Y130445D02*
G03*
X225818Y135198I-13783J4748D01*
G01*
D02*
G03*
X222132Y145024I-15223J-106D01*
G01*
X222132D02*
G03*
X217997Y148638I-13945J-11785D01*
G01*
X206721Y151864D02*
G03*
X198026Y150031I-57J-21264D01*
G01*
X219185Y155695D02*
G03*
X198026Y150031I-6533J-17945D01*
G01*
X231748Y137753D02*
G03*
X219185Y155695I-19097J-3D01*
G01*
X217997Y148638D02*
G03*
X209817Y151645I-11018J-17339D01*
G01*
X209790Y118823D02*
G03*
X212637Y118587I3033J19291D01*
G01*
X209817Y151645D02*
G03*
X206721Y151864I-3088J-21644D01*
G01*
X180304Y156642D02*
G03*
X178137Y149975I15088J-8589D01*
G01*
D02*
G03*
X178887Y142253I19071J-2045D01*
G01*
D02*
G03*
X180915Y137281I26963J8097D01*
G01*
X178721Y136142D02*
G03*
X184999Y129198I16427J8540D01*
G01*
X176498Y141545D02*
G03*
X178721Y136142I26981J7939D01*
G01*
X175651Y150267D02*
G03*
X176498Y141545I21712J-2293D01*
G01*
X178137Y157850D02*
G03*
X175651Y150267I17487J-9932D01*
G01*
X183433Y132393D02*
G03*
X181862Y135487I-148749J-73567D01*
G01*
X181512Y158545D02*
G03*
X180304Y156642I14773J-10717D01*
G01*
X-102445Y102795D02*
G03*
X-95255Y107674I-43814J72315D01*
G01*
X-119751Y64712D02*
G03*
X-121159Y55865I28601J-9086D01*
G01*
X-113235Y68510D02*
G03*
X-114143Y63894I36959J-9665D01*
G01*
D02*
G03*
X-114386Y59490I28103J-3761D01*
G01*
X-114386Y59490D02*
G03*
X-113891Y55343I21754J494D01*
G01*
Y55343D02*
G03*
X-112584Y51503I17715J3887D01*
G01*
X-103065Y54757D02*
G03*
X-107126Y46920I34805J-23008D01*
G01*
X-101066Y57458D02*
G03*
X-103065Y54757I26566J-21750D01*
G01*
X-98703Y60029D02*
G03*
X-101066Y57458I21209J-21865D01*
G01*
X-95949Y62367D02*
G03*
X-98703Y60029I16247J-21926D01*
G01*
X-80529Y67295D02*
G03*
X-95949Y62367I-420J-25275D01*
G01*
X-108232Y47790D02*
G03*
X-107126Y46920I40975J50967D01*
G01*
X-126022Y86156D02*
G03*
X-117821Y86406I-160J139713D01*
G01*
X-114956Y85110D02*
G03*
X-117821Y86406I-2670J-2087D01*
G01*
X-114390Y82017D02*
G03*
X-114956Y85110I-3236J1006D01*
G01*
X-132820Y99059D02*
G03*
X-102445Y102795I-6112J175032D01*
G01*
X-97973Y97948D02*
G03*
X-104438Y88121I124085J-88678D01*
G01*
Y88121D02*
G03*
X-107265Y83142I96532J-58086D01*
G01*
X-140122Y99041D02*
G03*
X-132820Y99059I3388J108017D01*
G01*
X-121159Y55865D02*
G03*
X-120826Y51811I24229J-52D01*
G01*
X-120826D02*
G03*
X-119848Y48071I21308J3573D01*
G01*
Y48071D02*
G03*
X-106488Y35807I18390J6625D01*
G01*
Y35807D02*
G03*
X-102362Y34989I6927J24124D01*
G01*
Y12517D02*
G03*
X-98729Y3747I12403J0D01*
G01*
D02*
G03*
X-89959Y114I8770J8770D01*
G01*
X-109722Y78181D02*
G03*
X-111737Y73288I62280J-28505D01*
G01*
X-111737Y73288D02*
G03*
X-113235Y68510I48377J-17792D01*
G01*
X-107265Y83142D02*
G03*
X-109722Y78181I78449J-41956D01*
G01*
X-95255Y107674D02*
G03*
X-91981Y110339I-38118J50159D01*
G01*
Y110339D02*
G03*
X-89001Y113154I-33412J38355D01*
G01*
Y113154D02*
G03*
X-86374Y116118I-29159J28491D01*
G01*
D02*
G03*
X-84161Y119229I-25507J20494D01*
G01*
X-84161D02*
G03*
X-82419Y122486I-22611J14180D01*
G01*
X-82419D02*
G03*
X-81210Y125890I-20625J9245D01*
G01*
X-81210Y125890D02*
G03*
X-80626Y133128I-19432J5210D01*
G01*
X-86185Y113018D02*
G03*
X-91050Y107121I198080J-168386D01*
G01*
X-77196Y123114D02*
G03*
X-86185Y113018I218274J-203390D01*
G01*
X-80626Y133128D02*
G03*
X-77196Y123114I64426J16477D01*
G01*
X-69796Y171255D02*
G03*
X-51696Y163142I18252J16473D01*
G01*
X-77293Y190836D02*
G03*
X-69796Y171255I28787J-205D01*
G01*
X-74515Y202211D02*
G03*
X-68624Y180525I41698J-315D01*
G01*
X-68624Y180525D02*
G03*
X-62011Y172575I29548J17852D01*
G01*
Y172575D02*
G03*
X-53623Y167362I19290J21680D01*
G01*
Y167362D02*
G03*
X-43960Y165489I9672J24044D01*
G01*
X-51696Y163142D02*
G03*
X-41098Y165656I-50J23806D01*
G01*
X-74515Y203489D02*
G03*
X-77293Y190836I26583J-12467D01*
G01*
X-43960Y165489D02*
G03*
X-41098Y165656I7J24528D01*
G01*
X-132251Y209045D02*
G03*
X-129056Y196245I64925J9410D01*
G01*
X-129056Y196245D02*
G03*
X-120305Y180458I54614J19953D01*
G01*
X-120305Y180458D02*
G03*
X-116391Y175817I56748J43883D01*
G01*
X-116391Y175817D02*
G03*
X-112003Y171366I65284J59974D01*
G01*
X-112003Y171366D02*
G03*
X-107156Y167033I80085J84724D01*
G01*
X-107156Y167033D02*
G03*
X-101863Y162747I105713J125108D01*
G01*
Y162747D02*
G03*
X-96140Y158434I153636J197915D01*
G01*
Y158434D02*
G03*
X-116048Y168123I-90596J-160840D01*
G01*
X-116048D02*
G03*
X-127058Y172166I-56387J-136545D01*
G01*
D02*
G03*
X-131822Y173597I-38904J-120916D01*
G01*
X-131822D02*
G03*
X-136063Y174692I-30491J-109258D01*
G01*
D02*
G03*
X-139762Y175498I-23076J-96995D01*
G01*
X96060Y389199D02*
G03*
X101523Y381621I106934J71330D01*
G01*
X97927Y394796D02*
G03*
X102537Y388043I105185J66853D01*
G01*
D02*
G03*
X107357Y381776I132235J96722D01*
G01*
X91655Y396418D02*
G03*
X96060Y389199I91421J50837D01*
G01*
X79030Y317204D02*
G03*
X72387Y326980I-23231J-8639D01*
G01*
X76582Y296475D02*
G03*
X80429Y309308I-19500J12839D01*
G01*
X76676Y298636D02*
G03*
X76679Y298878I-11122J246D01*
G01*
D02*
G03*
X55847Y328930I-31597J344D01*
G01*
X80429Y309308D02*
G03*
X79030Y317204I-22925J8D01*
G01*
X76592Y296952D02*
G03*
X76582Y296475I12207J-497D01*
G01*
X142957Y214295D02*
G03*
X71926Y339213I-142882J1409D01*
G01*
X133641Y215680D02*
G03*
X133790Y221795I-127502J6173D01*
G01*
D02*
G03*
X67124Y337265I-133333J0D01*
G01*
X133221Y209628D02*
G03*
X133641Y215680I-144480J13070D01*
G01*
X136262Y381961D02*
G03*
X145290Y371975I54305J40020D01*
G01*
X101523Y381621D02*
G03*
X108117Y373688I124909J97116D01*
G01*
D02*
G03*
X115913Y365406I145513J129171D01*
G01*
X141257Y371706D02*
G03*
X143452Y369510I120002J117773D01*
G01*
X139230Y373819D02*
G03*
X141257Y371706I92964J87150D01*
G01*
X135734Y377778D02*
G03*
X137384Y375845I54042J44456D01*
G01*
X134294Y379612D02*
G03*
X135734Y377778I40188J30058D01*
G01*
X133078Y381344D02*
G03*
X134294Y379612I29212J19226D01*
G01*
X107357Y381776D02*
G03*
X112102Y376100I174249J140817D01*
G01*
X137384Y375845D02*
G03*
X139230Y373819I71365J63163D01*
G01*
X115913Y365406D02*
G03*
X124985Y356781I168900J168547D01*
G01*
X143452Y369510D02*
G03*
X148290Y364892I175728J179257D01*
G01*
X120221Y366933D02*
G03*
X130691Y357628I73496J72151D01*
G01*
X146804Y357642D02*
G03*
X145971Y359753I-8969J-2320D01*
G01*
Y359753D02*
G03*
X145596Y357336I2699J-1656D01*
G01*
X146804Y357642D02*
G03*
X148346Y354933I5568J1377D01*
G01*
X145596Y357336D02*
G03*
X147457Y354058I6743J1661D01*
G01*
X139221Y396656D02*
G03*
X153683Y441073I-19611J30948D01*
G01*
X136795Y398883D02*
G03*
X137961Y399683I-9690J15357D01*
G01*
Y399683D02*
G03*
X138790Y400350I-8703J11678D01*
G01*
X139499Y401030D02*
G03*
X142378Y403871I-67684J71501D01*
G01*
X142378Y403871D02*
G03*
X143838Y405443I-38464J37167D01*
G01*
Y405443D02*
G03*
X145285Y407153I-32991J29405D01*
G01*
X145285D02*
G03*
X148068Y411089I-30090J24230D01*
G01*
X148068D02*
G03*
X151684Y418688I-33954J20814D01*
G01*
Y418688D02*
G03*
X152665Y421780I-44738J15895D01*
G01*
X152665Y421780D02*
G03*
X153399Y428999I-21333J5816D01*
G01*
X152935Y432688D02*
G03*
X151993Y436347I-31266J-6093D01*
G01*
D02*
G03*
X148910Y443337I-35577J-11515D01*
G01*
X153399Y428999D02*
G03*
X152935Y432688I-27523J-1593D01*
G01*
X133395Y397128D02*
G03*
X135278Y398010I-9356J22421D01*
G01*
X112759Y463597D02*
G03*
X82971Y427614I6851J-35993D01*
G01*
X82971Y426919D02*
G03*
X84066Y415858I47233J-910D01*
G01*
D02*
G03*
X85730Y409753I57839J12488D01*
G01*
X85730D02*
G03*
X88236Y403270I67067J22200D01*
G01*
X88236D02*
G03*
X91655Y396418I78194J34735D01*
G01*
X116654Y461451D02*
G03*
X104754Y458034I1550J-27830D01*
G01*
Y458034D02*
G03*
X94684Y448621I14483J-25585D01*
G01*
D02*
G03*
X90835Y441353I33249J-22266D01*
G01*
Y441353D02*
G03*
X88040Y432211I50723J-20502D01*
G01*
X88219Y416931D02*
G03*
X90482Y409344I51311J11176D01*
G01*
X90482Y409344D02*
G03*
X93814Y401931I65948J25181D01*
G01*
X93814D02*
G03*
X97927Y394796I83794J43556D01*
G01*
X88040Y432211D02*
G03*
X88219Y416931I35284J-7228D01*
G01*
X153683Y441073D02*
G03*
X112759Y463597I-34073J-13469D01*
G01*
X121896Y394741D02*
G03*
X125396Y395042I-1714J40349D01*
G01*
Y395042D02*
G03*
X128469Y395582I-4544J34887D01*
G01*
X128469Y395582D02*
G03*
X131131Y396298I-6704J30224D01*
G01*
D02*
G03*
X133395Y397128I-8296J26137D01*
G01*
X135278Y398010D02*
G03*
X136795Y398883I-9853J18886D01*
G01*
X148910Y443337D02*
G03*
X142156Y452085I-33351J-18770D01*
G01*
X142156Y452085D02*
G03*
X139568Y454294I-20634J-21552D01*
G01*
D02*
G03*
X116654Y461451I-21320J-28000D01*
G01*
X222471Y302461D02*
G03*
X222832Y298850I3223J-1501D01*
G01*
X222471Y302461D02*
G03*
X219407Y323182I-17412J8013D01*
G01*
X163186Y317965D02*
G03*
X158930Y322935I-185585J-154614D01*
G01*
X167163Y313035D02*
G03*
X163186Y317965I-157243J-122781D01*
G01*
X170818Y308170D02*
G03*
X167163Y313035I-131126J-94693D01*
G01*
X212665Y301795D02*
G03*
X220269Y314357I-4955J11582D01*
G01*
D02*
G03*
X210808Y325587I-12559J-980D01*
G01*
X210808D02*
G03*
X197137Y320225I-3098J-12210D01*
G01*
X197137D02*
G03*
X190949Y326381I-195007J-189846D01*
G01*
X183182Y301071D02*
G03*
X174796Y313797I-127380J-74818D01*
G01*
X216846Y314781D02*
G03*
X208512Y323906I-8742J384D01*
G01*
X215026Y309086D02*
G03*
X216846Y314781I-7819J5636D01*
G01*
X174796Y313797D02*
G03*
X165680Y325130I-136018J-100069D01*
G01*
X134579Y389945D02*
G03*
X136262Y381961I10116J-2037D01*
G01*
X132100Y382966D02*
G03*
X133078Y381344I20661J11350D01*
G01*
X131374Y384475D02*
G03*
X132100Y382966I14170J5893D01*
G01*
X131374Y384544D02*
G03*
X129156Y387214I-11064J-6933D01*
G01*
D02*
G03*
X127622Y388550I-16030J-16868D01*
G01*
D02*
G03*
X125869Y389846I-18651J-23388D01*
G01*
X125869D02*
G03*
X123948Y391072I-19733J-28794D01*
G01*
D02*
G03*
X117671Y394030I-18274J-30640D01*
G01*
D02*
G03*
X115573Y394675I-8896J-25199D01*
G01*
X115573D02*
G03*
X113554Y395100I-5192J-19674D01*
G01*
Y395100D02*
G03*
X121896Y394741I6352J50464D01*
G01*
X139221Y396656D02*
G03*
X134579Y389945I5475J-8747D01*
G01*
X152457Y351336D02*
G03*
X155985Y350642I5568J18978D01*
G01*
X150596Y351989D02*
G03*
X152457Y351336I6378J15203D01*
G01*
X149054Y352808D02*
G03*
X149818Y352378I2759J4002D01*
G01*
X148125Y353453D02*
G03*
X148290Y353322I2635J3150D01*
G01*
X148043Y353523D02*
G03*
X148125Y353453I3726J4297D01*
G01*
X148493Y354806D02*
G03*
X148346Y354933I-3404J-3768D01*
G01*
X148907Y354423D02*
G03*
X148974Y354364I2961J3313D01*
G01*
D02*
G03*
X149040Y354308I2129J2479D01*
G01*
X151096Y353128D02*
G03*
X152804Y352531I6805J16723D01*
G01*
X152804Y352531D02*
G03*
X156123Y351864I6022J21390D01*
G01*
X155985Y350642D02*
G03*
X158332Y351100I478J3789D01*
G01*
X149721Y353864D02*
G03*
X150387Y353475I2810J4051D01*
G01*
X158332Y351100D02*
G03*
X156123Y351864I-2880J-4751D01*
G01*
X190060Y265310D02*
G03*
X170818Y308170I-115448J-26080D01*
G01*
X196012Y271225D02*
G03*
X183182Y301071I-123057J-35220D01*
G01*
X200804Y241192D02*
G03*
X196012Y271225I-119149J-3609D01*
G01*
X192721Y310947D02*
G03*
X194415Y306447I10999J1573D01*
G01*
X192721Y312586D02*
G03*
X192721Y310947I3274J-819D01*
G01*
X193276Y313975D02*
G03*
X192721Y312586I6236J-3300D01*
G01*
X193976Y312324D02*
G03*
X193901Y312586I-4232J-1067D01*
G01*
X194009Y312191D02*
G03*
X193976Y312324I-6895J-1612D01*
G01*
X194167Y311492D02*
G03*
X194205Y311346I6401J1599D01*
G01*
X194205Y311346D02*
G03*
X194248Y311197I5259J1443D01*
G01*
X194248D02*
G03*
X195707Y307336I9617J1426D01*
G01*
X193901Y312586D02*
G03*
X193276Y313975I-11690J-4425D01*
G01*
X194415Y306447D02*
G03*
X195276Y305308I5160J3007D01*
G01*
X52971Y334308D02*
G03*
X35471Y328558I-189J-28930D01*
G01*
X72387Y326980D02*
G03*
X52971Y334308I-19186J-21450D01*
G01*
X46221Y330544D02*
G03*
X35471Y328558I-129J-29388D01*
G01*
X55847Y328930D02*
G03*
X46221Y330544I-9603J-27749D01*
G01*
X219407Y323182D02*
G03*
X199207Y328725I-14347J-12709D01*
G01*
X195582Y329531D02*
G03*
X199207Y328725I2477J2589D01*
G01*
X195582Y329531D02*
G03*
X185401Y339004I-227047J-233791D01*
G01*
X170137Y355350D02*
G03*
X171304Y362295I-12142J5610D01*
G01*
X171304Y362295D02*
G03*
X159762Y374308I-13496J-1414D01*
G01*
X159762D02*
G03*
X149915Y371795I-1867J-13230D01*
G01*
X159728Y372255D02*
G03*
X148290Y364892I-887J-11187D01*
G01*
X156790Y366183D02*
G03*
X151235Y363114I73J-6694D01*
G01*
X158096Y369475D02*
G03*
X151235Y363114I434J-7348D01*
G01*
X163779Y366133D02*
G03*
X162254Y367900I-6561J-4118D01*
G01*
X165045Y362634D02*
G03*
X163779Y366133I-8775J-1197D01*
G01*
X163596Y356225D02*
G03*
X165137Y361308I-7444J5033D01*
G01*
X163596Y356225D02*
G03*
X163776Y358031I-9403J1852D01*
G01*
X163776D02*
G03*
X162461Y362812I-8761J161D01*
G01*
D02*
G03*
X160945Y364571I-6494J-4064D01*
G01*
Y364571D02*
G03*
X159015Y365726I-4368J-5105D01*
G01*
Y365726D02*
G03*
X156790Y366142I-2226J-5752D01*
G01*
X165137Y361308D02*
G03*
X165045Y362634I-9521J4D01*
G01*
X162254Y367900D02*
G03*
X158096Y369475I-4202J-4818D01*
G01*
X215234Y311100D02*
G03*
X206901Y320225I-8742J384D01*
G01*
X206901D02*
G03*
X200415Y316794I95J-8027D01*
G01*
X208512Y323906D02*
G03*
X200415Y316794I301J-8508D01*
G01*
X215026Y309086D02*
G03*
X215234Y311100I-10444J2098D01*
G01*
X110186Y37278D02*
G03*
X116106Y41771I-8615J17499D01*
G01*
X116106Y41771D02*
G03*
X120837Y51853I-15043J13210D01*
G01*
X103823Y55133D02*
G03*
X101822Y57770I-27865J-19072D01*
G01*
X106860Y49846D02*
G03*
X103823Y55133I-35716J-16997D01*
G01*
X107943Y47392D02*
G03*
X106860Y49846I-40857J-16567D01*
G01*
X107943Y47392D02*
G03*
X109890Y48985I-44356J56214D01*
G01*
X102374Y35031D02*
G03*
X110186Y37278I-2483J23338D01*
G01*
X93054Y104906D02*
G03*
X86740Y112689I-193001J-150119D01*
G01*
X89953Y113248D02*
G03*
X92929Y110432I36317J35409D01*
G01*
D02*
G03*
X96200Y107766I41196J47209D01*
G01*
D02*
G03*
X99706Y105253I46243J60789D01*
G01*
X99706D02*
G03*
X103387Y102892I51292J75949D01*
G01*
Y102892D02*
G03*
X133790Y99128I36502J170171D01*
G01*
X87330Y116211D02*
G03*
X89953Y113248I31775J25474D01*
G01*
X117832Y86448D02*
G03*
X158155Y90111I8347J131884D01*
G01*
X101583Y93064D02*
G03*
X98249Y97934I-139927J-92240D01*
G01*
X133790Y99128D02*
G03*
X154773Y100503I3979J100072D01*
G01*
X117832Y86448D02*
G03*
X114968Y85151I-194J-3383D01*
G01*
X157290Y192572D02*
G03*
X178250Y203900I-8160J40155D01*
G01*
X144040Y191406D02*
G03*
X157290Y192572I1895J54300D01*
G01*
X158748Y178059D02*
G03*
X182132Y191046I-13515J51877D01*
G01*
X146248Y176420D02*
G03*
X158748Y178059I-63J48972D01*
G01*
X146248Y176420D02*
G03*
X140565Y175498I9721J-77974D01*
G01*
X136866Y174692D02*
G03*
X132625Y173597I26250J-110354D01*
G01*
X132625D02*
G03*
X127861Y172166I34140J-122346D01*
G01*
D02*
G03*
X116851Y168123I45377J-140587D01*
G01*
X112976Y171464D02*
G03*
X117397Y175956I-60194J63659D01*
G01*
Y175956D02*
G03*
X121332Y180645I-52381J47951D01*
G01*
X140565Y175498D02*
G03*
X136866Y174692I19378J-97801D01*
G01*
X108084Y167095D02*
G03*
X112976Y171464I-74181J87992D01*
G01*
X120837Y51853D02*
G03*
X121170Y55906I-23896J4002D01*
G01*
X121170D02*
G03*
X120823Y60223I-27803J-62D01*
G01*
Y60223D02*
G03*
X119763Y64753I-31999J-5102D01*
G01*
X101822Y57770D02*
G03*
X81554Y67295I-19901J-16021D01*
G01*
X112804Y51559D02*
G03*
X114609Y59534I-17888J8240D01*
G01*
X114369Y63931D02*
G03*
X113467Y68539I-37779J-5010D01*
G01*
X114609Y59534D02*
G03*
X114369Y63931I-28292J664D01*
G01*
X113467Y68539D02*
G03*
X111974Y73309I-49758J-12948D01*
G01*
X89971Y114D02*
G03*
X98741Y3747I0J12403D01*
G01*
X98741D02*
G03*
X102374Y12517I-8770J8770D01*
G01*
X114968Y85151D02*
G03*
X114401Y82059I2670J-2087D01*
G01*
X111974Y73309D02*
G03*
X109966Y78194I-64156J-23518D01*
G01*
Y78194D02*
G03*
X107516Y83146I-80771J-36880D01*
G01*
Y83146D02*
G03*
X104697Y88119I-99268J-52988D01*
G01*
D02*
G03*
X101583Y93064I-119183J-71592D01*
G01*
X154773Y100503D02*
G03*
X193748Y118100I-14610J84320D01*
G01*
X158155Y90111D02*
G03*
X195415Y106462I-29923J118819D01*
G01*
X116851Y168123D02*
G03*
X104004Y162206I67424J-163309D01*
G01*
X104004Y162206D02*
G03*
X96943Y158434I90861J-178535D01*
G01*
X96943D02*
G03*
X108084Y167095I-115145J159601D01*
G01*
X189637Y166281D02*
G03*
X184082Y161600I27639J-38443D01*
G01*
X142141Y192340D02*
G03*
X144040Y191406I1997J1661D01*
G01*
X141568Y194378D02*
G03*
X142141Y192340I2570J-377D01*
G01*
X141568Y194378D02*
G03*
X142957Y214295I-143527J20016D01*
G01*
X121332Y180645D02*
G03*
X124767Y185606I-48796J37462D01*
G01*
Y185606D02*
G03*
X131929Y202848I-49472J30658D01*
G01*
D02*
G03*
X133221Y209628I-69426J16740D01*
G01*
X-123594Y362897D02*
G03*
X-119307Y367017I-31611J37194D01*
G01*
X-129782Y357711D02*
G03*
X-123594Y362897I-169692J208751D01*
G01*
X-151084Y352294D02*
G03*
X-150418Y352683I-2143J4440D01*
G01*
X-148822Y352342D02*
G03*
X-148740Y352412I-3644J4367D01*
G01*
X-148904Y352275D02*
G03*
X-148822Y352342I-2827J3554D01*
G01*
X-148987Y352211D02*
G03*
X-148904Y352275I-2245J2991D01*
G01*
X-150515Y351267D02*
G03*
X-149751Y351697I-1653J3825D01*
G01*
X-153154Y350225D02*
G03*
X-151293Y350878I-4516J15855D01*
G01*
X-153501Y351419D02*
G03*
X-151793Y352017I-5097J17322D01*
G01*
X-144867Y337870D02*
G03*
X-149692Y332928I265080J-263683D01*
G01*
X-158842Y322961D02*
G03*
X-163080Y317985I176676J-154768D01*
G01*
X-154365Y327951D02*
G03*
X-158842Y322961I205129J-188578D01*
G01*
X-149692Y332928D02*
G03*
X-154365Y327951I234771J-225079D01*
G01*
X-163080Y317985D02*
G03*
X-170668Y308170I134931J-112142D01*
G01*
X-149737Y353128D02*
G03*
X-149602Y353242I-2947J3613D01*
G01*
X-149043Y353753D02*
G03*
X-147501Y356531I-4048J4064D01*
G01*
X-148154Y352947D02*
G03*
X-146293Y356225I-4706J4839D01*
G01*
X-146668Y358642D02*
G03*
X-147501Y356531I8786J-4688D01*
G01*
X-146293Y356225D02*
G03*
X-146668Y358642I-3014J770D01*
G01*
X-136279Y382072D02*
G03*
X-134596Y390056I-8433J5947D01*
G01*
X-119307Y396294D02*
G03*
X-123256Y394598I4675J-16332D01*
G01*
X-123256Y394598D02*
G03*
X-124680Y393572I5779J-9521D01*
G01*
X-124680D02*
G03*
X-126808Y391138I7499J-8704D01*
G01*
D02*
G03*
X-127663Y389722I16748J-11071D01*
G01*
X-130294Y384625D02*
G03*
X-129330Y386470I-59982J32511D01*
G01*
X-131446Y382628D02*
G03*
X-130294Y384625I-38336J23437D01*
G01*
X-133959Y378975D02*
G03*
X-131904Y381878I-26398J20872D01*
G01*
X-127663Y389722D02*
G03*
X-128478Y388168I40590J-22280D01*
G01*
X-134596Y390056D02*
G03*
X-139237Y396767I-10116J-2037D01*
G01*
X-139737Y402225D02*
G03*
X-119307Y396294I18846J26767D01*
G01*
X-101503Y381685D02*
G03*
X-96053Y389277I-102090J79037D01*
G01*
D02*
G03*
X-91659Y396504I-87508J58149D01*
G01*
Y396504D02*
G03*
X-88248Y403365I-75172J41658D01*
G01*
X-88248D02*
G03*
X-85747Y409852I-64891J28738D01*
G01*
X-106421Y381852D02*
G03*
X-101603Y388114I-126379J102216D01*
G01*
X-111168Y376179D02*
G03*
X-106421Y381852I-167062J144605D01*
G01*
X-149932Y371906D02*
G03*
X-159779Y374419I-7980J-10716D01*
G01*
Y374419D02*
G03*
X-171320Y362406I1941J-13416D01*
G01*
D02*
G03*
X-170154Y355461I13308J-1334D01*
G01*
X-147404Y364961D02*
G03*
X-158841Y372324I-10551J-3824D01*
G01*
X-168976Y363251D02*
G03*
X-162918Y351072I11021J-2114D01*
G01*
X-171112Y351294D02*
G03*
X-170154Y355461I-2273J2716D01*
G01*
X-112778Y463745D02*
G03*
X-153729Y441207I-6862J-36005D01*
G01*
Y441207D02*
G03*
X-139237Y396767I34089J-13466D01*
G01*
X-121883Y461306D02*
G03*
X-138668Y454378I4916J-35704D01*
G01*
D02*
G03*
X-143707Y449568I19845J-25838D01*
G01*
X-143707D02*
G03*
X-152021Y432783I28593J-24613D01*
G01*
X-152414Y425433D02*
G03*
X-151751Y421864I20753J2011D01*
G01*
X-151751Y421864D02*
G03*
X-139737Y402225I39427J10625D01*
G01*
X-152021Y432783D02*
G03*
X-152485Y429093I27078J-5281D01*
G01*
D02*
G03*
X-152414Y425433I23717J-1373D01*
G01*
X-149932Y371906D02*
G03*
X-145307Y372086I2204J2860D01*
G01*
X-137432Y351404D02*
G03*
X-146105Y343921I218110J-261590D01*
G01*
X-147404Y364961D02*
G03*
X-134182Y378683I-89157J99140D01*
G01*
X-145307Y372086D02*
G03*
X-136279Y382072I-45277J50006D01*
G01*
X-71776Y339213D02*
G03*
X-142807Y214295I71851J-123510D01*
G01*
X-129907Y352230D02*
G03*
X-139932Y342750I336569J-365939D01*
G01*
X-124904Y356781D02*
G03*
X-108079Y373736I-145206J160912D01*
G01*
X-66210Y337265D02*
G03*
X-132876Y221795I66667J-115470D01*
G01*
X-108079Y373736D02*
G03*
X-101503Y381685I-119102J105229D01*
G01*
X-158841Y372324D02*
G03*
X-168976Y363251I887J-11187D01*
G01*
X-165890Y360170D02*
G03*
X-164348Y355072I8986J-64D01*
G01*
X-164531Y364983D02*
G03*
X-165890Y360170I7640J-4755D01*
G01*
X-163007Y366748D02*
G03*
X-164531Y364983I5034J-5888D01*
G01*
X-161074Y367906D02*
G03*
X-163007Y366748I2447J-6277D01*
G01*
X-151987Y361961D02*
G03*
X-158848Y368322I-7295J-987D01*
G01*
X-151987Y361961D02*
G03*
X-157473Y365031I-5614J-3596D01*
G01*
X-157473D02*
G03*
X-161632Y363457I44J-6397D01*
G01*
Y363457D02*
G03*
X-163156Y361692I5034J-5888D01*
G01*
X-164423Y358200D02*
G03*
X-164515Y356878I9378J-1318D01*
G01*
D02*
G03*
X-164348Y354947I9596J-144D01*
G01*
X-163156Y361692D02*
G03*
X-164423Y358200I7486J-4691D01*
G01*
X-158848Y368322D02*
G03*
X-161074Y367906I0J-6165D01*
G01*
X-85747Y409852D02*
G03*
X-84085Y415962I-56460J18640D01*
G01*
D02*
G03*
X-83189Y421690I-49661J10702D01*
G01*
Y421690D02*
G03*
X-82987Y427031I-44263J4349D01*
G01*
X-82987Y427725D02*
G03*
X-112778Y463745I-36653J15D01*
G01*
X-101603Y388114D02*
G03*
X-96998Y394864I-100070J73228D01*
G01*
D02*
G03*
X-92890Y401997I-79452J50508D01*
G01*
D02*
G03*
X-89564Y409409I-62560J32521D01*
G01*
Y409409D02*
G03*
X-87305Y416999I-49104J18747D01*
G01*
D02*
G03*
X-86397Y424662I-39243J8533D01*
G01*
X-87126Y432294D02*
G03*
X-93770Y448704I-45867J-9021D01*
G01*
D02*
G03*
X-98477Y454223I-26220J-17595D01*
G01*
X-86397Y424662D02*
G03*
X-87126Y432294I-33165J685D01*
G01*
X-98477Y454223D02*
G03*
X-121883Y461306I-19083J-20845D01*
G01*
X-248445Y205184D02*
G03*
X-239029Y160364I150580J8238D01*
G01*
X-248445Y205184D02*
G03*
X-250292Y208072I-3521J-216D01*
G01*
X-219987Y241420D02*
G03*
X-221376Y245336I-23006J-5954D01*
G01*
X-218973Y235364D02*
G03*
X-219987Y241420I-30050J-1919D01*
G01*
X-218973Y235364D02*
G03*
X-218962Y234736I20956J42D01*
G01*
X-218931Y232918D02*
G03*
X-218924Y233213I-10401J371D01*
G01*
X-218946Y232626D02*
G03*
X-218931Y232918I-8154J583D01*
G01*
X-218973Y232336D02*
G03*
X-218946Y232626I-6658J768D01*
G01*
X-218995Y230549D02*
G03*
X-218973Y230947I-3681J404D01*
G01*
X-219027Y230309D02*
G03*
X-219010Y230427I-6404J976D01*
G01*
X-219098Y229861D02*
G03*
X-219112Y229753I4215J-600D01*
G01*
X-219010Y230427D02*
G03*
X-218995Y230549I-4825J644D01*
G01*
X-218924Y233213D02*
G03*
X-218925Y233512I-14106J102D01*
G01*
X-219362Y227989D02*
G03*
X-219112Y229753I-11820J2575D01*
G01*
X-221376Y245336D02*
G03*
X-225834Y250378I-9823J-4194D01*
G01*
X-265051Y235324D02*
G03*
X-250292Y208072I27651J-2647D01*
G01*
X-256670Y248592D02*
G03*
X-259781Y226281I17322J-13787D01*
G01*
D02*
G03*
X-241737Y212795I20432J8524D01*
G01*
X-246112Y239758D02*
G03*
X-247046Y238114I11887J-7838D01*
G01*
Y238114D02*
G03*
X-247806Y236265I14863J-7187D01*
G01*
Y236265D02*
G03*
X-248726Y232069I18327J-6219D01*
G01*
X-248726Y232069D02*
G03*
X-248848Y229781I21207J-2280D01*
G01*
X-248848D02*
G03*
X-245181Y218586I17269J-541D01*
G01*
X-252838Y223885D02*
G03*
X-250186Y220968I11638J7914D01*
G01*
X-254759Y227635D02*
G03*
X-252838Y223885I15891J5774D01*
G01*
X-254544Y241734D02*
G03*
X-255931Y234392I18267J-7254D01*
G01*
X-255931Y234392D02*
G03*
X-254759Y227635I19640J-72D01*
G01*
X-250186Y220968D02*
G03*
X-245181Y218586I7079J8427D01*
G01*
X-139762Y175498D02*
G03*
X-142896Y176059I-16645J-83983D01*
G01*
D02*
G03*
X-145446Y176420I-11206J-70081D01*
G01*
X-157945Y178059D02*
G03*
X-145446Y176420I12587J47514D01*
G01*
X-222848Y298961D02*
G03*
X-222487Y302572I-2862J2110D01*
G01*
X-230176Y288231D02*
G03*
X-234542Y280824I125942J-79242D01*
G01*
Y280824D02*
G03*
X-238409Y273232I113813J-62751D01*
G01*
X-211751Y301795D02*
G03*
X-235626Y256628I135644J-100595D01*
G01*
X-222848Y298961D02*
G03*
X-230176Y288231I141611J-104571D01*
G01*
X-235626Y256628D02*
G03*
X-256670Y248591I-3723J-21824D01*
G01*
X-239501Y243892D02*
G03*
X-242457Y243172I27J-6541D01*
G01*
X-242457D02*
G03*
X-243798Y242317I3628J-7166D01*
G01*
X-243798D02*
G03*
X-245023Y241169I6046J-7679D01*
G01*
D02*
G03*
X-246112Y239758I8860J-7965D01*
G01*
X-252286Y245692D02*
G03*
X-254544Y241734I13003J-10043D01*
G01*
X-250831Y247291D02*
G03*
X-252286Y245692I9600J-10193D01*
G01*
X-249194Y248592D02*
G03*
X-250831Y247291I6891J-10354D01*
G01*
X-247398Y249562D02*
G03*
X-249194Y248592I4374J-10243D01*
G01*
X-243431Y250378D02*
G03*
X-247398Y249562I8J-10088D01*
G01*
X-237888Y248725D02*
G03*
X-243431Y250378I-5595J-8640D01*
G01*
X-236291Y247517D02*
G03*
X-237888Y248725I-8193J-9168D01*
G01*
X-220765Y232392D02*
G03*
X-223057Y244600I-27503J1156D01*
G01*
X-221126Y228350D02*
G03*
X-220890Y229989I-12750J2673D01*
G01*
X-234858Y246029D02*
G03*
X-236291Y247517I-10626J-8801D01*
G01*
X-232573Y242332D02*
G03*
X-234858Y246029I-14765J-6573D01*
G01*
X-231210Y237867D02*
G03*
X-232573Y242332I-18588J-3232D01*
G01*
X-230931Y235420D02*
G03*
X-231210Y237867I-20300J-1073D01*
G01*
X-230931Y235420D02*
G03*
X-231994Y238195I-16046J-4554D01*
G01*
D02*
G03*
X-232674Y239421I-12812J-6298D01*
G01*
D02*
G03*
X-233441Y240523I-10691J-6627D01*
G01*
D02*
G03*
X-234289Y241489I-8622J-6713D01*
G01*
X-234289Y241489D02*
G03*
X-235209Y242307I-6704J-6621D01*
G01*
Y242307D02*
G03*
X-236194Y242964I-5002J-6431D01*
G01*
Y242964D02*
G03*
X-237236Y243448I-3534J-6239D01*
G01*
Y243448D02*
G03*
X-239459Y243850I-2231J-5989D01*
G01*
X-225227Y249220D02*
G03*
X-225834Y250378I-37554J-18961D01*
G01*
X-241737Y212795D02*
G03*
X-237459Y190322I94784J6400D01*
G01*
D02*
G03*
X-226473Y162475I204591J64623D01*
G01*
X-236293Y211434D02*
G03*
X-229640Y212573I1726J9921D01*
G01*
X-236293Y211434D02*
G03*
X-233431Y212656I-8629J24159D01*
G01*
X-231457Y213627D02*
G03*
X-230487Y214142I-18408J35835D01*
G01*
Y214142D02*
G03*
X-227376Y216336I-8173J14890D01*
G01*
X-227376Y216336D02*
G03*
X-223807Y220739I-12776J14006D01*
G01*
X-223806D02*
G03*
X-221793Y225531I-20628J11489D01*
G01*
D02*
G03*
X-221237Y227739I-15847J5161D01*
G01*
X-222251Y219795D02*
G03*
X-220070Y224975I-21677J12173D01*
G01*
X-226167Y214961D02*
G03*
X-222251Y219795I-13675J15085D01*
G01*
X-229598Y212531D02*
G03*
X-226168Y214961I-8369J15448D01*
G01*
X-220070Y224975D02*
G03*
X-219487Y227350I-16080J5209D01*
G01*
X-142807Y214295D02*
G03*
X-141418Y194378I144917J99D01*
G01*
X-141991Y192340D02*
G03*
X-141418Y194378I-1997J1661D01*
G01*
X-143890Y191406D02*
G03*
X-141991Y192340I-97J2595D01*
G01*
X-157140Y192572D02*
G03*
X-143890Y191406I11355J53134D01*
G01*
X-185026Y213234D02*
G03*
X-157140Y192572I35962J19387D01*
G01*
X-192907Y206892D02*
G03*
X-157945Y178059I48839J23607D01*
G01*
X-132876Y221795D02*
G03*
X-132366Y210305I132357J114D01*
G01*
X-241703Y265470D02*
G03*
X-243112Y261531I96701J-36803D01*
G01*
X-245390Y259281D02*
G03*
X-243112Y261531I-1026J3317D01*
G01*
X-245390Y259281D02*
G03*
X-265051Y235324I7990J-26604D01*
G01*
X-238409Y273232D02*
G03*
X-241703Y265470I103057J-48311D01*
G01*
X-179188Y294355D02*
G03*
X-189909Y265310I102916J-54492D01*
G01*
X-170668Y308170D02*
G03*
X-179188Y294355I97739J-69812D01*
G01*
X-173884Y313880D02*
G03*
X-195098Y271308I106818J-79800D01*
G01*
X-195251Y302059D02*
G03*
X-194431Y302933I-4202J4757D01*
G01*
X-196362Y301128D02*
G03*
X-196126Y301322I-1256J1766D01*
G01*
X-199334Y299475D02*
G03*
X-197056Y300683I-6054J14164D01*
G01*
X-203848Y298225D02*
G03*
X-199334Y299475I-3089J19929D01*
G01*
X-204140Y299808D02*
G03*
X-206918Y298753I1494J-8114D01*
G01*
X-204140Y299809D02*
G03*
X-199973Y300961I-2890J18554D01*
G01*
X-199973Y300961D02*
G03*
X-197862Y302031I-5387J13253D01*
G01*
X-206918Y298753D02*
G03*
X-203848Y298225I2298J4173D01*
G01*
X-191876Y308558D02*
G03*
X-191876Y310211I-3315J826D01*
G01*
X-171112Y351294D02*
G03*
X-180473Y343439I281921J-345448D01*
G01*
D02*
G03*
X-187934Y336828I251518J-291404D01*
G01*
D02*
G03*
X-195598Y329642I230321J-253296D01*
G01*
X-164769Y325214D02*
G03*
X-173884Y313880I126897J-111382D01*
G01*
X-191876Y310211D02*
G03*
X-192431Y311600I-7103J-2036D01*
G01*
X-214376Y308725D02*
G03*
X-214168Y306711I10528J71D01*
G01*
X-215987Y312406D02*
G03*
X-214168Y306711I9597J-72D01*
G01*
X-191956Y237158D02*
G03*
X-189632Y224459I67802J5847D01*
G01*
X-192036Y250913D02*
G03*
X-191956Y237158I84728J-6385D01*
G01*
X-189909Y265310D02*
G03*
X-192036Y250913I98498J-21904D01*
G01*
X-199248Y228389D02*
G03*
X-196842Y216929I71808J9091D01*
G01*
X-199905Y241272D02*
G03*
X-199248Y228389I86352J-2055D01*
G01*
X-198595Y255578D02*
G03*
X-199905Y241272I105182J-16847D01*
G01*
X-195098Y271308D02*
G03*
X-198595Y255578I129214J-36975D01*
G01*
X-196842Y216929D02*
G03*
X-192907Y206892I60587J17965D01*
G01*
X-189632Y224459D02*
G03*
X-185026Y213234I51351J14514D01*
G01*
X-199223Y328836D02*
G03*
X-219439Y323307I-5878J-18228D01*
G01*
D02*
G03*
X-222487Y302572I14337J-12699D01*
G01*
X-193236Y323362D02*
G03*
X-196251Y320294I166948J-167103D01*
G01*
X-209922Y325563D02*
G03*
X-219332Y314332I3151J-12197D01*
G01*
D02*
G03*
X-211751Y301795I12560J-966D01*
G01*
X-207654Y321531D02*
G03*
X-215987Y312406I408J-8741D01*
G01*
X-199557Y314420D02*
G03*
X-207654Y321531I-8422J-1424D01*
G01*
X-206043Y317850D02*
G03*
X-214334Y308683I448J-8738D01*
G01*
X-199557Y314420D02*
G03*
X-206043Y317850I-6603J-4638D01*
G01*
X-196251Y320294D02*
G03*
X-209922Y325563I-10521J-6929D01*
G01*
X-199223Y328836D02*
G03*
X-195598Y329642I1148J3395D01*
G01*
X-196293Y303239D02*
G03*
X-195584Y303989I-3028J3569D01*
G01*
X-195584D02*
G03*
X-194862Y304947I-3681J3526D01*
G01*
D02*
G03*
X-193404Y308822I-8161J5283D01*
G01*
Y308822D02*
G03*
X-193322Y309144I-8315J2276D01*
G01*
X-193164Y309851D02*
G03*
X-193195Y309720I7298J-1794D01*
G01*
X-193131Y309976D02*
G03*
X-193164Y309851I4577J-1258D01*
G01*
X-193096Y310096D02*
G03*
X-193131Y309976I3190J-1006D01*
G01*
X-193056Y310211D02*
G03*
X-193096Y310096I2370J-875D01*
G01*
X-193570Y304072D02*
G03*
X-191876Y308558I-9302J6077D01*
G01*
X-194431Y302933D02*
G03*
X-193570Y304072I-4299J4146D01*
G01*
X-192431Y311600D02*
G03*
X-193056Y310211I11065J-5814D01*
G01*
X-155364Y335209D02*
G03*
X-164769Y325214I139508J-140697D01*
G01*
X-146105Y343921D02*
G03*
X-155364Y335209I162005J-181446D01*
G01*
X-156668Y349531D02*
G03*
X-153154Y350225I-1997J19342D01*
G01*
X-159029Y349989D02*
G03*
X-156668Y349531I1885J3401D01*
G01*
X-156820Y350753D02*
G03*
X-159029Y349989I671J-5515D01*
G01*
X-156820Y350753D02*
G03*
X-153501Y351419I-2703J22057D01*
G01*
X223235Y228309D02*
G03*
X223818Y225947I16793J2896D01*
G01*
X222846Y230711D02*
G03*
X223110Y228961I13631J1161D01*
G01*
X222846Y230711D02*
G03*
X222837Y230940I-3118J-9D01*
G01*
X222837Y230940D02*
G03*
X222827Y231056I-4558J-338D01*
G01*
D02*
G03*
X222814Y231174I-6320J-631D01*
G01*
X222721Y231906D02*
G03*
X222734Y231781I7077J711D01*
G01*
X222705Y232162D02*
G03*
X222721Y231906I3718J103D01*
G01*
X222702Y232295D02*
G03*
X222705Y232162I5554J33D01*
G01*
X222721Y236309D02*
G03*
X222721Y233295I27556J-1507D01*
G01*
X222703Y232431D02*
G03*
X222702Y232295I7771J-89D01*
G01*
X223734Y242364D02*
G03*
X222721Y236309I28719J-7921D01*
G01*
X225012Y228684D02*
G03*
X225568Y226475I16404J2953D01*
G01*
D02*
G03*
X227582Y221684I22642J6697D01*
G01*
X223818Y225947D02*
G03*
X225998Y220767I23574J6873D01*
G01*
X250276Y208031D02*
G03*
X265262Y232586I-12791J24657D01*
G01*
X242665Y212781D02*
G03*
X262187Y236033I-2596J22000D01*
G01*
X247351Y239397D02*
G03*
X246263Y240808I-9933J-6537D01*
G01*
X192186Y250913D02*
G03*
X190060Y265310I-100625J-7508D01*
G01*
X192106Y237158D02*
G03*
X192186Y250913I-84648J7371D01*
G01*
X189782Y224459D02*
G03*
X192106Y237158I-65478J18546D01*
G01*
X185176Y213234D02*
G03*
X189782Y224459I-46745J25739D01*
G01*
X178250Y203900D02*
G03*
X185176Y213234I-31051J30276D01*
G01*
X197705Y216859D02*
G03*
X200130Y228313I-69199J20633D01*
G01*
X193750Y206829D02*
G03*
X197705Y216859I-56536J28091D01*
G01*
X182132Y191046D02*
G03*
X193750Y206829I-38736J40682D01*
G01*
X200130Y228313D02*
G03*
X200804Y241192I-85381J10921D01*
G01*
X226804Y245545D02*
G03*
X224540Y236197I25458J-11114D01*
G01*
X225123Y246281D02*
G03*
X223734Y242364I20026J-9306D01*
G01*
X229915Y215920D02*
G03*
X233346Y213461I12103J13267D01*
G01*
X225998Y220767D02*
G03*
X229915Y215920I17893J10452D01*
G01*
X231151Y217281D02*
G03*
X234262Y215086I11285J12696D01*
G01*
D02*
G03*
X235828Y214276I28539J53206D01*
G01*
X237207Y213600D02*
G03*
X240068Y212392I10494J20856D01*
G01*
X233373Y213461D02*
G03*
X240068Y212392I4827J8726D01*
G01*
X227582Y221684D02*
G03*
X231151Y217281I16346J9604D01*
G01*
X243096Y261420D02*
G03*
X238393Y273121I-104423J-35170D01*
G01*
X238393D02*
G03*
X234526Y280713I-117680J-55159D01*
G01*
X234526Y280713D02*
G03*
X230159Y288120I-130308J-71835D01*
G01*
X230159D02*
G03*
X225366Y295327I-144163J-90694D01*
G01*
Y295327D02*
G03*
X222832Y298850I-154127J-108168D01*
G01*
X236554Y256628D02*
G03*
X212665Y301795I-159184J-55292D01*
G01*
X234701Y240195D02*
G03*
X233929Y239087I10005J-7807D01*
G01*
X233929D02*
G03*
X233243Y237854I12258J-7623D01*
G01*
X233789Y241962D02*
G03*
X232165Y235059I17584J-7779D01*
G01*
X233243Y237854D02*
G03*
X232165Y235059I15198J-7465D01*
G01*
X235554Y241164D02*
G03*
X234701Y240195I7824J-7738D01*
G01*
X224498Y234452D02*
G03*
X224497Y234171I14337J-185D01*
G01*
D02*
G03*
X224503Y233893I10480J70D01*
G01*
D02*
G03*
X224516Y233619I8115J269D01*
G01*
X224517Y233619D02*
G03*
X224540Y233350I6519J437D01*
G01*
X224540Y232072D02*
G03*
X224560Y231606I5334J-5D01*
G01*
X224560Y231606D02*
G03*
X224620Y231161I4705J409D01*
G01*
D02*
G03*
X224665Y230947I4299J793D01*
G01*
Y230947D02*
G03*
X224901Y229295I12878J996D01*
G01*
X224531Y235608D02*
G03*
X224540Y236197I-21169J630D01*
G01*
X245038Y241955D02*
G03*
X243696Y242811I-4964J-6304D01*
G01*
D02*
G03*
X242255Y243346I-3091J-6119D01*
G01*
X240735Y243531D02*
G03*
X237466Y242643I39J-6606D01*
G01*
D02*
G03*
X236478Y241985I4031J-7117D01*
G01*
D02*
G03*
X235554Y241164I5812J-7480D01*
G01*
X236071Y245656D02*
G03*
X233789Y241962I12403J-10216D01*
G01*
X242255Y243346D02*
G03*
X240735Y243531I-1521J-6172D01*
G01*
X246263Y240808D02*
G03*
X245038Y241955I-7258J-6517D01*
G01*
X229582Y251322D02*
G03*
X225123Y246281I5255J-9139D01*
G01*
X229582Y251322D02*
G03*
X226804Y245545I56281J-30615D01*
G01*
X237505Y247143D02*
G03*
X236071Y245656I9156J-10264D01*
G01*
X239104Y248350D02*
G03*
X237505Y247143I6580J-10374D01*
G01*
X242706Y249810D02*
G03*
X239104Y248350I2123J-10416D01*
G01*
X250428Y248220D02*
G03*
X244665Y250003I-5814J-8585D01*
G01*
D02*
G03*
X242706Y249810I-2J-9993D01*
G01*
X265262Y232586D02*
G03*
X245373Y259170I-27778J-51D01*
G01*
X243096Y261420D02*
G03*
X245373Y259170I3304J1067D01*
G01*
X240165Y256947D02*
G03*
X236554Y256628I135J-22097D01*
G01*
X262187Y236033D02*
G03*
X240165Y256933I-22117J-1252D01*
G01*
X253519Y245324D02*
G03*
X252065Y246921I-11033J-8589D01*
G01*
X255778Y241370D02*
G03*
X253519Y245324I-15232J-6078D01*
G01*
X252065Y246921D02*
G03*
X250428Y248220I-8516J-9053D01*
G01*
X246415Y218225D02*
G03*
X250082Y229420I-13687J10681D01*
G01*
D02*
G03*
X249042Y235904I-20102J102D01*
G01*
D02*
G03*
X248284Y237753I-15619J-5326D01*
G01*
D02*
G03*
X247351Y239397I-12807J-6177D01*
G01*
X257002Y236621D02*
G03*
X255778Y241370I-18970J-2361D01*
G01*
X257165Y234031D02*
G03*
X257002Y236621I-20588J9D01*
G01*
X256002Y227272D02*
G03*
X257165Y234031I-18455J6654D01*
G01*
X252843Y221943D02*
G03*
X254085Y223519I-10967J9922D01*
G01*
X251438Y220601D02*
G03*
X252843Y221943I-8479J10282D01*
G01*
X249890Y219517D02*
G03*
X251438Y220601I-6075J10327D01*
G01*
X254085Y223519D02*
G03*
X256002Y227272I-13975J9505D01*
G01*
X246443Y218225D02*
G03*
X249890Y219517I-1903J10324D01*
G01*
X250276Y208031D02*
G03*
X248429Y205142I1674J-3105D01*
G01*
X-181223Y128309D02*
X-180432Y129969D01*
X-180057Y130742D01*
X-178525Y133775D02*
X-178098Y134591D01*
X-177639Y135459D01*
X-177140Y136392D01*
X-179267Y159585D02*
X-179126Y159428D01*
X-179418Y159751D02*
X-179267Y159585D01*
X-179579Y159925D02*
X-179418Y159751D01*
X-179749Y160107D02*
X-179579Y159925D01*
X-179928Y160296D02*
X-179749Y160107D01*
X-178779Y159003D02*
X-178237Y158336D01*
X-176862Y160586D02*
X-176279Y159850D01*
X-172723Y140656D02*
X-172681Y140614D01*
X-203015Y150920D02*
X-202973Y150878D01*
X-180114Y160493D02*
X-179928Y160296D01*
X-180306Y160698D02*
X-180114Y160493D01*
X-28196Y148926D02*
X-27965Y149085D01*
X-27724Y149247D01*
X-27475Y149411D01*
X-27218Y149578D01*
X-26954Y149749D01*
X-26684Y149922D01*
X-26407Y150100D01*
X-26126Y150281D01*
X-17871Y151692D02*
X-17706Y151753D01*
X-18037Y151630D02*
X-17871Y151692D01*
X-18203Y151567D02*
X-18037Y151630D01*
X-18371Y151504D02*
X-18203Y151567D01*
X-18540Y151441D02*
X-18371Y151504D01*
X-18710Y151378D02*
X-18540Y151441D01*
X-25576Y148086D02*
X-25057Y148420D01*
X-17706Y151753D02*
X-17540Y151812D01*
X-19047Y153546D02*
X-18870Y153610D01*
X-18693Y153673D01*
X-12529Y153086D02*
X-10543Y153475D01*
X-19404Y153420D02*
X-19047Y153546D01*
X-18693Y153673D02*
X-18517Y153736D01*
X-18341Y153798D01*
X-18166Y153859D01*
X-17990Y153918D01*
X-17815Y153975D01*
X-17640Y154031D01*
X-15932Y154503D01*
X-14362Y154934D01*
X-12973Y155198D02*
X-10890Y155600D01*
X-14362Y154934D02*
X-12973Y155198D01*
X-10112Y155711D02*
X-7210Y156045D01*
X-6379Y156128D02*
X-6085Y156146D01*
X-5782Y156161D01*
X-5473Y156174D01*
X-4731Y154057D02*
X-4085Y154059D01*
X-5044Y154054D02*
X-4731Y154057D01*
X-5350Y154048D02*
X-5044Y154054D01*
X-5649Y154038D02*
X-5350Y154048D01*
X-9793Y153586D02*
X-7015Y153892D01*
X-4085Y154059D02*
X-612D01*
X-30223Y147392D02*
X-28626Y148614D01*
X-25829Y147924D02*
X-25576Y148086D01*
X-26077Y147766D02*
X-25829Y147924D01*
X-26319Y147611D02*
X-26077Y147766D01*
X-26554Y147458D02*
X-26319Y147611D01*
X-26998Y147158D02*
X-26781Y147307D01*
X-28904Y145725D02*
X-27404Y146864D01*
X-32015Y143156D02*
X-28904Y145725D01*
X-26781Y147307D02*
X-26554Y147458D01*
X-89959Y114D02*
X89971D01*
X-80529Y67295D02*
X81554D01*
X-1960Y94573D02*
Y94586D01*
X-5473Y156174D02*
X-5156Y156185D01*
X-4832Y156197D01*
X-4503Y156210D01*
X-4168Y156225D01*
X-3482Y156259D01*
X-3130Y156273D01*
X-2774Y156285D01*
X-2413Y156293D01*
X-2047Y156295D01*
X-17540Y151812D02*
X-17375Y151869D01*
X-15418Y152420D02*
X-13918Y152836D01*
X-17043Y151975D02*
X-15418Y152420D01*
X-13918Y152836D02*
X-12529Y153086D01*
X77929Y122642D02*
X80709Y119597D01*
X-32578Y142702D02*
X-32015Y143156D01*
X-32858Y142474D02*
X-32578Y142702D01*
X-33138Y142245D02*
X-32858Y142474D01*
X-33420Y142010D02*
X-33138Y142245D01*
X-33703Y141769D02*
X-33420Y142010D01*
X-33990Y141519D02*
X-33703Y141769D01*
X-33154Y144211D02*
X-33112Y144170D01*
X-34876Y140698D02*
X-34575Y140985D01*
X149818Y352378D02*
X150596Y351989D01*
X147713Y353822D02*
X147796Y353745D01*
X147629Y353901D02*
X147713Y353822D01*
X147544Y353979D02*
X147629Y353901D01*
X148493Y354806D02*
X148564Y354741D01*
X148634Y354675D01*
X148703Y354610D01*
X148772Y354546D01*
X148839Y354484D01*
X148907Y354423D01*
X149040Y354308D02*
X149721Y353864D01*
X150387Y353475D02*
X151096Y353128D01*
X147457Y354058D02*
X147544Y353979D01*
X148290Y353322D02*
X149054Y352808D01*
X116485Y371117D02*
X120221Y366933D01*
X147961Y353595D02*
X148043Y353523D01*
X147879Y353670D02*
X147961Y353595D01*
X147796Y353745D02*
X147879Y353670D01*
X-71209Y307065D02*
X-71208Y306938D01*
X-71205Y306811D01*
X-71201Y306683D01*
X197887Y304975D02*
X198096Y304808D01*
X198707Y304420D01*
X187695Y329483D02*
X190949Y326381D01*
X194009Y312191D02*
X194039Y312055D01*
X194070Y311918D01*
X194100Y311778D01*
X194132Y311636D02*
X194167Y311492D01*
X197207Y303503D02*
X197901Y303058D01*
X196971Y303697D02*
X197207Y303503D01*
X196096Y304433D02*
X196971Y303697D01*
X197137Y305614D02*
X197887Y304975D01*
X194100Y311778D02*
X194132Y311636D01*
X134990Y347525D02*
X139988Y342724D01*
X144924Y337840D01*
X130691Y357628D02*
X138340Y351321D01*
X180457Y343340D02*
X185401Y339004D01*
X175673Y347401D02*
X180457Y343340D01*
X171096Y351183D02*
X175673Y347401D01*
X184360Y332593D02*
X187695Y329483D01*
X180965Y335702D02*
X184360Y332593D01*
X177531Y338805D02*
X180965Y335702D01*
X174078Y341894D02*
X177531Y338805D01*
X170625Y344961D02*
X174078Y341894D01*
X167194Y347999D02*
X170625Y344961D01*
X163804Y351003D02*
X167194Y347999D01*
X156790Y366142D02*
Y366183D01*
X-44952Y331104D02*
X-44801Y331095D01*
X-45102Y331116D02*
X-44952Y331104D01*
X-45253Y331128D02*
X-45102Y331116D01*
X-45404Y331140D02*
X-45253Y331128D01*
X-45556Y331152D02*
X-45404Y331140D01*
X-45708Y331161D02*
X-45556Y331152D01*
X183042Y160481D02*
X183193Y160647D01*
X182902Y160323D02*
X183042Y160481D01*
X182012Y159239D02*
X182554Y159892D01*
X183703Y161193D02*
X184082Y161600D01*
X183354Y160821D02*
X183524Y161003D01*
X183193Y160647D02*
X183354Y160821D01*
X181064Y161947D02*
X181218Y162120D01*
X181382Y162302D01*
X180096Y160739D02*
X180679Y161475D01*
X183524Y161003D02*
X183703Y161193D01*
X181382Y162302D02*
X181557Y162491D01*
X181742Y162689D01*
X181935Y162896D01*
X182137Y163112D01*
X182346Y163336D01*
X231748Y137698D02*
Y137753D01*
X236939Y213730D02*
X237207Y213600D01*
X180915Y137281D02*
X181862Y135487D01*
X183433Y132393D02*
X183805Y131639D01*
X184185Y130865D01*
X184580Y130056D01*
X184999Y129198D01*
X-95348Y101545D02*
X-92807Y104878D01*
X-92682Y105059D01*
X-95529Y101309D02*
X-95348Y101545D01*
X-92682Y105059D02*
X-91050Y107121D01*
X-109323Y48683D02*
X-108779Y48234D01*
X-108232Y47790D01*
X-96020Y100642D02*
X-95529Y101309D01*
X-96266Y100308D02*
X-96020Y100642D01*
X-96511Y99974D02*
X-96266Y100308D01*
X-96756Y99639D02*
X-96511Y99974D01*
X-97001Y99303D02*
X-96756Y99639D01*
X-97245Y98966D02*
X-97001Y99303D01*
X-97488Y98628D02*
X-97245Y98966D01*
X-97731Y98289D02*
X-97488Y98628D01*
X-97973Y97948D02*
X-97731Y98289D01*
X-102362Y12517D02*
Y34989D01*
X-119751Y64712D02*
X-114390Y82017D01*
X-112584Y51503D02*
X-111491Y50540D01*
X-110949Y50067D01*
X-110407Y49600D01*
X-109866Y49139D01*
X-109323Y48683D01*
X-74515Y202211D02*
Y203489D01*
X76592Y296952D02*
X76603Y297191D01*
X76616Y297431D01*
X76631Y297671D01*
X76645Y297912D01*
X76658Y298153D01*
X76669Y298395D01*
X76676Y298636D01*
X112102Y376100D02*
X116485Y371117D01*
X138790Y400350D02*
X139499Y401030D01*
X82971Y426919D02*
Y427614D01*
X131374Y384475D02*
Y384544D01*
X200124Y301864D02*
X200179D01*
X109890Y48985D02*
X110857Y49816D01*
X111827Y50674D01*
X112804Y51559D01*
X96308Y100607D02*
X96796Y99944D01*
X95818Y101267D02*
X96308Y100607D01*
X94187Y103435D02*
X95665Y101462D01*
X93193Y104725D02*
X94187Y103435D01*
X95665Y101462D02*
X95818Y101267D01*
X93054Y104906D02*
X93193Y104725D01*
X114401Y82059D02*
X119763Y64753D01*
X102374Y12517D02*
Y35031D01*
X97765Y98607D02*
X98249Y97934D01*
X97523Y98943D02*
X97765Y98607D01*
X97281Y99277D02*
X97523Y98943D01*
X96796Y99944D02*
X97281Y99277D01*
X-129330Y386470D02*
X-128478Y388168D01*
X-131695Y382211D02*
X-131446Y382628D01*
X-148410Y352711D02*
X-148326Y352789D01*
X-148493Y352634D02*
X-148410Y352711D01*
X-148576Y352558D02*
X-148493Y352634D01*
X-148658Y352484D02*
X-148576Y352558D01*
X-151793Y352017D02*
X-151084Y352294D01*
X-148326Y352789D02*
X-148154Y352947D01*
X-148740Y352412D02*
X-148658Y352484D01*
X-150418Y352683D02*
X-149737Y353128D01*
X-149751Y351697D02*
X-148987Y352211D01*
X-149602Y353242D02*
X-149534Y353303D01*
X-149465Y353366D01*
X-149395Y353430D01*
X-149325Y353495D01*
X-149255Y353560D01*
X-149184Y353625D01*
X-149114Y353690D01*
X-149043Y353753D01*
X-131904Y381878D02*
X-131695Y382211D01*
X-134182Y378683D02*
X-133959Y378975D01*
X-144867Y337870D02*
X-139932Y342750D01*
X-129908Y352230D02*
X-124904Y356781D01*
X-137432Y351404D02*
X-129782Y357711D01*
X-119307Y367017D02*
X-111168Y376179D01*
X-164348Y354947D02*
Y355072D01*
X-82987Y427031D02*
Y427725D01*
X-233431Y212656D02*
X-232893Y212916D01*
X-232619Y213049D01*
X-232339Y213185D01*
X-232053Y213326D01*
X-231759Y213473D01*
X-231457Y213627D01*
X-229640Y212573D02*
X-229598Y212531D01*
X-224451Y247609D02*
X-224200Y247066D01*
X-224700Y248142D02*
X-224451Y247609D01*
X-224957Y248676D02*
X-224700Y248142D01*
X-225227Y249220D02*
X-224957Y248676D01*
X-178543Y162448D02*
X-178125Y162006D01*
X-177929Y161798D01*
X-177743Y161598D01*
X-177567Y161408D01*
X-177402Y161225D01*
X-177248Y161052D01*
X-177106Y160888D01*
X-132366Y210305D02*
X-132251Y209045D01*
X-239501Y243892D02*
X-239459Y243850D01*
X-169772Y345035D02*
X-162918Y351072D01*
X-173235Y341969D02*
X-169772Y345035D01*
X-176695Y338880D02*
X-173235Y341969D01*
X-180131Y335777D02*
X-176695Y338880D01*
X-183524Y332666D02*
X-180131Y335777D01*
X-186852Y329555D02*
X-183524Y332666D01*
X-190096Y326451D02*
X-186852Y329555D01*
X-193236Y323362D02*
X-190096Y326451D01*
X-193288Y309296D02*
X-193255Y309443D01*
X-214376Y308725D02*
X-214334Y308683D01*
X-221237Y227739D02*
X-221126Y228350D01*
X-220765Y231114D02*
Y232392D01*
X-223671Y245912D02*
X-223056Y244600D01*
X-223943Y246504D02*
X-223671Y245912D01*
X-224200Y247066D02*
X-223943Y246504D01*
X-218963Y234736D02*
X-218952Y234426D01*
X-218941Y234118D01*
X-218932Y233814D01*
X-218925Y233512D01*
X-218973Y230947D02*
Y232336D01*
X-219045Y230193D02*
X-219027Y230309D01*
X-219064Y230081D02*
X-219045Y230193D01*
X-219082Y229971D02*
X-219064Y230081D01*
X-219098Y229861D02*
X-219082Y229971D01*
X-219487Y227350D02*
X-219362Y227989D01*
X-220890Y229989D02*
X-220765Y231114D01*
X-197862Y302031D02*
X-197251Y302420D01*
X-197043Y302586D01*
X-196293Y303239D01*
X-196126Y301322D02*
X-195251Y302058D01*
X-197056Y300683D02*
X-196362Y301128D01*
X-193322Y309144D02*
X-193288Y309296D01*
X-193255Y309443D02*
X-193225Y309584D01*
X-193195Y309720D01*
X-151293Y350878D02*
X-150515Y351267D01*
X222799Y231293D02*
X222814Y231174D01*
X222783Y231413D02*
X222799Y231293D01*
X222766Y231535D02*
X222783Y231413D01*
X222750Y231658D02*
X222766Y231535D01*
X222734Y231781D02*
X222750Y231658D01*
X222703Y232431D02*
X222705Y232569D01*
X222709Y232710D01*
X222713Y232853D01*
X222720Y233145D02*
X222721Y233295D01*
X223110Y228961D02*
X223235Y228309D01*
X224512Y235025D02*
X224522Y235316D01*
X246415Y218225D02*
X246443D01*
X222713Y232853D02*
X222717Y232998D01*
X222720Y233145D01*
X235828Y214276D02*
X236114Y214133D01*
X236394Y213996D01*
X236668Y213861D01*
X236939Y213730D01*
X233346Y213461D02*
X233373D01*
X224522Y235316D02*
X224531Y235608D01*
X224504Y234737D02*
X224512Y235025D01*
X224498Y234452D02*
X224504Y234737D01*
X224540Y232072D02*
Y233350D01*
X224901Y229295D02*
X225012Y228684D01*
X240165Y256933D02*
Y256947D01*
X-145307Y372086D02*
G03*
X-136279Y382072I-45277J50006D01*
G01*
X-101503Y381685D02*
G03*
X-96053Y389277I-102090J79037D01*
G01*
X-108079Y373736D02*
G03*
X-101503Y381685I-119102J105229D01*
G01*
X-134596Y390056D02*
G03*
X-139237Y396767I-10116J-2037D01*
G01*
X-129908Y352230D02*
G03*
X-139932Y342750I336569J-365939D01*
G01*
X-124904Y356781D02*
G03*
X-108079Y373736I-145206J160912D01*
G01*
X-96053Y389277D02*
G03*
X-91659Y396504I-87508J58149D01*
G01*
X-136279Y382072D02*
G03*
X-134596Y390056I-8433J5947D01*
G01*
X-149932Y371906D02*
G03*
X-159779Y374419I-7980J-10716D01*
G01*
X-171320Y362406D02*
G03*
X-170154Y355461I13308J-1334D01*
G01*
X-149932Y371906D02*
G03*
X-145307Y372086I2204J2860D01*
G01*
X-171112Y351294D02*
G03*
X-170154Y355461I-2273J2716D01*
G01*
X-171112Y351294D02*
G03*
X-180473Y343439I281921J-345448D01*
G01*
X-149692Y332928D02*
G03*
X-154365Y327951I234771J-225079D01*
G01*
X-199223Y328836D02*
G03*
X-219439Y323307I-5878J-18228D01*
G01*
X-159779Y374419D02*
G03*
X-171320Y362406I1941J-13416D01*
G01*
X-187934Y336828D02*
G03*
X-195598Y329642I230321J-253296D01*
G01*
X-180473Y343439D02*
G03*
X-187934Y336828I251518J-291404D01*
G01*
X-199223Y328836D02*
G03*
X-195598Y329642I1148J3395D01*
G01*
X101523Y381621D02*
G03*
X108117Y373688I124909J97116D01*
G01*
X85730Y409753D02*
G03*
X88236Y403270I67067J22200D01*
G01*
X88236D02*
G03*
X91655Y396418I78194J34735D01*
G01*
X108117Y373688D02*
G03*
X115913Y365406I145513J129171D01*
G01*
X82971Y426919D02*
G03*
X84066Y415858I47233J-910D01*
G01*
X91655Y396418D02*
G03*
X96060Y389199I91421J50837D01*
G01*
X84066Y415858D02*
G03*
X85730Y409753I57839J12488D01*
G01*
X96060Y389199D02*
G03*
X101523Y381621I106934J71330D01*
G01*
X-154365Y327951D02*
G03*
X-158842Y322961I205129J-188578D01*
G01*
Y322961D02*
G03*
X-163080Y317985I176676J-154768D01*
G01*
X-144867Y337870D02*
G03*
X-149692Y332928I265080J-263683D01*
G01*
X71926Y339213D02*
G03*
X-71776Y339213I-71851J-123510D01*
G01*
X-170668Y308170D02*
G03*
X-179188Y294355I97739J-69812D01*
G01*
X-189632Y224459D02*
G03*
X-185026Y213234I51351J14514D01*
G01*
X-163080Y317985D02*
G03*
X-170668Y308170I134931J-112142D01*
G01*
X-185026Y213234D02*
G03*
X-157140Y192572I35962J19387D01*
G01*
X-179188Y294355D02*
G03*
X-189909Y265310I102916J-54492D01*
G01*
X-192036Y250913D02*
G03*
X-191956Y237158I84728J-6385D01*
G01*
X-71776Y339213D02*
G03*
X-142807Y214295I71851J-123510D01*
G01*
X-189909Y265310D02*
G03*
X-192036Y250913I98498J-21904D01*
G01*
X-191956Y237158D02*
G03*
X-189632Y224459I67802J5847D01*
G01*
X-119751Y64712D02*
G03*
X-121159Y55865I28601J-9086D01*
G01*
X-114390Y82017D02*
G03*
X-114956Y85110I-3236J1006D01*
G01*
X-141991Y192340D02*
G03*
X-141418Y194378I-1997J1661D01*
G01*
X-157140Y192572D02*
G03*
X-143890Y191406I11355J53134D01*
G01*
X-121159Y55865D02*
G03*
X-120826Y51811I24229J-52D01*
G01*
X-120826D02*
G03*
X-119848Y48071I21308J3573D01*
G01*
Y48071D02*
G03*
X-106488Y35807I18390J6625D01*
G01*
Y35807D02*
G03*
X-102362Y34989I6927J24124D01*
G01*
X-114956Y85110D02*
G03*
X-117821Y86406I-2670J-2087D01*
G01*
X-143890Y191406D02*
G03*
X-141991Y192340I-97J2595D01*
G01*
X-142807Y214295D02*
G03*
X-141418Y194378I144917J99D01*
G01*
X-195404Y106420D02*
G03*
X-126022Y86156I68283J104883D01*
G01*
X-126022D02*
G03*
X-117821Y86406I-160J139713D01*
G01*
X-236654Y117731D02*
G03*
X-198584Y106781I26843J21672D01*
G01*
X-195404Y106420D02*
G03*
X-198584Y106781I-1957J-3051D01*
G01*
X158930Y322935D02*
G03*
X154439Y327921I-215865J-189953D01*
G01*
X163186Y317965D02*
G03*
X158930Y322935I-185585J-154614D01*
G01*
X154439Y327921D02*
G03*
X149756Y332897I-247741J-228454D01*
G01*
D02*
G03*
X144924Y337840I-280818J-269675D01*
G01*
X167163Y313035D02*
G03*
X163186Y317965I-157243J-122781D01*
G01*
X141568Y194378D02*
G03*
X142957Y214295I-143527J20016D01*
G01*
X141568Y194378D02*
G03*
X142141Y192340I2570J-377D01*
G01*
X158155Y90111D02*
G03*
X195415Y106462I-29923J118819D01*
G01*
X117832Y86448D02*
G03*
X158155Y90111I8347J131884D01*
G01*
X157290Y192572D02*
G03*
X178250Y203900I-8160J40155D01*
G01*
X142141Y192340D02*
G03*
X144040Y191406I1997J1661D01*
G01*
X185176Y213234D02*
G03*
X189782Y224459I-46745J25739D01*
G01*
X178250Y203900D02*
G03*
X185176Y213234I-31051J30276D01*
G01*
X144040Y191406D02*
G03*
X157290Y192572I1895J54300D01*
G01*
X192186Y250913D02*
G03*
X190060Y265310I-100625J-7508D01*
G01*
X198596Y106823D02*
G03*
X195415Y106462I-1223J-3412D01*
G01*
X198596Y106823D02*
G03*
X236645Y117789I11195J32648D01*
G01*
X250276Y208031D02*
G03*
X265262Y232586I-12791J24657D01*
G01*
X189782Y224459D02*
G03*
X192106Y237158I-65478J18546D01*
G01*
X236645Y117789D02*
G03*
X239346Y157295I-26854J21681D01*
G01*
X239040Y160406D02*
G03*
X239346Y157295I3300J-1246D01*
G01*
X243096Y261420D02*
G03*
X245373Y259170I3304J1067D01*
G01*
X250276Y208031D02*
G03*
X248429Y205142I1674J-3105D01*
G01*
X265262Y232586D02*
G03*
X245373Y259170I-27778J-51D01*
G01*
X243096Y261420D02*
G03*
X238393Y273121I-104423J-35170D01*
G01*
X192106Y237158D02*
G03*
X192186Y250913I-84648J7371D01*
G01*
X239040Y160406D02*
G03*
X248429Y205142I-141191J52985D01*
G01*
X117832Y86448D02*
G03*
X114968Y85151I-194J-3383D01*
G01*
X102374Y35031D02*
G03*
X110186Y37278I-2483J23338D01*
G01*
X116106Y41771D02*
G03*
X120837Y51853I-15043J13210D01*
G01*
X120823Y60223D02*
G03*
X119762Y64753I-31999J-5102D01*
G01*
X114968Y85151D02*
G03*
X114401Y82059I2670J-2087D01*
G01*
X110186Y37278D02*
G03*
X116106Y41771I-8615J17499D01*
G01*
X120837Y51853D02*
G03*
X121170Y55906I-23896J4002D01*
G01*
X121170D02*
G03*
X120823Y60223I-27803J-62D01*
G01*
X136262Y381961D02*
G03*
X145290Y371975I54305J40020D01*
G01*
X134990Y347525D02*
G03*
X124985Y356781I-401517J-424008D01*
G01*
X139221Y396656D02*
G03*
X153683Y441073I-19611J30948D01*
G01*
X112759Y463597D02*
G03*
X82971Y427614I6851J-35993D01*
G01*
X139221Y396656D02*
G03*
X134579Y389945I5475J-8747D01*
G01*
X153683Y441073D02*
G03*
X112759Y463597I-34073J-13469D01*
G01*
X145290Y371975D02*
G03*
X149915Y371795I2421J2680D01*
G01*
X159762Y374308D02*
G03*
X149915Y371795I-1867J-13230D01*
G01*
X115913Y365406D02*
G03*
X124985Y356781I168900J168547D01*
G01*
X134579Y389945D02*
G03*
X136262Y381961I10116J-2037D01*
G01*
X142957Y214295D02*
G03*
X71926Y339213I-142882J1409D01*
G01*
X-153729Y441207D02*
G03*
X-139237Y396767I34089J-13466D01*
G01*
X-83189Y421690D02*
G03*
X-82987Y427031I-44263J4349D01*
G01*
X-88248Y403365D02*
G03*
X-85747Y409852I-64891J28738D01*
G01*
X-85747D02*
G03*
X-84085Y415962I-56460J18640D01*
G01*
D02*
G03*
X-83189Y421690I-49661J10702D01*
G01*
X-112778Y463745D02*
G03*
X-153729Y441207I-6862J-36005D01*
G01*
X-91659Y396504D02*
G03*
X-88248Y403365I-75172J41658D01*
G01*
X-82987Y427725D02*
G03*
X-112778Y463745I-36653J15D01*
G01*
X170137Y355350D02*
G03*
X171096Y351183I3231J-1450D01*
G01*
X195582Y329531D02*
G03*
X199207Y328725I2477J2589D01*
G01*
X190060Y265310D02*
G03*
X170818Y308170I-115448J-26080D01*
G01*
X171304Y362295D02*
G03*
X159762Y374308I-13496J-1414D01*
G01*
X195582Y329531D02*
G03*
X185401Y339004I-227047J-233791D01*
G01*
X170818Y308170D02*
G03*
X167163Y313035I-131126J-94693D01*
G01*
X219407Y323182D02*
G03*
X199207Y328725I-14347J-12709D01*
G01*
X238393Y273121D02*
G03*
X234526Y280713I-117680J-55159D01*
G01*
X170137Y355350D02*
G03*
X171304Y362295I-12142J5610D01*
G01*
X230159Y288120D02*
G03*
X225366Y295327I-144163J-90694D01*
G01*
Y295327D02*
G03*
X222832Y298850I-154127J-108168D01*
G01*
X222471Y302461D02*
G03*
X222832Y298850I3223J-1501D01*
G01*
X222471Y302461D02*
G03*
X219407Y323182I-17412J8013D01*
G01*
X234526Y280713D02*
G03*
X230159Y288120I-130308J-71835D01*
G01*
X-219439Y323307D02*
G03*
X-222487Y302572I14337J-12699D01*
G01*
X-222848Y298961D02*
G03*
X-230176Y288231I141611J-104571D01*
G01*
X-222848Y298961D02*
G03*
X-222487Y302572I-2862J2110D01*
G01*
X-234543Y280824D02*
G03*
X-238409Y273232I113813J-62751D01*
G01*
X-265051Y235324D02*
G03*
X-250292Y208072I27651J-2647D01*
G01*
X-241703Y265470D02*
G03*
X-243112Y261531I96701J-36803D01*
G01*
X-245390Y259281D02*
G03*
X-243112Y261531I-1026J3317D01*
G01*
X-245390Y259281D02*
G03*
X-265051Y235324I7990J-26604D01*
G01*
X-248445Y205184D02*
G03*
X-250292Y208072I-3521J-216D01*
G01*
X-248445Y205184D02*
G03*
X-239029Y160364I150580J8238D01*
G01*
X-239334Y157253D02*
G03*
X-239029Y160364I-2995J1865D01*
G01*
X-238409Y273232D02*
G03*
X-241703Y265470I103057J-48311D01*
G01*
X-230176Y288231D02*
G03*
X-234543Y280824I125942J-79242D01*
G01*
X-239334Y157253D02*
G03*
X-236654Y117731I29523J-17850D01*
G01*
X92458Y342D02*
G03*
X90520Y1969I-1939J-342D01*
G01*
X79480D02*
G03*
X77512Y0I0J-1969D01*
G01*
X92602Y179D02*
G03*
X102362Y11811I-2051J11632D01*
G01*
X-90520Y1969D02*
G03*
X-92458Y342I0J-1969D01*
G01*
X-77512Y0D02*
G03*
X-79480Y1969I-1969J0D01*
G01*
X52488Y0D02*
G03*
X50520Y1969I-1969J0D01*
G01*
X39480D02*
G03*
X37512Y0I0J-1969D01*
G01*
X7488D02*
G03*
X5520Y1969I-1969J0D01*
G01*
X-5520D02*
G03*
X-7488Y0I0J-1969D01*
G01*
X-37512D02*
G03*
X-39480Y1969I-1969J0D01*
G01*
X-50520D02*
G03*
X-52488Y0I0J-1969D01*
G01*
X-102362Y11811D02*
G03*
X-92602Y179I11811J0D01*
G01*
X-102362Y11811D02*
G03*
X-92602Y179I11811J0D01*
G01*
X-50520Y1969D02*
G03*
X-52488Y0I0J-1969D01*
G01*
X-37512D02*
G03*
X-39480Y1969I-1969J0D01*
G01*
X-5520D02*
G03*
X-7488Y0I0J-1969D01*
G01*
X7488D02*
G03*
X5520Y1969I-1969J0D01*
G01*
X39480D02*
G03*
X37512Y0I0J-1969D01*
G01*
X52488D02*
G03*
X50520Y1969I-1969J0D01*
G01*
X-77512Y0D02*
G03*
X-79480Y1969I-1969J0D01*
G01*
X-90520D02*
G03*
X-92458Y342I0J-1969D01*
G01*
X92602Y179D02*
G03*
X102362Y11811I-2051J11632D01*
G01*
X79480Y1969D02*
G03*
X77512Y0I0J-1969D01*
G01*
X92458Y342D02*
G03*
X90520Y1969I-1939J-342D01*
G01*
X102362Y30315D02*
X102362Y11811D01*
X102374Y30315D02*
Y35031D01*
X102362Y30315D02*
X102374D01*
X-102362D02*
Y34989D01*
X-144867Y337870D02*
X-139932Y342750D01*
X-129908Y352230D02*
X-124904Y356781D01*
X82971Y426919D02*
Y427614D01*
X-119751Y64712D02*
X-114390Y82017D01*
X180457Y343340D02*
X185401Y339004D01*
X139988Y342724D02*
X144924Y337840D01*
X175673Y347401D02*
X180457Y343340D01*
X114401Y82059D02*
X119763Y64753D01*
X134990Y347525D02*
X139988Y342724D01*
X-82987Y427031D02*
Y427725D01*
X171096Y351183D02*
X175673Y347401D01*
X-102362Y11811D02*
X-102362Y30315D01*
X92458Y342D02*
X92602Y179D01*
X52488Y0D02*
X77512D01*
X79480Y1969D02*
X90520D01*
X-92602Y179D02*
X-92458Y342D01*
X7488Y0D02*
X37512D01*
X-37512D02*
X-7488D01*
X-77512D02*
X-52488D01*
X-90520Y1969D02*
X-79480D01*
X39480D02*
X50520D01*
X-5520D02*
X5520D01*
X-50520D02*
X-39480D01*
X102362Y11811D02*
Y30315D01*
X-102362Y11811D02*
Y30315D01*
X-50520Y1969D02*
X-39480D01*
X-5520D02*
X5520D01*
X39480D02*
X50520D01*
X-90520D02*
X-79480D01*
X-77512Y0D02*
X-52488D01*
X-37512D02*
X-7488D01*
X7488D02*
X37512D01*
X-92602Y179D02*
X-92458Y342D01*
X79480Y1969D02*
X90520D01*
X52488Y0D02*
X77512D01*
X92458Y342D02*
X92602Y179D01*
D15*
X-232283Y-92520D02*
X-230316D01*
X-231299D01*
Y-86616D01*
X-232283Y-87600D01*
X-227364Y-92520D02*
Y-91536D01*
X-226380D01*
Y-92520D01*
X-227364D01*
X-218508Y-86616D02*
X-220476Y-87600D01*
X-222444Y-89568D01*
Y-91536D01*
X-221460Y-92520D01*
X-219492D01*
X-218508Y-91536D01*
Y-90552D01*
X-219492Y-89568D01*
X-222444D01*
X-216541Y-92520D02*
Y-88584D01*
X-215557D01*
X-214573Y-89568D01*
Y-92520D01*
Y-89568D01*
X-213589Y-88584D01*
X-212605Y-89568D01*
Y-92520D01*
X-210637D02*
Y-88584D01*
X-209653D01*
X-208669Y-89568D01*
Y-92520D01*
Y-89568D01*
X-207685Y-88584D01*
X-206701Y-89568D01*
Y-92520D01*
X-198830Y-86616D02*
X-194894D01*
X-196862D01*
Y-92520D01*
X-192926Y-86616D02*
Y-92520D01*
Y-89568D01*
X-191942Y-88584D01*
X-189974D01*
X-188990Y-89568D01*
Y-92520D01*
X-187022D02*
X-185055D01*
X-186039D01*
Y-88584D01*
X-187022D01*
X-178167D02*
X-181119D01*
X-182103Y-89568D01*
Y-91536D01*
X-181119Y-92520D01*
X-178167D01*
X-176199D02*
Y-86616D01*
Y-90552D02*
X-173248Y-88584D01*
X-176199Y-90552D02*
X-173248Y-92520D01*
X-170296D02*
Y-88584D01*
X-167344D01*
X-166360Y-89568D01*
Y-92520D01*
X-161440D02*
X-163408D01*
X-164392Y-91536D01*
Y-89568D01*
X-163408Y-88584D01*
X-161440D01*
X-160456Y-89568D01*
Y-90552D01*
X-164392D01*
X-158489Y-92520D02*
X-155537D01*
X-154553Y-91536D01*
X-155537Y-90552D01*
X-157504D01*
X-158489Y-89568D01*
X-157504Y-88584D01*
X-154553D01*
X-152585Y-92520D02*
X-149633D01*
X-148649Y-91536D01*
X-149633Y-90552D01*
X-151601D01*
X-152585Y-89568D01*
X-151601Y-88584D01*
X-148649D01*
X-232283Y-62994D02*
Y-68898D01*
X-229332D01*
X-228348Y-67914D01*
Y-66930D01*
X-229332Y-65946D01*
X-232283D01*
X-229332D01*
X-228348Y-64962D01*
Y-63978D01*
X-229332Y-62994D01*
X-232283D01*
X-226380Y-68898D02*
X-224412D01*
X-225396D01*
Y-62994D01*
X-226380D01*
X-220476Y-64962D02*
X-218508D01*
X-217525Y-65946D01*
Y-68898D01*
X-220476D01*
X-221460Y-67914D01*
X-220476Y-66930D01*
X-217525D01*
X-211621Y-64962D02*
X-214573D01*
X-215557Y-65946D01*
Y-67914D01*
X-214573Y-68898D01*
X-211621D01*
X-209653D02*
Y-62994D01*
Y-66930D02*
X-206701Y-64962D01*
X-209653Y-66930D02*
X-206701Y-68898D01*
X-193910Y-63978D02*
X-194894Y-62994D01*
X-196862D01*
X-197846Y-63978D01*
Y-64962D01*
X-196862Y-65946D01*
X-194894D01*
X-193910Y-66930D01*
Y-67914D01*
X-194894Y-68898D01*
X-196862D01*
X-197846Y-67914D01*
X-191942Y-68898D02*
X-189974D01*
X-190958D01*
Y-64962D01*
X-191942D01*
X-187022Y-68898D02*
X-185055D01*
X-186039D01*
Y-62994D01*
X-187022D01*
X-182103Y-68898D02*
Y-62994D01*
Y-66930D02*
X-179151Y-64962D01*
X-182103Y-66930D02*
X-179151Y-68898D01*
X-176199D02*
X-173248D01*
X-172264Y-67914D01*
X-173248Y-66930D01*
X-175215D01*
X-176199Y-65946D01*
X-175215Y-64962D01*
X-172264D01*
X-166360D02*
X-169312D01*
X-170296Y-65946D01*
Y-67914D01*
X-169312Y-68898D01*
X-166360D01*
X-164392Y-64962D02*
Y-68898D01*
Y-66930D01*
X-163408Y-65946D01*
X-162424Y-64962D01*
X-161440D01*
X-155537Y-68898D02*
X-157504D01*
X-158489Y-67914D01*
Y-65946D01*
X-157504Y-64962D01*
X-155537D01*
X-154553Y-65946D01*
Y-66930D01*
X-158489D01*
X-149633Y-68898D02*
X-151601D01*
X-152585Y-67914D01*
Y-65946D01*
X-151601Y-64962D01*
X-149633D01*
X-148649Y-65946D01*
Y-66930D01*
X-152585D01*
X-146681Y-68898D02*
Y-64962D01*
X-143729D01*
X-142745Y-65946D01*
Y-68898D01*
X-232283Y-57087D02*
Y-51183D01*
X-230316Y-53151D01*
X-228348Y-51183D01*
Y-57087D01*
X-225396Y-53151D02*
X-223428D01*
X-222444Y-54135D01*
Y-57087D01*
X-225396D01*
X-226380Y-56103D01*
X-225396Y-55119D01*
X-222444D01*
X-219492Y-52167D02*
Y-53151D01*
X-220476D01*
X-218508D01*
X-219492D01*
Y-56103D01*
X-218508Y-57087D01*
X-214573Y-52167D02*
Y-53151D01*
X-215557D01*
X-213589D01*
X-214573D01*
Y-56103D01*
X-213589Y-57087D01*
X-200798Y-52167D02*
X-201782Y-51183D01*
X-203749D01*
X-204733Y-52167D01*
Y-56103D01*
X-203749Y-57087D01*
X-201782D01*
X-200798Y-56103D01*
Y-54135D01*
X-202765D01*
X-198830Y-53151D02*
Y-57087D01*
Y-55119D01*
X-197846Y-54135D01*
X-196862Y-53151D01*
X-195878D01*
X-189974Y-57087D02*
X-191942D01*
X-192926Y-56103D01*
Y-54135D01*
X-191942Y-53151D01*
X-189974D01*
X-188990Y-54135D01*
Y-55119D01*
X-192926D01*
X-184071Y-57087D02*
X-186039D01*
X-187022Y-56103D01*
Y-54135D01*
X-186039Y-53151D01*
X-184071D01*
X-183087Y-54135D01*
Y-55119D01*
X-187022D01*
X-181119Y-57087D02*
Y-53151D01*
X-178167D01*
X-177183Y-54135D01*
Y-57087D01*
X-165376Y-52167D02*
X-166360Y-51183D01*
X-168328D01*
X-169312Y-52167D01*
Y-53151D01*
X-168328Y-54135D01*
X-166360D01*
X-165376Y-55119D01*
Y-56103D01*
X-166360Y-57087D01*
X-168328D01*
X-169312Y-56103D01*
X-162424Y-57087D02*
X-160456D01*
X-159472Y-56103D01*
Y-54135D01*
X-160456Y-53151D01*
X-162424D01*
X-163408Y-54135D01*
Y-56103D01*
X-162424Y-57087D01*
X-157504D02*
X-155537D01*
X-156521D01*
Y-51183D01*
X-157504D01*
X-148649D02*
Y-57087D01*
X-151601D01*
X-152585Y-56103D01*
Y-54135D01*
X-151601Y-53151D01*
X-148649D01*
X-143729Y-57087D02*
X-145697D01*
X-146681Y-56103D01*
Y-54135D01*
X-145697Y-53151D01*
X-143729D01*
X-142745Y-54135D01*
Y-55119D01*
X-146681D01*
X-140778Y-53151D02*
Y-57087D01*
Y-55119D01*
X-139794Y-54135D01*
X-138810Y-53151D01*
X-137826D01*
X-128971Y-57087D02*
Y-51183D01*
X-127003Y-53151D01*
X-125035Y-51183D01*
Y-57087D01*
X-122083Y-53151D02*
X-120115D01*
X-119131Y-54135D01*
Y-57087D01*
X-122083D01*
X-123067Y-56103D01*
X-122083Y-55119D01*
X-119131D01*
X-117163Y-57087D02*
X-114211D01*
X-113227Y-56103D01*
X-114211Y-55119D01*
X-116179D01*
X-117163Y-54135D01*
X-116179Y-53151D01*
X-113227D01*
X-111260Y-57087D02*
Y-51183D01*
Y-55119D02*
X-108308Y-53151D01*
X-111260Y-55119D02*
X-108308Y-57087D01*
X1072449Y-202012D02*
Y-194141D01*
X1076384D01*
X1077696Y-195452D01*
Y-198076D01*
X1076384Y-199388D01*
X1072449D01*
X1075072D02*
X1077696Y-202012D01*
X1084256D02*
X1081632D01*
X1080320Y-200700D01*
Y-198076D01*
X1081632Y-196764D01*
X1084256D01*
X1085568Y-198076D01*
Y-199388D01*
X1080320D01*
X1088192Y-196764D02*
X1090815Y-202012D01*
X1093439Y-196764D01*
X718118Y-233511D02*
Y-241382D01*
X722053D01*
X723365Y-240070D01*
Y-234823D01*
X722053Y-233511D01*
X718118D01*
X729925Y-241382D02*
X727301D01*
X725989Y-240070D01*
Y-237446D01*
X727301Y-236134D01*
X729925D01*
X731237Y-237446D01*
Y-238758D01*
X725989D01*
X733861Y-241382D02*
X737796D01*
X739108Y-240070D01*
X737796Y-238758D01*
X735173D01*
X733861Y-237446D01*
X735173Y-236134D01*
X739108D01*
X744356Y-244006D02*
X745668D01*
X746980Y-242694D01*
Y-236134D01*
X743044D01*
X741732Y-237446D01*
Y-240070D01*
X743044Y-241382D01*
X746980D01*
X749604D02*
X752227D01*
X750916D01*
Y-236134D01*
X749604D01*
X756163Y-241382D02*
Y-236134D01*
X760099D01*
X761411Y-237446D01*
Y-241382D01*
X767971D02*
X765347D01*
X764035Y-240070D01*
Y-237446D01*
X765347Y-236134D01*
X767971D01*
X769282Y-237446D01*
Y-238758D01*
X764035D01*
X771906Y-236134D02*
Y-241382D01*
Y-238758D01*
X773218Y-237446D01*
X774530Y-236134D01*
X775842D01*
X914968Y-115400D02*
Y-123272D01*
X918904D01*
X920216Y-121960D01*
Y-116712D01*
X918904Y-115400D01*
X914968D01*
X924152Y-123272D02*
X926775D01*
X928087Y-121960D01*
Y-119336D01*
X926775Y-118024D01*
X924152D01*
X922840Y-119336D01*
Y-121960D01*
X924152Y-123272D01*
X935959Y-118024D02*
X932023D01*
X930711Y-119336D01*
Y-121960D01*
X932023Y-123272D01*
X935959D01*
X938583Y-118024D02*
Y-121960D01*
X939894Y-123272D01*
X943830D01*
Y-118024D01*
X946454Y-123272D02*
Y-118024D01*
X947766D01*
X949078Y-119336D01*
Y-123272D01*
Y-119336D01*
X950390Y-118024D01*
X951702Y-119336D01*
Y-123272D01*
X958261D02*
X955637D01*
X954326Y-121960D01*
Y-119336D01*
X955637Y-118024D01*
X958261D01*
X959573Y-119336D01*
Y-120648D01*
X954326D01*
X962197Y-123272D02*
Y-118024D01*
X966133D01*
X967445Y-119336D01*
Y-123272D01*
X971381Y-116712D02*
Y-118024D01*
X970068D01*
X972692D01*
X971381D01*
Y-121960D01*
X972692Y-123272D01*
X914968Y-154770D02*
Y-162642D01*
X920216D01*
X924152Y-157394D02*
X926775D01*
X928087Y-158706D01*
Y-162642D01*
X924152D01*
X922840Y-161330D01*
X924152Y-160018D01*
X928087D01*
X930711Y-157394D02*
Y-161330D01*
X932023Y-162642D01*
X935959D01*
Y-163954D01*
X934647Y-165266D01*
X933335D01*
X935959Y-162642D02*
Y-157394D01*
X942518Y-162642D02*
X939894D01*
X938583Y-161330D01*
Y-158706D01*
X939894Y-157394D01*
X942518D01*
X943830Y-158706D01*
Y-160018D01*
X938583D01*
X946454Y-157394D02*
Y-162642D01*
Y-160018D01*
X947766Y-158706D01*
X949078Y-157394D01*
X950390D01*
X962197Y-162642D02*
Y-154770D01*
X967445Y-162642D01*
Y-154770D01*
X971381Y-157394D02*
X974004D01*
X975316Y-158706D01*
Y-162642D01*
X971381D01*
X970068Y-161330D01*
X971381Y-160018D01*
X975316D01*
X977940Y-162642D02*
Y-157394D01*
X979252D01*
X980564Y-158706D01*
Y-162642D01*
Y-158706D01*
X981876Y-157394D01*
X983188Y-158706D01*
Y-162642D01*
X989747D02*
X987123D01*
X985812Y-161330D01*
Y-158706D01*
X987123Y-157394D01*
X989747D01*
X991059Y-158706D01*
Y-160018D01*
X985812D01*
X914968Y-194141D02*
Y-202012D01*
X918904D01*
X920216Y-200700D01*
Y-195452D01*
X918904Y-194141D01*
X914968D01*
X924152Y-196764D02*
X926775D01*
X928087Y-198076D01*
Y-202012D01*
X924152D01*
X922840Y-200700D01*
X924152Y-199388D01*
X928087D01*
X932023Y-195452D02*
Y-196764D01*
X930711D01*
X933335D01*
X932023D01*
Y-200700D01*
X933335Y-202012D01*
X941206D02*
X938583D01*
X937271Y-200700D01*
Y-198076D01*
X938583Y-196764D01*
X941206D01*
X942518Y-198076D01*
Y-199388D01*
X937271D01*
X914968Y-233511D02*
Y-241382D01*
X918904D01*
X920216Y-240070D01*
Y-234823D01*
X918904Y-233511D01*
X914968D01*
X924152Y-241382D02*
X926775D01*
X928087Y-240070D01*
Y-237446D01*
X926775Y-236134D01*
X924152D01*
X922840Y-237446D01*
Y-240070D01*
X924152Y-241382D01*
X935959Y-236134D02*
X932023D01*
X930711Y-237446D01*
Y-240070D01*
X932023Y-241382D01*
X935959D01*
X938583Y-236134D02*
Y-240070D01*
X939894Y-241382D01*
X943830D01*
Y-236134D01*
X946454Y-241382D02*
Y-236134D01*
X947766D01*
X949078Y-237446D01*
Y-241382D01*
Y-237446D01*
X950390Y-236134D01*
X951702Y-237446D01*
Y-241382D01*
X958261D02*
X955637D01*
X954326Y-240070D01*
Y-237446D01*
X955637Y-236134D01*
X958261D01*
X959573Y-237446D01*
Y-238758D01*
X954326D01*
X962197Y-241382D02*
Y-236134D01*
X966133D01*
X967445Y-237446D01*
Y-241382D01*
X971381Y-234823D02*
Y-236134D01*
X970068D01*
X972692D01*
X971381D01*
Y-240070D01*
X972692Y-241382D01*
D198*
X-289370Y464393D02*
X-287370Y458393D01*
X-291370D02*
X-289370Y464393D01*
X-291370Y6115D02*
X-289370Y114D01*
X-287370Y6115D01*
X-289370Y248249D02*
Y464393D01*
Y114D02*
Y213059D01*
X-290370Y464393D02*
X-135585D01*
X-290370Y114D02*
X-105904D01*
X-265748Y-41339D02*
X-259748Y-39339D01*
X-265748Y-41339D02*
X-259748Y-43339D01*
X259748D02*
X265748Y-41339D01*
X259748Y-39339D02*
X265748Y-41339D01*
X-265748D02*
X-19695D01*
X16495D02*
X265748D01*
X-265748Y-42339D02*
Y233268D01*
X265748Y-42339D02*
Y231299D01*
X96362Y-30347D02*
X102362Y-28346D01*
X96362Y-26346D02*
X102362Y-28346D01*
X-102362D02*
X-96362Y-26346D01*
X-102362Y-28346D02*
X-96362Y-30347D01*
X13995Y-28346D02*
X102362D01*
X-102362D02*
X-17196D01*
X102362Y-29346D02*
Y11811D01*
X-102362Y-29346D02*
Y11811D01*
D199*
X-284771Y214659D02*
Y216658D01*
Y215659D01*
X-290769D01*
X-289770Y214659D01*
X-284771Y219657D02*
Y221657D01*
Y220657D01*
X-290769D01*
X-289770Y219657D01*
X-290769Y224656D02*
Y228654D01*
X-289770D01*
X-285771Y224656D01*
X-284771D01*
X-283772Y231653D02*
X-284771Y232653D01*
X-285771D01*
Y231653D01*
X-284771D01*
Y232653D01*
X-283772Y231653D01*
X-282772Y230654D01*
X-285771Y236652D02*
X-284771Y237651D01*
Y239651D01*
X-285771Y240651D01*
X-289770D01*
X-290769Y239651D01*
Y237651D01*
X-289770Y236652D01*
X-288770D01*
X-287770Y237651D01*
Y240651D01*
X-289770Y242650D02*
X-290769Y243650D01*
Y245649D01*
X-289770Y246649D01*
X-288770D01*
X-287770Y245649D01*
Y244649D01*
Y245649D01*
X-286771Y246649D01*
X-285771D01*
X-284771Y245649D01*
Y243650D01*
X-285771Y242650D01*
X-18095Y-45937D02*
X-16095D01*
X-17095D01*
Y-39939D01*
X-18095Y-40939D01*
X-13096D02*
X-12097Y-39939D01*
X-10097D01*
X-9098Y-40939D01*
Y-41939D01*
X-10097Y-42938D01*
X-11097D01*
X-10097D01*
X-9098Y-43938D01*
Y-44938D01*
X-10097Y-45937D01*
X-12097D01*
X-13096Y-44938D01*
X-3100Y-39939D02*
X-7098D01*
Y-42938D01*
X-5099Y-41939D01*
X-4099D01*
X-3100Y-42938D01*
Y-44938D01*
X-4099Y-45937D01*
X-6099D01*
X-7098Y-44938D01*
X-100Y-46937D02*
X899Y-45937D01*
Y-44938D01*
X-100D01*
Y-45937D01*
X899D01*
X-100Y-46937D01*
X-1100Y-47937D01*
X4898Y-40939D02*
X5898Y-39939D01*
X7897D01*
X8897Y-40939D01*
Y-44938D01*
X7897Y-45937D01*
X5898D01*
X4898Y-44938D01*
Y-40939D01*
X10896D02*
X11896Y-39939D01*
X13895D01*
X14895Y-40939D01*
Y-44938D01*
X13895Y-45937D01*
X11896D01*
X10896Y-44938D01*
Y-40939D01*
X-11597Y-26947D02*
X-15596D01*
Y-29946D01*
X-13596Y-28946D01*
X-12596D01*
X-11597Y-29946D01*
Y-31945D01*
X-12596Y-32945D01*
X-14596D01*
X-15596Y-31945D01*
X-5599Y-32945D02*
X-9597D01*
X-5599Y-28946D01*
Y-27947D01*
X-6598Y-26947D01*
X-8598D01*
X-9597Y-27947D01*
X-2600Y-33945D02*
X-1600Y-32945D01*
Y-31945D01*
X-2600D01*
Y-32945D01*
X-1600D01*
X-2600Y-33945D01*
X-3599Y-34944D01*
X2399Y-27947D02*
X3398Y-26947D01*
X5398D01*
X6397Y-27947D01*
Y-31945D01*
X5398Y-32945D01*
X3398D01*
X2399Y-31945D01*
Y-27947D01*
X8397D02*
X9397Y-26947D01*
X11396D01*
X12395Y-27947D01*
Y-31945D01*
X11396Y-32945D01*
X9397D01*
X8397Y-31945D01*
Y-27947D01*
M02*
