M48
;Layer_Color=9474304
;FILE_FORMAT=2:5
INCH,LZ
;TYPE=PLATED
T1F00S00C0.01181
T4F00S00C0.03543
T5F00S00C0.03937
T6F00S00C0.04331
T7F00S00C0.04724
T9F00S00C0.15748
;TYPE=NON_PLATED
T10F00S00C0.02559
T11F00S00C0.03543
T12F00S00C0.04331
T13F00S00C0.04724
T14F00S00C0.11811
T15F00S00C0.15748
%
T01
X031693Y0021653
X0226378Y0024409
X0236417Y0057775
X0245472
X0246653Y0048623
X0189961Y0007874
X0148031Y0007874
X0120079
X0115181Y0025614
X007874Y0027559
X0067519Y002932
X0062598Y0030709
X0055932Y0033044
X0048622Y002932
X0050591Y003937
X0034055Y0040354
Y0044291
X0033859Y0048819
X0037402
X0031102Y0059252
X0055118Y0060236
X0061024
X0067913Y005315
X0072835
X0086614Y0038386
X0033859Y003248
X0031102Y0062402
X0055118Y0066142
X0061024
X0070472Y0062598
X0074016Y0064567
X0072047Y0075984
X0072835Y0082677
X006811Y0094095
X0059449Y0096616
X0057087Y0091732
X0048031Y0100787
X0044094Y01
X0043701Y0096457
X0037795Y0097244
X003248Y0103878
X0027559Y0103347
X0045867Y0079724
Y0075787
X0115181Y0079701
X0096063Y0133858
Y0140748
Y0147638
Y0154528
Y0161417
X0098425Y0175197
X0095473Y0179135
X0085827Y0175197
X0114173Y0175197
X0119095Y0179135
X0095473Y0194882
X0092913Y0197244
X0059724Y0197441
X003567
X0030512Y0201772
X0020472Y0189764
X001669Y0186853
X0022441Y0184252
X0022362Y0178944
X0026575Y0179134
X0055512Y0161417
X0059449Y0154528
X0085827Y0140551
X0138386Y0151181
X0141929Y0162401
X0181299
X0181102Y0166339
X0187008Y0179134
X0189961Y0182087
X0213239Y0186811
Y0198622
X0219488Y0212599
X0235039Y0216535
X0232677Y0199803
X0235039Y0166733
X0212821Y0162376
X0205709Y0163386
X0218504Y0143898
X0229724Y0139371
X0241142Y0117127
X0246901Y011932
X0251969Y011281
X0258189Y0115551
X0256693Y0128347
X0267125Y0150197
X0262796Y0096456
X0228346Y0068897
X0223819Y0065354
X0223819Y0073425
X0185433Y0105512
X0177165Y0107283
Y0116142
X0162978Y0119671
X0160433Y0117126
X016768Y0104445
X0169291Y0100394
X0132677Y0099606
X0132874Y0104488
X0129921Y0112205
X0125984
X0133858Y0070866
X0177165Y0137795
X0181102Y0134252
X0185039Y0215748
X0188976Y0212598
X019252Y0215748
X0196063Y0212598
X0199213Y0215748
X0172244Y0215551
X0169291Y0212598
X0166339Y0215551
X0160433
X0154528
X015748Y0212598
X0151575
X0148622Y0215551
X0300787Y0201181
X030315Y0193834
X0302623Y0186316
X0302756Y0177559
X030315Y0163386
X0305512Y0158661
X0299213Y015748
X0286417
X0283465Y0160433
X0287402Y0163386
X028937Y0123406
X0285039Y0109449
X0285256Y0105118
X030315Y0100394
X0299232Y0096321
X0296457Y007126
X0305732Y0130536
X0301575Y0222835
X0298819Y0227953
X0288976
X0290158Y0222835
X029345Y0233783
X0285039Y0233858
X0290158Y0240551
X0297244Y023937
X0304331Y0244882
X0305393Y0253543
X0305118Y0263779
X0292323
X0285039Y0257087
X027766Y0248994
X0317913Y0248031
Y0253937
X033059Y0253543
X0327756Y0222441
X0305118Y0233858
X0313386Y0285039
X028937Y0283489
X0280906Y0307678
X0283858Y0318898
Y0322835
X0280906Y0334055
X0267323Y0318898
X0257874Y0319587
X0262052Y0310468
X0234173Y0304141
X0239173Y02948
X0244173Y0288386
X0249016Y028248
Y0278543
Y0274606
X0245079
Y0270669
X0249016
Y0266732
Y0262795
X0253937
Y0266732
Y0270669
Y0274606
Y0278543
Y028248
X0250984Y0254921
X0238583Y0246063
X0235039Y0228346
X0238583Y0219488
X0230708Y0217126
X0261811Y022559
Y0240158
X027559
Y0221457
X0221365Y0255906
X0216838Y0261018
X0214567Y0264764
X021063
X0208661Y0268701
X0212598
X0216838Y0268499
X0218504Y0272638
X0222441
X0227362Y0274606
Y0270669
X0214567Y0272638
X021063
X0208661Y0276575
X0212598
X0216838Y0276766
X0197638Y0282677
Y0285827
X0188976Y0260236
X0172244Y0254921
X0166339Y0249016
X0160433Y0251969
X015748Y0254921
X0154528Y0260827
X0148622Y0263779
X0151575Y0246063
X0169291Y024311
X019252Y0240158
X0199213Y024311
X0196063Y0231299
X0185039Y0222441
X0156693Y0300787
Y0305709
Y031063
X0134488Y0301575
X0140945Y028937
X0169291Y0333071
X0226379Y0316929
X0109252Y0322244
X010048Y0287402
X008048Y0288189
X0075984
X0055512Y0287795
X0050394
X0040551Y0287402
X0040007Y0293429
X003548Y0297737
X0034646Y0308062
X0049016Y0308579
X0056497Y0303543
X005315Y0323425
X0022638Y0304847
Y0300909
X0024017Y0293429
X0033858Y0265354
Y0261811
X005315Y0258661
X0066535
Y0245276
X005315
X0048425Y0230709
X0045669
T04
X0310709Y0007874
X0320709
X0330709
X0102362Y0009685
Y0019685
Y0029685
Y0039685
Y0049685
Y0059685
X0022362Y0059685
Y0049685
Y0039685
Y0029685
Y0019685
Y0009685
Y0069685
Y0079685
Y0089685
Y0099685
Y0109685
Y0119685
Y0129685
Y0139685
Y0149685
Y0159685
X0030197Y0188976
X0040197
X0050197
X0060197
X0070197
X0080197
X0102362Y0119685
Y0109685
Y0099685
Y0089685
Y0079685
Y0069685
X0308898Y0072008
X0318898
Y0062008
X0328898
X0328898Y0072008
X0308898Y0062008
X0306929Y0295276
X0306929Y0305276
X0316929
Y0295276
X0326929
Y0305276
X0295276Y0316929
Y0326929
T05
X0080118Y0073032
X0120669
T06
X0132669Y000478
Y002278
X0158669
Y000478
X0179913
Y002278
X0205913
Y000478
X0249716Y0061024
X0267717
Y0087024
X0249716
X0286276Y0089362
X0304276
Y0115362
X0286276
T07
X0080118Y0062008
Y0087598
X0120669
Y0062008
X0313976Y0109291
Y0139291
Y0169291
Y0199291
X0169291Y0320866
T09
X0327756Y0109291
Y0139291
Y0169291
Y0199291
T10
X0046693Y0019102
X0069449
T11
X0229331Y0011811
X0241142
X0112205Y0325787
X0100394
T12
X0312992Y0229016
X0322992
Y0239016
X0312992
Y0249016
Y0259016
X0322992
Y0249016
Y0269016
Y0279016
X0312992
Y0269016
T13
X0298228Y0009843
Y0019685
X0278543Y003937
X0258858Y0019685
Y0009843
X0317992Y0234016
Y0274016
T14
X0366142Y003937
Y027559
T15
X0322835Y0322835
X0015748
M30
