G04*
G04 #@! TF.GenerationSoftware,Altium Limited,Altium Designer,20.0.10 (225)*
G04*
G04 Layer_Color=128*
%FSLAX25Y25*%
%MOIN*%
G70*
G01*
G75*
%ADD10C,0.01575*%
%ADD11R,0.03937X0.03937*%
%ADD12R,0.03937X0.03937*%
%ADD13R,0.07874X0.07874*%
%ADD14C,0.00591*%
%ADD15R,0.11811X0.23622*%
%ADD16R,0.03937X0.04331*%
%ADD17R,0.04331X0.03937*%
%ADD18R,0.02559X0.01181*%
%ADD19R,0.03150X0.01181*%
%ADD20R,0.03740X0.01575*%
%ADD21O,0.05512X0.01772*%
%ADD22R,0.02362X0.04528*%
%ADD23R,0.03937X0.03150*%
%ADD24R,0.02756X0.04331*%
%ADD25R,0.07874X0.05512*%
%ADD26R,0.01181X0.05709*%
%ADD27R,0.03347X0.03937*%
%ADD28R,0.03347X0.03937*%
%ADD29R,0.05906X0.05118*%
%ADD30R,0.05118X0.05906*%
%ADD31R,0.03150X0.02165*%
%ADD32R,0.10236X0.06693*%
%ADD33R,0.03937X0.05118*%
%ADD34C,0.01968*%
%ADD35R,0.03937X0.01575*%
%ADD36R,0.05512X0.12205*%
%ADD37R,0.05906X0.13386*%
%ADD38R,0.04724X0.05906*%
%ADD39O,0.02362X0.07874*%
%ADD40R,0.12992X0.09488*%
%ADD41O,0.08661X0.02362*%
%ADD42C,0.03150*%
%ADD43R,0.01083X0.00984*%
%ADD44R,0.00984X0.01083*%
%ADD45R,0.03937X0.05000*%
%ADD46O,0.00984X0.02953*%
%ADD47O,0.02953X0.00984*%
%ADD48R,0.03543X0.07874*%
%ADD49R,0.07874X0.03543*%
%ADD50R,0.04528X0.02362*%
G36*
X56730Y320415D02*
X56724Y320414D01*
X56030Y320322D01*
X56015Y320319D01*
X56000Y320317D01*
X55989Y320314D01*
X55979Y320312D01*
X55965Y320307D01*
X55950Y320303D01*
X55940Y320299D01*
X55930Y320295D01*
X55917Y320289D01*
X55903Y320283D01*
X55278Y319965D01*
X55265Y319957D01*
X55252Y319950D01*
X55243Y319944D01*
X55234Y319939D01*
X55222Y319929D01*
X55209Y319921D01*
X55202Y319914D01*
X55193Y319907D01*
X55183Y319896D01*
X55172Y319886D01*
X54688Y319379D01*
X54673Y319360D01*
X54657Y319341D01*
X54656Y319340D01*
X54655Y319339D01*
X54642Y319318D01*
X54629Y319298D01*
X54458Y318991D01*
X54454Y318982D01*
X54449Y318973D01*
X54444Y318962D01*
X54439Y318950D01*
X54437Y318947D01*
X54436Y318944D01*
X54433Y318935D01*
X54429Y318926D01*
X54426Y318913D01*
X54422Y318901D01*
X54421Y318898D01*
X54420Y318895D01*
X54418Y318885D01*
X54416Y318876D01*
X54414Y318863D01*
X54412Y318851D01*
X54412Y318847D01*
X54411Y318844D01*
X54411Y318835D01*
X54409Y318825D01*
X54409Y318812D01*
X54409Y318799D01*
X54409Y318796D01*
X54409Y318793D01*
X54409Y318783D01*
X54409Y318773D01*
X54411Y318760D01*
X54412Y318748D01*
X54413Y318744D01*
X54413Y318741D01*
X54415Y318732D01*
X54416Y318722D01*
X54473Y318437D01*
X54333Y317874D01*
X53965Y317425D01*
X53440Y317177D01*
X52859Y317177D01*
X52335Y317425D01*
X51967Y317874D01*
X51826Y318437D01*
X51883Y318722D01*
X51883Y318723D01*
X51884Y318724D01*
X51885Y318732D01*
X51886Y318739D01*
X51888Y318756D01*
X51890Y318773D01*
Y318774D01*
X51890Y318776D01*
X51890Y318783D01*
X51891Y318790D01*
X51890Y318807D01*
X51890Y318825D01*
X51890Y318826D01*
X51890Y318827D01*
X51889Y318835D01*
X51889Y318842D01*
X51886Y318858D01*
X51883Y318876D01*
X51883Y318877D01*
X51883Y318878D01*
X51881Y318885D01*
X51880Y318893D01*
X51875Y318908D01*
X51870Y318926D01*
X51869Y318927D01*
X51869Y318928D01*
X51866Y318935D01*
X51864Y318942D01*
X51857Y318957D01*
X51850Y318973D01*
X51850Y318974D01*
X51849Y318976D01*
X51845Y318982D01*
X51842Y318988D01*
X51676Y319293D01*
X51663Y319314D01*
X51650Y319334D01*
X51649Y319335D01*
X51648Y319337D01*
X51632Y319356D01*
X51617Y319374D01*
X51143Y319878D01*
X51133Y319888D01*
X51122Y319899D01*
X51113Y319905D01*
X51106Y319913D01*
X51093Y319921D01*
X51082Y319931D01*
X51073Y319936D01*
X51064Y319943D01*
X51050Y319950D01*
X51037Y319958D01*
X50423Y320275D01*
X50409Y320281D01*
X50396Y320288D01*
X50386Y320292D01*
X50376Y320296D01*
X50361Y320300D01*
X50347Y320305D01*
X50337Y320307D01*
X50326Y320310D01*
X50311Y320312D01*
X50296Y320316D01*
X49612Y320411D01*
X49607Y320411D01*
Y320865D01*
X56730D01*
X56730Y320415D01*
D02*
G37*
G36*
X56692Y316142D02*
Y314568D01*
X49607D01*
Y316142D01*
X49607Y318743D01*
X49790Y318689D01*
X50112Y318468D01*
X50350Y318160D01*
X50408Y318000D01*
X50494Y317606D01*
X50494Y317604D01*
X50494Y317602D01*
X50501Y317580D01*
X50508Y317557D01*
X50509Y317555D01*
X50509Y317553D01*
X50519Y317531D01*
X50529Y317509D01*
X50529Y317508D01*
X50530Y317506D01*
X50930Y316749D01*
X50940Y316732D01*
X50950Y316715D01*
X50954Y316710D01*
X50957Y316705D01*
X50969Y316690D01*
X50981Y316674D01*
X50986Y316670D01*
X50990Y316665D01*
X51004Y316651D01*
X51018Y316637D01*
X51660Y316071D01*
X51675Y316059D01*
X51691Y316046D01*
X51696Y316043D01*
X51701Y316039D01*
X51718Y316029D01*
X51734Y316019D01*
X51740Y316016D01*
X51745Y316013D01*
X51763Y316006D01*
X51781Y315998D01*
X52582Y315695D01*
X52601Y315689D01*
X52619Y315683D01*
X52626Y315681D01*
X52631Y315680D01*
X52651Y315676D01*
X52670Y315672D01*
X52676Y315672D01*
X52682Y315671D01*
X52702Y315670D01*
X52722Y315669D01*
X53578Y315669D01*
X53597Y315670D01*
X53617Y315671D01*
X53623Y315672D01*
X53629Y315672D01*
X53649Y315676D01*
X53668Y315680D01*
X53674Y315681D01*
X53680Y315683D01*
X53699Y315689D01*
X53717Y315695D01*
X54518Y315998D01*
X54536Y316006D01*
X54554Y316013D01*
X54560Y316016D01*
X54565Y316019D01*
X54582Y316029D01*
X54599Y316039D01*
X54604Y316043D01*
X54609Y316046D01*
X54624Y316059D01*
X54640Y316071D01*
X55282Y316637D01*
X55295Y316651D01*
X55310Y316665D01*
X55313Y316670D01*
X55318Y316674D01*
X55330Y316690D01*
X55342Y316705D01*
X55345Y316710D01*
X55349Y316715D01*
X55359Y316732D01*
X55369Y316749D01*
X55769Y317506D01*
X55770Y317508D01*
X55771Y317509D01*
X55780Y317531D01*
X55790Y317553D01*
X55791Y317555D01*
X55791Y317557D01*
X55798Y317580D01*
X55805Y317603D01*
X55805Y317604D01*
X55806Y317606D01*
X55892Y318000D01*
X55949Y318160D01*
X56187Y318468D01*
X56509Y318689D01*
X56692Y318743D01*
X56692Y316142D01*
D02*
G37*
G36*
X487123Y285055D02*
X488914Y284313D01*
X490526Y283236D01*
X491897Y281865D01*
X492974Y280253D01*
X493716Y278462D01*
X494095Y276560D01*
Y275590D01*
Y274621D01*
X493716Y272720D01*
X492974Y270928D01*
X491897Y269316D01*
X490526Y267945D01*
X488914Y266868D01*
X487123Y266126D01*
X485221Y265748D01*
X483283D01*
X481381Y266126D01*
X479590Y266868D01*
X477978Y267945D01*
X476607Y269316D01*
X475530Y270928D01*
X474788Y272720D01*
X474409Y274621D01*
Y275590D01*
Y276560D01*
X474788Y278462D01*
X475530Y280253D01*
X476607Y281865D01*
X477978Y283236D01*
X479590Y284313D01*
X481381Y285055D01*
X483283Y285433D01*
X485221D01*
X487123Y285055D01*
D02*
G37*
G36*
Y48834D02*
X488914Y48092D01*
X490526Y47015D01*
X491897Y45644D01*
X492974Y44032D01*
X493716Y42241D01*
X494095Y40339D01*
Y39370D01*
Y38401D01*
X493716Y36499D01*
X492974Y34708D01*
X491897Y33096D01*
X490526Y31725D01*
X488914Y30648D01*
X487123Y29906D01*
X485221Y29528D01*
X483283D01*
X481381Y29906D01*
X479590Y30648D01*
X477978Y31725D01*
X476607Y33096D01*
X475530Y34708D01*
X474788Y36499D01*
X474409Y38401D01*
Y39370D01*
Y40339D01*
X474788Y42241D01*
X475530Y44032D01*
X476607Y45644D01*
X477978Y47015D01*
X479590Y48092D01*
X481381Y48834D01*
X483283Y49213D01*
X485221D01*
X487123Y48834D01*
D02*
G37*
D10*
X1035047Y-168552D02*
Y-182327D01*
X1041934D01*
X1044230Y-180031D01*
Y-177735D01*
X1041934Y-175439D01*
X1035047D01*
X1041934D01*
X1044230Y-173144D01*
Y-170848D01*
X1041934Y-168552D01*
X1035047D01*
X1051118Y-182327D02*
X1055710D01*
X1058005Y-180031D01*
Y-175439D01*
X1055710Y-173144D01*
X1051118D01*
X1048822Y-175439D01*
Y-180031D01*
X1051118Y-182327D01*
X1064893Y-170848D02*
Y-173144D01*
X1062597D01*
X1067189D01*
X1064893D01*
Y-180031D01*
X1067189Y-182327D01*
X1076372Y-170848D02*
Y-173144D01*
X1074076D01*
X1078668D01*
X1076372D01*
Y-180031D01*
X1078668Y-182327D01*
X1087851D02*
X1092443D01*
X1094739Y-180031D01*
Y-175439D01*
X1092443Y-173144D01*
X1087851D01*
X1085556Y-175439D01*
Y-180031D01*
X1087851Y-182327D01*
X1099331D02*
Y-173144D01*
X1101626D01*
X1103922Y-175439D01*
Y-182327D01*
Y-175439D01*
X1106218Y-173144D01*
X1108514Y-175439D01*
Y-182327D01*
X1126881D02*
Y-168552D01*
X1133768D01*
X1136064Y-170848D01*
Y-175439D01*
X1133768Y-177735D01*
X1126881D01*
X1142952Y-173144D02*
X1147543D01*
X1149839Y-175439D01*
Y-182327D01*
X1142952D01*
X1140656Y-180031D01*
X1142952Y-177735D01*
X1149839D01*
X1154431Y-182327D02*
X1161318D01*
X1163614Y-180031D01*
X1161318Y-177735D01*
X1156727D01*
X1154431Y-175439D01*
X1156727Y-173144D01*
X1163614D01*
X1170502Y-170848D02*
Y-173144D01*
X1168206D01*
X1172798D01*
X1170502D01*
Y-180031D01*
X1172798Y-182327D01*
X1186573D02*
X1181981D01*
X1179685Y-180031D01*
Y-175439D01*
X1181981Y-173144D01*
X1186573D01*
X1188869Y-175439D01*
Y-177735D01*
X1179685D01*
D11*
X55118Y65945D02*
D03*
X61024Y60039D02*
D03*
Y65945D02*
D03*
D12*
X55118Y60039D02*
D03*
D13*
X64727Y256693D02*
D03*
Y247244D02*
D03*
X55278D02*
D03*
Y256693D02*
D03*
D14*
X559055Y-78740D02*
Y417323D01*
X-190945D02*
X559055D01*
X-190945Y-78740D02*
Y417323D01*
Y-78740D02*
X559055D01*
D15*
X40354Y154528D02*
D03*
X87598D02*
D03*
D16*
X95473Y183662D02*
D03*
Y190355D02*
D03*
X242125Y48623D02*
D03*
Y41930D02*
D03*
X42323Y61418D02*
D03*
Y54725D02*
D03*
X50197Y118701D02*
D03*
Y125394D02*
D03*
X40197Y204134D02*
D03*
Y197441D02*
D03*
X55197Y204134D02*
D03*
Y197441D02*
D03*
X285433Y327362D02*
D03*
Y334055D02*
D03*
X285433Y314370D02*
D03*
Y307678D02*
D03*
X241142Y121654D02*
D03*
Y128347D02*
D03*
X280512Y76378D02*
D03*
Y83071D02*
D03*
X287401Y76181D02*
D03*
Y69488D02*
D03*
Y62401D02*
D03*
Y55708D02*
D03*
X82678Y26969D02*
D03*
Y20276D02*
D03*
X33465Y27953D02*
D03*
Y21260D02*
D03*
X66929Y303543D02*
D03*
Y296850D02*
D03*
X61024Y296851D02*
D03*
Y303544D02*
D03*
X119095Y190355D02*
D03*
Y183662D02*
D03*
D17*
X102952Y175197D02*
D03*
X109645D02*
D03*
X217126Y68897D02*
D03*
X223819D02*
D03*
X236810Y31497D02*
D03*
X243503D02*
D03*
X230709Y31496D02*
D03*
X224016D02*
D03*
X42914Y49212D02*
D03*
X49607D02*
D03*
X41733Y67913D02*
D03*
X35040D02*
D03*
X43701Y103878D02*
D03*
X37008D02*
D03*
X37008Y125984D02*
D03*
X43701D02*
D03*
X100000Y133859D02*
D03*
X106693D02*
D03*
X100000Y140748D02*
D03*
X106693D02*
D03*
Y147638D02*
D03*
X100000D02*
D03*
X106693Y154528D02*
D03*
X100000D02*
D03*
X106693Y161418D02*
D03*
X100000D02*
D03*
X102756Y204725D02*
D03*
X96063D02*
D03*
X36103Y312130D02*
D03*
X42796D02*
D03*
X42323Y304052D02*
D03*
X49016D02*
D03*
X35237Y293429D02*
D03*
X28544D02*
D03*
X230906Y322834D02*
D03*
X237599D02*
D03*
X230906Y328740D02*
D03*
X237599D02*
D03*
X223819D02*
D03*
X217126D02*
D03*
X223819Y322834D02*
D03*
X217126D02*
D03*
X237599Y316929D02*
D03*
X230906D02*
D03*
X246457Y254921D02*
D03*
X239764D02*
D03*
X230708Y212599D02*
D03*
X224015D02*
D03*
X222834Y175197D02*
D03*
X216141D02*
D03*
X267126Y145670D02*
D03*
X260433D02*
D03*
X230511Y166733D02*
D03*
X223819D02*
D03*
X229724Y143898D02*
D03*
X223031D02*
D03*
X248426Y139763D02*
D03*
X241733D02*
D03*
X248426Y133858D02*
D03*
X241733D02*
D03*
X267323Y96456D02*
D03*
X274016D02*
D03*
X328150Y21653D02*
D03*
X321457D02*
D03*
X106693Y168307D02*
D03*
X100000D02*
D03*
D18*
X217766Y198622D02*
D03*
Y200984D02*
D03*
Y196260D02*
D03*
Y193898D02*
D03*
Y191535D02*
D03*
Y189173D02*
D03*
Y186811D02*
D03*
D19*
X229085Y202165D02*
D03*
Y199803D02*
D03*
Y197441D02*
D03*
Y195079D02*
D03*
Y192717D02*
D03*
Y190354D02*
D03*
Y187992D02*
D03*
Y185630D02*
D03*
D20*
X228002Y204724D02*
D03*
Y183071D02*
D03*
D21*
X240944Y62894D02*
D03*
Y60335D02*
D03*
Y57775D02*
D03*
Y55216D02*
D03*
X217716Y62894D02*
D03*
Y60335D02*
D03*
Y57775D02*
D03*
Y55216D02*
D03*
D22*
X226771Y37993D02*
D03*
X234251D02*
D03*
Y47245D02*
D03*
X230511D02*
D03*
X226771D02*
D03*
X230511Y37993D02*
D03*
X224606Y159941D02*
D03*
X228346D02*
D03*
X232087D02*
D03*
Y150689D02*
D03*
X224606D02*
D03*
D23*
X220472Y16339D02*
D03*
X250000D02*
D03*
Y7283D02*
D03*
X220472D02*
D03*
X121063Y321260D02*
D03*
X91535D02*
D03*
Y330315D02*
D03*
X121063D02*
D03*
D24*
X244094Y19882D02*
D03*
X226378D02*
D03*
X232283D02*
D03*
X97441Y317717D02*
D03*
X115157D02*
D03*
X109252D02*
D03*
D25*
X195866Y19685D02*
D03*
X168307D02*
D03*
X195866Y7874D02*
D03*
X168307D02*
D03*
X141732Y19685D02*
D03*
X114173D02*
D03*
X141732Y7874D02*
D03*
X114173D02*
D03*
D26*
X68110Y24793D02*
D03*
X66929D02*
D03*
X64961D02*
D03*
X62992D02*
D03*
X61024D02*
D03*
X59055D02*
D03*
X57087D02*
D03*
X55118D02*
D03*
X53150D02*
D03*
X51181D02*
D03*
X49213D02*
D03*
X48031D02*
D03*
X44783D02*
D03*
X45965D02*
D03*
X70177D02*
D03*
X71358D02*
D03*
D27*
X86811Y46063D02*
D03*
X90551Y36614D02*
D03*
X73032Y46063D02*
D03*
X76772Y36614D02*
D03*
X40354Y119882D02*
D03*
X44094Y110433D02*
D03*
X80709Y120866D02*
D03*
X84449Y111417D02*
D03*
D28*
X94291Y46063D02*
D03*
X80512D02*
D03*
X36614Y110433D02*
D03*
X76968Y111417D02*
D03*
D29*
X35433Y60827D02*
D03*
Y53347D02*
D03*
X221365Y284247D02*
D03*
Y276767D02*
D03*
Y261019D02*
D03*
Y268499D02*
D03*
D30*
X38583Y42323D02*
D03*
X46063D02*
D03*
X34646Y302878D02*
D03*
X27166D02*
D03*
X279331Y320866D02*
D03*
X271850D02*
D03*
X50394Y77756D02*
D03*
X57874D02*
D03*
D31*
X53347Y35630D02*
D03*
Y39370D02*
D03*
Y43110D02*
D03*
X62795D02*
D03*
Y39370D02*
D03*
Y35630D02*
D03*
D32*
X88779Y100394D02*
D03*
X72638D02*
D03*
D33*
X121260Y168307D02*
D03*
X112992D02*
D03*
Y161417D02*
D03*
X121260D02*
D03*
X112992Y154528D02*
D03*
X121260D02*
D03*
Y147638D02*
D03*
X112992D02*
D03*
X121260Y140748D02*
D03*
X112992D02*
D03*
Y133858D02*
D03*
X121260D02*
D03*
D34*
X53150Y318898D02*
D03*
D35*
Y314961D02*
D03*
D36*
X178150Y283465D02*
D03*
X152165D02*
D03*
D37*
X169095Y305709D02*
D03*
X161220D02*
D03*
D38*
X271850Y312992D02*
D03*
X279331D02*
D03*
X271850Y328740D02*
D03*
X279331D02*
D03*
D39*
X229173Y282480D02*
D03*
X234173D02*
D03*
X239173D02*
D03*
X244173D02*
D03*
X229173Y262795D02*
D03*
X234173D02*
D03*
X239173D02*
D03*
X244173D02*
D03*
D40*
X236673Y272638D02*
D03*
D41*
X264173Y123406D02*
D03*
Y128405D02*
D03*
Y133405D02*
D03*
Y138406D02*
D03*
X283071Y123406D02*
D03*
Y128405D02*
D03*
Y133405D02*
D03*
Y138406D02*
D03*
D42*
X253937Y133858D02*
D03*
X313976Y169291D02*
D03*
Y109291D02*
D03*
Y139291D02*
D03*
Y199291D02*
D03*
D43*
X252953Y127953D02*
D03*
X247047D02*
D03*
X252953Y125984D02*
D03*
X247047D02*
D03*
X252953Y124016D02*
D03*
X247047D02*
D03*
X252953Y122047D02*
D03*
X247047D02*
D03*
D44*
X250984Y127953D02*
D03*
X249016D02*
D03*
X250984Y122047D02*
D03*
X249016D02*
D03*
D45*
X262717Y102953D02*
D03*
X267717D02*
D03*
X272716D02*
D03*
Y115551D02*
D03*
X267717D02*
D03*
X262717D02*
D03*
D46*
X53150Y70768D02*
D03*
Y55216D02*
D03*
X62992D02*
D03*
X61024D02*
D03*
X59055D02*
D03*
X57087D02*
D03*
X55118D02*
D03*
Y70768D02*
D03*
X57087D02*
D03*
X59055D02*
D03*
X61024D02*
D03*
X62992D02*
D03*
D47*
X50295Y67913D02*
D03*
X65847D02*
D03*
X50295Y58071D02*
D03*
Y60039D02*
D03*
Y62008D02*
D03*
Y63976D02*
D03*
Y65945D02*
D03*
X65847D02*
D03*
Y63976D02*
D03*
Y62008D02*
D03*
Y60039D02*
D03*
Y58071D02*
D03*
D48*
X120472Y214567D02*
D03*
X115472D02*
D03*
X110472D02*
D03*
X105472D02*
D03*
X100480D02*
D03*
X30480D02*
D03*
X35480D02*
D03*
X40480D02*
D03*
X45480D02*
D03*
X50480D02*
D03*
X55480D02*
D03*
X60480D02*
D03*
X65480D02*
D03*
X70480D02*
D03*
X75480D02*
D03*
X80480D02*
D03*
X85480D02*
D03*
X90480D02*
D03*
X95480D02*
D03*
X100480Y281496D02*
D03*
X105472D02*
D03*
X110472D02*
D03*
X115472D02*
D03*
X120472D02*
D03*
X95480D02*
D03*
X90480D02*
D03*
X85480D02*
D03*
X80480D02*
D03*
X75480D02*
D03*
X70480D02*
D03*
X65480D02*
D03*
X60480D02*
D03*
X55480D02*
D03*
X50480D02*
D03*
X45480D02*
D03*
X40480D02*
D03*
X35480D02*
D03*
X30480D02*
D03*
D49*
X305394Y279016D02*
D03*
Y269016D02*
D03*
Y259016D02*
D03*
Y249016D02*
D03*
Y239016D02*
D03*
Y229016D02*
D03*
X330591Y269016D02*
D03*
Y229016D02*
D03*
Y239016D02*
D03*
Y249016D02*
D03*
Y259016D02*
D03*
Y279016D02*
D03*
D50*
X111909Y190748D02*
D03*
Y187008D02*
D03*
Y183268D02*
D03*
X102657D02*
D03*
Y190748D02*
D03*
M02*
