M48
;Layer_Color=9474304
;FILE_FORMAT=2:5
INCH,LZ
;TYPE=PLATED
T2F00S00C0.02362
T3F00S00C0.03150
T8F00S00C0.04724
;TYPE=NON_PLATED
%
G90
G05
T02
G00X0041063Y0003553
M15
G01Y0005915
M16
G00X0041063Y0019026
M15
G01Y0023356
M16
G00X0075079Y0019026
M15
G01Y0023356
M16
G00X0075079Y0003553
M15
G01Y0005915
M16
T03
G00X0277165Y0019685
M15
G01X0279921
M16
G00X0288386Y0037992
M15
G01Y0040748
M16
G00X0298228Y0037992
M15
G01Y0040748
M16
G00X0268701Y0037992
M15
G01Y0040748
M16
G00X0258858Y0037992
M15
G01Y0040748
M16
T08
G00X0169291Y004252
M15
G01Y0051968
M16
M17
M30
