M48
;Layer_Color=9474304
;FILE_FORMAT=2:5
INCH,LZ
;TYPE=PLATED
T1F00S00C0.00984
T4F00S00C0.03543
T5F00S00C0.04724
T7F00S00C0.15748
;TYPE=NON_PLATED
T8F00S00C0.02559
T9F00S00C0.03543
T10F00S00C0.04724
T12F00S00C0.11811
T13F00S00C0.23622
%
T01
X0025984Y005315
X0037402Y0059449
X005641Y004685
X0062635Y0039594
X0068747
X0079724Y0059449
X0099524Y004685
X0013386Y005315
X0005118Y0048819
X0006693Y0040945
X-0004921Y0059449
X-0016535Y005315
X-002874
X-0037795Y004685
X-0056693Y0047244
X-007126Y005315
X-0079921Y004685
X-0074803Y0041339
X-0062992Y0029528
X-004626Y0059449
X-0100197
X-0139764Y0113976
X-0143701
X-0156693Y0123425
Y0126181
Y0128937
X-0159449
X-0162205
X-0164961
X-0167717
Y0131693
X-0170472
Y0128937
Y0126181
X-0167717
X-0183859
Y0128937
X-0186615
Y0131693
X-0183859
X-0186615Y0126181
X-0191929Y0130511
X-0197835
X-0203937Y0135827
X-0217062Y0131174
X-0218504Y014252
X-0217188Y016165
X-0209055Y0161024
X-0203937
X-0204724Y015748
X-0203937Y0154331
X-0185039Y0154724
Y0157874
Y0161024
X-0188133Y0141141
X-017185Y0147637
X-0156693Y0134449
Y0131693
X-0185827Y0107874
X-0185039Y0192913
Y0195669
X-0182677Y0194095
X-0187402
X-0198031Y0190157
X-0209842Y0187008
X-0212402Y0207087
X-0201378Y0208661
X-0227559Y0195276
X-0233071Y0185039
X-0122835Y0163779
X-0123622Y0141339
X-0135827Y0113976
X-0095472Y0079724
X-0066929Y0070866
X-0061024Y0064961
X-0044291Y0087598
X-0026575Y0095472
X-0024606Y0081693
X0015748Y0081467
X0Y0139764
X001378Y0186448
X0017717Y0199409
X-0012598Y0204134
X-00187Y0203741
X-0017717Y0214961
X-0033465Y0208661
X-0033465Y018996
X-0082677Y0194881
X-0098425Y0194881
X-0073863Y0096216
X0030042Y0100394
X0029921Y0081467
X0023622Y0162402
X0030042Y0180118
X0032283Y0195669
X0035827Y0197638
X0034646Y0201772
Y0207087
X0045276Y0198228
X0041339Y0187402
X0053121Y0176575
X0055877
X0059842Y0192913
Y0195669
X0021535Y0197047
X0112205Y0202362
X0173229Y0142717
X0164961Y0112992
X0163386Y0109055
X0159449
X0157874Y0112992
X0182883Y0169291
X0112205Y0218898
X0037795Y0222048
X0031718Y0223007
X0038976Y0247945
X0023622Y026028
X0019685Y0274567
X0045276Y0277953
X0041339Y0304724
X0027559Y0305118
X0025591Y0311882
X0021535Y0312945
X0027953Y0317945
X0038976
X0045866Y0318307
X0055118Y0319291
Y0316142
X0056102Y0298229
X0072835Y0301181
X0095472
X0090748Y0312402
X0084646Y0312008
X0009843Y0304913
X-0001959Y0302945
X-0007874Y0302756
X-0011811Y0299606
X-0026772Y0300394
X-0027559Y0292945
X-0026772Y028937
X-0045669
Y0292945
X-0042977Y0300394
X-0058842Y0298819
X-0065945Y0291716
X-0054134Y0282283
X-0077444Y0264764
X-0076772Y025689
X-0082677Y0245079
X-0082677Y0218504
X-0068093Y0218504
X-0056299Y0223031
X-0050197Y0223425
X-0014764Y0223007
X0001969Y0229331
X0001969Y0242953
X0Y0248031
X0007874Y0252945
X001378
X0015748Y0242953
X0003937Y0257945
X-0005906Y0262945
X-0003937Y0267945
X0005906Y0272945
X0011811Y0276575
X0017717Y027017
X0003937Y0281965
Y0285114
Y0288423
X0007246
X0000628
X0003937Y0291732
Y0294882
X-0014764Y0272945
X-0027953Y0317945
X-0038976
X-007559Y031063
X-0089075Y0291831
X-0094488Y0297244
X-0096835Y0277291
X-0093454Y0274065
X-0092204Y0266732
X-0116535Y0269685
X-0121256Y0262201
X-0105315Y025
X-0105315Y0226378
X-0098425Y0218504
X-0197047Y0219685
X-0208661Y0217126
X-0221457Y0221457
Y022441
Y0227362
X-022441
X-0227362
Y022441
Y0221457
X-022441
Y022441
X-0214567Y023937
X-0212598Y0253543
X-0207856Y0265748
X-0204881Y0270472
X-0220472Y026811
X-0201181Y0245276
X-019941Y0233268
X-0243685Y0240921
X-0193701Y0283858
T04
X-001Y0100394
X0
X001
X0216378Y025689
Y026689
X0226378
Y025689
Y027689
X0216378
T05
X-0139953Y0146661
T07
X0045Y0027559
X0085
X0
X-0045
X-0085
T08
X-0222185Y0263065
X-0210807Y0282772
T09
X-0236138Y0178354
X-0238593Y0189907
X0238433Y0190816
X0235977Y0179263
T10
X0206512Y0118523
X0214672Y0113019
X02012Y014585
X0228527Y0151162
X0236687Y0145658
T12
X-0177165Y0454724
X0177165
T13
X-0121063Y0429134
X0121063
M30
