M48
;Layer_Color=9474304
;FILE_FORMAT=2:5
INCH,LZ
;TYPE=PLATED
T2F00S00C0.02362
T3F00S00C0.03150
T6F00S00C0.04724
;TYPE=NON_PLATED
T11F00S00C0.07874
%
G90
G05
T02
G00X-0238466Y0265964
M15
G01X-023642Y0264783
M16
G00X-0225066Y0258228
M15
G01X-0221316Y0256063
M16
G00X-0221458Y0295423
M15
G01X-0219412Y0294241
M16
G00X-0208059Y0287686
M15
G01X-0204308Y0285521
M16
T03
G00X0191335Y012876
M15
G01X018905Y0130301
M16
G00X0196839Y013692
M15
G01X0194554Y0138461
M16
G00X0216749Y01337
M15
G01X021829Y0135985
M16
G00X0207846Y015324
M15
G01X0205561Y0154781
M16
G00X021335Y0161399
M15
G01X0211065Y016294
M16
T06
G00X0138394Y0146661
M15
G01X0128945
M16
T11
G00X0072835Y0191437
M15
G01Y022687
M16
M17
M30
