G04*
G04 #@! TF.GenerationSoftware,Altium Limited,Altium Designer,22.0.2 (36)*
G04*
G04 Layer_Color=128*
%FSLAX25Y25*%
%MOIN*%
G70*
G04*
G04 #@! TF.SameCoordinates,D6E2960D-4B62-4AB4-87A3-9FF5B50C98D5*
G04*
G04*
G04 #@! TF.FilePolarity,Positive*
G04*
G01*
G75*
%ADD11C,0.00787*%
%ADD12C,0.01575*%
%ADD13C,0.00591*%
%ADD14C,0.00984*%
%ADD15C,0.00394*%
%ADD190C,0.00200*%
G36*
X761965Y-141778D02*
X763683D01*
Y-142065D01*
X764542D01*
Y-142351D01*
X765401D01*
Y-142637D01*
X766260D01*
Y-142924D01*
X766832D01*
Y-143210D01*
X767119D01*
Y-143496D01*
X767691D01*
Y-143783D01*
X767978D01*
Y-144069D01*
X768550D01*
Y-144355D01*
X768837D01*
Y-144641D01*
X769123D01*
Y-144928D01*
X769409D01*
Y-145214D01*
X769696D01*
Y-145501D01*
X769982D01*
Y-145787D01*
X770268D01*
Y-146073D01*
Y-146359D01*
X770554D01*
Y-146646D01*
X770841D01*
Y-146932D01*
Y-147218D01*
X771127D01*
Y-147505D01*
X771414D01*
Y-147791D01*
Y-148077D01*
X771700D01*
Y-148364D01*
Y-148650D01*
Y-148936D01*
X771986D01*
Y-149223D01*
Y-149509D01*
Y-149795D01*
X772272D01*
Y-150082D01*
Y-150368D01*
Y-150654D01*
Y-150940D01*
X772559D01*
Y-151227D01*
Y-151513D01*
Y-151799D01*
Y-152086D01*
Y-152372D01*
X772845D01*
Y-152658D01*
Y-152945D01*
Y-153231D01*
Y-153517D01*
Y-153804D01*
Y-154090D01*
Y-154376D01*
Y-154663D01*
Y-154949D01*
Y-155235D01*
Y-155521D01*
Y-155808D01*
Y-156094D01*
Y-156380D01*
Y-156667D01*
Y-156953D01*
Y-157239D01*
Y-157526D01*
Y-157812D01*
Y-158098D01*
X772559D01*
Y-158385D01*
Y-158671D01*
Y-158957D01*
Y-159244D01*
Y-159530D01*
Y-159816D01*
Y-160102D01*
X772272D01*
Y-160389D01*
Y-160675D01*
Y-160961D01*
Y-161248D01*
Y-161534D01*
X771986D01*
Y-161820D01*
Y-162107D01*
Y-162393D01*
Y-162679D01*
Y-162966D01*
X771700D01*
Y-163252D01*
Y-163538D01*
Y-163824D01*
X771414D01*
Y-164111D01*
Y-164397D01*
Y-164683D01*
Y-164970D01*
X771127D01*
Y-165256D01*
Y-165542D01*
Y-165829D01*
X770841D01*
Y-166115D01*
Y-166401D01*
X770554D01*
Y-166688D01*
Y-166974D01*
Y-167260D01*
X770268D01*
Y-167547D01*
Y-167833D01*
X769982D01*
Y-168119D01*
Y-168405D01*
X769696D01*
Y-168692D01*
Y-168978D01*
X769409D01*
Y-169264D01*
X769123D01*
Y-169551D01*
Y-169837D01*
X768837D01*
Y-170123D01*
X768550D01*
Y-170410D01*
X768264D01*
Y-170696D01*
Y-170982D01*
X767978D01*
Y-171269D01*
X767691D01*
Y-171555D01*
X767405D01*
Y-171841D01*
X767119D01*
Y-172127D01*
X766832D01*
Y-172414D01*
X766260D01*
Y-172700D01*
X765974D01*
Y-172986D01*
X765401D01*
Y-173273D01*
X765115D01*
Y-173559D01*
X764542D01*
Y-173845D01*
X763683D01*
Y-174132D01*
X762824D01*
Y-174418D01*
X761965D01*
Y-174704D01*
X760247D01*
Y-174991D01*
X755094D01*
Y-174704D01*
X752517D01*
Y-174418D01*
X750513D01*
Y-174132D01*
X749081D01*
Y-173845D01*
X747649D01*
Y-173559D01*
X746218D01*
Y-173845D01*
Y-174132D01*
Y-174418D01*
Y-174704D01*
Y-174991D01*
Y-175277D01*
Y-175563D01*
X745932D01*
Y-175850D01*
Y-176136D01*
Y-176422D01*
Y-176709D01*
Y-176995D01*
Y-177281D01*
X745645D01*
Y-177568D01*
Y-177854D01*
Y-178140D01*
Y-178426D01*
Y-178713D01*
Y-178999D01*
X745359D01*
Y-179285D01*
Y-179572D01*
Y-179858D01*
Y-180144D01*
Y-180431D01*
Y-180717D01*
Y-181003D01*
X745073D01*
Y-181290D01*
Y-181576D01*
Y-181862D01*
Y-182149D01*
Y-182435D01*
Y-182721D01*
X744786D01*
Y-183007D01*
Y-183294D01*
Y-183580D01*
Y-183866D01*
Y-184153D01*
Y-184439D01*
X744500D01*
Y-184725D01*
Y-185012D01*
Y-185298D01*
Y-185584D01*
Y-185871D01*
Y-186157D01*
Y-186443D01*
X744214D01*
Y-186730D01*
Y-187016D01*
Y-187302D01*
Y-187588D01*
Y-187875D01*
Y-188161D01*
X743927D01*
Y-188447D01*
Y-188734D01*
Y-189020D01*
Y-189306D01*
Y-189593D01*
Y-189879D01*
X743641D01*
Y-190165D01*
Y-190452D01*
Y-190738D01*
Y-191024D01*
Y-191311D01*
Y-191597D01*
Y-191883D01*
X730184D01*
Y-191597D01*
X730471D01*
Y-191311D01*
Y-191024D01*
Y-190738D01*
Y-190452D01*
Y-190165D01*
X730757D01*
Y-189879D01*
Y-189593D01*
Y-189306D01*
Y-189020D01*
Y-188734D01*
Y-188447D01*
Y-188161D01*
X731043D01*
Y-187875D01*
Y-187588D01*
Y-187302D01*
Y-187016D01*
Y-186730D01*
Y-186443D01*
X731330D01*
Y-186157D01*
Y-185871D01*
Y-185584D01*
Y-185298D01*
Y-185012D01*
Y-184725D01*
X731616D01*
Y-184439D01*
Y-184153D01*
Y-183866D01*
Y-183580D01*
Y-183294D01*
Y-183007D01*
Y-182721D01*
X731902D01*
Y-182435D01*
Y-182149D01*
Y-181862D01*
Y-181576D01*
Y-181290D01*
Y-181003D01*
X732189D01*
Y-180717D01*
Y-180431D01*
Y-180144D01*
Y-179858D01*
Y-179572D01*
Y-179285D01*
X732475D01*
Y-178999D01*
Y-178713D01*
Y-178426D01*
Y-178140D01*
Y-177854D01*
Y-177568D01*
X732761D01*
Y-177281D01*
Y-176995D01*
Y-176709D01*
Y-176422D01*
Y-176136D01*
Y-175850D01*
Y-175563D01*
X733047D01*
Y-175277D01*
Y-174991D01*
Y-174704D01*
Y-174418D01*
Y-174132D01*
Y-173845D01*
X733334D01*
Y-173559D01*
Y-173273D01*
Y-172986D01*
Y-172700D01*
Y-172414D01*
Y-172127D01*
X733620D01*
Y-171841D01*
Y-171555D01*
Y-171269D01*
Y-170982D01*
Y-170696D01*
Y-170410D01*
X733907D01*
Y-170123D01*
Y-169837D01*
Y-169551D01*
Y-169264D01*
Y-168978D01*
Y-168692D01*
Y-168405D01*
X734193D01*
Y-168119D01*
Y-167833D01*
Y-167547D01*
Y-167260D01*
Y-166974D01*
Y-166688D01*
X734479D01*
Y-166401D01*
Y-166115D01*
Y-165829D01*
Y-165542D01*
Y-165256D01*
Y-164970D01*
X734765D01*
Y-164683D01*
Y-164397D01*
Y-164111D01*
Y-163824D01*
Y-163538D01*
Y-163252D01*
Y-162966D01*
X735052D01*
Y-162679D01*
Y-162393D01*
Y-162107D01*
Y-161820D01*
Y-161534D01*
Y-161248D01*
X735338D01*
Y-160961D01*
Y-160675D01*
Y-160389D01*
Y-160102D01*
Y-159816D01*
Y-159530D01*
X735624D01*
Y-159244D01*
Y-158957D01*
Y-158671D01*
Y-158385D01*
Y-158098D01*
Y-157812D01*
X735911D01*
Y-157526D01*
Y-157239D01*
Y-156953D01*
Y-156667D01*
Y-156380D01*
Y-156094D01*
Y-155808D01*
X736197D01*
Y-155521D01*
Y-155235D01*
Y-154949D01*
Y-154663D01*
Y-154376D01*
Y-154090D01*
X736483D01*
Y-153804D01*
Y-153517D01*
Y-153231D01*
Y-152945D01*
Y-152658D01*
Y-152372D01*
X736770D01*
Y-152086D01*
Y-151799D01*
Y-151513D01*
Y-151227D01*
Y-150940D01*
Y-150654D01*
Y-150368D01*
X737056D01*
Y-150082D01*
Y-149795D01*
Y-149509D01*
Y-149223D01*
Y-148936D01*
Y-148650D01*
X737342D01*
Y-148364D01*
Y-148077D01*
Y-147791D01*
Y-147505D01*
Y-147218D01*
Y-146932D01*
X737629D01*
Y-146646D01*
Y-146359D01*
Y-146073D01*
Y-145787D01*
Y-145501D01*
Y-145214D01*
Y-144928D01*
X737915D01*
Y-144641D01*
Y-144355D01*
Y-144069D01*
Y-143783D01*
Y-143496D01*
Y-143210D01*
X738201D01*
Y-142924D01*
Y-142637D01*
Y-142351D01*
Y-142065D01*
Y-141778D01*
Y-141492D01*
X761965D01*
Y-141778D01*
D02*
G37*
G36*
X793173Y-138343D02*
Y-138629D01*
X792887D01*
Y-138915D01*
Y-139202D01*
Y-139488D01*
Y-139774D01*
Y-140060D01*
Y-140347D01*
X792601D01*
Y-140633D01*
Y-140919D01*
Y-141206D01*
Y-141492D01*
Y-141778D01*
Y-142065D01*
X792314D01*
Y-142351D01*
Y-142637D01*
Y-142924D01*
Y-143210D01*
Y-143496D01*
Y-143783D01*
Y-144069D01*
X792028D01*
Y-144355D01*
Y-144641D01*
Y-144928D01*
Y-145214D01*
Y-145501D01*
Y-145787D01*
X791742D01*
Y-146073D01*
Y-146359D01*
Y-146646D01*
Y-146932D01*
Y-147218D01*
Y-147505D01*
X791455D01*
Y-147791D01*
Y-148077D01*
Y-148364D01*
Y-148650D01*
Y-148936D01*
Y-149223D01*
Y-149509D01*
X791169D01*
Y-149795D01*
Y-150082D01*
Y-150368D01*
Y-150654D01*
Y-150940D01*
Y-151227D01*
X790883D01*
Y-151513D01*
Y-151799D01*
Y-152086D01*
Y-152372D01*
Y-152658D01*
Y-152945D01*
X790596D01*
Y-153231D01*
Y-153517D01*
Y-153804D01*
Y-154090D01*
Y-154376D01*
Y-154663D01*
X790310D01*
Y-154949D01*
Y-155235D01*
Y-155521D01*
Y-155808D01*
Y-156094D01*
Y-156380D01*
Y-156667D01*
X790024D01*
Y-156953D01*
Y-157239D01*
Y-157526D01*
Y-157812D01*
Y-158098D01*
Y-158385D01*
X789738D01*
Y-158671D01*
Y-158957D01*
X790310D01*
Y-158671D01*
X790596D01*
Y-158385D01*
X790883D01*
Y-158098D01*
X791455D01*
Y-157812D01*
X791742D01*
Y-157526D01*
X792028D01*
Y-157239D01*
X792601D01*
Y-156953D01*
X793173D01*
Y-156667D01*
X793460D01*
Y-156380D01*
X794032D01*
Y-156094D01*
X794891D01*
Y-155808D01*
X795464D01*
Y-155521D01*
X796323D01*
Y-155235D01*
X797754D01*
Y-154949D01*
X804053D01*
Y-155235D01*
X805198D01*
Y-155521D01*
X806057D01*
Y-155808D01*
X806630D01*
Y-156094D01*
X806916D01*
Y-156380D01*
X807489D01*
Y-156667D01*
X807775D01*
Y-156953D01*
X808062D01*
Y-157239D01*
X808348D01*
Y-157526D01*
X808634D01*
Y-157812D01*
Y-158098D01*
X808920D01*
Y-158385D01*
Y-158671D01*
X809207D01*
Y-158957D01*
Y-159244D01*
Y-159530D01*
X809493D01*
Y-159816D01*
Y-160102D01*
Y-160389D01*
Y-160675D01*
X809779D01*
Y-160961D01*
Y-161248D01*
Y-161534D01*
Y-161820D01*
Y-162107D01*
Y-162393D01*
Y-162679D01*
Y-162966D01*
Y-163252D01*
Y-163538D01*
Y-163824D01*
Y-164111D01*
Y-164397D01*
Y-164683D01*
Y-164970D01*
Y-165256D01*
Y-165542D01*
Y-165829D01*
X809493D01*
Y-166115D01*
Y-166401D01*
Y-166688D01*
Y-166974D01*
Y-167260D01*
Y-167547D01*
Y-167833D01*
X809207D01*
Y-168119D01*
Y-168405D01*
Y-168692D01*
Y-168978D01*
Y-169264D01*
Y-169551D01*
Y-169837D01*
X808920D01*
Y-170123D01*
Y-170410D01*
Y-170696D01*
Y-170982D01*
Y-171269D01*
Y-171555D01*
X808634D01*
Y-171841D01*
Y-172127D01*
Y-172414D01*
Y-172700D01*
Y-172986D01*
Y-173273D01*
X808348D01*
Y-173559D01*
Y-173845D01*
Y-174132D01*
Y-174418D01*
Y-174704D01*
Y-174991D01*
X808062D01*
Y-175277D01*
Y-175563D01*
Y-175850D01*
Y-176136D01*
Y-176422D01*
Y-176709D01*
Y-176995D01*
X807775D01*
Y-177281D01*
Y-177568D01*
Y-177854D01*
Y-178140D01*
Y-178426D01*
Y-178713D01*
X807489D01*
Y-178999D01*
Y-179285D01*
Y-179572D01*
Y-179858D01*
Y-180144D01*
Y-180431D01*
X807203D01*
Y-180717D01*
Y-181003D01*
Y-181290D01*
Y-181576D01*
Y-181862D01*
Y-182149D01*
Y-182435D01*
X806916D01*
Y-182721D01*
Y-183007D01*
Y-183294D01*
Y-183580D01*
Y-183866D01*
Y-184153D01*
X806630D01*
Y-184439D01*
Y-184725D01*
Y-185012D01*
Y-185298D01*
Y-185584D01*
Y-185871D01*
X806344D01*
Y-186157D01*
Y-186443D01*
Y-186730D01*
Y-187016D01*
Y-187302D01*
Y-187588D01*
X806057D01*
Y-187875D01*
Y-188161D01*
Y-188447D01*
Y-188734D01*
Y-189020D01*
Y-189306D01*
Y-189593D01*
X805771D01*
Y-189879D01*
Y-190165D01*
Y-190452D01*
Y-190738D01*
Y-191024D01*
Y-191311D01*
X805485D01*
Y-191597D01*
Y-191883D01*
X792314D01*
Y-191597D01*
Y-191311D01*
X792601D01*
Y-191024D01*
Y-190738D01*
Y-190452D01*
Y-190165D01*
Y-189879D01*
Y-189593D01*
X792887D01*
Y-189306D01*
Y-189020D01*
Y-188734D01*
Y-188447D01*
Y-188161D01*
Y-187875D01*
Y-187588D01*
X793173D01*
Y-187302D01*
Y-187016D01*
Y-186730D01*
Y-186443D01*
Y-186157D01*
Y-185871D01*
X793460D01*
Y-185584D01*
Y-185298D01*
Y-185012D01*
Y-184725D01*
Y-184439D01*
Y-184153D01*
X793746D01*
Y-183866D01*
Y-183580D01*
Y-183294D01*
Y-183007D01*
Y-182721D01*
Y-182435D01*
Y-182149D01*
X794032D01*
Y-181862D01*
Y-181576D01*
Y-181290D01*
Y-181003D01*
Y-180717D01*
Y-180431D01*
X794318D01*
Y-180144D01*
Y-179858D01*
Y-179572D01*
Y-179285D01*
Y-178999D01*
Y-178713D01*
Y-178426D01*
X794605D01*
Y-178140D01*
Y-177854D01*
Y-177568D01*
Y-177281D01*
Y-176995D01*
Y-176709D01*
X794891D01*
Y-176422D01*
Y-176136D01*
Y-175850D01*
Y-175563D01*
Y-175277D01*
Y-174991D01*
X795177D01*
Y-174704D01*
Y-174418D01*
Y-174132D01*
Y-173845D01*
Y-173559D01*
Y-173273D01*
X795464D01*
Y-172986D01*
Y-172700D01*
Y-172414D01*
Y-172127D01*
Y-171841D01*
Y-171555D01*
Y-171269D01*
X795750D01*
Y-170982D01*
Y-170696D01*
Y-170410D01*
Y-170123D01*
Y-169837D01*
Y-169551D01*
X796036D01*
Y-169264D01*
Y-168978D01*
Y-168692D01*
Y-168405D01*
Y-168119D01*
Y-167833D01*
Y-167547D01*
X796323D01*
Y-167260D01*
Y-166974D01*
Y-166688D01*
Y-166401D01*
Y-166115D01*
Y-165829D01*
X796036D01*
Y-165542D01*
Y-165256D01*
X795750D01*
Y-164970D01*
X795464D01*
Y-164683D01*
X794891D01*
Y-164397D01*
X793173D01*
Y-164683D01*
X791742D01*
Y-164970D01*
X790883D01*
Y-165256D01*
X790310D01*
Y-165542D01*
X790024D01*
Y-165829D01*
X789451D01*
Y-166115D01*
X789165D01*
Y-166401D01*
X788878D01*
Y-166688D01*
Y-166974D01*
X788592D01*
Y-167260D01*
Y-167547D01*
Y-167833D01*
X788306D01*
Y-168119D01*
Y-168405D01*
Y-168692D01*
Y-168978D01*
Y-169264D01*
Y-169551D01*
X788020D01*
Y-169837D01*
Y-170123D01*
Y-170410D01*
Y-170696D01*
Y-170982D01*
Y-171269D01*
Y-171555D01*
X787733D01*
Y-171841D01*
Y-172127D01*
Y-172414D01*
Y-172700D01*
Y-172986D01*
Y-173273D01*
X787447D01*
Y-173559D01*
Y-173845D01*
Y-174132D01*
Y-174418D01*
Y-174704D01*
Y-174991D01*
X787161D01*
Y-175277D01*
Y-175563D01*
Y-175850D01*
Y-176136D01*
Y-176422D01*
Y-176709D01*
X786874D01*
Y-176995D01*
Y-177281D01*
Y-177568D01*
Y-177854D01*
Y-178140D01*
Y-178426D01*
Y-178713D01*
X786588D01*
Y-178999D01*
Y-179285D01*
Y-179572D01*
Y-179858D01*
Y-180144D01*
Y-180431D01*
X786302D01*
Y-180717D01*
Y-181003D01*
Y-181290D01*
Y-181576D01*
Y-181862D01*
Y-182149D01*
X786015D01*
Y-182435D01*
Y-182721D01*
Y-183007D01*
Y-183294D01*
Y-183580D01*
Y-183866D01*
Y-184153D01*
X785729D01*
Y-184439D01*
Y-184725D01*
Y-185012D01*
Y-185298D01*
Y-185584D01*
Y-185871D01*
X785443D01*
Y-186157D01*
Y-186443D01*
Y-186730D01*
Y-187016D01*
Y-187302D01*
Y-187588D01*
X785156D01*
Y-187875D01*
Y-188161D01*
Y-188447D01*
Y-188734D01*
Y-189020D01*
Y-189306D01*
X784870D01*
Y-189593D01*
Y-189879D01*
Y-190165D01*
Y-190452D01*
Y-190738D01*
Y-191024D01*
Y-191311D01*
X784584D01*
Y-191597D01*
Y-191883D01*
X771414D01*
Y-191597D01*
Y-191311D01*
X771700D01*
Y-191024D01*
Y-190738D01*
Y-190452D01*
Y-190165D01*
Y-189879D01*
Y-189593D01*
Y-189306D01*
X771986D01*
Y-189020D01*
Y-188734D01*
Y-188447D01*
Y-188161D01*
Y-187875D01*
Y-187588D01*
X772272D01*
Y-187302D01*
Y-187016D01*
Y-186730D01*
Y-186443D01*
Y-186157D01*
Y-185871D01*
X772559D01*
Y-185584D01*
Y-185298D01*
Y-185012D01*
Y-184725D01*
Y-184439D01*
Y-184153D01*
Y-183866D01*
X772845D01*
Y-183580D01*
Y-183294D01*
Y-183007D01*
Y-182721D01*
Y-182435D01*
Y-182149D01*
X773131D01*
Y-181862D01*
Y-181576D01*
Y-181290D01*
Y-181003D01*
Y-180717D01*
Y-180431D01*
X773418D01*
Y-180144D01*
Y-179858D01*
Y-179572D01*
Y-179285D01*
Y-178999D01*
Y-178713D01*
X773704D01*
Y-178426D01*
Y-178140D01*
Y-177854D01*
Y-177568D01*
Y-177281D01*
Y-176995D01*
Y-176709D01*
X773990D01*
Y-176422D01*
Y-176136D01*
Y-175850D01*
Y-175563D01*
Y-175277D01*
Y-174991D01*
X774277D01*
Y-174704D01*
Y-174418D01*
Y-174132D01*
Y-173845D01*
Y-173559D01*
Y-173273D01*
X774563D01*
Y-172986D01*
Y-172700D01*
Y-172414D01*
Y-172127D01*
Y-171841D01*
Y-171555D01*
Y-171269D01*
X774849D01*
Y-170982D01*
Y-170696D01*
Y-170410D01*
Y-170123D01*
Y-169837D01*
Y-169551D01*
X775136D01*
Y-169264D01*
Y-168978D01*
Y-168692D01*
Y-168405D01*
Y-168119D01*
Y-167833D01*
X775422D01*
Y-167547D01*
Y-167260D01*
Y-166974D01*
Y-166688D01*
Y-166401D01*
Y-166115D01*
X775708D01*
Y-165829D01*
Y-165542D01*
Y-165256D01*
Y-164970D01*
Y-164683D01*
Y-164397D01*
Y-164111D01*
X775994D01*
Y-163824D01*
Y-163538D01*
Y-163252D01*
Y-162966D01*
Y-162679D01*
Y-162393D01*
X776281D01*
Y-162107D01*
Y-161820D01*
Y-161534D01*
Y-161248D01*
Y-160961D01*
Y-160675D01*
X776567D01*
Y-160389D01*
Y-160102D01*
Y-159816D01*
Y-159530D01*
Y-159244D01*
Y-158957D01*
X776853D01*
Y-158671D01*
Y-158385D01*
Y-158098D01*
Y-157812D01*
Y-157526D01*
Y-157239D01*
Y-156953D01*
X777140D01*
Y-156667D01*
Y-156380D01*
Y-156094D01*
Y-155808D01*
Y-155521D01*
Y-155235D01*
X777426D01*
Y-154949D01*
Y-154663D01*
Y-154376D01*
Y-154090D01*
Y-153804D01*
Y-153517D01*
X777712D01*
Y-153231D01*
Y-152945D01*
Y-152658D01*
Y-152372D01*
Y-152086D01*
Y-151799D01*
Y-151513D01*
X777999D01*
Y-151227D01*
Y-150940D01*
Y-150654D01*
Y-150368D01*
Y-150082D01*
Y-149795D01*
X778285D01*
Y-149509D01*
Y-149223D01*
Y-148936D01*
Y-148650D01*
Y-148364D01*
Y-148077D01*
X778571D01*
Y-147791D01*
Y-147505D01*
Y-147218D01*
Y-146932D01*
Y-146646D01*
Y-146359D01*
X778858D01*
Y-146073D01*
Y-145787D01*
Y-145501D01*
Y-145214D01*
Y-144928D01*
Y-144641D01*
Y-144355D01*
X779144D01*
Y-144069D01*
Y-143783D01*
Y-143496D01*
Y-143210D01*
Y-142924D01*
Y-142637D01*
X779430D01*
Y-142351D01*
Y-142065D01*
Y-141778D01*
Y-141492D01*
Y-141206D01*
Y-140919D01*
X779716D01*
Y-140633D01*
Y-140347D01*
Y-140060D01*
Y-139774D01*
Y-139488D01*
Y-139202D01*
Y-138915D01*
X780003D01*
Y-138629D01*
Y-138343D01*
Y-138056D01*
X793173D01*
Y-138343D01*
D02*
G37*
G36*
X895101Y-155808D02*
X894814D01*
Y-156094D01*
X894528D01*
Y-156380D01*
Y-156667D01*
X894242D01*
Y-156953D01*
X893955D01*
Y-157239D01*
X893669D01*
Y-157526D01*
Y-157812D01*
X893383D01*
Y-158098D01*
X893096D01*
Y-158385D01*
X892810D01*
Y-158671D01*
X892524D01*
Y-158957D01*
Y-159244D01*
X892237D01*
Y-159530D01*
X891951D01*
Y-159816D01*
X891665D01*
Y-160102D01*
Y-160389D01*
X891378D01*
Y-160675D01*
X891092D01*
Y-160961D01*
X890806D01*
Y-161248D01*
X890520D01*
Y-161534D01*
Y-161820D01*
X890233D01*
Y-162107D01*
X889947D01*
Y-162393D01*
X889661D01*
Y-162679D01*
Y-162966D01*
X889374D01*
Y-163252D01*
X889088D01*
Y-163538D01*
X888802D01*
Y-163824D01*
Y-164111D01*
X888515D01*
Y-164397D01*
X888229D01*
Y-164683D01*
X887943D01*
Y-164970D01*
X887656D01*
Y-165256D01*
Y-165542D01*
X887370D01*
Y-165829D01*
X887084D01*
Y-166115D01*
X886798D01*
Y-166401D01*
Y-166688D01*
X886511D01*
Y-166974D01*
X886225D01*
Y-167260D01*
X885939D01*
Y-167547D01*
Y-167833D01*
X885652D01*
Y-168119D01*
X885366D01*
Y-168405D01*
X885080D01*
Y-168692D01*
X884793D01*
Y-168978D01*
Y-169264D01*
X884507D01*
Y-169551D01*
X884221D01*
Y-169837D01*
X883934D01*
Y-170123D01*
Y-170410D01*
X883648D01*
Y-170696D01*
X883362D01*
Y-170982D01*
X883076D01*
Y-171269D01*
Y-171555D01*
X882789D01*
Y-171841D01*
X882503D01*
Y-172127D01*
X882216D01*
Y-172414D01*
X881930D01*
Y-172700D01*
Y-172986D01*
X881644D01*
Y-173273D01*
X881358D01*
Y-173559D01*
X881071D01*
Y-173845D01*
Y-174132D01*
X880785D01*
Y-174418D01*
X880499D01*
Y-174704D01*
X880212D01*
Y-174991D01*
X879926D01*
Y-175277D01*
Y-175563D01*
X880212D01*
Y-175850D01*
Y-176136D01*
X880499D01*
Y-176422D01*
Y-176709D01*
X880785D01*
Y-176995D01*
X881071D01*
Y-177281D01*
Y-177568D01*
X881358D01*
Y-177854D01*
Y-178140D01*
X881644D01*
Y-178426D01*
Y-178713D01*
X881930D01*
Y-178999D01*
Y-179285D01*
X882216D01*
Y-179572D01*
Y-179858D01*
X882503D01*
Y-180144D01*
Y-180431D01*
X882789D01*
Y-180717D01*
Y-181003D01*
X883076D01*
Y-181290D01*
Y-181576D01*
X883362D01*
Y-181862D01*
X883648D01*
Y-182149D01*
Y-182435D01*
X883934D01*
Y-182721D01*
Y-183007D01*
X884221D01*
Y-183294D01*
Y-183580D01*
X884507D01*
Y-183866D01*
Y-184153D01*
X884793D01*
Y-184439D01*
Y-184725D01*
X885080D01*
Y-185012D01*
Y-185298D01*
X885366D01*
Y-185584D01*
Y-185871D01*
X885652D01*
Y-186157D01*
X885939D01*
Y-186443D01*
Y-186730D01*
X886225D01*
Y-187016D01*
Y-187302D01*
X886511D01*
Y-187588D01*
Y-187875D01*
X886798D01*
Y-188161D01*
Y-188447D01*
X887084D01*
Y-188734D01*
Y-189020D01*
X887370D01*
Y-189306D01*
Y-189593D01*
X887656D01*
Y-189879D01*
Y-190165D01*
X887943D01*
Y-190452D01*
X888229D01*
Y-190738D01*
Y-191024D01*
X888515D01*
Y-191311D01*
Y-191597D01*
X888802D01*
Y-191883D01*
X873627D01*
Y-191597D01*
X873341D01*
Y-191311D01*
Y-191024D01*
Y-190738D01*
X873055D01*
Y-190452D01*
Y-190165D01*
Y-189879D01*
X872768D01*
Y-189593D01*
Y-189306D01*
X872482D01*
Y-189020D01*
Y-188734D01*
Y-188447D01*
X872196D01*
Y-188161D01*
Y-187875D01*
Y-187588D01*
X871909D01*
Y-187302D01*
Y-187016D01*
X871623D01*
Y-186730D01*
Y-186443D01*
Y-186157D01*
X871337D01*
Y-185871D01*
Y-185584D01*
Y-185298D01*
X871050D01*
Y-185012D01*
Y-184725D01*
Y-184439D01*
X870764D01*
Y-184153D01*
X870191D01*
Y-184439D01*
Y-184725D01*
X869905D01*
Y-185012D01*
X869619D01*
Y-185298D01*
Y-185584D01*
X869332D01*
Y-185871D01*
X869046D01*
Y-186157D01*
Y-186443D01*
X868760D01*
Y-186730D01*
X868474D01*
Y-187016D01*
Y-187302D01*
X868187D01*
Y-187588D01*
X867901D01*
Y-187875D01*
X867615D01*
Y-188161D01*
Y-188447D01*
X867328D01*
Y-188734D01*
X867042D01*
Y-189020D01*
Y-189306D01*
X866756D01*
Y-189593D01*
X866469D01*
Y-189879D01*
Y-190165D01*
X866183D01*
Y-190452D01*
X865897D01*
Y-190738D01*
Y-191024D01*
X865610D01*
Y-191311D01*
X865324D01*
Y-191597D01*
Y-191883D01*
X849290D01*
Y-191597D01*
X849577D01*
Y-191311D01*
X849863D01*
Y-191024D01*
X850150D01*
Y-190738D01*
X850436D01*
Y-190452D01*
Y-190165D01*
X850722D01*
Y-189879D01*
X851008D01*
Y-189593D01*
X851295D01*
Y-189306D01*
X851581D01*
Y-189020D01*
Y-188734D01*
X851867D01*
Y-188447D01*
X852154D01*
Y-188161D01*
X852440D01*
Y-187875D01*
Y-187588D01*
X852726D01*
Y-187302D01*
X853013D01*
Y-187016D01*
X853299D01*
Y-186730D01*
X853585D01*
Y-186443D01*
Y-186157D01*
X853872D01*
Y-185871D01*
X854158D01*
Y-185584D01*
X854444D01*
Y-185298D01*
X854731D01*
Y-185012D01*
Y-184725D01*
X855017D01*
Y-184439D01*
X855303D01*
Y-184153D01*
X855589D01*
Y-183866D01*
Y-183580D01*
X855876D01*
Y-183294D01*
X856162D01*
Y-183007D01*
X856448D01*
Y-182721D01*
X856735D01*
Y-182435D01*
Y-182149D01*
X857021D01*
Y-181862D01*
X857307D01*
Y-181576D01*
X857594D01*
Y-181290D01*
Y-181003D01*
X857880D01*
Y-180717D01*
X858166D01*
Y-180431D01*
X858453D01*
Y-180144D01*
X858739D01*
Y-179858D01*
Y-179572D01*
X859025D01*
Y-179285D01*
X859311D01*
Y-178999D01*
X859598D01*
Y-178713D01*
Y-178426D01*
X859884D01*
Y-178140D01*
X860170D01*
Y-177854D01*
X860457D01*
Y-177568D01*
X860743D01*
Y-177281D01*
Y-176995D01*
X861029D01*
Y-176709D01*
X861316D01*
Y-176422D01*
X861602D01*
Y-176136D01*
X861888D01*
Y-175850D01*
Y-175563D01*
X862175D01*
Y-175277D01*
X862461D01*
Y-174991D01*
X862747D01*
Y-174704D01*
Y-174418D01*
X863034D01*
Y-174132D01*
X863320D01*
Y-173845D01*
X863606D01*
Y-173559D01*
X863892D01*
Y-173273D01*
Y-172986D01*
X864179D01*
Y-172700D01*
Y-172414D01*
Y-172127D01*
X863892D01*
Y-171841D01*
X863606D01*
Y-171555D01*
Y-171269D01*
X863320D01*
Y-170982D01*
Y-170696D01*
X863034D01*
Y-170410D01*
Y-170123D01*
X862747D01*
Y-169837D01*
Y-169551D01*
X862461D01*
Y-169264D01*
Y-168978D01*
X862175D01*
Y-168692D01*
Y-168405D01*
X861888D01*
Y-168119D01*
X861602D01*
Y-167833D01*
Y-167547D01*
X861316D01*
Y-167260D01*
Y-166974D01*
X861029D01*
Y-166688D01*
Y-166401D01*
X860743D01*
Y-166115D01*
Y-165829D01*
X860457D01*
Y-165542D01*
Y-165256D01*
X860170D01*
Y-164970D01*
Y-164683D01*
X859884D01*
Y-164397D01*
X859598D01*
Y-164111D01*
Y-163824D01*
X859311D01*
Y-163538D01*
Y-163252D01*
X859025D01*
Y-162966D01*
Y-162679D01*
X858739D01*
Y-162393D01*
Y-162107D01*
X858453D01*
Y-161820D01*
Y-161534D01*
X858166D01*
Y-161248D01*
Y-160961D01*
X857880D01*
Y-160675D01*
Y-160389D01*
X857594D01*
Y-160102D01*
X857307D01*
Y-159816D01*
Y-159530D01*
X857021D01*
Y-159244D01*
Y-158957D01*
X856735D01*
Y-158671D01*
Y-158385D01*
X856448D01*
Y-158098D01*
Y-157812D01*
X856162D01*
Y-157526D01*
Y-157239D01*
X855876D01*
Y-156953D01*
Y-156667D01*
X855589D01*
Y-156380D01*
X855303D01*
Y-156094D01*
Y-155808D01*
X855017D01*
Y-155521D01*
X870764D01*
Y-155808D01*
X871050D01*
Y-156094D01*
Y-156380D01*
Y-156667D01*
X871337D01*
Y-156953D01*
Y-157239D01*
Y-157526D01*
X871623D01*
Y-157812D01*
Y-158098D01*
Y-158385D01*
X871909D01*
Y-158671D01*
Y-158957D01*
Y-159244D01*
X872196D01*
Y-159530D01*
Y-159816D01*
Y-160102D01*
X872482D01*
Y-160389D01*
Y-160675D01*
Y-160961D01*
X872768D01*
Y-161248D01*
Y-161534D01*
Y-161820D01*
X873055D01*
Y-162107D01*
Y-162393D01*
Y-162679D01*
X873341D01*
Y-162966D01*
Y-163252D01*
Y-163538D01*
Y-163824D01*
X873913D01*
Y-163538D01*
X874200D01*
Y-163252D01*
X874486D01*
Y-162966D01*
Y-162679D01*
X874772D01*
Y-162393D01*
X875059D01*
Y-162107D01*
Y-161820D01*
X875345D01*
Y-161534D01*
X875631D01*
Y-161248D01*
Y-160961D01*
X875918D01*
Y-160675D01*
X876204D01*
Y-160389D01*
Y-160102D01*
X876490D01*
Y-159816D01*
X876777D01*
Y-159530D01*
Y-159244D01*
X877063D01*
Y-158957D01*
X877349D01*
Y-158671D01*
Y-158385D01*
X877635D01*
Y-158098D01*
X877922D01*
Y-157812D01*
Y-157526D01*
X878208D01*
Y-157239D01*
X878494D01*
Y-156953D01*
Y-156667D01*
X878781D01*
Y-156380D01*
X879067D01*
Y-156094D01*
Y-155808D01*
X879353D01*
Y-155521D01*
X895101D01*
Y-155808D01*
D02*
G37*
G36*
X851008D02*
Y-156094D01*
Y-156380D01*
Y-156667D01*
Y-156953D01*
Y-157239D01*
Y-157526D01*
Y-157812D01*
Y-158098D01*
Y-158385D01*
Y-158671D01*
Y-158957D01*
Y-159244D01*
Y-159530D01*
Y-159816D01*
Y-160102D01*
Y-160389D01*
Y-160675D01*
Y-160961D01*
Y-161248D01*
Y-161534D01*
X850722D01*
Y-161820D01*
Y-162107D01*
Y-162393D01*
Y-162679D01*
Y-162966D01*
X850436D01*
Y-163252D01*
Y-163538D01*
Y-163824D01*
Y-164111D01*
X850150D01*
Y-164397D01*
Y-164683D01*
Y-164970D01*
Y-165256D01*
X849863D01*
Y-165542D01*
Y-165829D01*
Y-166115D01*
X849577D01*
Y-166401D01*
Y-166688D01*
Y-166974D01*
X849290D01*
Y-167260D01*
Y-167547D01*
Y-167833D01*
X849004D01*
Y-168119D01*
Y-168405D01*
Y-168692D01*
X848718D01*
Y-168978D01*
Y-169264D01*
X848432D01*
Y-169551D01*
Y-169837D01*
X848145D01*
Y-170123D01*
Y-170410D01*
Y-170696D01*
X847859D01*
Y-170982D01*
Y-171269D01*
X847573D01*
Y-171555D01*
Y-171841D01*
Y-172127D01*
X847286D01*
Y-172414D01*
Y-172700D01*
X847000D01*
Y-172986D01*
Y-173273D01*
Y-173559D01*
X846714D01*
Y-173845D01*
Y-174132D01*
X846427D01*
Y-174418D01*
Y-174704D01*
Y-174991D01*
X846141D01*
Y-175277D01*
Y-175563D01*
X845855D01*
Y-175850D01*
Y-176136D01*
Y-176422D01*
X845568D01*
Y-176709D01*
Y-176995D01*
X845282D01*
Y-177281D01*
Y-177568D01*
Y-177854D01*
X844996D01*
Y-178140D01*
Y-178426D01*
X844709D01*
Y-178713D01*
Y-178999D01*
Y-179285D01*
X844423D01*
Y-179572D01*
Y-179858D01*
X844137D01*
Y-180144D01*
Y-180431D01*
Y-180717D01*
X843851D01*
Y-181003D01*
Y-181290D01*
X843564D01*
Y-181576D01*
Y-181862D01*
Y-182149D01*
X843278D01*
Y-182435D01*
Y-182721D01*
X842992D01*
Y-183007D01*
Y-183294D01*
Y-183580D01*
X842705D01*
Y-183866D01*
Y-184153D01*
X842419D01*
Y-184439D01*
Y-184725D01*
Y-185012D01*
X842133D01*
Y-185298D01*
Y-185584D01*
X841846D01*
Y-185871D01*
Y-186157D01*
Y-186443D01*
X841560D01*
Y-186730D01*
Y-187016D01*
X841274D01*
Y-187302D01*
Y-187588D01*
Y-187875D01*
X840987D01*
Y-188161D01*
Y-188447D01*
X840701D01*
Y-188734D01*
Y-189020D01*
Y-189306D01*
X840415D01*
Y-189593D01*
Y-189879D01*
X840129D01*
Y-190165D01*
Y-190452D01*
Y-190738D01*
X839842D01*
Y-191024D01*
Y-191311D01*
X839556D01*
Y-191597D01*
Y-191883D01*
Y-192169D01*
X839270D01*
Y-192456D01*
Y-192742D01*
X838983D01*
Y-193028D01*
Y-193315D01*
X838697D01*
Y-193601D01*
Y-193887D01*
X838411D01*
Y-194174D01*
Y-194460D01*
Y-194746D01*
X838124D01*
Y-195033D01*
X837838D01*
Y-195319D01*
Y-195605D01*
Y-195891D01*
X837552D01*
Y-196178D01*
X837265D01*
Y-196464D01*
Y-196750D01*
X836979D01*
Y-197037D01*
Y-197323D01*
X836693D01*
Y-197609D01*
Y-197896D01*
X836407D01*
Y-198182D01*
Y-198468D01*
X836120D01*
Y-198755D01*
X835834D01*
Y-199041D01*
Y-199327D01*
X835548D01*
Y-199614D01*
Y-199900D01*
X835261D01*
Y-200186D01*
X834975D01*
Y-200472D01*
X834689D01*
Y-200759D01*
Y-201045D01*
X834402D01*
Y-201331D01*
X834116D01*
Y-201618D01*
Y-201904D01*
X833830D01*
Y-202190D01*
X833543D01*
Y-202477D01*
X833257D01*
Y-202763D01*
Y-203049D01*
X832971D01*
Y-203336D01*
X832684D01*
Y-203622D01*
X832398D01*
Y-203908D01*
X832112D01*
Y-204195D01*
X831826D01*
Y-204481D01*
Y-204767D01*
X831539D01*
Y-205053D01*
X831253D01*
Y-205340D01*
X830966D01*
Y-205626D01*
X830680D01*
Y-205912D01*
X830394D01*
Y-206199D01*
X830108D01*
Y-206485D01*
X829821D01*
Y-206771D01*
X829249D01*
Y-207058D01*
X828962D01*
Y-207344D01*
X828676D01*
Y-207630D01*
X828390D01*
Y-207917D01*
X828103D01*
Y-208203D01*
X827531D01*
Y-208489D01*
X827244D01*
Y-208776D01*
X826672D01*
Y-209062D01*
X826385D01*
Y-209348D01*
X825813D01*
Y-209634D01*
X825527D01*
Y-209921D01*
X824954D01*
Y-210207D01*
X824381D01*
Y-210493D01*
X823809D01*
Y-210780D01*
X823236D01*
Y-211066D01*
X822663D01*
Y-211352D01*
X821805D01*
Y-211639D01*
X821232D01*
Y-211925D01*
X820373D01*
Y-212211D01*
X819228D01*
Y-212498D01*
X818082D01*
Y-212784D01*
X816365D01*
Y-213070D01*
X814360D01*
Y-213357D01*
X814074D01*
Y-213070D01*
Y-212784D01*
Y-212498D01*
Y-212211D01*
Y-211925D01*
Y-211639D01*
Y-211352D01*
Y-211066D01*
Y-210780D01*
Y-210493D01*
Y-210207D01*
Y-209921D01*
Y-209634D01*
Y-209348D01*
Y-209062D01*
Y-208776D01*
Y-208489D01*
Y-208203D01*
Y-207917D01*
Y-207630D01*
Y-207344D01*
Y-207058D01*
Y-206771D01*
Y-206485D01*
Y-206199D01*
Y-205912D01*
Y-205626D01*
Y-205340D01*
Y-205053D01*
Y-204767D01*
Y-204481D01*
Y-204195D01*
Y-203908D01*
X814647D01*
Y-203622D01*
X815219D01*
Y-203336D01*
X815792D01*
Y-203049D01*
X816365D01*
Y-202763D01*
X816937D01*
Y-202477D01*
X817510D01*
Y-202190D01*
X817796D01*
Y-201904D01*
X818369D01*
Y-201618D01*
X818655D01*
Y-201331D01*
X819228D01*
Y-201045D01*
X819514D01*
Y-200759D01*
X819800D01*
Y-200472D01*
X820373D01*
Y-200186D01*
X820659D01*
Y-199900D01*
X820946D01*
Y-199614D01*
X821232D01*
Y-199327D01*
X821518D01*
Y-199041D01*
X821805D01*
Y-198755D01*
X822091D01*
Y-198468D01*
X822377D01*
Y-198182D01*
X822663D01*
Y-197896D01*
X822950D01*
Y-197609D01*
X823236D01*
Y-197323D01*
X823522D01*
Y-197037D01*
Y-196750D01*
X823809D01*
Y-196464D01*
X824095D01*
Y-196178D01*
X824381D01*
Y-195891D01*
Y-195605D01*
X824668D01*
Y-195319D01*
X824954D01*
Y-195033D01*
Y-194746D01*
X825240D01*
Y-194460D01*
Y-194174D01*
X825527D01*
Y-193887D01*
X825813D01*
Y-193601D01*
Y-193315D01*
X826099D01*
Y-193028D01*
Y-192742D01*
X826385D01*
Y-192456D01*
Y-192169D01*
X824668D01*
Y-191883D01*
X822663D01*
Y-191597D01*
X821518D01*
Y-191311D01*
X820946D01*
Y-191024D01*
X820087D01*
Y-190738D01*
X819514D01*
Y-190452D01*
X819228D01*
Y-190165D01*
X818655D01*
Y-189879D01*
X818369D01*
Y-189593D01*
X818082D01*
Y-189306D01*
X817796D01*
Y-189020D01*
X817510D01*
Y-188734D01*
X817223D01*
Y-188447D01*
Y-188161D01*
X816937D01*
Y-187875D01*
X816651D01*
Y-187588D01*
Y-187302D01*
X816365D01*
Y-187016D01*
Y-186730D01*
X816078D01*
Y-186443D01*
Y-186157D01*
X815792D01*
Y-185871D01*
Y-185584D01*
Y-185298D01*
X815506D01*
Y-185012D01*
Y-184725D01*
Y-184439D01*
Y-184153D01*
X815219D01*
Y-183866D01*
Y-183580D01*
Y-183294D01*
Y-183007D01*
Y-182721D01*
Y-182435D01*
Y-182149D01*
X814933D01*
Y-181862D01*
Y-181576D01*
Y-181290D01*
Y-181003D01*
Y-180717D01*
Y-180431D01*
Y-180144D01*
Y-179858D01*
Y-179572D01*
Y-179285D01*
Y-178999D01*
Y-178713D01*
Y-178426D01*
Y-178140D01*
Y-177854D01*
X814647D01*
Y-177568D01*
Y-177281D01*
Y-176995D01*
Y-176709D01*
Y-176422D01*
Y-176136D01*
Y-175850D01*
Y-175563D01*
Y-175277D01*
Y-174991D01*
Y-174704D01*
Y-174418D01*
Y-174132D01*
Y-173845D01*
Y-173559D01*
X814360D01*
Y-173273D01*
Y-172986D01*
Y-172700D01*
Y-172414D01*
Y-172127D01*
Y-171841D01*
Y-171555D01*
Y-171269D01*
Y-170982D01*
Y-170696D01*
Y-170410D01*
Y-170123D01*
Y-169837D01*
Y-169551D01*
Y-169264D01*
Y-168978D01*
X814074D01*
Y-168692D01*
Y-168405D01*
Y-168119D01*
Y-167833D01*
Y-167547D01*
Y-167260D01*
Y-166974D01*
Y-166688D01*
Y-166401D01*
Y-166115D01*
Y-165829D01*
Y-165542D01*
Y-165256D01*
Y-164970D01*
Y-164683D01*
Y-164397D01*
X813788D01*
Y-164111D01*
Y-163824D01*
Y-163538D01*
Y-163252D01*
Y-162966D01*
Y-162679D01*
Y-162393D01*
Y-162107D01*
Y-161820D01*
Y-161534D01*
Y-161248D01*
Y-160961D01*
Y-160675D01*
Y-160389D01*
X813501D01*
Y-160102D01*
Y-159816D01*
Y-159530D01*
Y-159244D01*
Y-158957D01*
Y-158671D01*
Y-158385D01*
Y-158098D01*
Y-157812D01*
Y-157526D01*
Y-157239D01*
Y-156953D01*
Y-156667D01*
Y-156380D01*
Y-156094D01*
Y-155808D01*
X813215D01*
Y-155521D01*
X826958D01*
Y-155808D01*
Y-156094D01*
Y-156380D01*
Y-156667D01*
Y-156953D01*
Y-157239D01*
Y-157526D01*
Y-157812D01*
Y-158098D01*
Y-158385D01*
Y-158671D01*
Y-158957D01*
Y-159244D01*
Y-159530D01*
X827244D01*
Y-159816D01*
Y-160102D01*
Y-160389D01*
Y-160675D01*
Y-160961D01*
Y-161248D01*
Y-161534D01*
Y-161820D01*
Y-162107D01*
Y-162393D01*
Y-162679D01*
Y-162966D01*
Y-163252D01*
Y-163538D01*
Y-163824D01*
Y-164111D01*
Y-164397D01*
Y-164683D01*
Y-164970D01*
Y-165256D01*
Y-165542D01*
Y-165829D01*
Y-166115D01*
Y-166401D01*
Y-166688D01*
Y-166974D01*
Y-167260D01*
Y-167547D01*
Y-167833D01*
Y-168119D01*
Y-168405D01*
Y-168692D01*
Y-168978D01*
Y-169264D01*
Y-169551D01*
Y-169837D01*
Y-170123D01*
Y-170410D01*
Y-170696D01*
Y-170982D01*
Y-171269D01*
X827531D01*
Y-171555D01*
X827244D01*
Y-171841D01*
Y-172127D01*
X827531D01*
Y-172414D01*
Y-172700D01*
Y-172986D01*
Y-173273D01*
Y-173559D01*
Y-173845D01*
Y-174132D01*
Y-174418D01*
Y-174704D01*
Y-174991D01*
Y-175277D01*
Y-175563D01*
Y-175850D01*
Y-176136D01*
Y-176422D01*
Y-176709D01*
Y-176995D01*
Y-177281D01*
Y-177568D01*
Y-177854D01*
Y-178140D01*
Y-178426D01*
Y-178713D01*
Y-178999D01*
Y-179285D01*
Y-179572D01*
X827817D01*
Y-179858D01*
Y-180144D01*
Y-180431D01*
X828103D01*
Y-180717D01*
X828390D01*
Y-181003D01*
X828676D01*
Y-181290D01*
X829535D01*
Y-181576D01*
X830394D01*
Y-181290D01*
X830680D01*
Y-181003D01*
Y-180717D01*
Y-180431D01*
X830966D01*
Y-180144D01*
Y-179858D01*
X831253D01*
Y-179572D01*
Y-179285D01*
Y-178999D01*
X831539D01*
Y-178713D01*
Y-178426D01*
Y-178140D01*
X831826D01*
Y-177854D01*
Y-177568D01*
Y-177281D01*
X832112D01*
Y-176995D01*
Y-176709D01*
Y-176422D01*
X832398D01*
Y-176136D01*
Y-175850D01*
X832684D01*
Y-175563D01*
Y-175277D01*
Y-174991D01*
X832971D01*
Y-174704D01*
Y-174418D01*
Y-174132D01*
X833257D01*
Y-173845D01*
Y-173559D01*
Y-173273D01*
X833543D01*
Y-172986D01*
Y-172700D01*
X833830D01*
Y-172414D01*
Y-172127D01*
Y-171841D01*
X834116D01*
Y-171555D01*
Y-171269D01*
Y-170982D01*
X834402D01*
Y-170696D01*
Y-170410D01*
Y-170123D01*
X834689D01*
Y-169837D01*
Y-169551D01*
X834975D01*
Y-169264D01*
Y-168978D01*
Y-168692D01*
X835261D01*
Y-168405D01*
Y-168119D01*
Y-167833D01*
X835548D01*
Y-167547D01*
Y-167260D01*
Y-166974D01*
X835834D01*
Y-166688D01*
Y-166401D01*
X836120D01*
Y-166115D01*
Y-165829D01*
Y-165542D01*
X836407D01*
Y-165256D01*
Y-164970D01*
Y-164683D01*
X836693D01*
Y-164397D01*
Y-164111D01*
Y-163824D01*
X836979D01*
Y-163538D01*
Y-163252D01*
Y-162966D01*
Y-162679D01*
X837265D01*
Y-162393D01*
Y-162107D01*
Y-161820D01*
Y-161534D01*
X837552D01*
Y-161248D01*
Y-160961D01*
Y-160675D01*
Y-160389D01*
Y-160102D01*
X837838D01*
Y-159816D01*
Y-159530D01*
Y-159244D01*
Y-158957D01*
Y-158671D01*
Y-158385D01*
X838124D01*
Y-158098D01*
Y-157812D01*
Y-157526D01*
Y-157239D01*
Y-156953D01*
Y-156667D01*
Y-156380D01*
Y-156094D01*
Y-155808D01*
Y-155521D01*
X851008D01*
Y-155808D01*
D02*
G37*
%LPC*%
G36*
X757670Y-152658D02*
X749654D01*
Y-152945D01*
Y-153231D01*
Y-153517D01*
Y-153804D01*
Y-154090D01*
X749367D01*
Y-154376D01*
Y-154663D01*
Y-154949D01*
Y-155235D01*
Y-155521D01*
Y-155808D01*
X749081D01*
Y-156094D01*
Y-156380D01*
Y-156667D01*
Y-156953D01*
Y-157239D01*
Y-157526D01*
X748795D01*
Y-157812D01*
Y-158098D01*
Y-158385D01*
Y-158671D01*
Y-158957D01*
Y-159244D01*
X748508D01*
Y-159530D01*
Y-159816D01*
Y-160102D01*
Y-160389D01*
Y-160675D01*
Y-160961D01*
Y-161248D01*
X748222D01*
Y-161534D01*
Y-161820D01*
Y-162107D01*
Y-162393D01*
Y-162679D01*
Y-162966D01*
X747936D01*
Y-163252D01*
Y-163538D01*
Y-163824D01*
X755094D01*
Y-163538D01*
X756239D01*
Y-163252D01*
X756812D01*
Y-162966D01*
X757098D01*
Y-162679D01*
X757384D01*
Y-162393D01*
X757670D01*
Y-162107D01*
X757957D01*
Y-161820D01*
Y-161534D01*
X758243D01*
Y-161248D01*
Y-160961D01*
X758529D01*
Y-160675D01*
Y-160389D01*
X758816D01*
Y-160102D01*
Y-159816D01*
Y-159530D01*
Y-159244D01*
X759102D01*
Y-158957D01*
Y-158671D01*
Y-158385D01*
Y-158098D01*
Y-157812D01*
X759388D01*
Y-157526D01*
Y-157239D01*
Y-156953D01*
Y-156667D01*
Y-156380D01*
Y-156094D01*
Y-155808D01*
Y-155521D01*
Y-155235D01*
Y-154949D01*
Y-154663D01*
X759102D01*
Y-154376D01*
Y-154090D01*
X758816D01*
Y-153804D01*
Y-153517D01*
X758529D01*
Y-153231D01*
X758243D01*
Y-152945D01*
X757670D01*
Y-152658D01*
D02*
G37*
%LPD*%
D11*
X1068511Y-229571D02*
Y-190201D01*
X911031Y-150831D02*
X1186622D01*
X911031Y-190201D02*
X1186622D01*
X714181Y-229571D02*
X1186622D01*
X714181Y-111461D02*
X1186622D01*
X714181Y-268941D02*
Y-111461D01*
X911031Y-268941D02*
Y-111461D01*
X-466922Y900350D02*
X1186622D01*
Y-268941D02*
Y900350D01*
X-466922Y-268941D02*
Y900350D01*
Y-268941D02*
X1186622D01*
X924809Y-255164D02*
X920874D01*
Y-258115D01*
X922842D01*
X920874D01*
Y-261067D01*
X926777Y-257131D02*
Y-261067D01*
Y-259099D01*
X927761Y-258115D01*
X928745Y-257131D01*
X929729D01*
X932681Y-261067D02*
X934649D01*
X933665D01*
Y-257131D01*
X932681D01*
X937601Y-256147D02*
X938585Y-255164D01*
X940552D01*
X941536Y-256147D01*
Y-257131D01*
X940552Y-258115D01*
X939568D01*
X940552D01*
X941536Y-259099D01*
Y-260083D01*
X940552Y-261067D01*
X938585D01*
X937601Y-260083D01*
X943504Y-255164D02*
Y-261067D01*
X946456D01*
X947440Y-260083D01*
Y-256147D01*
X946456Y-255164D01*
X943504D01*
X949408Y-262051D02*
X953343D01*
X959247Y-261067D02*
X955311D01*
X959247Y-257131D01*
Y-256147D01*
X958263Y-255164D01*
X956295D01*
X955311Y-256147D01*
X961215D02*
X962199Y-255164D01*
X964167D01*
X965151Y-256147D01*
Y-260083D01*
X964167Y-261067D01*
X962199D01*
X961215Y-260083D01*
Y-256147D01*
X971054Y-261067D02*
X967119D01*
X971054Y-257131D01*
Y-256147D01*
X970070Y-255164D01*
X968102D01*
X967119Y-256147D01*
X973022D02*
X974006Y-255164D01*
X975974D01*
X976958Y-256147D01*
Y-260083D01*
X975974Y-261067D01*
X974006D01*
X973022Y-260083D01*
Y-256147D01*
X978926Y-262051D02*
X982862D01*
X984829Y-256147D02*
X985813Y-255164D01*
X987781D01*
X988765Y-256147D01*
Y-260083D01*
X987781Y-261067D01*
X985813D01*
X984829Y-260083D01*
Y-256147D01*
X994669Y-261067D02*
X990733D01*
X994669Y-257131D01*
Y-256147D01*
X993685Y-255164D01*
X991717D01*
X990733Y-256147D01*
X996637Y-261067D02*
Y-260083D01*
X997620D01*
Y-261067D01*
X996637D01*
X1001556D02*
Y-255164D01*
X1004508D01*
X1005492Y-256147D01*
Y-258115D01*
X1004508Y-259099D01*
X1001556D01*
X1011396Y-257131D02*
X1008444D01*
X1007460Y-258115D01*
Y-260083D01*
X1008444Y-261067D01*
X1011396D01*
X1013363Y-255164D02*
Y-261067D01*
X1016315D01*
X1017299Y-260083D01*
Y-259099D01*
Y-258115D01*
X1016315Y-257131D01*
X1013363D01*
X1019267Y-255164D02*
Y-261067D01*
X1022219D01*
X1023203Y-260083D01*
Y-256147D01*
X1022219Y-255164D01*
X1019267D01*
X1026155Y-261067D02*
X1028122D01*
X1029106Y-260083D01*
Y-258115D01*
X1028122Y-257131D01*
X1026155D01*
X1025171Y-258115D01*
Y-260083D01*
X1026155Y-261067D01*
X1035010Y-257131D02*
X1032058D01*
X1031074Y-258115D01*
Y-260083D01*
X1032058Y-261067D01*
X1035010D01*
D12*
X735834Y-247293D02*
Y-263036D01*
X741082Y-257788D01*
X746330Y-263036D01*
Y-247293D01*
X751577Y-263036D02*
X756825D01*
X754201D01*
Y-252540D01*
X751577D01*
X764696Y-263036D02*
Y-252540D01*
X767320D01*
X769944Y-255164D01*
Y-263036D01*
Y-255164D01*
X772568Y-252540D01*
X775192Y-255164D01*
Y-263036D01*
X780439Y-247293D02*
Y-257788D01*
X785687Y-263036D01*
X790935Y-257788D01*
Y-247293D01*
X806678Y-249917D02*
X804054Y-247293D01*
X798806D01*
X796182Y-249917D01*
Y-260412D01*
X798806Y-263036D01*
X804054D01*
X806678Y-260412D01*
Y-255164D01*
X801430D01*
X1090165Y-210546D02*
X1092789Y-207923D01*
X1098036D01*
X1100660Y-210546D01*
Y-221042D01*
X1098036Y-223665D01*
X1092789D01*
X1090165Y-221042D01*
Y-210546D01*
X1116403Y-223665D02*
X1105908D01*
X1116403Y-213170D01*
Y-210546D01*
X1113779Y-207923D01*
X1108532D01*
X1105908Y-210546D01*
X926779Y-212186D02*
X929075Y-209890D01*
X933667D01*
X935963Y-212186D01*
Y-221370D01*
X933667Y-223665D01*
X929075D01*
X926779Y-221370D01*
Y-212186D01*
X940554Y-209890D02*
X949738D01*
Y-212186D01*
X940554Y-221370D01*
Y-223665D01*
X954329D02*
X963513Y-214482D01*
X968104Y-212186D02*
X970400Y-209890D01*
X974992D01*
X977288Y-212186D01*
Y-221370D01*
X974992Y-223665D01*
X970400D01*
X968104Y-221370D01*
Y-212186D01*
X981880Y-223665D02*
X986471D01*
X984175D01*
Y-209890D01*
X981880Y-212186D01*
X993359Y-223665D02*
X1002542Y-214482D01*
X1016317Y-223665D02*
X1007134D01*
X1016317Y-214482D01*
Y-212186D01*
X1014021Y-209890D01*
X1009430D01*
X1007134Y-212186D01*
X1020909D02*
X1023205Y-209890D01*
X1027796D01*
X1030092Y-212186D01*
Y-221370D01*
X1027796Y-223665D01*
X1023205D01*
X1020909Y-221370D01*
Y-212186D01*
X1043867Y-223665D02*
X1034684D01*
X1043867Y-214482D01*
Y-212186D01*
X1041572Y-209890D01*
X1036980D01*
X1034684Y-212186D01*
X1057642Y-223665D02*
X1048459D01*
X1057642Y-214482D01*
Y-212186D01*
X1055347Y-209890D01*
X1050755D01*
X1048459Y-212186D01*
X929270Y-132331D02*
X920874D01*
Y-138628D01*
X925072D01*
X920874D01*
Y-144925D01*
X933468Y-136529D02*
Y-144925D01*
Y-140727D01*
X935567Y-138628D01*
X937666Y-136529D01*
X939765D01*
X946062Y-144925D02*
X950261D01*
X948162D01*
Y-136529D01*
X946062D01*
X956558Y-134430D02*
X958657Y-132331D01*
X962855D01*
X964954Y-134430D01*
Y-136529D01*
X962855Y-138628D01*
X960756D01*
X962855D01*
X964954Y-140727D01*
Y-142826D01*
X962855Y-144925D01*
X958657D01*
X956558Y-142826D01*
X969152Y-132331D02*
Y-144925D01*
X975449D01*
X977548Y-142826D01*
Y-134430D01*
X975449Y-132331D01*
X969152D01*
X994341D02*
Y-144925D01*
X1000638D01*
X1002737Y-142826D01*
Y-140727D01*
X1000638Y-138628D01*
X994341D01*
X1000638D01*
X1002737Y-136529D01*
Y-134430D01*
X1000638Y-132331D01*
X994341D01*
X1009034Y-136529D02*
X1013232D01*
X1015331Y-138628D01*
Y-144925D01*
X1009034D01*
X1006935Y-142826D01*
X1009034Y-140727D01*
X1015331D01*
X1027926Y-132331D02*
Y-144925D01*
X1021629D01*
X1019530Y-142826D01*
Y-138628D01*
X1021629Y-136529D01*
X1027926D01*
X1036322Y-149124D02*
X1038421D01*
X1040520Y-147024D01*
Y-136529D01*
X1034223D01*
X1032124Y-138628D01*
Y-142826D01*
X1034223Y-144925D01*
X1040520D01*
X1051015D02*
X1046817D01*
X1044718Y-142826D01*
Y-138628D01*
X1046817Y-136529D01*
X1051015D01*
X1053115Y-138628D01*
Y-140727D01*
X1044718D01*
X1078303Y-144925D02*
X1069907D01*
X1078303Y-136529D01*
Y-134430D01*
X1076204Y-132331D01*
X1072006D01*
X1069907Y-134430D01*
X1082501D02*
X1084600Y-132331D01*
X1088799D01*
X1090898Y-134430D01*
Y-142826D01*
X1088799Y-144925D01*
X1084600D01*
X1082501Y-142826D01*
Y-134430D01*
X1103492Y-144925D02*
X1095096D01*
X1103492Y-136529D01*
Y-134430D01*
X1101393Y-132331D01*
X1097195D01*
X1095096Y-134430D01*
X1107690D02*
X1109789Y-132331D01*
X1113987D01*
X1116086Y-134430D01*
Y-142826D01*
X1113987Y-144925D01*
X1109789D01*
X1107690Y-142826D01*
Y-134430D01*
X932685Y-168552D02*
Y-182327D01*
X939572D01*
X941868Y-180031D01*
Y-170848D01*
X939572Y-168552D01*
X932685D01*
X946460Y-173144D02*
Y-182327D01*
Y-177735D01*
X948756Y-175439D01*
X951052Y-173144D01*
X953347D01*
X960235Y-182327D02*
X964827D01*
X962531D01*
Y-173144D01*
X960235D01*
X971714Y-182327D02*
X976306D01*
X974010D01*
Y-168552D01*
X971714D01*
X983193Y-182327D02*
X987785D01*
X985489D01*
Y-168552D01*
X983193D01*
X1017631Y-170848D02*
X1015335Y-168552D01*
X1010744D01*
X1008448Y-170848D01*
Y-180031D01*
X1010744Y-182327D01*
X1015335D01*
X1017631Y-180031D01*
Y-175439D01*
X1013039D01*
X1022223Y-173144D02*
Y-180031D01*
X1024519Y-182327D01*
X1031406D01*
Y-173144D01*
X1035998Y-182327D02*
X1040590D01*
X1038294D01*
Y-173144D01*
X1035998D01*
X1056660Y-168552D02*
Y-182327D01*
X1049773D01*
X1047477Y-180031D01*
Y-175439D01*
X1049773Y-173144D01*
X1056660D01*
X1068140Y-182327D02*
X1063548D01*
X1061252Y-180031D01*
Y-175439D01*
X1063548Y-173144D01*
X1068140D01*
X1070436Y-175439D01*
Y-177735D01*
X1061252D01*
D13*
X125591Y476050D02*
Y478149D01*
X126640Y479198D01*
X127690Y478149D01*
Y476050D01*
Y477624D01*
X125591D01*
X130838Y479198D02*
Y476050D01*
X129264D01*
X128739Y476574D01*
Y477624D01*
X129264Y478149D01*
X130838D01*
X133987Y479198D02*
Y476050D01*
X132413D01*
X131888Y476574D01*
Y477624D01*
X132413Y478149D01*
X133987D01*
X138185Y476050D02*
Y478149D01*
X138710D01*
X139234Y477624D01*
Y476050D01*
Y477624D01*
X139759Y478149D01*
X140284Y477624D01*
Y476050D01*
X141333D02*
X142383D01*
X141858D01*
Y478149D01*
X141333D01*
X143957Y476050D02*
X145007D01*
X144482D01*
Y479198D01*
X143957D01*
X146581Y476050D02*
X147631D01*
X147106D01*
Y479198D01*
X146581D01*
X149205Y476050D02*
X150254D01*
X149730D01*
Y478149D01*
X149205D01*
X151829Y476050D02*
Y478149D01*
X153403D01*
X153928Y477624D01*
Y476050D01*
X156027Y475000D02*
X156552D01*
X157077Y475525D01*
Y478149D01*
X155502D01*
X154977Y477624D01*
Y476574D01*
X155502Y476050D01*
X157077D01*
X161799Y478149D02*
X162849D01*
X163374Y477624D01*
Y476050D01*
X161799D01*
X161275Y476574D01*
X161799Y477099D01*
X163374D01*
X164423Y476050D02*
Y478149D01*
X165998D01*
X166522Y477624D01*
Y476050D01*
X169671Y479198D02*
Y476050D01*
X168096D01*
X167572Y476574D01*
Y477624D01*
X168096Y478149D01*
X169671D01*
X173869Y476050D02*
Y478149D01*
X174394D01*
X174918Y477624D01*
Y476050D01*
Y477624D01*
X175443Y478149D01*
X175968Y477624D01*
Y476050D01*
X177542D02*
X178592D01*
X179117Y476574D01*
Y477624D01*
X178592Y478149D01*
X177542D01*
X177017Y477624D01*
Y476574D01*
X177542Y476050D01*
X180166Y478149D02*
Y476574D01*
X180691Y476050D01*
X182265D01*
Y478149D01*
X183315Y476050D02*
X184889D01*
X185414Y476574D01*
X184889Y477099D01*
X183839D01*
X183315Y477624D01*
X183839Y478149D01*
X185414D01*
X188038Y476050D02*
X186988D01*
X186463Y476574D01*
Y477624D01*
X186988Y478149D01*
X188038D01*
X188562Y477624D01*
Y477099D01*
X186463D01*
X189612Y479198D02*
Y476050D01*
X191186D01*
X191711Y476574D01*
Y477099D01*
Y477624D01*
X191186Y478149D01*
X189612D01*
X192761Y476050D02*
X193810D01*
X193285D01*
Y478149D01*
X192761D01*
X195909Y478673D02*
Y478149D01*
X195384D01*
X196434D01*
X195909D01*
Y476574D01*
X196434Y476050D01*
X199582D02*
X198533D01*
X198008Y476574D01*
Y477624D01*
X198533Y478149D01*
X199582D01*
X200107Y477624D01*
Y477099D01*
X198008D01*
X201157Y476050D02*
X202731D01*
X203256Y476574D01*
X202731Y477099D01*
X201681D01*
X201157Y477624D01*
X201681Y478149D01*
X203256D01*
X-164764Y474081D02*
Y476180D01*
X-163714Y477230D01*
X-162665Y476180D01*
Y474081D01*
Y475655D01*
X-164764D01*
X-159516Y477230D02*
Y474081D01*
X-161090D01*
X-161615Y474606D01*
Y475655D01*
X-161090Y476180D01*
X-159516D01*
X-156368Y477230D02*
Y474081D01*
X-157942D01*
X-158467Y474606D01*
Y475655D01*
X-157942Y476180D01*
X-156368D01*
X-152169Y474081D02*
Y476180D01*
X-151645D01*
X-151120Y475655D01*
Y474081D01*
Y475655D01*
X-150595Y476180D01*
X-150070Y475655D01*
Y474081D01*
X-149021D02*
X-147971D01*
X-148496D01*
Y476180D01*
X-149021D01*
X-146397Y474081D02*
X-145347D01*
X-145872D01*
Y477230D01*
X-146397D01*
X-143773Y474081D02*
X-142724D01*
X-143248D01*
Y477230D01*
X-143773D01*
X-141149Y474081D02*
X-140100D01*
X-140625D01*
Y476180D01*
X-141149D01*
X-138525Y474081D02*
Y476180D01*
X-136951D01*
X-136426Y475655D01*
Y474081D01*
X-134327Y473032D02*
X-133803D01*
X-133278Y473556D01*
Y476180D01*
X-134852D01*
X-135377Y475655D01*
Y474606D01*
X-134852Y474081D01*
X-133278D01*
X-128555Y476180D02*
X-127505D01*
X-126981Y475655D01*
Y474081D01*
X-128555D01*
X-129080Y474606D01*
X-128555Y475131D01*
X-126981D01*
X-125931Y474081D02*
Y476180D01*
X-124357D01*
X-123832Y475655D01*
Y474081D01*
X-120684Y477230D02*
Y474081D01*
X-122258D01*
X-122783Y474606D01*
Y475655D01*
X-122258Y476180D01*
X-120684D01*
X-116485Y474081D02*
Y476180D01*
X-115961D01*
X-115436Y475655D01*
Y474081D01*
Y475655D01*
X-114911Y476180D01*
X-114386Y475655D01*
Y474081D01*
X-112812D02*
X-111762D01*
X-111238Y474606D01*
Y475655D01*
X-111762Y476180D01*
X-112812D01*
X-113337Y475655D01*
Y474606D01*
X-112812Y474081D01*
X-110188Y476180D02*
Y474606D01*
X-109663Y474081D01*
X-108089D01*
Y476180D01*
X-107040Y474081D02*
X-105465D01*
X-104941Y474606D01*
X-105465Y475131D01*
X-106515D01*
X-107040Y475655D01*
X-106515Y476180D01*
X-104941D01*
X-102317Y474081D02*
X-103366D01*
X-103891Y474606D01*
Y475655D01*
X-103366Y476180D01*
X-102317D01*
X-101792Y475655D01*
Y475131D01*
X-103891D01*
X-100742Y477230D02*
Y474081D01*
X-99168D01*
X-98643Y474606D01*
Y475131D01*
Y475655D01*
X-99168Y476180D01*
X-100742D01*
X-97594Y474081D02*
X-96544D01*
X-97069D01*
Y476180D01*
X-97594D01*
X-94445Y476705D02*
Y476180D01*
X-94970D01*
X-93920D01*
X-94445D01*
Y474606D01*
X-93920Y474081D01*
X-90772D02*
X-91821D01*
X-92346Y474606D01*
Y475655D01*
X-91821Y476180D01*
X-90772D01*
X-90247Y475655D01*
Y475131D01*
X-92346D01*
X-89198Y474081D02*
X-87623D01*
X-87098Y474606D01*
X-87623Y475131D01*
X-88673D01*
X-89198Y475655D01*
X-88673Y476180D01*
X-87098D01*
D14*
X146071Y461031D02*
G03*
X149606Y469567I-8535J8535D01*
G01*
X-149606D02*
G03*
X-146071Y461031I12071J0D01*
G01*
X149606Y469567D02*
Y472441D01*
X143701Y458661D02*
X146071Y461031D01*
X143701Y458661D02*
Y460630D01*
Y458661D02*
X145669D01*
X-145669D02*
X-143701D01*
Y460630D01*
X-146071Y461031D02*
X-143701Y458661D01*
X-149606Y469567D02*
Y472441D01*
X1072449Y-202012D02*
Y-194141D01*
X1076384D01*
X1077696Y-195452D01*
Y-198076D01*
X1076384Y-199388D01*
X1072449D01*
X1075072D02*
X1077696Y-202012D01*
X1084256D02*
X1081632D01*
X1080320Y-200700D01*
Y-198076D01*
X1081632Y-196764D01*
X1084256D01*
X1085568Y-198076D01*
Y-199388D01*
X1080320D01*
X1088192Y-196764D02*
X1090815Y-202012D01*
X1093439Y-196764D01*
X718118Y-233511D02*
Y-241382D01*
X722053D01*
X723365Y-240070D01*
Y-234823D01*
X722053Y-233511D01*
X718118D01*
X729925Y-241382D02*
X727301D01*
X725989Y-240070D01*
Y-237446D01*
X727301Y-236134D01*
X729925D01*
X731237Y-237446D01*
Y-238758D01*
X725989D01*
X733861Y-241382D02*
X737796D01*
X739108Y-240070D01*
X737796Y-238758D01*
X735173D01*
X733861Y-237446D01*
X735173Y-236134D01*
X739108D01*
X744356Y-244006D02*
X745668D01*
X746980Y-242694D01*
Y-236134D01*
X743044D01*
X741732Y-237446D01*
Y-240070D01*
X743044Y-241382D01*
X746980D01*
X749604D02*
X752227D01*
X750916D01*
Y-236134D01*
X749604D01*
X756163Y-241382D02*
Y-236134D01*
X760099D01*
X761411Y-237446D01*
Y-241382D01*
X767971D02*
X765347D01*
X764035Y-240070D01*
Y-237446D01*
X765347Y-236134D01*
X767971D01*
X769282Y-237446D01*
Y-238758D01*
X764035D01*
X771906Y-236134D02*
Y-241382D01*
Y-238758D01*
X773218Y-237446D01*
X774530Y-236134D01*
X775842D01*
X914968Y-115400D02*
Y-123272D01*
X918904D01*
X920216Y-121960D01*
Y-116712D01*
X918904Y-115400D01*
X914968D01*
X924152Y-123272D02*
X926775D01*
X928087Y-121960D01*
Y-119336D01*
X926775Y-118024D01*
X924152D01*
X922840Y-119336D01*
Y-121960D01*
X924152Y-123272D01*
X935959Y-118024D02*
X932023D01*
X930711Y-119336D01*
Y-121960D01*
X932023Y-123272D01*
X935959D01*
X938583Y-118024D02*
Y-121960D01*
X939894Y-123272D01*
X943830D01*
Y-118024D01*
X946454Y-123272D02*
Y-118024D01*
X947766D01*
X949078Y-119336D01*
Y-123272D01*
Y-119336D01*
X950390Y-118024D01*
X951702Y-119336D01*
Y-123272D01*
X958261D02*
X955637D01*
X954326Y-121960D01*
Y-119336D01*
X955637Y-118024D01*
X958261D01*
X959573Y-119336D01*
Y-120648D01*
X954326D01*
X962197Y-123272D02*
Y-118024D01*
X966133D01*
X967445Y-119336D01*
Y-123272D01*
X971381Y-116712D02*
Y-118024D01*
X970068D01*
X972692D01*
X971381D01*
Y-121960D01*
X972692Y-123272D01*
X914968Y-154770D02*
Y-162642D01*
X920216D01*
X924152Y-157394D02*
X926775D01*
X928087Y-158706D01*
Y-162642D01*
X924152D01*
X922840Y-161330D01*
X924152Y-160018D01*
X928087D01*
X930711Y-157394D02*
Y-161330D01*
X932023Y-162642D01*
X935959D01*
Y-163954D01*
X934647Y-165266D01*
X933335D01*
X935959Y-162642D02*
Y-157394D01*
X942518Y-162642D02*
X939894D01*
X938583Y-161330D01*
Y-158706D01*
X939894Y-157394D01*
X942518D01*
X943830Y-158706D01*
Y-160018D01*
X938583D01*
X946454Y-157394D02*
Y-162642D01*
Y-160018D01*
X947766Y-158706D01*
X949078Y-157394D01*
X950390D01*
X962197Y-162642D02*
Y-154770D01*
X967445Y-162642D01*
Y-154770D01*
X971381Y-157394D02*
X974004D01*
X975316Y-158706D01*
Y-162642D01*
X971381D01*
X970068Y-161330D01*
X971381Y-160018D01*
X975316D01*
X977940Y-162642D02*
Y-157394D01*
X979252D01*
X980564Y-158706D01*
Y-162642D01*
Y-158706D01*
X981876Y-157394D01*
X983188Y-158706D01*
Y-162642D01*
X989747D02*
X987123D01*
X985812Y-161330D01*
Y-158706D01*
X987123Y-157394D01*
X989747D01*
X991059Y-158706D01*
Y-160018D01*
X985812D01*
X914968Y-194141D02*
Y-202012D01*
X918904D01*
X920216Y-200700D01*
Y-195452D01*
X918904Y-194141D01*
X914968D01*
X924152Y-196764D02*
X926775D01*
X928087Y-198076D01*
Y-202012D01*
X924152D01*
X922840Y-200700D01*
X924152Y-199388D01*
X928087D01*
X932023Y-195452D02*
Y-196764D01*
X930711D01*
X933335D01*
X932023D01*
Y-200700D01*
X933335Y-202012D01*
X941206D02*
X938583D01*
X937271Y-200700D01*
Y-198076D01*
X938583Y-196764D01*
X941206D01*
X942518Y-198076D01*
Y-199388D01*
X937271D01*
X914968Y-233511D02*
Y-241382D01*
X918904D01*
X920216Y-240070D01*
Y-234823D01*
X918904Y-233511D01*
X914968D01*
X924152Y-241382D02*
X926775D01*
X928087Y-240070D01*
Y-237446D01*
X926775Y-236134D01*
X924152D01*
X922840Y-237446D01*
Y-240070D01*
X924152Y-241382D01*
X935959Y-236134D02*
X932023D01*
X930711Y-237446D01*
Y-240070D01*
X932023Y-241382D01*
X935959D01*
X938583Y-236134D02*
Y-240070D01*
X939894Y-241382D01*
X943830D01*
Y-236134D01*
X946454Y-241382D02*
Y-236134D01*
X947766D01*
X949078Y-237446D01*
Y-241382D01*
Y-237446D01*
X950390Y-236134D01*
X951702Y-237446D01*
Y-241382D01*
X958261D02*
X955637D01*
X954326Y-240070D01*
Y-237446D01*
X955637Y-236134D01*
X958261D01*
X959573Y-237446D01*
Y-238758D01*
X954326D01*
X962197Y-241382D02*
Y-236134D01*
X966133D01*
X967445Y-237446D01*
Y-241382D01*
X971381Y-234823D02*
Y-236134D01*
X970068D01*
X972692D01*
X971381D01*
Y-240070D01*
X972692Y-241382D01*
D15*
X-145307Y372086D02*
G03*
X-136279Y382072I-45277J50006D01*
G01*
X-101503Y381685D02*
G03*
X-96053Y389277I-102090J79037D01*
G01*
X-108079Y373736D02*
G03*
X-101503Y381685I-119102J105229D01*
G01*
X-134596Y390056D02*
G03*
X-139237Y396767I-10116J-2037D01*
G01*
X-129908Y352230D02*
G03*
X-139932Y342750I336569J-365939D01*
G01*
X-124904Y356781D02*
G03*
X-108079Y373736I-145206J160912D01*
G01*
X-96053Y389277D02*
G03*
X-91659Y396504I-87508J58149D01*
G01*
X-136279Y382072D02*
G03*
X-134596Y390056I-8433J5947D01*
G01*
X-149932Y371906D02*
G03*
X-159779Y374419I-7980J-10716D01*
G01*
X-171320Y362406D02*
G03*
X-170154Y355461I13308J-1334D01*
G01*
X-149932Y371906D02*
G03*
X-145307Y372086I2204J2860D01*
G01*
X-171112Y351294D02*
G03*
X-170154Y355461I-2273J2716D01*
G01*
X-171112Y351294D02*
G03*
X-180473Y343439I281921J-345448D01*
G01*
X-149692Y332928D02*
G03*
X-154365Y327951I234771J-225079D01*
G01*
X-199223Y328836D02*
G03*
X-219439Y323307I-5878J-18228D01*
G01*
X-159779Y374419D02*
G03*
X-171320Y362406I1941J-13416D01*
G01*
X-187934Y336828D02*
G03*
X-195598Y329642I230321J-253296D01*
G01*
X-180473Y343439D02*
G03*
X-187934Y336828I251518J-291404D01*
G01*
X-199223Y328836D02*
G03*
X-195598Y329642I1148J3395D01*
G01*
X101523Y381621D02*
G03*
X108117Y373688I124909J97116D01*
G01*
X85730Y409753D02*
G03*
X88236Y403270I67067J22200D01*
G01*
X88236D02*
G03*
X91655Y396418I78194J34735D01*
G01*
X108117Y373688D02*
G03*
X115913Y365406I145513J129171D01*
G01*
X82971Y426919D02*
G03*
X84066Y415858I47233J-910D01*
G01*
X91655Y396418D02*
G03*
X96060Y389199I91421J50837D01*
G01*
X84066Y415858D02*
G03*
X85730Y409753I57839J12488D01*
G01*
X96060Y389199D02*
G03*
X101523Y381621I106934J71330D01*
G01*
X-154365Y327951D02*
G03*
X-158842Y322961I205129J-188578D01*
G01*
Y322961D02*
G03*
X-163080Y317985I176676J-154768D01*
G01*
X-144867Y337870D02*
G03*
X-149692Y332928I265080J-263683D01*
G01*
X71926Y339213D02*
G03*
X-71776Y339213I-71851J-123510D01*
G01*
X-170668Y308170D02*
G03*
X-179188Y294355I97739J-69812D01*
G01*
X-189632Y224459D02*
G03*
X-185026Y213234I51351J14514D01*
G01*
X-163080Y317985D02*
G03*
X-170668Y308170I134931J-112142D01*
G01*
X-185026Y213234D02*
G03*
X-157140Y192572I35962J19387D01*
G01*
X-179188Y294355D02*
G03*
X-189909Y265310I102916J-54492D01*
G01*
X-192036Y250913D02*
G03*
X-191956Y237158I84728J-6385D01*
G01*
X-71776Y339213D02*
G03*
X-142807Y214295I71851J-123510D01*
G01*
X-189909Y265310D02*
G03*
X-192036Y250913I98498J-21904D01*
G01*
X-191956Y237158D02*
G03*
X-189632Y224459I67802J5847D01*
G01*
X-119751Y64712D02*
G03*
X-121159Y55865I28601J-9086D01*
G01*
X-114390Y82017D02*
G03*
X-114956Y85110I-3236J1006D01*
G01*
X-141991Y192340D02*
G03*
X-141418Y194378I-1997J1661D01*
G01*
X-157140Y192572D02*
G03*
X-143890Y191406I11355J53134D01*
G01*
X-121159Y55865D02*
G03*
X-120826Y51811I24229J-52D01*
G01*
X-120826D02*
G03*
X-119848Y48071I21308J3573D01*
G01*
Y48071D02*
G03*
X-106488Y35807I18390J6625D01*
G01*
Y35807D02*
G03*
X-102362Y34989I6927J24124D01*
G01*
X-114956Y85110D02*
G03*
X-117821Y86406I-2670J-2087D01*
G01*
X-143890Y191406D02*
G03*
X-141991Y192340I-97J2595D01*
G01*
X-142807Y214295D02*
G03*
X-141418Y194378I144917J99D01*
G01*
X-195404Y106420D02*
G03*
X-126022Y86156I68283J104883D01*
G01*
X-126022D02*
G03*
X-117821Y86406I-160J139713D01*
G01*
X-236654Y117731D02*
G03*
X-198584Y106781I26843J21672D01*
G01*
X-195404Y106420D02*
G03*
X-198584Y106781I-1957J-3051D01*
G01*
X158930Y322935D02*
G03*
X154439Y327921I-215865J-189953D01*
G01*
X163186Y317965D02*
G03*
X158930Y322935I-185585J-154614D01*
G01*
X154439Y327921D02*
G03*
X149756Y332897I-247741J-228454D01*
G01*
D02*
G03*
X144924Y337840I-280818J-269675D01*
G01*
X167163Y313035D02*
G03*
X163186Y317965I-157243J-122781D01*
G01*
X141568Y194378D02*
G03*
X142957Y214295I-143527J20016D01*
G01*
X141568Y194378D02*
G03*
X142141Y192340I2570J-377D01*
G01*
X158155Y90111D02*
G03*
X195415Y106462I-29923J118819D01*
G01*
X117832Y86448D02*
G03*
X158155Y90111I8347J131884D01*
G01*
X157290Y192572D02*
G03*
X178250Y203900I-8160J40155D01*
G01*
X142141Y192340D02*
G03*
X144040Y191406I1997J1661D01*
G01*
X185176Y213234D02*
G03*
X189782Y224459I-46745J25739D01*
G01*
X178250Y203900D02*
G03*
X185176Y213234I-31051J30276D01*
G01*
X144040Y191406D02*
G03*
X157290Y192572I1895J54300D01*
G01*
X192186Y250913D02*
G03*
X190060Y265310I-100625J-7508D01*
G01*
X198596Y106823D02*
G03*
X195415Y106462I-1223J-3412D01*
G01*
X198596Y106823D02*
G03*
X236645Y117789I11195J32648D01*
G01*
X250276Y208031D02*
G03*
X265262Y232586I-12791J24657D01*
G01*
X189782Y224459D02*
G03*
X192106Y237158I-65478J18546D01*
G01*
X236645Y117789D02*
G03*
X239346Y157295I-26854J21681D01*
G01*
X239040Y160406D02*
G03*
X239346Y157295I3300J-1246D01*
G01*
X243096Y261420D02*
G03*
X245373Y259170I3304J1067D01*
G01*
X250276Y208031D02*
G03*
X248429Y205142I1674J-3105D01*
G01*
X265262Y232586D02*
G03*
X245373Y259170I-27778J-51D01*
G01*
X243096Y261420D02*
G03*
X238393Y273121I-104423J-35170D01*
G01*
X192106Y237158D02*
G03*
X192186Y250913I-84648J7371D01*
G01*
X239040Y160406D02*
G03*
X248429Y205142I-141191J52985D01*
G01*
X117832Y86448D02*
G03*
X114968Y85151I-194J-3383D01*
G01*
X102374Y35031D02*
G03*
X110186Y37278I-2483J23338D01*
G01*
X116106Y41771D02*
G03*
X120837Y51853I-15043J13210D01*
G01*
X120823Y60223D02*
G03*
X119762Y64753I-31999J-5102D01*
G01*
X114968Y85151D02*
G03*
X114401Y82059I2670J-2087D01*
G01*
X110186Y37278D02*
G03*
X116106Y41771I-8615J17499D01*
G01*
X120837Y51853D02*
G03*
X121170Y55906I-23896J4002D01*
G01*
X121170D02*
G03*
X120823Y60223I-27803J-62D01*
G01*
X136262Y381961D02*
G03*
X145290Y371975I54305J40020D01*
G01*
X134990Y347525D02*
G03*
X124985Y356781I-401517J-424008D01*
G01*
X139221Y396656D02*
G03*
X153683Y441073I-19611J30948D01*
G01*
X112759Y463597D02*
G03*
X82971Y427614I6851J-35993D01*
G01*
X139221Y396656D02*
G03*
X134579Y389945I5475J-8747D01*
G01*
X153683Y441073D02*
G03*
X112759Y463597I-34073J-13469D01*
G01*
X145290Y371975D02*
G03*
X149915Y371795I2421J2680D01*
G01*
X159762Y374308D02*
G03*
X149915Y371795I-1867J-13230D01*
G01*
X115913Y365406D02*
G03*
X124985Y356781I168900J168547D01*
G01*
X134579Y389945D02*
G03*
X136262Y381961I10116J-2037D01*
G01*
X142957Y214295D02*
G03*
X71926Y339213I-142882J1409D01*
G01*
X-153729Y441207D02*
G03*
X-139237Y396767I34089J-13466D01*
G01*
X-83189Y421690D02*
G03*
X-82987Y427031I-44263J4349D01*
G01*
X-88248Y403365D02*
G03*
X-85747Y409852I-64891J28738D01*
G01*
X-85747D02*
G03*
X-84085Y415962I-56460J18640D01*
G01*
D02*
G03*
X-83189Y421690I-49661J10702D01*
G01*
X-112778Y463745D02*
G03*
X-153729Y441207I-6862J-36005D01*
G01*
X-91659Y396504D02*
G03*
X-88248Y403365I-75172J41658D01*
G01*
X-82987Y427725D02*
G03*
X-112778Y463745I-36653J15D01*
G01*
X170137Y355350D02*
G03*
X171096Y351183I3231J-1450D01*
G01*
X195582Y329531D02*
G03*
X199207Y328725I2477J2589D01*
G01*
X190060Y265310D02*
G03*
X170818Y308170I-115448J-26080D01*
G01*
X171304Y362295D02*
G03*
X159762Y374308I-13496J-1414D01*
G01*
X195582Y329531D02*
G03*
X185401Y339004I-227047J-233791D01*
G01*
X170818Y308170D02*
G03*
X167163Y313035I-131126J-94693D01*
G01*
X219407Y323182D02*
G03*
X199207Y328725I-14347J-12709D01*
G01*
X238393Y273121D02*
G03*
X234526Y280713I-117680J-55159D01*
G01*
X170137Y355350D02*
G03*
X171304Y362295I-12142J5610D01*
G01*
X230159Y288120D02*
G03*
X225366Y295327I-144163J-90694D01*
G01*
Y295327D02*
G03*
X222832Y298850I-154127J-108168D01*
G01*
X222471Y302461D02*
G03*
X222832Y298850I3223J-1501D01*
G01*
X222471Y302461D02*
G03*
X219407Y323182I-17412J8013D01*
G01*
X234526Y280713D02*
G03*
X230159Y288120I-130308J-71835D01*
G01*
X-219439Y323307D02*
G03*
X-222487Y302572I14337J-12699D01*
G01*
X-222848Y298961D02*
G03*
X-230176Y288231I141611J-104571D01*
G01*
X-222848Y298961D02*
G03*
X-222487Y302572I-2862J2110D01*
G01*
X-234543Y280824D02*
G03*
X-238409Y273232I113813J-62751D01*
G01*
X-265051Y235324D02*
G03*
X-250292Y208072I27651J-2647D01*
G01*
X-241703Y265470D02*
G03*
X-243112Y261531I96701J-36803D01*
G01*
X-245390Y259281D02*
G03*
X-243112Y261531I-1026J3317D01*
G01*
X-245390Y259281D02*
G03*
X-265051Y235324I7990J-26604D01*
G01*
X-248445Y205184D02*
G03*
X-250292Y208072I-3521J-216D01*
G01*
X-248445Y205184D02*
G03*
X-239029Y160364I150580J8238D01*
G01*
X-239334Y157253D02*
G03*
X-239029Y160364I-2995J1865D01*
G01*
X-238409Y273232D02*
G03*
X-241703Y265470I103057J-48311D01*
G01*
X-230176Y288231D02*
G03*
X-234543Y280824I125942J-79242D01*
G01*
X-239334Y157253D02*
G03*
X-236654Y117731I29523J-17850D01*
G01*
X92458Y342D02*
G03*
X90520Y1969I-1939J-342D01*
G01*
X79480D02*
G03*
X77512Y0I0J-1969D01*
G01*
X92602Y179D02*
G03*
X102362Y11811I-2051J11632D01*
G01*
X-90520Y1969D02*
G03*
X-92458Y342I0J-1969D01*
G01*
X-77512Y0D02*
G03*
X-79480Y1969I-1969J0D01*
G01*
X52488Y0D02*
G03*
X50520Y1969I-1969J0D01*
G01*
X39480D02*
G03*
X37512Y0I0J-1969D01*
G01*
X7488D02*
G03*
X5520Y1969I-1969J0D01*
G01*
X-5520D02*
G03*
X-7488Y0I0J-1969D01*
G01*
X-37512D02*
G03*
X-39480Y1969I-1969J0D01*
G01*
X-50520D02*
G03*
X-52488Y0I0J-1969D01*
G01*
X-102362Y11811D02*
G03*
X-92602Y179I11811J0D01*
G01*
X-102362Y11811D02*
G03*
X-92602Y179I11811J0D01*
G01*
X-50520Y1969D02*
G03*
X-52488Y0I0J-1969D01*
G01*
X-37512D02*
G03*
X-39480Y1969I-1969J0D01*
G01*
X-5520D02*
G03*
X-7488Y0I0J-1969D01*
G01*
X7488D02*
G03*
X5520Y1969I-1969J0D01*
G01*
X39480D02*
G03*
X37512Y0I0J-1969D01*
G01*
X52488D02*
G03*
X50520Y1969I-1969J0D01*
G01*
X-77512Y0D02*
G03*
X-79480Y1969I-1969J0D01*
G01*
X-90520D02*
G03*
X-92458Y342I0J-1969D01*
G01*
X92602Y179D02*
G03*
X102362Y11811I-2051J11632D01*
G01*
X79480Y1969D02*
G03*
X77512Y0I0J-1969D01*
G01*
X92458Y342D02*
G03*
X90520Y1969I-1939J-342D01*
G01*
X191339Y430442D02*
Y466535D01*
X139753D02*
X191339D01*
X134475Y461257D02*
X139753Y466535D01*
X156227Y430442D02*
X191339D01*
X-191339D02*
X-156227D01*
X-139753Y466535D02*
X-134475Y461257D01*
X-191339Y466535D02*
X-139753D01*
X102362Y30315D02*
X102362Y11811D01*
X102374Y30315D02*
Y35031D01*
X102362Y30315D02*
X102374D01*
X-102362D02*
Y34989D01*
X-144867Y337870D02*
X-139932Y342750D01*
X-129908Y352230D02*
X-124904Y356781D01*
X82971Y426919D02*
Y427614D01*
X-119751Y64712D02*
X-114390Y82017D01*
X180457Y343340D02*
X185401Y339004D01*
X139988Y342724D02*
X144924Y337840D01*
X175673Y347401D02*
X180457Y343340D01*
X114401Y82059D02*
X119763Y64753D01*
X134990Y347525D02*
X139988Y342724D01*
X-82987Y427031D02*
Y427725D01*
X171096Y351183D02*
X175673Y347401D01*
X-102362Y11811D02*
X-102362Y30315D01*
X92458Y342D02*
X92602Y179D01*
X52488Y0D02*
X77512D01*
X79480Y1969D02*
X90520D01*
X-92602Y179D02*
X-92458Y342D01*
X7488Y0D02*
X37512D01*
X-37512D02*
X-7488D01*
X-77512D02*
X-52488D01*
X-90520Y1969D02*
X-79480D01*
X39480D02*
X50520D01*
X-5520D02*
X5520D01*
X-50520D02*
X-39480D01*
X102362Y11811D02*
Y30315D01*
X-102362Y11811D02*
Y30315D01*
X-50520Y1969D02*
X-39480D01*
X-5520D02*
X5520D01*
X39480D02*
X50520D01*
X-90520D02*
X-79480D01*
X-77512Y0D02*
X-52488D01*
X-37512D02*
X-7488D01*
X7488D02*
X37512D01*
X-92602Y179D02*
X-92458Y342D01*
X79480Y1969D02*
X90520D01*
X52488Y0D02*
X77512D01*
X92458Y342D02*
X92602Y179D01*
X-191339Y430442D02*
Y466535D01*
D190*
X171260Y454724D02*
X183071D01*
X177165Y448819D02*
Y460630D01*
X-183071Y454724D02*
X-171260D01*
X-177165Y448819D02*
Y460630D01*
X131307Y146661D02*
X136031D01*
X133669Y144299D02*
Y149023D01*
X-142315Y146661D02*
X-137591D01*
X-139953Y144299D02*
Y149023D01*
X-207364Y286604D02*
X-205002D01*
X-206183Y285423D02*
Y287785D01*
X-224372Y257145D02*
X-222010D01*
X-223191Y255964D02*
Y258326D01*
X-221616Y294832D02*
X-219254D01*
X-220435Y293651D02*
Y296013D01*
X-238624Y265374D02*
X-236262D01*
X-237443Y264193D02*
Y266555D01*
X-212087Y282772D02*
X-209527D01*
X-210807Y281493D02*
Y284052D01*
X-223464Y263065D02*
X-220905D01*
X-222185Y261786D02*
Y264345D01*
X234325Y145658D02*
X239049D01*
X236687Y143296D02*
Y148021D01*
X226165Y151162D02*
X230890D01*
X228527Y148800D02*
Y153524D01*
X204150Y118523D02*
X208874D01*
X206512Y116161D02*
Y120885D01*
X212310Y113019D02*
X217034D01*
X214672Y110657D02*
Y115381D01*
X215945Y134843D02*
X219094D01*
X217520Y133268D02*
Y136417D01*
X188618Y129531D02*
X191767D01*
X190192Y127956D02*
Y131105D01*
X194121Y137690D02*
X197271D01*
X195696Y136116D02*
Y139265D01*
X210633Y162170D02*
X213783D01*
X212208Y160595D02*
Y163745D01*
X205129Y154010D02*
X208279D01*
X206704Y152435D02*
Y155585D01*
X198838Y145850D02*
X203562D01*
X201200Y143488D02*
Y148212D01*
X68898Y209154D02*
X76772D01*
X72835Y205217D02*
Y213091D01*
X234205Y179263D02*
X237749D01*
X235977Y177491D02*
Y181035D01*
X236661Y190816D02*
X240204D01*
X238433Y189044D02*
Y192587D01*
X-240365Y189907D02*
X-236822D01*
X-238593Y188135D02*
Y191679D01*
X-237909Y178354D02*
X-234366D01*
X-236138Y176582D02*
Y180125D01*
X-52874Y27559D02*
X-37126D01*
X-45000Y19685D02*
Y35433D01*
X-7874Y27559D02*
X7874D01*
X0Y19685D02*
Y35433D01*
X37126Y27559D02*
X52874D01*
X45000Y19685D02*
Y35433D01*
X-92874Y27559D02*
X-77126D01*
X-85000Y19685D02*
Y35433D01*
X77126Y27559D02*
X92874D01*
X85000Y19685D02*
Y35433D01*
X8228Y100394D02*
X11772D01*
X10000Y98622D02*
Y102165D01*
X-11772Y100394D02*
X-8228D01*
X-10000Y98622D02*
Y102165D01*
X-1772Y100394D02*
X1772D01*
X0Y98622D02*
Y102165D01*
X-132874Y429134D02*
X-109252D01*
X-121063Y417323D02*
Y440945D01*
X109252Y429134D02*
X132874D01*
X121063Y417323D02*
Y440945D01*
X224606Y276890D02*
X228150D01*
X226378Y275118D02*
Y278661D01*
X214606Y276890D02*
X218150D01*
X216378Y275118D02*
Y278661D01*
X224606Y266890D02*
X228150D01*
X226378Y265118D02*
Y268661D01*
X214606Y266890D02*
X218150D01*
X216378Y265118D02*
Y268661D01*
X224606Y256890D02*
X228150D01*
X226378Y255118D02*
Y258661D01*
X214606Y256890D02*
X218150D01*
X216378Y255118D02*
Y258661D01*
X-100689Y59449D02*
X-99705D01*
X-100197Y58957D02*
Y59941D01*
X-54626Y282283D02*
X-53642D01*
X-54134Y281791D02*
Y282776D01*
X-43469Y300394D02*
X-42485D01*
X-42977Y299902D02*
Y300886D01*
X-95965Y79724D02*
X-94980D01*
X-95472Y79232D02*
Y80216D01*
X-123327Y163779D02*
X-122343D01*
X-122835Y163287D02*
Y164272D01*
X-61516Y64961D02*
X-60532D01*
X-61024Y64468D02*
Y65453D01*
X-67421Y70866D02*
X-66437D01*
X-66929Y70374D02*
Y71358D01*
X-233563Y185039D02*
X-232579D01*
X-233071Y184547D02*
Y185531D01*
X-198524Y190157D02*
X-197539D01*
X-198031Y189665D02*
Y190650D01*
X1476Y229331D02*
X2461D01*
X1969Y228839D02*
Y229823D01*
X-105807Y226378D02*
X-104823D01*
X-105315Y225886D02*
Y226870D01*
X-105807Y250000D02*
X-104823D01*
X-105315Y249508D02*
Y250492D01*
X-83169Y245079D02*
X-82185D01*
X-82677Y244587D02*
Y245571D01*
X-50689Y223425D02*
X-49705D01*
X-50197Y222933D02*
Y223917D01*
X-56791Y223031D02*
X-55807D01*
X-56299Y222539D02*
Y223524D01*
X55918Y46850D02*
X56902D01*
X56410Y46358D02*
Y47343D01*
X6201Y40945D02*
X7185D01*
X6693Y40453D02*
Y41437D01*
X-2451Y302945D02*
X-1467D01*
X-1959Y302453D02*
Y303437D01*
X-63484Y29528D02*
X-62500D01*
X-62992Y29035D02*
Y30020D01*
X-75295Y41339D02*
X-74311D01*
X-74803Y40846D02*
Y41831D01*
X-492Y248031D02*
X492D01*
X0Y247539D02*
Y248524D01*
X-68585Y218504D02*
X-67601D01*
X-68093Y218011D02*
Y218996D01*
X31791Y195669D02*
X32776D01*
X32283Y195177D02*
Y196161D01*
X182391Y169291D02*
X183375D01*
X182883Y168799D02*
Y169783D01*
X-227854Y227362D02*
X-226870D01*
X-227362Y226870D02*
Y227854D01*
X-224902Y227362D02*
X-223917D01*
X-224410Y226870D02*
Y227854D01*
X-221949Y227362D02*
X-220965D01*
X-221457Y226870D02*
Y227854D01*
X-221949Y224410D02*
X-220965D01*
X-221457Y223917D02*
Y224902D01*
X-221949Y221457D02*
X-220965D01*
X-221457Y220965D02*
Y221949D01*
X-224902Y221457D02*
X-223917D01*
X-224410Y220965D02*
Y221949D01*
X-227854Y221457D02*
X-226870D01*
X-227362Y220965D02*
Y221949D01*
X-227854Y224410D02*
X-226870D01*
X-227362Y223917D02*
Y224902D01*
X-224902Y224410D02*
X-223917D01*
X-224410Y223917D02*
Y224902D01*
X-218996Y142520D02*
X-218012D01*
X-218504Y142028D02*
Y143012D01*
X-117027Y269685D02*
X-116043D01*
X-116535Y269193D02*
Y270177D01*
X-97327Y277291D02*
X-96343D01*
X-96835Y276799D02*
Y277783D01*
X-76083Y310630D02*
X-75098D01*
X-75590Y310138D02*
Y311122D01*
X6754Y288423D02*
X7738D01*
X7246Y287931D02*
Y288915D01*
X3445Y285114D02*
X4429D01*
X3937Y284622D02*
Y285606D01*
X3445Y281965D02*
X4429D01*
X3937Y281472D02*
Y282457D01*
X136Y288423D02*
X1120D01*
X628Y287931D02*
Y288915D01*
X3445Y294882D02*
X4429D01*
X3937Y294390D02*
Y295374D01*
X3445Y291732D02*
X4429D01*
X3937Y291240D02*
Y292224D01*
X3445Y288423D02*
X4429D01*
X3937Y287931D02*
Y288915D01*
X29550Y100394D02*
X30534D01*
X30042Y99902D02*
Y100886D01*
X29550Y180118D02*
X30534D01*
X30042Y179626D02*
Y180610D01*
X-492Y139764D02*
X492D01*
X0Y139272D02*
Y140256D01*
X-92696Y266732D02*
X-91712D01*
X-92204Y266240D02*
Y267224D01*
X-18209Y214961D02*
X-17224D01*
X-17717Y214469D02*
Y215453D01*
X-210335Y187008D02*
X-209350D01*
X-209842Y186516D02*
Y187500D01*
X-44783Y87598D02*
X-43799D01*
X-44291Y87106D02*
Y88090D01*
X-25098Y81693D02*
X-24114D01*
X-24606Y81201D02*
Y82185D01*
X-89567Y291831D02*
X-88583D01*
X-89075Y291339D02*
Y292323D01*
X-94980Y297244D02*
X-93996D01*
X-94488Y296752D02*
Y297736D01*
X-121748Y262201D02*
X-120764D01*
X-121256Y261709D02*
Y262693D01*
X-208348Y265748D02*
X-207364D01*
X-207856Y265256D02*
Y266240D01*
X-205373Y270472D02*
X-204389D01*
X-204881Y269980D02*
Y270965D01*
X-201870Y208661D02*
X-200886D01*
X-201378Y208169D02*
Y209154D01*
X-215059Y239370D02*
X-214075D01*
X-214567Y238878D02*
Y239862D01*
X55384Y176575D02*
X56369D01*
X55877Y176083D02*
Y177067D01*
X52629Y176575D02*
X53613D01*
X53121Y176083D02*
Y177067D01*
X59350Y195669D02*
X60335D01*
X59842Y195177D02*
Y196161D01*
X59350Y192913D02*
X60335D01*
X59842Y192421D02*
Y193405D01*
X-38287Y46850D02*
X-37303D01*
X-37795Y46358D02*
Y47343D01*
X-80413Y46850D02*
X-79429D01*
X-79921Y46358D02*
Y47343D01*
X99031Y46850D02*
X100016D01*
X99524Y46358D02*
Y47343D01*
X-217680Y161650D02*
X-216696D01*
X-217188Y161158D02*
Y162142D01*
X-205217Y157480D02*
X-204232D01*
X-204724Y156988D02*
Y157972D01*
X-209547Y161024D02*
X-208563D01*
X-209055Y160531D02*
Y161516D01*
X-204429Y161024D02*
X-203445D01*
X-203937Y160531D02*
Y161516D01*
X-204429Y154331D02*
X-203445D01*
X-203937Y153839D02*
Y154823D01*
X-204429Y135827D02*
X-203445D01*
X-203937Y135335D02*
Y136319D01*
X-27264Y300394D02*
X-26280D01*
X-26772Y299902D02*
Y300886D01*
X15256Y81467D02*
X16240D01*
X15748Y80975D02*
Y81959D01*
X29429Y81467D02*
X30413D01*
X29921Y80975D02*
Y81959D01*
X25098Y311882D02*
X26083D01*
X25591Y311390D02*
Y312374D01*
X-59334Y298819D02*
X-58350D01*
X-58842Y298327D02*
Y299311D01*
X-66437Y291716D02*
X-65453D01*
X-65945Y291224D02*
Y292208D01*
X68254Y39594D02*
X69239D01*
X68747Y39102D02*
Y40086D01*
X62143Y39594D02*
X63127D01*
X62635Y39102D02*
Y40086D01*
X27067Y305118D02*
X28051D01*
X27559Y304626D02*
Y305610D01*
X-28051Y292945D02*
X-27067D01*
X-27559Y292453D02*
Y293437D01*
X-46161Y292945D02*
X-45177D01*
X-45669Y292453D02*
Y293437D01*
X-27264Y289370D02*
X-26280D01*
X-26772Y288878D02*
Y289862D01*
X-46161Y289370D02*
X-45177D01*
X-45669Y288878D02*
Y289862D01*
X25492Y53150D02*
X26476D01*
X25984Y52658D02*
Y53642D01*
X12894Y53150D02*
X13878D01*
X13386Y52658D02*
Y53642D01*
X4626Y48819D02*
X5610D01*
X5118Y48327D02*
Y49311D01*
X-17028Y53150D02*
X-16043D01*
X-16535Y52658D02*
Y53642D01*
X-29232Y53150D02*
X-28248D01*
X-28740Y52658D02*
Y53642D01*
X-57185Y47244D02*
X-56201D01*
X-56693Y46752D02*
Y47736D01*
X-71752Y53150D02*
X-70768D01*
X-71260Y52658D02*
Y53642D01*
X-46752Y59449D02*
X-45768D01*
X-46260Y58957D02*
Y59941D01*
X79232Y59449D02*
X80216D01*
X79724Y58957D02*
Y59941D01*
X36909Y59449D02*
X37894D01*
X37402Y58957D02*
Y59941D01*
X-5413Y59449D02*
X-4429D01*
X-4921Y58957D02*
Y59941D01*
X-27067Y95472D02*
X-26083D01*
X-26575Y94980D02*
Y95964D01*
X-83169Y218504D02*
X-82185D01*
X-82677Y218011D02*
Y218996D01*
X-83169Y194881D02*
X-82185D01*
X-82677Y194389D02*
Y195374D01*
X111713Y218898D02*
X112697D01*
X112205Y218406D02*
Y219390D01*
X111713Y202362D02*
X112697D01*
X112205Y201870D02*
Y202854D01*
X94980Y301181D02*
X95965D01*
X95472Y300689D02*
Y301673D01*
X72342Y301181D02*
X73327D01*
X72835Y300689D02*
Y301673D01*
X38484Y317945D02*
X39469D01*
X38976Y317453D02*
Y318437D01*
X27461Y317945D02*
X28445D01*
X27953Y317453D02*
Y318437D01*
X-39469Y317945D02*
X-38484D01*
X-38976Y317453D02*
Y318437D01*
X-28445Y317945D02*
X-27461D01*
X-27953Y317453D02*
Y318437D01*
X38484Y247945D02*
X39469D01*
X38976Y247453D02*
Y248437D01*
X37303Y222048D02*
X38287D01*
X37795Y221555D02*
Y222540D01*
X34154Y207087D02*
X35138D01*
X34646Y206594D02*
Y207579D01*
X-15256Y272945D02*
X-14272D01*
X-14764Y272453D02*
Y273437D01*
X-15256Y223007D02*
X-14272D01*
X-14764Y222515D02*
Y223499D01*
X31225Y223007D02*
X32210D01*
X31718Y222515D02*
Y223499D01*
X40846Y187402D02*
X41831D01*
X41339Y186909D02*
Y187894D01*
X35335Y197638D02*
X36319D01*
X35827Y197146D02*
Y198130D01*
X34154Y201772D02*
X35138D01*
X34646Y201279D02*
Y202264D01*
X40846Y304724D02*
X41831D01*
X41339Y304232D02*
Y305217D01*
X44783Y198228D02*
X45768D01*
X45276Y197736D02*
Y198721D01*
X44783Y277953D02*
X45768D01*
X45276Y277461D02*
Y278445D01*
X-77936Y264764D02*
X-76952D01*
X-77444Y264272D02*
Y265256D01*
X-74355Y96216D02*
X-73370D01*
X-73863Y95724D02*
Y96708D01*
X-186319Y107874D02*
X-185335D01*
X-185827Y107382D02*
Y108366D01*
X-217554Y131174D02*
X-216570D01*
X-217062Y130682D02*
Y131666D01*
X-124114Y141339D02*
X-123130D01*
X-123622Y140847D02*
Y141831D01*
X-188625Y141141D02*
X-187641D01*
X-188133Y140649D02*
Y141633D01*
X-185531Y195669D02*
X-184547D01*
X-185039Y195177D02*
Y196161D01*
X-183169Y194095D02*
X-182185D01*
X-182677Y193602D02*
Y194587D01*
X-185531Y192913D02*
X-184547D01*
X-185039Y192421D02*
Y193405D01*
X-187894Y194095D02*
X-186909D01*
X-187402Y193602D02*
Y194587D01*
X-185531Y154724D02*
X-184547D01*
X-185039Y154232D02*
Y155217D01*
X-185531Y157874D02*
X-184547D01*
X-185039Y157382D02*
Y158366D01*
X-185531Y161024D02*
X-184547D01*
X-185039Y160531D02*
Y161516D01*
X-220965Y268110D02*
X-219980D01*
X-220472Y267618D02*
Y268602D01*
X-213090Y253543D02*
X-212106D01*
X-212598Y253051D02*
Y254035D01*
X23130Y162402D02*
X24114D01*
X23622Y161909D02*
Y162894D01*
X-12303Y299606D02*
X-11319D01*
X-11811Y299114D02*
Y300098D01*
X-33957Y208661D02*
X-32972D01*
X-33465Y208169D02*
Y209154D01*
X-8366Y302756D02*
X-7382D01*
X-7874Y302264D02*
Y303248D01*
X13287Y186448D02*
X14272D01*
X13780Y185955D02*
Y186940D01*
X21043Y312945D02*
X22027D01*
X21535Y312453D02*
Y313437D01*
X9350Y304913D02*
X10335D01*
X9843Y304421D02*
Y305405D01*
X19193Y274567D02*
X20177D01*
X19685Y274075D02*
Y275059D01*
X11319Y276575D02*
X12303D01*
X11811Y276083D02*
Y277067D01*
X5413Y272945D02*
X6398D01*
X5906Y272453D02*
Y273437D01*
X17224Y270170D02*
X18209D01*
X17717Y269678D02*
Y270662D01*
X-4429Y267945D02*
X-3445D01*
X-3937Y267453D02*
Y268437D01*
X-6398Y262945D02*
X-5413D01*
X-5906Y262453D02*
Y263437D01*
X23130Y260280D02*
X24114D01*
X23622Y259788D02*
Y260772D01*
X3445Y257945D02*
X4429D01*
X3937Y257453D02*
Y258437D01*
X13287Y252945D02*
X14272D01*
X13780Y252453D02*
Y253437D01*
X7382Y252945D02*
X8366D01*
X7874Y252453D02*
Y253437D01*
X15256Y242953D02*
X16240D01*
X15748Y242461D02*
Y243445D01*
X1476Y242953D02*
X2461D01*
X1969Y242461D02*
Y243445D01*
X17224Y199409D02*
X18209D01*
X17717Y198917D02*
Y199902D01*
X21043Y197047D02*
X22027D01*
X21535Y196555D02*
Y197539D01*
X-13091Y204134D02*
X-12106D01*
X-12598Y203642D02*
Y204626D01*
X54626Y316142D02*
X55610D01*
X55118Y315650D02*
Y316634D01*
X54626Y319291D02*
X55610D01*
X55118Y318799D02*
Y319783D01*
X45374Y318307D02*
X46358D01*
X45866Y317815D02*
Y318799D01*
X172737Y142717D02*
X173721D01*
X173229Y142225D02*
Y143209D01*
X162894Y109055D02*
X163878D01*
X163386Y108563D02*
Y109547D01*
X158957Y109055D02*
X159941D01*
X159449Y108563D02*
Y109547D01*
X164469Y112992D02*
X165453D01*
X164961Y112500D02*
Y113484D01*
X157382Y112992D02*
X158366D01*
X157874Y112500D02*
Y113484D01*
X90256Y312402D02*
X91240D01*
X90748Y311909D02*
Y312894D01*
X84154Y312008D02*
X85138D01*
X84646Y311516D02*
Y312500D01*
X55610Y298229D02*
X56594D01*
X56102Y297737D02*
Y298721D01*
X-93946Y274065D02*
X-92962D01*
X-93454Y273573D02*
Y274557D01*
X-77264Y256890D02*
X-76280D01*
X-76772Y256398D02*
Y257382D01*
X-19193Y203741D02*
X-18208D01*
X-18700Y203248D02*
Y204233D01*
X-33957Y189960D02*
X-32973D01*
X-33465Y189468D02*
Y190452D01*
X-98917Y218504D02*
X-97933D01*
X-98425Y218011D02*
Y218996D01*
X-98917Y194881D02*
X-97933D01*
X-98425Y194389D02*
Y195374D01*
X-136319Y113976D02*
X-135335D01*
X-135827Y113484D02*
Y114469D01*
X-140256Y113976D02*
X-139272D01*
X-139764Y113484D02*
Y114469D01*
X-144193Y113976D02*
X-143209D01*
X-143701Y113484D02*
Y114469D01*
X-194193Y283858D02*
X-193209D01*
X-193701Y283366D02*
Y284350D01*
X-198327Y130511D02*
X-197343D01*
X-197835Y130019D02*
Y131004D01*
X-192422Y130511D02*
X-191437D01*
X-191929Y130019D02*
Y131004D01*
X-172342Y147637D02*
X-171358D01*
X-171850Y147145D02*
Y148130D01*
X-184351Y128937D02*
X-183367D01*
X-183859Y128445D02*
Y129429D01*
X-187107Y131693D02*
X-186122D01*
X-186615Y131201D02*
Y132185D01*
X-187107Y126181D02*
X-186122D01*
X-186615Y125689D02*
Y126673D01*
X-187107Y128937D02*
X-186122D01*
X-186615Y128445D02*
Y129429D01*
X-184351Y131693D02*
X-183367D01*
X-183859Y131201D02*
Y132185D01*
X-184351Y126181D02*
X-183367D01*
X-183859Y125689D02*
Y126673D01*
X-170965Y131693D02*
X-169980D01*
X-170472Y131201D02*
Y132185D01*
X-170965Y126181D02*
X-169980D01*
X-170472Y125689D02*
Y126673D01*
X-168209Y128937D02*
X-167224D01*
X-167717Y128445D02*
Y129429D01*
X-157185Y128937D02*
X-156201D01*
X-156693Y128445D02*
Y129429D01*
X-162697Y128937D02*
X-161713D01*
X-162205Y128445D02*
Y129429D01*
X-168209Y131693D02*
X-167224D01*
X-167717Y131201D02*
Y132185D01*
X-168209Y126181D02*
X-167224D01*
X-167717Y125689D02*
Y126673D01*
X-170965Y128937D02*
X-169980D01*
X-170472Y128445D02*
Y129429D01*
X-157185Y123425D02*
X-156201D01*
X-156693Y122933D02*
Y123917D01*
X-157185Y126181D02*
X-156201D01*
X-156693Y125689D02*
Y126673D01*
X-157185Y134449D02*
X-156201D01*
X-156693Y133957D02*
Y134941D01*
X-157185Y131693D02*
X-156201D01*
X-156693Y131201D02*
Y132185D01*
X-159941Y128937D02*
X-158957D01*
X-159449Y128445D02*
Y129429D01*
X-165453Y128937D02*
X-164469D01*
X-164961Y128445D02*
Y129429D01*
X-228051Y195276D02*
X-227067D01*
X-227559Y194783D02*
Y195768D01*
X-212894Y207087D02*
X-211910D01*
X-212402Y206594D02*
Y207579D01*
X-197539Y219685D02*
X-196555D01*
X-197047Y219193D02*
Y220177D01*
X-209153Y217126D02*
X-208169D01*
X-208661Y216634D02*
Y217618D01*
X-201673Y245276D02*
X-200689D01*
X-201181Y244783D02*
Y245768D01*
X-199902Y233268D02*
X-198918D01*
X-199410Y232776D02*
Y233760D01*
X-244178Y240921D02*
X-243193D01*
X-243685Y240429D02*
Y241413D01*
M02*
